<svg width="335" height="192" viewBox="0 0 335 192" fill="none" xmlns="http://www.w3.org/2000/svg">
<mask id="mask0_124_7506" style="mask-type:alpha" maskUnits="userSpaceOnUse" x="0" y="0" width="335" height="192">
<rect width="335" height="192" rx="8" fill="#2B0472"/>
</mask>
<g mask="url(#mask0_124_7506)">
<rect width="335" height="192" rx="8" fill="#2B0472"/>
<g opacity="0.15">
<path d="M256.999 151.177C307.355 151.177 348.176 110.355 348.176 59.9997C348.176 9.64408 307.355 -31.1772 256.999 -31.1772C206.644 -31.1772 165.822 9.64408 165.822 59.9997C165.822 110.355 206.644 151.177 256.999 151.177Z" fill="url(#paint0_linear_124_7506)" fill-opacity="0.4"/>
<path d="M224.913 167C266.286 167 299.826 133.46 299.826 92.0869C299.826 50.7135 266.286 17.1738 224.913 17.1738C183.54 17.1738 150 50.7135 150 92.0869C150 133.46 183.54 167 224.913 167Z" fill="url(#paint1_linear_124_7506)" fill-opacity="0.6"/>
<path d="M289.087 102.826C330.46 102.826 364 69.2864 364 27.9131C364 -13.4603 330.46 -47 289.087 -47C247.714 -47 214.174 -13.4603 214.174 27.9131C214.174 69.2864 247.714 102.826 289.087 102.826Z" fill="url(#paint2_linear_124_7506)"/>
</g>
<path d="M21.08 125V117.128H22.076V124.148H25.52V125H21.08ZM28.9473 125.144C28.4753 125.144 28.0313 125.024 27.6153 124.784C27.2073 124.544 26.8753 124.196 26.6193 123.74C26.3713 123.284 26.2473 122.736 26.2473 122.096C26.2473 121.44 26.3713 120.884 26.6193 120.428C26.8753 119.972 27.2073 119.624 27.6153 119.384C28.0313 119.144 28.4753 119.024 28.9473 119.024C29.4273 119.024 29.8713 119.144 30.2793 119.384C30.6873 119.624 31.0153 119.972 31.2633 120.428C31.5193 120.884 31.6473 121.44 31.6473 122.096C31.6473 122.736 31.5193 123.284 31.2633 123.74C31.0153 124.196 30.6873 124.544 30.2793 124.784C29.8713 125.024 29.4273 125.144 28.9473 125.144ZM28.9473 124.328C29.4513 124.328 29.8553 124.124 30.1593 123.716C30.4713 123.3 30.6273 122.76 30.6273 122.096C30.6273 121.424 30.4713 120.88 30.1593 120.464C29.8553 120.048 29.4513 119.84 28.9473 119.84C28.4513 119.84 28.0473 120.048 27.7353 120.464C27.4233 120.88 27.2673 121.424 27.2673 122.096C27.2673 122.76 27.4233 123.3 27.7353 123.716C28.0473 124.124 28.4513 124.328 28.9473 124.328ZM33.1832 125V119.168H33.9992L34.0832 120.224H34.1192C34.3192 119.856 34.5632 119.564 34.8512 119.348C35.1392 119.132 35.4472 119.024 35.7752 119.024C36.0072 119.024 36.2152 119.064 36.3992 119.144L36.2072 120.008C36.1112 119.976 36.0232 119.952 35.9432 119.936C35.8632 119.92 35.7632 119.912 35.6432 119.912C35.3952 119.912 35.1352 120.012 34.8632 120.212C34.5992 120.412 34.3672 120.76 34.1672 121.256V125H33.1832ZM39.5902 125.144C39.0702 125.144 38.5982 125.024 38.1742 124.784C37.7502 124.536 37.4142 124.184 37.1662 123.728C36.9182 123.272 36.7942 122.728 36.7942 122.096C36.7942 121.456 36.9182 120.908 37.1662 120.452C37.4222 119.996 37.7502 119.644 38.1502 119.396C38.5502 119.148 38.9702 119.024 39.4102 119.024C40.1542 119.024 40.7262 119.272 41.1262 119.768C41.5342 120.264 41.7382 120.928 41.7382 121.76C41.7382 121.864 41.7342 121.968 41.7262 122.072C41.7262 122.168 41.7182 122.252 41.7022 122.324H37.7662C37.8062 122.94 37.9982 123.432 38.3422 123.8C38.6942 124.168 39.1502 124.352 39.7102 124.352C39.9902 124.352 40.2462 124.312 40.4782 124.232C40.7182 124.144 40.9462 124.032 41.1622 123.896L41.5102 124.544C41.2622 124.704 40.9782 124.844 40.6582 124.964C40.3462 125.084 39.9902 125.144 39.5902 125.144ZM37.7542 121.616H40.8742C40.8742 121.024 40.7462 120.576 40.4902 120.272C40.2422 119.96 39.8902 119.804 39.4342 119.804C39.0262 119.804 38.6582 119.964 38.3302 120.284C38.0102 120.596 37.8182 121.04 37.7542 121.616ZM43.1793 125V119.168H43.9953L44.0793 120.008H44.1153C44.3713 119.728 44.6513 119.496 44.9553 119.312C45.2593 119.12 45.5833 119.024 45.9273 119.024C46.3753 119.024 46.7233 119.124 46.9713 119.324C47.2273 119.516 47.4153 119.788 47.5353 120.14C47.8393 119.812 48.1473 119.544 48.4593 119.336C48.7713 119.128 49.1033 119.024 49.4553 119.024C50.0553 119.024 50.4993 119.22 50.7873 119.612C51.0833 119.996 51.2313 120.56 51.2313 121.304V125H50.2473V121.436C50.2473 120.892 50.1593 120.496 49.9833 120.248C49.8073 120 49.5353 119.876 49.1673 119.876C48.7353 119.876 48.2473 120.176 47.7033 120.776V125H46.7193V121.436C46.7193 120.892 46.6313 120.496 46.4553 120.248C46.2793 120 46.0033 119.876 45.6273 119.876C45.1953 119.876 44.7073 120.176 44.1633 120.776V125H43.1793ZM55.5309 125V119.168H56.5149V125H55.5309ZM56.0349 117.968C55.8429 117.968 55.6829 117.912 55.5549 117.8C55.4349 117.68 55.3749 117.52 55.3749 117.32C55.3749 117.128 55.4349 116.972 55.5549 116.852C55.6829 116.732 55.8429 116.672 56.0349 116.672C56.2269 116.672 56.3829 116.732 56.5029 116.852C56.6309 116.972 56.6949 117.128 56.6949 117.32C56.6949 117.52 56.6309 117.68 56.5029 117.8C56.3829 117.912 56.2269 117.968 56.0349 117.968ZM58.484 127.46V119.168H59.3L59.384 119.84H59.42C59.684 119.616 59.972 119.424 60.284 119.264C60.604 119.104 60.936 119.024 61.28 119.024C62.032 119.024 62.604 119.296 62.996 119.84C63.388 120.376 63.584 121.096 63.584 122C63.584 122.656 63.464 123.22 63.224 123.692C62.992 124.164 62.684 124.524 62.3 124.772C61.924 125.02 61.512 125.144 61.064 125.144C60.792 125.144 60.52 125.084 60.248 124.964C59.984 124.844 59.716 124.68 59.444 124.472L59.468 125.492V127.46H58.484ZM60.896 124.316C61.376 124.316 61.772 124.112 62.084 123.704C62.404 123.288 62.564 122.72 62.564 122C62.564 121.36 62.444 120.844 62.204 120.452C61.972 120.052 61.58 119.852 61.028 119.852C60.78 119.852 60.528 119.92 60.272 120.056C60.024 120.192 59.756 120.388 59.468 120.644V123.704C59.732 123.928 59.988 124.088 60.236 124.184C60.484 124.272 60.704 124.316 60.896 124.316ZM66.6643 125.144C66.2483 125.144 65.8523 125.068 65.4763 124.916C65.1003 124.756 64.7723 124.564 64.4923 124.34L64.9843 123.68C65.2403 123.88 65.5043 124.048 65.7763 124.184C66.0483 124.312 66.3563 124.376 66.7003 124.376C67.0843 124.376 67.3723 124.288 67.5643 124.112C67.7563 123.928 67.8523 123.712 67.8523 123.464C67.8523 123.264 67.7843 123.096 67.6483 122.96C67.5203 122.824 67.3523 122.712 67.1443 122.624C66.9443 122.528 66.7363 122.44 66.5203 122.36C66.2483 122.256 65.9803 122.14 65.7163 122.012C65.4523 121.876 65.2363 121.704 65.0683 121.496C64.9003 121.28 64.8163 121.008 64.8163 120.68C64.8163 120.208 64.9923 119.816 65.3443 119.504C65.7043 119.184 66.2003 119.024 66.8323 119.024C67.1923 119.024 67.5283 119.088 67.8403 119.216C68.1523 119.344 68.4203 119.5 68.6443 119.684L68.1643 120.308C67.9643 120.156 67.7563 120.032 67.5403 119.936C67.3243 119.84 67.0883 119.792 66.8323 119.792C66.4643 119.792 66.1923 119.876 66.0163 120.044C65.8483 120.212 65.7643 120.408 65.7643 120.632C65.7643 120.816 65.8243 120.968 65.9443 121.088C66.0643 121.2 66.2203 121.3 66.4123 121.388C66.6043 121.468 66.8083 121.552 67.0243 121.64C67.3043 121.744 67.5803 121.864 67.8523 122C68.1243 122.128 68.3483 122.304 68.5243 122.528C68.7083 122.744 68.8003 123.036 68.8003 123.404C68.8003 123.716 68.7163 124.004 68.5483 124.268C68.3883 124.532 68.1483 124.744 67.8283 124.904C67.5163 125.064 67.1283 125.144 66.6643 125.144ZM71.8716 125.144C71.2556 125.144 70.8036 124.952 70.5156 124.568C70.2276 124.176 70.0836 123.608 70.0836 122.864V119.168H71.0796V122.732C71.0796 123.276 71.1636 123.672 71.3316 123.92C71.5076 124.168 71.7876 124.292 72.1716 124.292C72.4756 124.292 72.7436 124.216 72.9756 124.064C73.2156 123.904 73.4716 123.652 73.7436 123.308V119.168H74.7276V125H73.9116L73.8276 124.088H73.7916C73.5196 124.408 73.2316 124.664 72.9276 124.856C72.6236 125.048 72.2716 125.144 71.8716 125.144ZM76.6949 125V119.168H77.5109L77.5949 120.008H77.6309C77.8869 119.728 78.1669 119.496 78.4709 119.312C78.7749 119.12 79.0989 119.024 79.4429 119.024C79.8909 119.024 80.2389 119.124 80.4869 119.324C80.7429 119.516 80.9309 119.788 81.0509 120.14C81.3549 119.812 81.6629 119.544 81.9749 119.336C82.2869 119.128 82.6189 119.024 82.9709 119.024C83.5709 119.024 84.0149 119.22 84.3029 119.612C84.5989 119.996 84.7469 120.56 84.7469 121.304V125H83.7629V121.436C83.7629 120.892 83.6749 120.496 83.4989 120.248C83.3229 120 83.0509 119.876 82.6829 119.876C82.2509 119.876 81.7629 120.176 81.2189 120.776V125H80.2349V121.436C80.2349 120.892 80.1469 120.496 79.9709 120.248C79.7949 120 79.5189 119.876 79.1429 119.876C78.7109 119.876 78.2229 120.176 77.6789 120.776V125H76.6949ZM91.0385 125.144C90.3105 125.144 89.7265 124.88 89.2865 124.352C88.8465 123.816 88.6265 123.064 88.6265 122.096C88.6265 121.464 88.7425 120.92 88.9745 120.464C89.2145 120 89.5265 119.644 89.9105 119.396C90.3025 119.148 90.7185 119.024 91.1585 119.024C91.4945 119.024 91.7865 119.084 92.0345 119.204C92.2825 119.324 92.5345 119.488 92.7905 119.696L92.7425 118.7V116.456H93.7385V125H92.9225L92.8385 124.316H92.8025C92.5785 124.54 92.3145 124.736 92.0105 124.904C91.7065 125.064 91.3825 125.144 91.0385 125.144ZM91.2545 124.316C91.7665 124.316 92.2625 124.048 92.7425 123.512V120.464C92.4945 120.24 92.2545 120.084 92.0225 119.996C91.7985 119.9 91.5665 119.852 91.3265 119.852C91.0145 119.852 90.7305 119.948 90.4745 120.14C90.2265 120.324 90.0265 120.584 89.8745 120.92C89.7225 121.248 89.6465 121.636 89.6465 122.084C89.6465 122.78 89.7865 123.328 90.0665 123.728C90.3465 124.12 90.7425 124.316 91.2545 124.316ZM97.9708 125.144C97.4988 125.144 97.0548 125.024 96.6388 124.784C96.2308 124.544 95.8988 124.196 95.6428 123.74C95.3948 123.284 95.2708 122.736 95.2708 122.096C95.2708 121.44 95.3948 120.884 95.6428 120.428C95.8988 119.972 96.2308 119.624 96.6388 119.384C97.0548 119.144 97.4988 119.024 97.9708 119.024C98.4508 119.024 98.8948 119.144 99.3028 119.384C99.7108 119.624 100.039 119.972 100.287 120.428C100.543 120.884 100.671 121.44 100.671 122.096C100.671 122.736 100.543 123.284 100.287 123.74C100.039 124.196 99.7108 124.544 99.3028 124.784C98.8948 125.024 98.4508 125.144 97.9708 125.144ZM97.9708 124.328C98.4748 124.328 98.8788 124.124 99.1828 123.716C99.4948 123.3 99.6508 122.76 99.6508 122.096C99.6508 121.424 99.4948 120.88 99.1828 120.464C98.8788 120.048 98.4748 119.84 97.9708 119.84C97.4748 119.84 97.0708 120.048 96.7588 120.464C96.4468 120.88 96.2908 121.424 96.2908 122.096C96.2908 122.76 96.4468 123.3 96.7588 123.716C97.0708 124.124 97.4748 124.328 97.9708 124.328ZM103.251 125.144C102.883 125.144 102.615 125.032 102.447 124.808C102.287 124.576 102.207 124.248 102.207 123.824V116.456H103.191V123.896C103.191 124.048 103.219 124.16 103.275 124.232C103.331 124.296 103.395 124.328 103.467 124.328C103.499 124.328 103.527 124.328 103.551 124.328C103.583 124.32 103.627 124.312 103.683 124.304L103.815 125.048C103.751 125.08 103.675 125.104 103.587 125.12C103.499 125.136 103.387 125.144 103.251 125.144ZM107.533 125.144C107.061 125.144 106.617 125.024 106.201 124.784C105.793 124.544 105.461 124.196 105.205 123.74C104.957 123.284 104.833 122.736 104.833 122.096C104.833 121.44 104.957 120.884 105.205 120.428C105.461 119.972 105.793 119.624 106.201 119.384C106.617 119.144 107.061 119.024 107.533 119.024C108.013 119.024 108.457 119.144 108.865 119.384C109.273 119.624 109.601 119.972 109.849 120.428C110.105 120.884 110.233 121.44 110.233 122.096C110.233 122.736 110.105 123.284 109.849 123.74C109.601 124.196 109.273 124.544 108.865 124.784C108.457 125.024 108.013 125.144 107.533 125.144ZM107.533 124.328C108.037 124.328 108.441 124.124 108.745 123.716C109.057 123.3 109.213 122.76 109.213 122.096C109.213 121.424 109.057 120.88 108.745 120.464C108.441 120.048 108.037 119.84 107.533 119.84C107.037 119.84 106.633 120.048 106.321 120.464C106.009 120.88 105.853 121.424 105.853 122.096C105.853 122.76 106.009 123.3 106.321 123.716C106.633 124.124 107.037 124.328 107.533 124.328ZM111.769 125V119.168H112.585L112.669 120.224H112.705C112.905 119.856 113.149 119.564 113.437 119.348C113.725 119.132 114.033 119.024 114.361 119.024C114.593 119.024 114.801 119.064 114.985 119.144L114.793 120.008C114.697 119.976 114.609 119.952 114.529 119.936C114.449 119.92 114.349 119.912 114.229 119.912C113.981 119.912 113.721 120.012 113.449 120.212C113.185 120.412 112.953 120.76 112.753 121.256V125H111.769ZM119.856 125.144C119.44 125.144 119.044 125.068 118.668 124.916C118.292 124.756 117.964 124.564 117.684 124.34L118.176 123.68C118.432 123.88 118.696 124.048 118.968 124.184C119.24 124.312 119.548 124.376 119.892 124.376C120.276 124.376 120.564 124.288 120.756 124.112C120.948 123.928 121.044 123.712 121.044 123.464C121.044 123.264 120.976 123.096 120.84 122.96C120.712 122.824 120.544 122.712 120.336 122.624C120.136 122.528 119.928 122.44 119.712 122.36C119.44 122.256 119.172 122.14 118.908 122.012C118.644 121.876 118.428 121.704 118.26 121.496C118.092 121.28 118.008 121.008 118.008 120.68C118.008 120.208 118.184 119.816 118.536 119.504C118.896 119.184 119.392 119.024 120.024 119.024C120.384 119.024 120.72 119.088 121.032 119.216C121.344 119.344 121.612 119.5 121.836 119.684L121.356 120.308C121.156 120.156 120.948 120.032 120.732 119.936C120.516 119.84 120.28 119.792 120.024 119.792C119.656 119.792 119.384 119.876 119.208 120.044C119.04 120.212 118.956 120.408 118.956 120.632C118.956 120.816 119.016 120.968 119.136 121.088C119.256 121.2 119.412 121.3 119.604 121.388C119.796 121.468 120 121.552 120.216 121.64C120.496 121.744 120.772 121.864 121.044 122C121.316 122.128 121.54 122.304 121.716 122.528C121.9 122.744 121.992 123.036 121.992 123.404C121.992 123.716 121.908 124.004 121.74 124.268C121.58 124.532 121.34 124.744 121.02 124.904C120.708 125.064 120.32 125.144 119.856 125.144ZM123.359 125V119.168H124.343V125H123.359ZM123.863 117.968C123.671 117.968 123.511 117.912 123.383 117.8C123.263 117.68 123.203 117.52 123.203 117.32C123.203 117.128 123.263 116.972 123.383 116.852C123.511 116.732 123.671 116.672 123.863 116.672C124.055 116.672 124.211 116.732 124.331 116.852C124.459 116.972 124.523 117.128 124.523 117.32C124.523 117.52 124.459 117.68 124.331 117.8C124.211 117.912 124.055 117.968 123.863 117.968ZM128.148 125.144C127.524 125.144 127.088 124.964 126.84 124.604C126.6 124.244 126.48 123.776 126.48 123.2V119.972H125.616V119.228L126.528 119.168L126.648 117.536H127.476V119.168H129.048V119.972H127.476V123.212C127.476 123.572 127.54 123.852 127.668 124.052C127.804 124.244 128.04 124.34 128.376 124.34C128.48 124.34 128.592 124.324 128.712 124.292C128.832 124.252 128.94 124.216 129.036 124.184L129.228 124.928C129.068 124.984 128.892 125.032 128.7 125.072C128.516 125.12 128.332 125.144 128.148 125.144ZM134.113 125.144C133.625 125.144 133.217 125 132.889 124.712C132.569 124.416 132.409 124.008 132.409 123.488C132.409 122.848 132.693 122.36 133.261 122.024C133.837 121.68 134.745 121.44 135.985 121.304C135.985 121.056 135.949 120.82 135.877 120.596C135.813 120.372 135.693 120.192 135.517 120.056C135.349 119.912 135.105 119.84 134.785 119.84C134.449 119.84 134.133 119.904 133.837 120.032C133.541 120.16 133.277 120.304 133.045 120.464L132.661 119.78C132.933 119.604 133.265 119.436 133.657 119.276C134.057 119.108 134.489 119.024 134.953 119.024C135.665 119.024 136.181 119.244 136.501 119.684C136.821 120.116 136.981 120.696 136.981 121.424V125H136.165L136.081 124.304H136.045C135.773 124.528 135.473 124.724 135.145 124.892C134.825 125.06 134.481 125.144 134.113 125.144ZM134.401 124.352C134.681 124.352 134.945 124.284 135.193 124.148C135.441 124.012 135.705 123.82 135.985 123.572V121.952C135.017 122.072 134.337 122.252 133.945 122.492C133.561 122.732 133.369 123.04 133.369 123.416C133.369 123.744 133.469 123.984 133.669 124.136C133.869 124.28 134.113 124.352 134.401 124.352ZM138.816 125V119.168H139.632L139.716 120.008H139.752C140.008 119.728 140.288 119.496 140.592 119.312C140.896 119.12 141.22 119.024 141.564 119.024C142.012 119.024 142.36 119.124 142.608 119.324C142.864 119.516 143.052 119.788 143.172 120.14C143.476 119.812 143.784 119.544 144.096 119.336C144.408 119.128 144.74 119.024 145.092 119.024C145.692 119.024 146.136 119.22 146.424 119.612C146.72 119.996 146.868 120.56 146.868 121.304V125H145.884V121.436C145.884 120.892 145.796 120.496 145.62 120.248C145.444 120 145.172 119.876 144.804 119.876C144.372 119.876 143.884 120.176 143.34 120.776V125H142.356V121.436C142.356 120.892 142.268 120.496 142.092 120.248C141.916 120 141.64 119.876 141.264 119.876C140.832 119.876 140.344 120.176 139.8 120.776V125H138.816ZM151.129 125.144C150.609 125.144 150.137 125.024 149.713 124.784C149.289 124.536 148.953 124.184 148.705 123.728C148.457 123.272 148.333 122.728 148.333 122.096C148.333 121.456 148.457 120.908 148.705 120.452C148.961 119.996 149.289 119.644 149.689 119.396C150.089 119.148 150.509 119.024 150.949 119.024C151.693 119.024 152.265 119.272 152.665 119.768C153.073 120.264 153.277 120.928 153.277 121.76C153.277 121.864 153.273 121.968 153.265 122.072C153.265 122.168 153.257 122.252 153.241 122.324H149.305C149.345 122.94 149.537 123.432 149.881 123.8C150.233 124.168 150.689 124.352 151.249 124.352C151.529 124.352 151.785 124.312 152.017 124.232C152.257 124.144 152.485 124.032 152.701 123.896L153.049 124.544C152.801 124.704 152.517 124.844 152.197 124.964C151.885 125.084 151.529 125.144 151.129 125.144ZM149.293 121.616H152.413C152.413 121.024 152.285 120.576 152.029 120.272C151.781 119.96 151.429 119.804 150.973 119.804C150.565 119.804 150.197 119.964 149.869 120.284C149.549 120.596 149.357 121.04 149.293 121.616ZM156.437 125.144C155.813 125.144 155.377 124.964 155.129 124.604C154.889 124.244 154.769 123.776 154.769 123.2V119.972H153.905V119.228L154.817 119.168L154.937 117.536H155.765V119.168H157.337V119.972H155.765V123.212C155.765 123.572 155.829 123.852 155.957 124.052C156.093 124.244 156.329 124.34 156.665 124.34C156.769 124.34 156.881 124.324 157.001 124.292C157.121 124.252 157.229 124.216 157.325 124.184L157.517 124.928C157.357 124.984 157.181 125.032 156.989 125.072C156.805 125.12 156.621 125.144 156.437 125.144ZM158.558 127.04L158.318 126.464C158.662 126.312 158.93 126.108 159.122 125.852C159.314 125.604 159.406 125.32 159.398 125C159.382 125.008 159.362 125.012 159.338 125.012C159.314 125.012 159.294 125.012 159.278 125.012C159.086 125.012 158.918 124.956 158.774 124.844C158.638 124.724 158.57 124.552 158.57 124.328C158.57 124.112 158.642 123.944 158.786 123.824C158.93 123.696 159.102 123.632 159.302 123.632C159.558 123.632 159.758 123.736 159.902 123.944C160.054 124.152 160.13 124.436 160.13 124.796C160.13 125.308 159.99 125.756 159.71 126.14C159.43 126.532 159.046 126.832 158.558 127.04ZM166.433 125.144C165.921 125.144 165.457 125.024 165.041 124.784C164.625 124.544 164.297 124.196 164.057 123.74C163.817 123.284 163.697 122.736 163.697 122.096C163.697 121.44 163.825 120.884 164.081 120.428C164.345 119.972 164.689 119.624 165.113 119.384C165.545 119.144 166.009 119.024 166.505 119.024C166.889 119.024 167.217 119.092 167.489 119.228C167.769 119.364 168.009 119.524 168.209 119.708L167.705 120.356C167.537 120.204 167.357 120.08 167.165 119.984C166.981 119.888 166.773 119.84 166.541 119.84C166.189 119.84 165.873 119.936 165.593 120.128C165.321 120.312 165.105 120.576 164.945 120.92C164.793 121.256 164.717 121.648 164.717 122.096C164.717 122.76 164.881 123.3 165.209 123.716C165.545 124.124 165.981 124.328 166.517 124.328C166.789 124.328 167.041 124.272 167.273 124.16C167.505 124.04 167.709 123.9 167.885 123.74L168.317 124.4C168.053 124.632 167.761 124.816 167.441 124.952C167.121 125.08 166.785 125.144 166.433 125.144ZM171.611 125.144C171.139 125.144 170.695 125.024 170.279 124.784C169.871 124.544 169.539 124.196 169.283 123.74C169.035 123.284 168.911 122.736 168.911 122.096C168.911 121.44 169.035 120.884 169.283 120.428C169.539 119.972 169.871 119.624 170.279 119.384C170.695 119.144 171.139 119.024 171.611 119.024C172.091 119.024 172.535 119.144 172.943 119.384C173.351 119.624 173.679 119.972 173.927 120.428C174.183 120.884 174.311 121.44 174.311 122.096C174.311 122.736 174.183 123.284 173.927 123.74C173.679 124.196 173.351 124.544 172.943 124.784C172.535 125.024 172.091 125.144 171.611 125.144ZM171.611 124.328C172.115 124.328 172.519 124.124 172.823 123.716C173.135 123.3 173.291 122.76 173.291 122.096C173.291 121.424 173.135 120.88 172.823 120.464C172.519 120.048 172.115 119.84 171.611 119.84C171.115 119.84 170.711 120.048 170.399 120.464C170.087 120.88 169.931 121.424 169.931 122.096C169.931 122.76 170.087 123.3 170.399 123.716C170.711 124.124 171.115 124.328 171.611 124.328ZM175.847 125V119.168H176.663L176.747 120.008H176.783C177.063 119.728 177.359 119.496 177.671 119.312C177.983 119.12 178.339 119.024 178.739 119.024C179.355 119.024 179.803 119.22 180.083 119.612C180.371 119.996 180.515 120.56 180.515 121.304V125H179.531V121.436C179.531 120.892 179.443 120.496 179.267 120.248C179.091 120 178.811 119.876 178.427 119.876C178.131 119.876 177.863 119.952 177.623 120.104C177.391 120.256 177.127 120.48 176.831 120.776V125H175.847ZM183.934 125.144C183.518 125.144 183.122 125.068 182.746 124.916C182.37 124.756 182.042 124.564 181.762 124.34L182.254 123.68C182.51 123.88 182.774 124.048 183.046 124.184C183.318 124.312 183.626 124.376 183.97 124.376C184.354 124.376 184.642 124.288 184.834 124.112C185.026 123.928 185.122 123.712 185.122 123.464C185.122 123.264 185.054 123.096 184.918 122.96C184.79 122.824 184.622 122.712 184.414 122.624C184.214 122.528 184.006 122.44 183.79 122.36C183.518 122.256 183.25 122.14 182.986 122.012C182.722 121.876 182.506 121.704 182.338 121.496C182.17 121.28 182.086 121.008 182.086 120.68C182.086 120.208 182.262 119.816 182.614 119.504C182.974 119.184 183.47 119.024 184.102 119.024C184.462 119.024 184.798 119.088 185.11 119.216C185.422 119.344 185.69 119.5 185.914 119.684L185.434 120.308C185.234 120.156 185.026 120.032 184.81 119.936C184.594 119.84 184.358 119.792 184.102 119.792C183.734 119.792 183.462 119.876 183.286 120.044C183.118 120.212 183.034 120.408 183.034 120.632C183.034 120.816 183.094 120.968 183.214 121.088C183.334 121.2 183.49 121.3 183.682 121.388C183.874 121.468 184.078 121.552 184.294 121.64C184.574 121.744 184.85 121.864 185.122 122C185.394 122.128 185.618 122.304 185.794 122.528C185.978 122.744 186.07 123.036 186.07 123.404C186.07 123.716 185.986 124.004 185.818 124.268C185.658 124.532 185.418 124.744 185.098 124.904C184.786 125.064 184.398 125.144 183.934 125.144ZM189.801 125.144C189.281 125.144 188.809 125.024 188.385 124.784C187.961 124.536 187.625 124.184 187.377 123.728C187.129 123.272 187.005 122.728 187.005 122.096C187.005 121.456 187.129 120.908 187.377 120.452C187.633 119.996 187.961 119.644 188.361 119.396C188.761 119.148 189.181 119.024 189.621 119.024C190.365 119.024 190.937 119.272 191.337 119.768C191.745 120.264 191.949 120.928 191.949 121.76C191.949 121.864 191.945 121.968 191.937 122.072C191.937 122.168 191.929 122.252 191.913 122.324H187.977C188.017 122.94 188.209 123.432 188.553 123.8C188.905 124.168 189.361 124.352 189.921 124.352C190.201 124.352 190.457 124.312 190.689 124.232C190.929 124.144 191.157 124.032 191.373 123.896L191.721 124.544C191.473 124.704 191.189 124.844 190.869 124.964C190.557 125.084 190.201 125.144 189.801 125.144ZM187.965 121.616H191.085C191.085 121.024 190.957 120.576 190.701 120.272C190.453 119.96 190.101 119.804 189.645 119.804C189.237 119.804 188.869 119.964 188.541 120.284C188.221 120.596 188.029 121.04 187.965 121.616ZM195.694 125.144C195.182 125.144 194.718 125.024 194.302 124.784C193.886 124.544 193.558 124.196 193.318 123.74C193.078 123.284 192.958 122.736 192.958 122.096C192.958 121.44 193.086 120.884 193.342 120.428C193.606 119.972 193.95 119.624 194.374 119.384C194.806 119.144 195.27 119.024 195.766 119.024C196.15 119.024 196.478 119.092 196.75 119.228C197.03 119.364 197.27 119.524 197.47 119.708L196.966 120.356C196.798 120.204 196.618 120.08 196.426 119.984C196.242 119.888 196.034 119.84 195.802 119.84C195.45 119.84 195.134 119.936 194.854 120.128C194.582 120.312 194.366 120.576 194.206 120.92C194.054 121.256 193.978 121.648 193.978 122.096C193.978 122.76 194.142 123.3 194.47 123.716C194.806 124.124 195.242 124.328 195.778 124.328C196.05 124.328 196.302 124.272 196.534 124.16C196.766 124.04 196.97 123.9 197.146 123.74L197.578 124.4C197.314 124.632 197.022 124.816 196.702 124.952C196.382 125.08 196.046 125.144 195.694 125.144ZM200.582 125.144C199.958 125.144 199.522 124.964 199.274 124.604C199.034 124.244 198.914 123.776 198.914 123.2V119.972H198.05V119.228L198.962 119.168L199.082 117.536H199.91V119.168H201.482V119.972H199.91V123.212C199.91 123.572 199.974 123.852 200.102 124.052C200.238 124.244 200.474 124.34 200.81 124.34C200.914 124.34 201.026 124.324 201.146 124.292C201.266 124.252 201.374 124.216 201.47 124.184L201.662 124.928C201.502 124.984 201.326 125.032 201.134 125.072C200.95 125.12 200.766 125.144 200.582 125.144ZM205 125.144C204.48 125.144 204.008 125.024 203.584 124.784C203.16 124.536 202.824 124.184 202.576 123.728C202.328 123.272 202.204 122.728 202.204 122.096C202.204 121.456 202.328 120.908 202.576 120.452C202.832 119.996 203.16 119.644 203.56 119.396C203.96 119.148 204.38 119.024 204.82 119.024C205.564 119.024 206.136 119.272 206.536 119.768C206.944 120.264 207.148 120.928 207.148 121.76C207.148 121.864 207.144 121.968 207.136 122.072C207.136 122.168 207.128 122.252 207.112 122.324H203.176C203.216 122.94 203.408 123.432 203.752 123.8C204.104 124.168 204.56 124.352 205.12 124.352C205.4 124.352 205.656 124.312 205.888 124.232C206.128 124.144 206.356 124.032 206.572 123.896L206.92 124.544C206.672 124.704 206.388 124.844 206.068 124.964C205.756 125.084 205.4 125.144 205 125.144ZM203.164 121.616H206.284C206.284 121.024 206.156 120.576 205.9 120.272C205.652 119.96 205.3 119.804 204.844 119.804C204.436 119.804 204.068 119.964 203.74 120.284C203.42 120.596 203.228 121.04 203.164 121.616ZM210.308 125.144C209.684 125.144 209.248 124.964 209 124.604C208.76 124.244 208.64 123.776 208.64 123.2V119.972H207.776V119.228L208.688 119.168L208.808 117.536H209.636V119.168H211.208V119.972H209.636V123.212C209.636 123.572 209.7 123.852 209.828 124.052C209.964 124.244 210.2 124.34 210.536 124.34C210.64 124.34 210.752 124.324 210.872 124.292C210.992 124.252 211.1 124.216 211.196 124.184L211.388 124.928C211.228 124.984 211.052 125.032 210.86 125.072C210.676 125.12 210.492 125.144 210.308 125.144ZM214.231 125.144C213.615 125.144 213.163 124.952 212.875 124.568C212.587 124.176 212.443 123.608 212.443 122.864V119.168H213.439V122.732C213.439 123.276 213.523 123.672 213.691 123.92C213.867 124.168 214.147 124.292 214.531 124.292C214.835 124.292 215.103 124.216 215.335 124.064C215.575 123.904 215.831 123.652 216.103 123.308V119.168H217.087V125H216.271L216.187 124.088H216.151C215.879 124.408 215.591 124.664 215.287 124.856C214.983 125.048 214.631 125.144 214.231 125.144ZM219.054 125V119.168H219.87L219.954 120.224H219.99C220.19 119.856 220.434 119.564 220.722 119.348C221.01 119.132 221.318 119.024 221.646 119.024C221.878 119.024 222.086 119.064 222.27 119.144L222.078 120.008C221.982 119.976 221.894 119.952 221.814 119.936C221.734 119.92 221.634 119.912 221.514 119.912C221.266 119.912 221.006 120.012 220.734 120.212C220.47 120.412 220.238 120.76 220.038 121.256V125H219.054ZM22.328 142.144C21.84 142.144 21.432 142 21.104 141.712C20.784 141.416 20.624 141.008 20.624 140.488C20.624 139.848 20.908 139.36 21.476 139.024C22.052 138.68 22.96 138.44 24.2 138.304C24.2 138.056 24.164 137.82 24.092 137.596C24.028 137.372 23.908 137.192 23.732 137.056C23.564 136.912 23.32 136.84 23 136.84C22.664 136.84 22.348 136.904 22.052 137.032C21.756 137.16 21.492 137.304 21.26 137.464L20.876 136.78C21.148 136.604 21.48 136.436 21.872 136.276C22.272 136.108 22.704 136.024 23.168 136.024C23.88 136.024 24.396 136.244 24.716 136.684C25.036 137.116 25.196 137.696 25.196 138.424V142H24.38L24.296 141.304H24.26C23.988 141.528 23.688 141.724 23.36 141.892C23.04 142.06 22.696 142.144 22.328 142.144ZM22.616 141.352C22.896 141.352 23.16 141.284 23.408 141.148C23.656 141.012 23.92 140.82 24.2 140.572V138.952C23.232 139.072 22.552 139.252 22.16 139.492C21.776 139.732 21.584 140.04 21.584 140.416C21.584 140.744 21.684 140.984 21.884 141.136C22.084 141.28 22.328 141.352 22.616 141.352ZM29.0229 142.144C28.2949 142.144 27.7109 141.88 27.2709 141.352C26.8309 140.816 26.6109 140.064 26.6109 139.096C26.6109 138.464 26.7269 137.92 26.9589 137.464C27.1989 137 27.5109 136.644 27.8949 136.396C28.2869 136.148 28.7029 136.024 29.1429 136.024C29.4789 136.024 29.7709 136.084 30.0189 136.204C30.2669 136.324 30.5189 136.488 30.7749 136.696L30.7269 135.7V133.456H31.7229V142H30.9069L30.8229 141.316H30.7869C30.5629 141.54 30.2989 141.736 29.9949 141.904C29.6909 142.064 29.3669 142.144 29.0229 142.144ZM29.2389 141.316C29.7509 141.316 30.2469 141.048 30.7269 140.512V137.464C30.4789 137.24 30.2389 137.084 30.0069 136.996C29.7829 136.9 29.5509 136.852 29.3109 136.852C28.9989 136.852 28.7149 136.948 28.4589 137.14C28.2109 137.324 28.0109 137.584 27.8589 137.92C27.7069 138.248 27.6309 138.636 27.6309 139.084C27.6309 139.78 27.7709 140.328 28.0509 140.728C28.3309 141.12 28.7269 141.316 29.2389 141.316ZM33.6871 142V136.168H34.6711V142H33.6871ZM34.1911 134.968C33.9991 134.968 33.8391 134.912 33.7111 134.8C33.5911 134.68 33.5311 134.52 33.5311 134.32C33.5311 134.128 33.5911 133.972 33.7111 133.852C33.8391 133.732 33.9991 133.672 34.1911 133.672C34.3831 133.672 34.5391 133.732 34.6591 133.852C34.7871 133.972 34.8511 134.128 34.8511 134.32C34.8511 134.52 34.7871 134.68 34.6591 134.8C34.5391 134.912 34.3831 134.968 34.1911 134.968ZM36.6403 144.46V136.168H37.4563L37.5403 136.84H37.5763C37.8403 136.616 38.1283 136.424 38.4403 136.264C38.7603 136.104 39.0923 136.024 39.4363 136.024C40.1883 136.024 40.7603 136.296 41.1523 136.84C41.5443 137.376 41.7403 138.096 41.7403 139C41.7403 139.656 41.6203 140.22 41.3803 140.692C41.1483 141.164 40.8403 141.524 40.4563 141.772C40.0803 142.02 39.6683 142.144 39.2203 142.144C38.9483 142.144 38.6763 142.084 38.4043 141.964C38.1403 141.844 37.8723 141.68 37.6003 141.472L37.6243 142.492V144.46H36.6403ZM39.0523 141.316C39.5323 141.316 39.9283 141.112 40.2403 140.704C40.5603 140.288 40.7203 139.72 40.7203 139C40.7203 138.36 40.6003 137.844 40.3603 137.452C40.1283 137.052 39.7363 136.852 39.1842 136.852C38.9363 136.852 38.6843 136.92 38.4283 137.056C38.1803 137.192 37.9123 137.388 37.6243 137.644V140.704C37.8883 140.928 38.1443 141.088 38.3923 141.184C38.6403 141.272 38.8603 141.316 39.0523 141.316ZM43.2965 142V136.168H44.2805V142H43.2965ZM43.8005 134.968C43.6085 134.968 43.4485 134.912 43.3205 134.8C43.2005 134.68 43.1405 134.52 43.1405 134.32C43.1405 134.128 43.2005 133.972 43.3205 133.852C43.4485 133.732 43.6085 133.672 43.8005 133.672C43.9925 133.672 44.1485 133.732 44.2685 133.852C44.3965 133.972 44.4605 134.128 44.4605 134.32C44.4605 134.52 44.3965 134.68 44.2685 134.8C44.1485 134.912 43.9925 134.968 43.8005 134.968ZM47.7736 142.144C47.3576 142.144 46.9616 142.068 46.5856 141.916C46.2096 141.756 45.8816 141.564 45.6016 141.34L46.0936 140.68C46.3496 140.88 46.6136 141.048 46.8856 141.184C47.1576 141.312 47.4656 141.376 47.8096 141.376C48.1936 141.376 48.4816 141.288 48.6736 141.112C48.8656 140.928 48.9616 140.712 48.9616 140.464C48.9616 140.264 48.8936 140.096 48.7576 139.96C48.6296 139.824 48.4616 139.712 48.2536 139.624C48.0536 139.528 47.8456 139.44 47.6296 139.36C47.3576 139.256 47.0896 139.14 46.8256 139.012C46.5616 138.876 46.3456 138.704 46.1776 138.496C46.0096 138.28 45.9256 138.008 45.9256 137.68C45.9256 137.208 46.1016 136.816 46.4536 136.504C46.8136 136.184 47.3096 136.024 47.9416 136.024C48.3016 136.024 48.6376 136.088 48.9496 136.216C49.2616 136.344 49.5296 136.5 49.7536 136.684L49.2736 137.308C49.0736 137.156 48.8656 137.032 48.6496 136.936C48.4336 136.84 48.1976 136.792 47.9416 136.792C47.5736 136.792 47.3016 136.876 47.1256 137.044C46.9576 137.212 46.8736 137.408 46.8736 137.632C46.8736 137.816 46.9336 137.968 47.0536 138.088C47.1736 138.2 47.3296 138.3 47.5216 138.388C47.7136 138.468 47.9176 138.552 48.1336 138.64C48.4136 138.744 48.6896 138.864 48.9616 139C49.2336 139.128 49.4576 139.304 49.6336 139.528C49.8176 139.744 49.9096 140.036 49.9096 140.404C49.9096 140.716 49.8256 141.004 49.6576 141.268C49.4976 141.532 49.2576 141.744 48.9376 141.904C48.6256 142.064 48.2376 142.144 47.7736 142.144ZM53.581 142.144C53.069 142.144 52.605 142.024 52.189 141.784C51.773 141.544 51.445 141.196 51.205 140.74C50.965 140.284 50.845 139.736 50.845 139.096C50.845 138.44 50.973 137.884 51.229 137.428C51.493 136.972 51.837 136.624 52.261 136.384C52.693 136.144 53.157 136.024 53.653 136.024C54.037 136.024 54.365 136.092 54.637 136.228C54.917 136.364 55.157 136.524 55.357 136.708L54.853 137.356C54.685 137.204 54.505 137.08 54.313 136.984C54.129 136.888 53.921 136.84 53.689 136.84C53.337 136.84 53.021 136.936 52.741 137.128C52.469 137.312 52.253 137.576 52.093 137.92C51.941 138.256 51.865 138.648 51.865 139.096C51.865 139.76 52.029 140.3 52.357 140.716C52.693 141.124 53.129 141.328 53.665 141.328C53.937 141.328 54.189 141.272 54.421 141.16C54.653 141.04 54.857 140.9 55.033 140.74L55.465 141.4C55.201 141.632 54.909 141.816 54.589 141.952C54.269 142.08 53.933 142.144 53.581 142.144ZM56.7496 142V136.168H57.7336V142H56.7496ZM57.2536 134.968C57.0616 134.968 56.9016 134.912 56.7736 134.8C56.6536 134.68 56.5936 134.52 56.5936 134.32C56.5936 134.128 56.6536 133.972 56.7736 133.852C56.9016 133.732 57.0616 133.672 57.2536 133.672C57.4456 133.672 57.6016 133.732 57.7216 133.852C57.8496 133.972 57.9136 134.128 57.9136 134.32C57.9136 134.52 57.8496 134.68 57.7216 134.8C57.6016 134.912 57.4456 134.968 57.2536 134.968ZM59.7028 142V136.168H60.5188L60.6028 137.008H60.6388C60.9188 136.728 61.2148 136.496 61.5268 136.312C61.8388 136.12 62.1948 136.024 62.5948 136.024C63.2108 136.024 63.6588 136.22 63.9388 136.612C64.2268 136.996 64.3708 137.56 64.3708 138.304V142H63.3868V138.436C63.3868 137.892 63.2988 137.496 63.1228 137.248C62.9468 137 62.6668 136.876 62.2828 136.876C61.9868 136.876 61.7188 136.952 61.4788 137.104C61.2468 137.256 60.9828 137.48 60.6868 137.776V142H59.7028ZM68.2333 144.688C67.5213 144.688 66.9413 144.552 66.4933 144.28C66.0453 144.008 65.8213 143.62 65.8213 143.116C65.8213 142.868 65.8973 142.628 66.0493 142.396C66.2013 142.172 66.4093 141.972 66.6733 141.796V141.748C66.5293 141.66 66.4053 141.536 66.3013 141.376C66.2053 141.216 66.1573 141.024 66.1573 140.8C66.1573 140.552 66.2253 140.336 66.3613 140.152C66.4973 139.968 66.6413 139.824 66.7933 139.72V139.672C66.6013 139.512 66.4253 139.296 66.2653 139.024C66.1133 138.752 66.0373 138.444 66.0373 138.1C66.0373 137.676 66.1373 137.308 66.3373 136.996C66.5373 136.684 66.8053 136.444 67.1413 136.276C67.4773 136.108 67.8413 136.024 68.2333 136.024C68.3933 136.024 68.5453 136.04 68.6893 136.072C68.8333 136.096 68.9573 136.128 69.0613 136.168H71.0893V136.924H69.8893C70.0253 137.052 70.1373 137.224 70.2253 137.44C70.3213 137.648 70.3693 137.876 70.3693 138.124C70.3693 138.54 70.2733 138.9 70.0813 139.204C69.8893 139.508 69.6333 139.744 69.3133 139.912C68.9933 140.072 68.6333 140.152 68.2333 140.152C67.9213 140.152 67.6293 140.084 67.3573 139.948C67.2533 140.036 67.1653 140.136 67.0933 140.248C67.0213 140.352 66.9853 140.484 66.9853 140.644C66.9853 140.828 67.0573 140.98 67.2013 141.1C67.3533 141.22 67.6253 141.28 68.0173 141.28H69.1453C69.8253 141.28 70.3333 141.392 70.6693 141.616C71.0133 141.832 71.1853 142.184 71.1853 142.672C71.1853 143.032 71.0653 143.364 70.8253 143.668C70.5853 143.972 70.2453 144.216 69.8053 144.4C69.3653 144.592 68.8413 144.688 68.2333 144.688ZM68.2333 139.492C68.5693 139.492 68.8573 139.368 69.0973 139.12C69.3453 138.864 69.4693 138.524 69.4693 138.1C69.4693 137.676 69.3493 137.344 69.1093 137.104C68.8693 136.864 68.5773 136.744 68.2333 136.744C67.8893 136.744 67.5973 136.864 67.3573 137.104C67.1173 137.344 66.9973 137.676 66.9973 138.1C66.9973 138.524 67.1173 138.864 67.3573 139.12C67.6053 139.368 67.8973 139.492 68.2333 139.492ZM68.3773 144.004C68.9373 144.004 69.3853 143.88 69.7213 143.632C70.0573 143.392 70.2253 143.12 70.2253 142.816C70.2253 142.544 70.1213 142.356 69.9133 142.252C69.7133 142.148 69.4253 142.096 69.0493 142.096H68.0413C67.9293 142.096 67.8053 142.088 67.6693 142.072C67.5413 142.056 67.4133 142.032 67.2853 142C67.0773 142.152 66.9253 142.312 66.8293 142.48C66.7333 142.648 66.6853 142.816 66.6853 142.984C66.6853 143.296 66.8333 143.544 67.1293 143.728C67.4333 143.912 67.8493 144.004 68.3773 144.004ZM77.0785 142.144C76.5585 142.144 76.0865 142.024 75.6625 141.784C75.2385 141.536 74.9025 141.184 74.6545 140.728C74.4065 140.272 74.2825 139.728 74.2825 139.096C74.2825 138.456 74.4065 137.908 74.6545 137.452C74.9105 136.996 75.2385 136.644 75.6385 136.396C76.0385 136.148 76.4585 136.024 76.8985 136.024C77.6425 136.024 78.2145 136.272 78.6145 136.768C79.0225 137.264 79.2265 137.928 79.2265 138.76C79.2265 138.864 79.2225 138.968 79.2145 139.072C79.2145 139.168 79.2065 139.252 79.1905 139.324H75.2545C75.2945 139.94 75.4865 140.432 75.8305 140.8C76.1825 141.168 76.6385 141.352 77.1985 141.352C77.4785 141.352 77.7345 141.312 77.9665 141.232C78.2065 141.144 78.4345 141.032 78.6505 140.896L78.9985 141.544C78.7505 141.704 78.4665 141.844 78.1465 141.964C77.8345 142.084 77.4785 142.144 77.0785 142.144ZM75.2425 138.616H78.3625C78.3625 138.024 78.2345 137.576 77.9785 137.272C77.7305 136.96 77.3785 136.804 76.9225 136.804C76.5145 136.804 76.1465 136.964 75.8185 137.284C75.4985 137.596 75.3065 138.04 75.2425 138.616ZM81.7116 142.144C81.3436 142.144 81.0756 142.032 80.9076 141.808C80.7476 141.576 80.6676 141.248 80.6676 140.824V133.456H81.6516V140.896C81.6516 141.048 81.6796 141.16 81.7356 141.232C81.7916 141.296 81.8556 141.328 81.9276 141.328C81.9596 141.328 81.9876 141.328 82.0116 141.328C82.0436 141.32 82.0876 141.312 82.1436 141.304L82.2756 142.048C82.2116 142.08 82.1356 142.104 82.0476 142.12C81.9596 142.136 81.8476 142.144 81.7116 142.144ZM83.7262 142V136.168H84.7102V142H83.7262ZM84.2302 134.968C84.0382 134.968 83.8782 134.912 83.7502 134.8C83.6302 134.68 83.5702 134.52 83.5702 134.32C83.5702 134.128 83.6302 133.972 83.7502 133.852C83.8782 133.732 84.0382 133.672 84.2302 133.672C84.4222 133.672 84.5782 133.732 84.6982 133.852C84.8262 133.972 84.8902 134.128 84.8902 134.32C84.8902 134.52 84.8262 134.68 84.6982 134.8C84.5782 134.912 84.4222 134.968 84.2302 134.968ZM88.5153 142.144C87.8913 142.144 87.4553 141.964 87.2073 141.604C86.9673 141.244 86.8473 140.776 86.8473 140.2V136.972H85.9833V136.228L86.8953 136.168L87.0153 134.536H87.8433V136.168H89.4153V136.972H87.8433V140.212C87.8433 140.572 87.9073 140.852 88.0353 141.052C88.1713 141.244 88.4073 141.34 88.7433 141.34C88.8473 141.34 88.9593 141.324 89.0793 141.292C89.1993 141.252 89.3073 141.216 89.4033 141.184L89.5953 141.928C89.4353 141.984 89.2593 142.032 89.0673 142.072C88.8833 142.12 88.6993 142.144 88.5153 142.144ZM90.636 144.04L90.396 143.464C90.74 143.312 91.008 143.108 91.2 142.852C91.392 142.604 91.484 142.32 91.476 142C91.46 142.008 91.44 142.012 91.416 142.012C91.392 142.012 91.372 142.012 91.356 142.012C91.164 142.012 90.996 141.956 90.852 141.844C90.716 141.724 90.648 141.552 90.648 141.328C90.648 141.112 90.72 140.944 90.864 140.824C91.008 140.696 91.18 140.632 91.38 140.632C91.636 140.632 91.836 140.736 91.98 140.944C92.132 141.152 92.208 141.436 92.208 141.796C92.208 142.308 92.068 142.756 91.788 143.14C91.508 143.532 91.124 143.832 90.636 144.04ZM97.7307 142.144C97.3147 142.144 96.9187 142.068 96.5427 141.916C96.1667 141.756 95.8387 141.564 95.5587 141.34L96.0507 140.68C96.3067 140.88 96.5707 141.048 96.8427 141.184C97.1147 141.312 97.4227 141.376 97.7667 141.376C98.1507 141.376 98.4387 141.288 98.6307 141.112C98.8227 140.928 98.9187 140.712 98.9187 140.464C98.9187 140.264 98.8507 140.096 98.7147 139.96C98.5867 139.824 98.4187 139.712 98.2107 139.624C98.0107 139.528 97.8027 139.44 97.5867 139.36C97.3147 139.256 97.0467 139.14 96.7827 139.012C96.5187 138.876 96.3027 138.704 96.1347 138.496C95.9667 138.28 95.8827 138.008 95.8827 137.68C95.8827 137.208 96.0587 136.816 96.4107 136.504C96.7707 136.184 97.2667 136.024 97.8987 136.024C98.2587 136.024 98.5947 136.088 98.9067 136.216C99.2187 136.344 99.4867 136.5 99.7107 136.684L99.2307 137.308C99.0307 137.156 98.8227 137.032 98.6067 136.936C98.3907 136.84 98.1547 136.792 97.8987 136.792C97.5307 136.792 97.2587 136.876 97.0827 137.044C96.9147 137.212 96.8307 137.408 96.8307 137.632C96.8307 137.816 96.8907 137.968 97.0107 138.088C97.1307 138.2 97.2867 138.3 97.4787 138.388C97.6707 138.468 97.8747 138.552 98.0907 138.64C98.3707 138.744 98.6467 138.864 98.9187 139C99.1907 139.128 99.4147 139.304 99.5907 139.528C99.7747 139.744 99.8667 140.036 99.8667 140.404C99.8667 140.716 99.7827 141.004 99.6147 141.268C99.4547 141.532 99.2147 141.744 98.8947 141.904C98.5827 142.064 98.1947 142.144 97.7307 142.144ZM103.598 142.144C103.078 142.144 102.606 142.024 102.182 141.784C101.758 141.536 101.422 141.184 101.174 140.728C100.926 140.272 100.802 139.728 100.802 139.096C100.802 138.456 100.926 137.908 101.174 137.452C101.43 136.996 101.758 136.644 102.158 136.396C102.558 136.148 102.978 136.024 103.418 136.024C104.162 136.024 104.734 136.272 105.134 136.768C105.542 137.264 105.746 137.928 105.746 138.76C105.746 138.864 105.742 138.968 105.734 139.072C105.734 139.168 105.726 139.252 105.71 139.324H101.774C101.814 139.94 102.006 140.432 102.35 140.8C102.702 141.168 103.158 141.352 103.718 141.352C103.998 141.352 104.254 141.312 104.486 141.232C104.726 141.144 104.954 141.032 105.17 140.896L105.518 141.544C105.27 141.704 104.986 141.844 104.666 141.964C104.354 142.084 103.998 142.144 103.598 142.144ZM101.762 138.616H104.882C104.882 138.024 104.754 137.576 104.498 137.272C104.25 136.96 103.898 136.804 103.442 136.804C103.034 136.804 102.666 136.964 102.338 137.284C102.018 137.596 101.826 138.04 101.762 138.616ZM109.179 142.144C108.451 142.144 107.867 141.88 107.427 141.352C106.987 140.816 106.767 140.064 106.767 139.096C106.767 138.464 106.883 137.92 107.115 137.464C107.355 137 107.667 136.644 108.051 136.396C108.443 136.148 108.859 136.024 109.299 136.024C109.635 136.024 109.927 136.084 110.175 136.204C110.423 136.324 110.675 136.488 110.931 136.696L110.883 135.7V133.456H111.879V142H111.063L110.979 141.316H110.943C110.719 141.54 110.455 141.736 110.151 141.904C109.847 142.064 109.523 142.144 109.179 142.144ZM109.395 141.316C109.907 141.316 110.403 141.048 110.883 140.512V137.464C110.635 137.24 110.395 137.084 110.163 136.996C109.939 136.9 109.707 136.852 109.467 136.852C109.155 136.852 108.871 136.948 108.615 137.14C108.367 137.324 108.167 137.584 108.015 137.92C107.863 138.248 107.787 138.636 107.787 139.084C107.787 139.78 107.927 140.328 108.207 140.728C108.487 141.12 108.883 141.316 109.395 141.316ZM118.238 142.144C117.51 142.144 116.926 141.88 116.486 141.352C116.046 140.816 115.826 140.064 115.826 139.096C115.826 138.464 115.942 137.92 116.174 137.464C116.414 137 116.726 136.644 117.11 136.396C117.502 136.148 117.918 136.024 118.358 136.024C118.694 136.024 118.986 136.084 119.234 136.204C119.482 136.324 119.734 136.488 119.99 136.696L119.942 135.7V133.456H120.938V142H120.122L120.038 141.316H120.002C119.778 141.54 119.514 141.736 119.21 141.904C118.906 142.064 118.582 142.144 118.238 142.144ZM118.454 141.316C118.966 141.316 119.462 141.048 119.942 140.512V137.464C119.694 137.24 119.454 137.084 119.222 136.996C118.998 136.9 118.766 136.852 118.526 136.852C118.214 136.852 117.93 136.948 117.674 137.14C117.426 137.324 117.226 137.584 117.074 137.92C116.922 138.248 116.846 138.636 116.846 139.084C116.846 139.78 116.986 140.328 117.266 140.728C117.546 141.12 117.942 141.316 118.454 141.316ZM125.17 142.144C124.698 142.144 124.254 142.024 123.838 141.784C123.43 141.544 123.098 141.196 122.842 140.74C122.594 140.284 122.47 139.736 122.47 139.096C122.47 138.44 122.594 137.884 122.842 137.428C123.098 136.972 123.43 136.624 123.838 136.384C124.254 136.144 124.698 136.024 125.17 136.024C125.65 136.024 126.094 136.144 126.502 136.384C126.91 136.624 127.238 136.972 127.486 137.428C127.742 137.884 127.87 138.44 127.87 139.096C127.87 139.736 127.742 140.284 127.486 140.74C127.238 141.196 126.91 141.544 126.502 141.784C126.094 142.024 125.65 142.144 125.17 142.144ZM125.17 141.328C125.674 141.328 126.078 141.124 126.382 140.716C126.694 140.3 126.85 139.76 126.85 139.096C126.85 138.424 126.694 137.88 126.382 137.464C126.078 137.048 125.674 136.84 125.17 136.84C124.674 136.84 124.27 137.048 123.958 137.464C123.646 137.88 123.49 138.424 123.49 139.096C123.49 139.76 123.646 140.3 123.958 140.716C124.27 141.124 124.674 141.328 125.17 141.328ZM134.172 142.144C133.652 142.144 133.18 142.024 132.756 141.784C132.332 141.536 131.996 141.184 131.748 140.728C131.5 140.272 131.376 139.728 131.376 139.096C131.376 138.456 131.5 137.908 131.748 137.452C132.004 136.996 132.332 136.644 132.732 136.396C133.132 136.148 133.552 136.024 133.992 136.024C134.736 136.024 135.308 136.272 135.708 136.768C136.116 137.264 136.32 137.928 136.32 138.76C136.32 138.864 136.316 138.968 136.308 139.072C136.308 139.168 136.3 139.252 136.284 139.324H132.348C132.388 139.94 132.58 140.432 132.924 140.8C133.276 141.168 133.732 141.352 134.292 141.352C134.572 141.352 134.828 141.312 135.06 141.232C135.3 141.144 135.528 141.032 135.744 140.896L136.092 141.544C135.844 141.704 135.56 141.844 135.24 141.964C134.928 142.084 134.572 142.144 134.172 142.144ZM132.336 138.616H135.456C135.456 138.024 135.328 137.576 135.072 137.272C134.824 136.96 134.472 136.804 134.016 136.804C133.608 136.804 133.24 136.964 132.912 137.284C132.592 137.596 132.4 138.04 132.336 138.616ZM137.761 142V136.168H138.745V142H137.761ZM138.265 134.968C138.073 134.968 137.913 134.912 137.785 134.8C137.665 134.68 137.605 134.52 137.605 134.32C137.605 134.128 137.665 133.972 137.785 133.852C137.913 133.732 138.073 133.672 138.265 133.672C138.457 133.672 138.613 133.732 138.733 133.852C138.861 133.972 138.925 134.128 138.925 134.32C138.925 134.52 138.861 134.68 138.733 134.8C138.613 134.912 138.457 134.968 138.265 134.968ZM142.418 142.144C141.802 142.144 141.35 141.952 141.062 141.568C140.774 141.176 140.63 140.608 140.63 139.864V136.168H141.626V139.732C141.626 140.276 141.71 140.672 141.878 140.92C142.054 141.168 142.334 141.292 142.718 141.292C143.022 141.292 143.29 141.216 143.522 141.064C143.762 140.904 144.018 140.652 144.29 140.308V136.168H145.274V142H144.458L144.374 141.088H144.338C144.066 141.408 143.778 141.664 143.474 141.856C143.17 142.048 142.818 142.144 142.418 142.144ZM148.766 142.144C148.35 142.144 147.954 142.068 147.578 141.916C147.202 141.756 146.874 141.564 146.594 141.34L147.086 140.68C147.342 140.88 147.606 141.048 147.878 141.184C148.15 141.312 148.458 141.376 148.802 141.376C149.186 141.376 149.474 141.288 149.666 141.112C149.858 140.928 149.954 140.712 149.954 140.464C149.954 140.264 149.886 140.096 149.75 139.96C149.622 139.824 149.454 139.712 149.246 139.624C149.046 139.528 148.838 139.44 148.622 139.36C148.35 139.256 148.082 139.14 147.818 139.012C147.554 138.876 147.338 138.704 147.17 138.496C147.002 138.28 146.918 138.008 146.918 137.68C146.918 137.208 147.094 136.816 147.446 136.504C147.806 136.184 148.302 136.024 148.934 136.024C149.294 136.024 149.63 136.088 149.942 136.216C150.254 136.344 150.522 136.5 150.746 136.684L150.266 137.308C150.066 137.156 149.858 137.032 149.642 136.936C149.426 136.84 149.19 136.792 148.934 136.792C148.566 136.792 148.294 136.876 148.118 137.044C147.95 137.212 147.866 137.408 147.866 137.632C147.866 137.816 147.926 137.968 148.046 138.088C148.166 138.2 148.322 138.3 148.514 138.388C148.706 138.468 148.91 138.552 149.126 138.64C149.406 138.744 149.682 138.864 149.954 139C150.226 139.128 150.45 139.304 150.626 139.528C150.81 139.744 150.902 140.036 150.902 140.404C150.902 140.716 150.818 141.004 150.65 141.268C150.49 141.532 150.25 141.744 149.93 141.904C149.618 142.064 149.23 142.144 148.766 142.144ZM152.269 142V136.168H153.085L153.169 137.008H153.205C153.461 136.728 153.741 136.496 154.045 136.312C154.349 136.12 154.673 136.024 155.017 136.024C155.465 136.024 155.813 136.124 156.061 136.324C156.317 136.516 156.505 136.788 156.625 137.14C156.929 136.812 157.237 136.544 157.549 136.336C157.861 136.128 158.193 136.024 158.545 136.024C159.145 136.024 159.589 136.22 159.877 136.612C160.173 136.996 160.321 137.56 160.321 138.304V142H159.337V138.436C159.337 137.892 159.249 137.496 159.073 137.248C158.897 137 158.625 136.876 158.257 136.876C157.825 136.876 157.337 137.176 156.793 137.776V142H155.809V138.436C155.809 137.892 155.721 137.496 155.545 137.248C155.369 137 155.093 136.876 154.717 136.876C154.285 136.876 153.797 137.176 153.253 137.776V142H152.269ZM164.486 142.144C164.014 142.144 163.57 142.024 163.154 141.784C162.746 141.544 162.414 141.196 162.158 140.74C161.91 140.284 161.786 139.736 161.786 139.096C161.786 138.44 161.91 137.884 162.158 137.428C162.414 136.972 162.746 136.624 163.154 136.384C163.57 136.144 164.014 136.024 164.486 136.024C164.966 136.024 165.41 136.144 165.818 136.384C166.226 136.624 166.554 136.972 166.802 137.428C167.058 137.884 167.186 138.44 167.186 139.096C167.186 139.736 167.058 140.284 166.802 140.74C166.554 141.196 166.226 141.544 165.818 141.784C165.41 142.024 164.966 142.144 164.486 142.144ZM164.486 141.328C164.99 141.328 165.394 141.124 165.698 140.716C166.01 140.3 166.166 139.76 166.166 139.096C166.166 138.424 166.01 137.88 165.698 137.464C165.394 137.048 164.99 136.84 164.486 136.84C163.99 136.84 163.586 137.048 163.274 137.464C162.962 137.88 162.806 138.424 162.806 139.096C162.806 139.76 162.962 140.3 163.274 140.716C163.586 141.124 163.99 141.328 164.486 141.328ZM170.714 142.144C169.986 142.144 169.402 141.88 168.962 141.352C168.522 140.816 168.302 140.064 168.302 139.096C168.302 138.464 168.418 137.92 168.65 137.464C168.89 137 169.202 136.644 169.586 136.396C169.978 136.148 170.394 136.024 170.834 136.024C171.17 136.024 171.462 136.084 171.71 136.204C171.958 136.324 172.21 136.488 172.466 136.696L172.418 135.7V133.456H173.414V142H172.598L172.514 141.316H172.478C172.254 141.54 171.99 141.736 171.686 141.904C171.382 142.064 171.058 142.144 170.714 142.144ZM170.93 141.316C171.442 141.316 171.938 141.048 172.418 140.512V137.464C172.17 137.24 171.93 137.084 171.698 136.996C171.474 136.9 171.242 136.852 171.002 136.852C170.69 136.852 170.406 136.948 170.15 137.14C169.902 137.324 169.702 137.584 169.55 137.92C169.398 138.248 169.322 138.636 169.322 139.084C169.322 139.78 169.462 140.328 169.742 140.728C170.022 141.12 170.418 141.316 170.93 141.316ZM175.895 142.144C175.695 142.144 175.523 142.076 175.379 141.94C175.243 141.796 175.175 141.616 175.175 141.4C175.175 141.168 175.243 140.984 175.379 140.848C175.523 140.704 175.695 140.632 175.895 140.632C176.087 140.632 176.251 140.704 176.387 140.848C176.531 140.984 176.603 141.168 176.603 141.4C176.603 141.616 176.531 141.796 176.387 141.94C176.251 142.076 176.087 142.144 175.895 142.144Z" fill="#E6DEF8"/>
<circle cx="40" cy="40" r="20" fill="white"/>
<path d="M41.9298 31.0129H31.9312V36.443H41.9298V31.0129Z" fill="#3996FF"/>
<path d="M41.9297 31.0129H36.4996V49H41.9297V31.0129Z" fill="#3996FF"/>
<path d="M45.9761 36.43C47.4756 36.43 48.6912 35.2145 48.6912 33.715C48.6912 32.2156 47.4756 31 45.9761 31C44.4767 31 43.2611 32.2156 43.2611 33.715C43.2611 35.2145 44.4767 36.43 45.9761 36.43Z" fill="#3996FF"/>
<path d="M21.328 94V83.536H24.128C25.728 83.536 26.976 83.968 27.872 84.832C28.768 85.696 29.216 86.992 29.216 88.72C29.216 90.4587 28.7733 91.776 27.888 92.672C27.0027 93.5573 25.7813 94 24.224 94H21.328ZM23.184 92.496H24C25.056 92.496 25.872 92.192 26.448 91.584C27.024 90.9653 27.312 90.0107 27.312 88.72C27.312 87.44 27.024 86.5067 26.448 85.92C25.872 85.3333 25.056 85.04 24 85.04H23.184V92.496ZM34.528 94.192C33.8027 94.192 33.1467 94.032 32.56 93.712C31.9733 93.3813 31.5093 92.912 31.168 92.304C30.8267 91.6853 30.656 90.944 30.656 90.08C30.656 89.2267 30.8267 88.4907 31.168 87.872C31.52 87.2533 31.9733 86.7787 32.528 86.448C33.0827 86.1173 33.664 85.952 34.272 85.952C34.9867 85.952 35.584 86.112 36.064 86.432C36.544 86.7413 36.9067 87.1787 37.152 87.744C37.3973 88.2987 37.52 88.944 37.52 89.68C37.52 90.064 37.4933 90.3627 37.44 90.576H32.448C32.5333 91.2693 32.784 91.808 33.2 92.192C33.616 92.576 34.1387 92.768 34.768 92.768C35.1093 92.768 35.424 92.72 35.712 92.624C36.0107 92.5173 36.304 92.3733 36.592 92.192L37.216 93.344C36.8427 93.5893 36.4267 93.792 35.968 93.952C35.5093 94.112 35.0293 94.192 34.528 94.192ZM32.432 89.328H35.92C35.92 88.72 35.7867 88.2453 35.52 87.904C35.2533 87.552 34.8533 87.376 34.32 87.376C33.8613 87.376 33.4507 87.5467 33.088 87.888C32.736 88.2187 32.5173 88.6987 32.432 89.328ZM41.0374 94L38.3014 86.144H40.1734L41.4214 90.224C41.528 90.608 41.6347 90.9973 41.7414 91.392C41.8587 91.7867 41.9707 92.1867 42.0774 92.592H42.1414C42.2587 92.1867 42.3707 91.7867 42.4774 91.392C42.5947 90.9973 42.7067 90.608 42.8134 90.224L44.0614 86.144H45.8374L43.1654 94H41.0374ZM47.1993 94V86.144H49.0393V94H47.1993ZM48.1273 84.768C47.7966 84.768 47.5299 84.672 47.3273 84.48C47.1246 84.288 47.0233 84.032 47.0233 83.712C47.0233 83.4027 47.1246 83.152 47.3273 82.96C47.5299 82.768 47.7966 82.672 48.1273 82.672C48.4579 82.672 48.7246 82.768 48.9273 82.96C49.1299 83.152 49.2313 83.4027 49.2313 83.712C49.2313 84.032 49.1299 84.288 48.9273 84.48C48.7246 84.672 48.4579 84.768 48.1273 84.768ZM54.6668 94.192C53.9521 94.192 53.3068 94.032 52.7308 93.712C52.1654 93.3813 51.7121 92.912 51.3708 92.304C51.0401 91.6853 50.8748 90.944 50.8748 90.08C50.8748 89.2053 51.0561 88.464 51.4188 87.856C51.7814 87.2373 52.2614 86.768 52.8588 86.448C53.4668 86.1173 54.1174 85.952 54.8108 85.952C55.3121 85.952 55.7494 86.0373 56.1228 86.208C56.4961 86.3787 56.8268 86.5867 57.1148 86.832L56.2188 88.032C56.0161 87.8507 55.8081 87.712 55.5948 87.616C55.3814 87.5093 55.1521 87.456 54.9068 87.456C54.2774 87.456 53.7601 87.696 53.3548 88.176C52.9601 88.656 52.7628 89.2907 52.7628 90.08C52.7628 90.8587 52.9548 91.488 53.3388 91.968C53.7334 92.448 54.2401 92.688 54.8588 92.688C55.1681 92.688 55.4561 92.624 55.7228 92.496C56.0001 92.3573 56.2508 92.1973 56.4748 92.016L57.2268 93.232C56.8641 93.552 56.4588 93.792 56.0108 93.952C55.5628 94.112 55.1148 94.192 54.6668 94.192ZM61.7468 94.192C61.0214 94.192 60.3654 94.032 59.7788 93.712C59.1921 93.3813 58.7281 92.912 58.3868 92.304C58.0454 91.6853 57.8748 90.944 57.8748 90.08C57.8748 89.2267 58.0454 88.4907 58.3868 87.872C58.7388 87.2533 59.1921 86.7787 59.7468 86.448C60.3014 86.1173 60.8828 85.952 61.4908 85.952C62.2054 85.952 62.8028 86.112 63.2828 86.432C63.7628 86.7413 64.1254 87.1787 64.3708 87.744C64.6161 88.2987 64.7388 88.944 64.7388 89.68C64.7388 90.064 64.7121 90.3627 64.6588 90.576H59.6668C59.7521 91.2693 60.0028 91.808 60.4188 92.192C60.8348 92.576 61.3574 92.768 61.9868 92.768C62.3281 92.768 62.6428 92.72 62.9308 92.624C63.2294 92.5173 63.5228 92.3733 63.8108 92.192L64.4348 93.344C64.0614 93.5893 63.6454 93.792 63.1868 93.952C62.7281 94.112 62.2481 94.192 61.7468 94.192ZM59.6508 89.328H63.1388C63.1388 88.72 63.0054 88.2453 62.7388 87.904C62.4721 87.552 62.0721 87.376 61.5388 87.376C61.0801 87.376 60.6694 87.5467 60.3068 87.888C59.9548 88.2187 59.7361 88.6987 59.6508 89.328ZM68.6881 94.192C68.1548 94.192 67.6215 94.0907 67.0881 93.888C66.5548 93.6747 66.0961 93.4133 65.7121 93.104L66.5761 91.92C66.9281 92.1867 67.2801 92.4 67.6321 92.56C67.9841 92.72 68.3575 92.8 68.7521 92.8C69.1788 92.8 69.4935 92.7093 69.6961 92.528C69.8988 92.3467 70.0001 92.1227 70.0001 91.856C70.0001 91.632 69.9148 91.4507 69.7441 91.312C69.5841 91.1627 69.3761 91.0347 69.1201 90.928C68.8641 90.8107 68.5975 90.6987 68.3201 90.592C67.9788 90.464 67.6375 90.3093 67.2961 90.128C66.9655 89.936 66.6935 89.696 66.4801 89.408C66.2668 89.1093 66.1601 88.7413 66.1601 88.304C66.1601 87.6107 66.4161 87.0453 66.9281 86.608C67.4401 86.1707 68.1335 85.952 69.0081 85.952C69.5628 85.952 70.0588 86.048 70.4961 86.24C70.9335 86.432 71.3121 86.6507 71.6321 86.896L70.7841 88.016C70.5068 87.8133 70.2241 87.6533 69.9361 87.536C69.6588 87.408 69.3655 87.344 69.0561 87.344C68.6615 87.344 68.3681 87.4293 68.1761 87.6C67.9841 87.76 67.8881 87.9627 67.8881 88.208C67.8881 88.5173 68.0481 88.752 68.3681 88.912C68.6881 89.072 69.0615 89.2267 69.4881 89.376C69.8508 89.504 70.2028 89.664 70.5441 89.856C70.8855 90.0373 71.1681 90.2773 71.3921 90.576C71.6268 90.8747 71.7441 91.2693 71.7441 91.76C71.7441 92.432 71.4828 93.008 70.9601 93.488C70.4375 93.9573 69.6801 94.192 68.6881 94.192Z" fill="white"/>
</g>
<defs>
<linearGradient id="paint0_linear_124_7506" x1="282.801" y1="147.476" x2="231.201" y2="-27.4694" gradientUnits="userSpaceOnUse">
<stop stop-color="white"/>
<stop offset="0.12" stop-color="white"/>
<stop offset="0.31" stop-color="white"/>
<stop offset="0.52" stop-color="white"/>
<stop offset="0.76" stop-color="white"/>
<stop offset="1" stop-color="white"/>
</linearGradient>
<linearGradient id="paint1_linear_124_7506" x1="246.106" y1="163.951" x2="203.718" y2="20.216" gradientUnits="userSpaceOnUse">
<stop stop-color="white"/>
<stop offset="0.02" stop-color="white" stop-opacity="0.96"/>
<stop offset="0.23" stop-color="white" stop-opacity="0.68"/>
<stop offset="0.43" stop-color="white" stop-opacity="0.43"/>
<stop offset="0.61" stop-color="white" stop-opacity="0.25"/>
<stop offset="0.76" stop-color="white" stop-opacity="0.11"/>
<stop offset="0.9" stop-color="white" stop-opacity="0.03"/>
<stop offset="0.99" stop-color="white" stop-opacity="0"/>
</linearGradient>
<linearGradient id="paint2_linear_124_7506" x1="310.286" y1="99.7718" x2="267.888" y2="-43.9541" gradientUnits="userSpaceOnUse">
<stop offset="0.01" stop-color="white" stop-opacity="0"/>
<stop offset="0.1" stop-color="white" stop-opacity="0.03"/>
<stop offset="0.24" stop-color="white" stop-opacity="0.11"/>
<stop offset="0.39" stop-color="white" stop-opacity="0.25"/>
<stop offset="0.57" stop-color="white" stop-opacity="0.43"/>
<stop offset="0.77" stop-color="white" stop-opacity="0.68"/>
<stop offset="0.98" stop-color="white" stop-opacity="0.96"/>
<stop offset="1" stop-color="white"/>
</linearGradient>
</defs>
</svg>
