<svg width="221" height="236" viewBox="0 0 221 236" fill="none" xmlns="http://www.w3.org/2000/svg">
<path opacity="0.53" d="M49.8489 218.432C61.9713 225.43 77.4162 230.197 94.2304 232.128C111.045 234.059 128.473 233.068 144.312 229.28C160.15 225.492 173.688 219.078 183.213 210.848C192.737 202.618 197.821 192.943 197.821 183.045C197.821 173.147 192.737 163.471 183.213 155.241C173.688 147.012 160.15 140.597 144.312 136.809C128.473 133.022 111.045 132.031 94.2304 133.962C77.4162 135.893 61.9713 140.659 49.8489 147.658C33.5932 157.043 24.4609 169.772 24.4609 183.045C24.4609 196.317 33.5933 209.046 49.8489 218.432Z" fill="#3C089F"/>
<path d="M118.183 122.737L109.844 121.116L103.138 121.366L102.194 120.517C102.194 120.517 98.3804 118.444 95.8326 121.278L85.9966 119.366L93.0347 117.406L93.658 114.198L93.6995 113.984L95.6526 103.935L81.3261 101.15L80.1739 101.37L79.6155 100.818L76.5449 101.775L65.5748 103.415L52.6966 92.0364L43.9298 90.3327L41.8936 100.81C41.6859 101.879 42.375 102.901 43.4917 104.006C44.65 104.896 46.0637 105.615 47.5189 106.12C48.5465 106.541 49.3603 106.921 49.9602 107.26L47.7033 108.596L43.1653 106.827L35.6874 106.483L33.7344 116.533L47.7708 128.803C47.7708 128.803 52.0119 130.958 54.4705 127.442C54.8505 126.628 55.6582 125.897 57.1074 125.291C57.3628 125.119 57.7904 125.202 58.0458 125.03L56.0928 135.08C55.9681 135.721 56.3127 136.232 56.3127 136.232L70.3491 148.501L87.9591 142.382C87.9591 142.382 92.6988 141.972 93.6614 146.153C93.7566 147.947 95.5625 150.073 99.756 151.331C104.971 151.901 107.911 150.475 108.113 148.295L110.024 138.459L104.375 136.696L116.272 132.573L118.183 122.737Z" fill="#5600D6"/>
<path d="M70.2653 148.929L70.0515 148.887L55.8012 136.576C55.8012 136.576 55.2844 135.81 55.4506 134.955L57.1959 125.974C57.1959 125.974 57.1959 125.974 56.982 125.933C55.7883 126.366 55.0221 126.883 54.8559 127.738L54.8143 127.952C52.1004 131.641 47.9901 129.955 47.3901 129.616L47.1763 129.575L47.004 129.319L32.7538 117.008L32.8369 116.58L34.873 106.103L35.3007 106.186L42.9924 106.571L43.2062 106.613L47.3165 108.299L48.5519 107.652C48.1658 107.355 47.5243 107.23 46.9244 106.892C45.2137 106.559 43.8416 105.627 42.6833 104.736C41.3528 103.59 40.7052 102.354 40.9545 101.071L43.0322 90.3801L43.3291 89.994L43.5429 90.0355L52.5237 91.7808L52.696 92.0362L65.4018 103.16L76.1166 101.691L79.4425 100.562L80.0009 101.115L81.1532 100.895L96.1211 103.804L95.9964 104.445L94.0434 114.495L94.0019 114.709L93.337 118.13L92.8678 118.261L87.9619 119.526L95.232 120.939C97.9936 118.147 102.021 120.261 102.021 120.261L102.793 120.855L109.499 120.605L118.479 122.35L118.355 122.992L116.36 133.255L116.105 133.428L105.871 136.987L110.493 138.328L110.409 138.756L108.373 149.234C107.744 151.33 104.804 152.756 99.5891 152.187C95.3956 150.928 93.1621 148.719 93.15 146.497C92.2765 142.999 88.4752 143.148 88.0476 143.065L70.2653 148.929ZM56.8227 135.887L70.4731 147.86L87.8277 141.912C87.8277 141.912 93.0366 141.371 94.0884 146.236L94.0469 146.45C94.0114 147.774 95.6034 149.859 99.7968 151.117C104.756 151.859 107.269 150.35 107.387 148.598L107.512 147.957L109.257 138.976L103.609 137.213L103.561 136.316L115.457 132.192L117.244 122.998L109.546 121.502L102.627 121.711L101.682 120.861C101.296 120.564 98.2135 119.3 96.0042 121.533L95.7488 121.705L95.535 121.664L85.2713 119.669L85.2237 118.772L85.6929 118.642L92.4756 116.853L93.0158 114.073L93.0574 113.86L94.9273 104.237L81.4562 101.619L80.0901 101.798L79.5317 101.245L77.1441 102.113L77.1026 102.327L76.6749 102.244L65.491 103.843L65.2771 103.801L52.3575 92.6361L44.2321 91.0571L42.3206 100.893C42.1544 101.748 42.6297 102.728 43.5741 103.578C44.5186 104.427 45.9323 105.145 47.4291 105.436C48.4567 105.858 49.2704 106.238 50.0842 106.618L50.8979 106.998L47.6195 109.024L42.8677 107.213L35.8175 106.952L34.0307 116.147L47.681 128.119C48.0671 128.416 51.5359 129.978 53.6976 126.848C54.1192 125.82 55.1823 124.917 56.5899 124.525C57.0591 124.394 57.3145 124.222 57.7421 124.305L58.4252 124.216L56.3475 134.907C56.692 135.418 56.8227 135.887 56.8227 135.887Z" fill="#0F0225"/>
<path d="M95.151 105.389L93.4473 114.156L90.9705 114.341L85.9218 112.916L83.0468 110.582L82.904 107.891L83.1178 107.933L84.9886 106.299L88.6592 105.681L92.8465 105.829L95.3172 104.534L95.151 105.389Z" fill="#0F0225"/>
<path d="M62.4754 114.795L61.3232 115.015L58.591 115.372L56.6311 116.322L55.1464 118.253L54.0418 119.37L51.7373 119.809L49.8129 119.435L47.8598 129.485L51.4473 129.295L54.1734 127.827L56.8518 125.463L57.7011 124.519L60.7302 123.776L62.4754 114.795Z" fill="#0F0225"/>
<path d="M72.3851 138.023L70.4321 148.073L85.3991 142.993L88.4697 142.036L90.4227 131.986L72.3851 138.023Z" fill="#0F0225"/>
<path d="M99.5742 140.866L97.6212 150.916L103.222 151.782L107.611 149.75L108.282 147.44L109.653 140.384L106.286 141.726L102.74 141.703L99.5742 140.866Z" fill="#0F0225"/>
<path d="M101.056 130.946L105.553 132.93L108.552 134.622L116.143 132.103L118.096 122.053L104.067 126.872L100.996 127.828L100.147 128.773L100.367 129.925L101.056 130.946Z" fill="#0F0225"/>
<path d="M96.1316 136.869L95.0625 136.661L93.0679 146.925L94.1371 147.132L96.1316 136.869Z" fill="#0F0225"/>
<path d="M50.368 96.022L49.2988 95.8143L48.0107 102.443L49.0798 102.651L50.368 96.022Z" fill="#0F0225"/>
<path d="M145.503 150.014L145.586 149.586C146.697 149.58 147.594 149.533 148.318 149.23C149.981 148.665 150.872 147.507 151.08 146.438L152.991 136.602L148.234 133.68L136.557 138.956L116.404 133.042L115.804 132.704L115.334 132.834L112.81 132.122L102.76 130.169L99.5528 129.545L97.1842 141.734L86.0652 139.573L75.4691 139.289L72.0894 138.41L70.1364 148.46L78.892 155.931L78.9396 156.828L73.7247 156.258L71.7717 166.308C71.3977 168.233 73.3343 170.828 78.4246 172.039C82.7842 172.443 85.2549 171.147 86.015 169.52C88.5151 165.79 92.7146 168.159 92.7146 168.159L106.751 180.429L124.361 174.309C124.361 174.309 124.872 173.964 124.955 173.537L124.996 173.323L126.949 163.273C127.336 163.57 127.549 163.612 127.722 163.867C128.88 164.758 129.355 165.738 129.361 166.848C130.282 171.244 135.064 170.619 135.064 170.619L152.674 164.5L154.627 154.45L145.503 150.014Z" fill="#5600D6"/>
<path d="M106.882 180.897L106.709 180.642L92.8452 168.628C92.4591 168.331 88.9903 166.769 86.8286 169.899C85.9854 171.954 82.8732 173.125 78.7274 172.763C73.6371 171.552 71.4867 168.915 71.4331 166.907L71.5577 166.266L73.5938 155.788L74.0215 155.872L78.595 156.317L69.8393 148.846L69.9224 148.418L71.917 138.154L72.4278 137.81L72.6416 137.851L76.0213 138.73L86.6174 139.014L97.3088 141.092L99.6773 128.903L100.319 129.028L113.576 131.604L115.887 132.275L116.356 132.145L116.914 132.697L136.64 138.527L148.316 133.252L148.53 133.293L153.716 136.298L153.633 136.726L151.638 146.989C151.389 148.272 150.326 149.175 148.663 149.74C148.194 149.871 147.511 149.96 147.041 150.09L155.351 154.146L155.268 154.574L153.273 164.838L153.018 165.01L135.408 171.129C135.194 171.088 130.199 171.671 129.147 166.806L129.189 166.592C129.141 165.695 128.624 164.929 127.894 164.122C127.894 164.122 127.894 164.122 127.68 164.08L125.893 173.275L125.852 173.489C125.727 174.13 125.175 174.688 124.961 174.647L124.747 174.605L106.882 180.897ZM93.2668 167.6L106.917 179.573L124.058 173.584C124.058 173.584 124.313 173.411 124.396 172.984L124.438 172.77L126.516 162.079L127.116 162.417C127.288 162.672 127.715 162.756 128.102 163.053C129.26 163.943 129.907 165.179 129.913 166.289C130.787 169.788 134.588 169.639 135.016 169.722L152.157 163.733L153.985 154.325L144.648 149.847L145.325 148.647L145.538 148.689C146.649 148.683 147.332 148.594 148.271 148.332C149.678 147.94 150.527 146.996 150.521 145.885L150.646 145.243L152.391 136.263L148.323 134.362L136.901 139.466L136.688 139.424L116.32 133.469L116.148 133.214L115.893 133.386L113.368 132.673L100.752 130.222L98.3839 142.41L97.7425 142.285L86.6234 140.125L75.8135 139.799L72.8614 139.003L71.0746 148.198L79.6165 155.627L79.7117 157.421L74.2829 156.81L72.5377 165.791L72.413 166.432C72.0806 168.143 73.8864 170.269 78.7214 171.652C83.081 172.056 85.1241 170.678 85.5872 169.436L85.6288 169.222C88.1289 165.492 92.453 167.22 93.053 167.558L93.2668 167.6Z" fill="#0F0225"/>
<path d="M146.334 130.871C141.975 130.467 139.504 131.762 138.744 133.39C136.244 137.12 132.044 134.751 132.044 134.751L118.008 122.481L100.398 128.601C100.398 128.601 97.5471 130.71 104.182 133.108C107.134 133.904 109.664 135.727 110.063 138.246C108.335 142.57 100.471 141.929 96.8234 139.001C95.6651 138.11 95.1898 137.13 95.1838 136.02C94.2627 131.625 89.4814 132.249 89.4814 132.249L71.913 138.155L85.9909 150.21C85.9909 150.21 87.8444 153.233 80.7941 152.973C77.759 152.605 74.73 153.348 73.4176 155.533C73.4002 160.19 80.9318 162.541 85.41 161.193C86.8177 160.8 87.6254 160.07 88.047 159.042C90.5471 155.312 94.7466 157.681 94.7466 157.681L108.783 169.951L126.393 163.831C126.393 163.831 129.244 161.722 122.609 159.323C119.657 158.528 117.127 156.705 116.728 154.186C118.456 149.862 126.32 150.503 129.967 153.431C131.126 154.321 131.601 155.301 131.607 156.412C132.528 160.807 137.309 160.183 137.309 160.183L154.878 154.277L140.8 142.222C140.8 142.222 138.946 139.199 145.997 139.459C147.494 139.75 149.073 139.613 150.523 139.007C155.001 137.659 153.949 132.794 146.334 130.871Z" fill="white"/>
<path d="M108.83 170.847L108.658 170.591L94.5802 158.536C93.9803 158.197 90.6837 156.891 88.5636 159.807C88.142 160.835 87.0789 161.738 85.6713 162.13C82.6007 163.087 78.2826 162.47 75.5383 160.605C73.7801 159.376 72.9603 157.885 73.0789 156.133L73.1205 155.919L73.162 155.705C74.516 153.305 77.5866 152.349 81.0494 152.8C84.7676 153.078 85.6168 152.134 85.6999 151.706C85.9968 151.32 85.8246 151.065 85.6523 150.809L71.6159 138.54L71.7405 137.898L89.5644 131.82C89.7782 131.862 95.0287 131.107 96.0805 135.971L96.0389 136.185C96.0866 137.082 96.6033 137.848 97.334 138.656C99.3952 140.61 103.458 141.399 106.273 140.615C107.425 140.395 108.875 139.789 109.635 138.162C109.236 135.643 106.409 134.206 104.099 133.535C100.974 132.484 99.4299 131.297 99.2515 129.931C99.2039 129.034 99.7978 128.261 100.053 128.089L100.267 128.131L118.091 122.053L118.263 122.308L132.127 134.322C132.513 134.619 135.982 136.181 138.144 133.051C138.987 130.995 142.099 129.825 146.245 130.187C151.294 131.612 153.272 133.993 153.367 135.787C153.504 137.367 152.358 138.697 150.226 139.393C148.818 139.785 147.238 139.922 145.486 139.803C141.768 139.524 140.918 140.469 140.835 140.896C140.538 141.282 140.711 141.538 140.883 141.793L154.919 154.063L154.795 154.704L154.539 154.876L136.971 160.782C136.757 160.741 131.548 161.282 130.455 156.631L130.496 156.417C130.449 155.521 129.932 154.754 129.201 153.947C127.14 151.993 123.077 151.203 120.262 151.988C119.11 152.208 117.661 152.814 116.9 154.441C117.299 156.959 120.126 158.396 122.437 159.067C125.561 160.118 127.105 161.306 127.284 162.672C127.331 163.569 126.737 164.341 126.482 164.513L126.268 164.472L108.83 170.847ZM95.2157 157.55L108.866 169.522L126.007 163.533C126.048 163.32 126.304 163.147 126.387 162.72C126.256 162.25 125.781 161.271 122.27 159.923C118.677 159.002 116.443 156.793 116.045 154.275L116.087 154.061C116.633 152.392 118.165 151.358 120.256 150.877C123.499 150.176 127.775 151.007 130.223 153.258C131.381 154.148 132.029 155.384 132.035 156.494C132.908 159.993 136.709 159.844 137.137 159.927L153.767 154.283L140.503 142.607C140.372 142.138 139.855 141.372 140.449 140.599C141.126 139.4 143.003 138.877 146.293 139.072C147.79 139.363 149.37 139.226 150.564 138.793C152.013 138.187 152.862 137.242 152.856 136.132C152.892 134.807 151.086 132.681 146.679 131.381C142.319 130.977 140.276 132.355 139.813 133.597L139.771 133.811C137.354 137.113 133.761 136.193 132.347 135.474L132.133 135.433L131.919 135.391L118.269 123.419L101.128 129.408C101.087 129.621 100.831 129.794 100.748 130.221C100.879 130.691 101.354 131.671 104.865 133.018C108.458 133.939 110.692 136.148 111.09 138.666L111.048 138.88L111.007 139.094C110.502 140.549 108.928 141.797 107.051 142.32C103.809 143.021 99.532 142.19 97.0847 139.939C95.9264 139.048 95.2788 137.813 95.2728 136.702C94.3993 133.204 90.598 133.353 90.1704 133.27L73.5403 138.914L86.8045 150.59C86.9352 151.059 87.4521 151.825 86.8582 152.597C86.1812 153.797 84.3044 154.32 81.0139 154.124C78.6202 153.881 75.4604 154.154 74.148 156.34C74.071 157.879 75.4016 159.025 76.3876 159.66C78.918 161.483 82.8085 162.018 85.4099 161.192C86.6037 160.758 87.3698 160.241 87.536 159.386L87.5776 159.172C90.2916 155.483 94.3603 157.384 95.0018 157.508L95.2157 157.55Z" fill="#0F0225"/>
<path d="M80.8432 161.858L78.8902 171.908L81.7531 172.021L85.0791 170.892L86.5222 169.175L88.3514 167.755L90.8282 167.571L91.8973 167.779L93.8503 157.729L92.5674 157.479L90.2629 157.919L88.986 158.781L87.2459 160.883L84.5614 162.137L80.8432 161.858Z" fill="#0F0225"/>
<path d="M108.957 170.206L107.004 180.256L124.911 173.75L127.25 163.997L125.415 164.306L108.957 170.206Z" fill="#0F0225"/>
<path d="M125.218 151.62L123.598 159.959L119.874 158.569L116.82 154.869L117.616 151.917L121.797 150.955L125.218 151.62Z" fill="#0F0225"/>
<path d="M134.875 160.153L132.922 170.203L135.102 170.405L152.671 164.499L154.624 154.449L138.421 160.176L134.875 160.153Z" fill="#0F0225"/>
<path d="M152.567 137.629L150.911 147.292L148.53 149.271L140.802 142.221L140.623 140.855L142.625 139.691L147.067 139.667L151.421 138.959L152.567 137.629Z" fill="#0F0225"/>
<path d="M131.995 156.708L130.926 156.501L128.973 166.55L130.042 166.758L131.995 156.708Z" fill="#0F0225"/>
<path d="M107.136 133.903L106.066 133.695L104.487 141.821L105.557 142.029L107.136 133.903Z" fill="#0F0225"/>
<path d="M100.616 128.642L118.184 122.736L104.106 110.681C104.106 110.681 99.8651 108.525 97.4065 112.042C96.6464 113.669 94.1757 114.964 89.816 114.561C82.2014 112.637 81.3634 107.814 85.8832 106.252C87.2908 105.86 88.8707 105.723 90.409 105.8C97.4593 106.06 95.6058 103.037 95.6058 103.037L81.5694 90.7679L63.9594 96.8875C63.9594 96.8875 59.2197 97.2978 58.2571 93.1165C58.1618 91.3228 56.356 89.1966 52.1626 87.9379C44.3817 86.8696 41.7984 91.0276 45.4041 94.1692C46.5624 95.06 47.9761 95.7785 49.4313 96.2832C56.066 98.6821 53.2152 100.791 53.2152 100.791L35.6468 106.697L49.7247 118.752C49.7247 118.752 53.9658 120.908 56.4244 117.392C57.1845 115.764 59.6552 114.469 64.0148 114.872C71.6295 116.796 72.4675 121.619 67.9477 123.181C66.5401 123.573 64.9602 123.71 63.4218 123.633C56.3716 123.373 58.225 126.396 58.225 126.396L72.2614 138.665L89.8714 132.546C89.8714 132.546 94.6111 132.135 95.5738 136.317C95.669 138.11 97.4749 140.236 101.668 141.495C109.449 142.563 112.032 138.405 108.427 135.264C107.269 134.373 105.855 133.655 104.4 133.15C97.7649 130.751 100.616 128.642 100.616 128.642Z" fill="white"/>
<path d="M72.1768 139.093L72.0045 138.837L57.9681 126.568C57.8374 126.098 57.3206 125.332 57.9144 124.56C58.5914 123.36 60.4682 122.837 63.7587 123.033C65.2555 123.324 66.8354 123.187 68.0292 122.753C69.4784 122.147 70.3277 121.203 70.3216 120.092C70.3571 118.768 68.5512 116.642 64.144 115.341C59.7843 114.938 57.7413 116.316 57.2781 117.557L57.2366 117.771C54.4811 121.674 50.0262 119.477 49.8124 119.435L49.5985 119.394L35.3483 107.083L35.473 106.441L35.7284 106.269L53.083 100.321C53.1245 100.108 53.3799 99.9353 53.463 99.5077C53.3323 99.0385 52.857 98.0585 49.3466 96.7106C47.636 96.3782 46.2639 95.4458 45.1056 94.555C43.6027 93.1534 43.0383 91.4904 43.543 90.0352C44.3031 88.4077 47.0707 86.7265 52.2441 87.51C56.4376 88.7687 58.6711 90.9779 58.6832 93.1993C59.5567 96.6976 63.358 96.5487 63.7856 96.6318L81.6094 90.5538L81.7817 90.8091L95.8181 103.079C95.9489 103.548 96.4657 104.314 95.8718 105.086C95.1948 106.286 93.318 106.809 90.0275 106.613C88.5307 106.322 86.9508 106.459 85.757 106.893C84.3078 107.499 83.4586 108.443 83.4646 109.554C83.4291 110.879 85.235 113.005 89.6422 114.305C94.0019 114.708 96.0449 113.33 96.5081 112.089L96.5496 111.875C99.3051 107.972 103.76 110.17 103.974 110.211L104.188 110.253L118.438 122.564L118.313 123.205L100.703 129.325C100.662 129.539 100.406 129.711 100.323 130.139C100.454 130.608 100.929 131.588 104.44 132.936C106.15 133.268 107.522 134.2 108.681 135.091C110.183 136.493 110.748 138.156 110.243 139.611C109.483 141.239 106.716 142.92 101.542 142.136C97.3487 140.878 95.1152 138.668 95.103 136.447C94.2296 132.949 90.4283 133.098 90.0006 133.014L72.1768 139.093ZM58.7758 125.837L72.4261 137.81L89.7807 131.862L89.9946 131.904C90.6776 131.815 95.1619 131.577 96.2553 136.227L96.2137 136.441C96.1782 137.765 97.7703 139.85 101.964 141.109C106.496 141.768 108.966 140.472 109.471 139.017C109.893 137.99 109.459 136.796 108.342 135.691C107.398 134.842 105.984 134.123 104.487 133.833C101.363 132.782 99.8185 131.594 99.6402 130.228C99.5926 129.331 100.186 128.559 100.442 128.386L100.656 128.428L117.286 122.784L103.98 111.322C103.594 111.025 100.125 109.463 97.9633 112.594C97.1201 114.649 94.0079 115.819 89.8621 115.457C84.558 114.205 82.6214 111.609 82.5262 109.816C82.3894 108.236 83.5356 106.905 85.6678 106.21C87.0754 105.818 88.6553 105.681 90.4075 105.8C94.1257 106.078 94.9749 105.134 95.058 104.706C95.355 104.32 95.1827 104.065 95.0104 103.809L81.3601 91.8367L64.0055 97.784C63.7917 97.7425 58.7966 98.3251 57.7448 93.4608L57.7863 93.2469C57.8218 91.9224 56.2298 89.8378 52.0364 88.5791C47.5044 87.9203 45.0337 89.2154 44.529 90.6706C44.1074 91.6982 44.5411 92.892 45.6579 93.9966C46.6024 94.8459 48.0161 95.5644 49.5129 95.8553C52.6372 96.9062 54.1816 98.094 54.3599 99.46C54.4075 100.357 53.8136 101.129 53.5582 101.301L53.3444 101.26L36.7144 106.904L50.0202 118.366C50.4062 118.663 53.8751 120.225 56.0367 117.094C56.8799 115.039 59.9506 114.083 64.1379 114.231L64.3517 114.272L64.5656 114.314C69.6143 115.739 71.5924 118.12 71.6877 119.914C71.8244 121.494 70.6783 122.824 68.5461 123.52C67.1384 123.912 65.5585 124.048 63.8064 123.93C60.0882 123.651 59.2389 124.596 59.1558 125.023C58.6451 125.368 58.7758 125.837 58.7758 125.837Z" fill="#0F0225"/>
<path d="M180.437 45.0521L175.441 51.9228L172.831 58.1047L171.662 58.6013C171.662 58.6013 168.171 61.1798 169.66 64.687L163.767 72.7909L164.968 65.5841L162.325 63.6625L162.149 63.5344L153.869 57.5132L145.286 69.3167L144.998 70.4538L144.261 70.726L143.829 73.913L140.674 84.5472L124.916 91.4024L119.663 98.6254L128.296 104.903C129.177 105.543 130.394 105.351 131.867 104.807C133.164 104.134 134.413 103.157 135.486 102.052C136.303 101.299 136.992 100.722 137.552 100.322L137.809 102.933L134.285 106.296L130.811 112.926L139.091 118.947L156.146 111.42C156.146 111.42 159.894 108.489 157.747 104.773C157.171 104.085 156.85 103.044 156.914 101.474C156.866 101.17 157.123 100.818 157.074 100.513L165.355 106.534C165.883 106.919 166.492 106.823 166.492 106.823L183.547 99.2947L185.452 80.7493C185.452 80.7493 187.085 76.281 191.281 77.1776C192.947 77.8502 195.637 77.1133 198.552 73.8461C201.274 69.3618 201.226 66.0947 199.336 64.9898L191.232 59.0967L187.245 63.469L188.541 50.9452L180.437 45.0521Z" fill="#54BAF9"/>
<path d="M184.076 99.6799L183.771 99.728L166.716 107.256C166.716 107.256 165.803 107.4 165.098 106.888L157.699 101.507C157.699 101.507 157.699 101.507 157.571 101.683C157.459 102.948 157.603 103.861 158.308 104.374L158.484 104.502C161.031 108.778 156.851 111.933 156.851 111.933L156.723 112.109L139.539 119.813L139.187 119.557L130.554 113.279L130.811 112.927L134.414 106.121L134.542 105.944L137.809 102.933L137.744 101.54C137.312 101.764 136.928 102.293 136.367 102.693C135.342 104.103 133.917 104.951 132.62 105.624C131.018 106.345 129.625 106.409 128.568 105.64L119.583 99.1068L119.968 98.5782L125.348 91.179L125.653 91.131L141.107 84.3238L144.133 73.8659L144.389 70.5507L145.126 70.2785L145.414 69.1414L154.382 56.8094L154.91 57.1937L163.19 63.2149L163.366 63.343L166.185 65.3928L166.233 65.6971L165.305 70.6778L169.66 64.6879C168.299 61.0045 171.614 58.2979 171.918 58.2498L172.046 58.0737L172.911 57.6251L175.393 51.6194L180.774 44.2202L181.302 44.6046L189.758 50.7539L189.806 51.0581L188.702 61.8363L191.873 58.2167L192.225 58.4729L200.858 64.7504C202.491 66.2077 202.539 69.4747 199.817 73.9591C196.902 77.2263 193.956 78.3154 191.938 77.3867C188.398 76.6982 186.925 80.2056 186.669 80.5579L184.076 99.6799ZM166.395 106.215L183.019 98.9113L184.971 80.6701C185.1 80.4939 186.685 75.7214 191.537 76.8261L191.714 76.9543C192.899 77.5468 195.461 76.9861 198.376 73.7189C201.146 69.5388 200.842 66.6242 199.304 65.7754L198.776 65.3911L191.376 60.0105L187.389 64.3827L186.556 64.0465L186.636 63.566L187.981 51.3465L180.405 45.8377L175.793 52.1799L173.055 58.538L171.886 59.0346C171.454 59.2588 169.004 61.517 170.093 64.4637L170.141 64.768L170.013 64.9441L163.863 73.4004L163.031 73.0642L163.111 72.5837L164.359 65.6812L162.069 64.0157L161.893 63.8876L153.965 58.1226L145.766 69.3976L145.35 70.7109L144.613 70.9831L144.437 73.8178L141.203 84.9324L140.898 84.9804L125.444 91.7876L120.576 98.4821L128.68 104.375C129.385 104.888 130.474 104.872 131.643 104.375C132.812 103.879 134.061 102.902 134.958 101.668C135.775 100.916 136.463 100.339 137.152 99.7625L137.84 99.1859L138.289 103.013L134.638 106.553L131.419 112.831L138.994 118.34L155.618 111.036C156.05 110.812 158.933 108.329 157.011 105.046C156.258 104.23 155.889 102.884 156.13 101.443C156.21 100.963 156.162 100.658 156.418 100.306L156.626 99.6494L165.435 106.055C166.091 106.263 166.395 106.215 166.395 106.215Z" fill="#150035"/>
<path d="M178.359 63.4695L180.44 45.0522L163.56 52.7082C163.56 52.7082 159.813 55.6391 161.959 59.3545C163.112 60.7317 163.24 63.5184 161.031 67.298C156.066 73.384 151.342 72.103 151.838 67.3465C152.078 65.9052 152.623 64.4158 153.343 63.0544C156.562 56.7764 153.039 57.1769 153.039 57.1769L136.313 64.9663L134.078 83.2503C134.078 83.2503 132.445 87.7186 128.249 86.822C126.583 86.1494 123.893 86.8863 120.978 90.1535C116.719 96.7519 119.393 100.852 123.765 98.9135C125.063 98.2408 126.312 97.2638 127.385 96.1587C132.365 91.1618 133.07 94.637 133.07 94.637L130.989 113.054L147.868 105.398C147.868 105.398 151.616 102.467 149.469 98.752C148.316 97.3748 148.188 94.5882 150.398 90.8085C155.362 84.7226 160.087 86.0035 159.59 90.76C159.35 92.2014 158.806 93.6908 158.085 95.0521C154.867 101.33 158.39 100.93 158.39 100.93L175.445 93.4017L177.35 74.8562C177.35 74.8562 178.984 70.388 183.18 71.2846C184.845 71.9571 187.536 71.2203 190.45 67.9531C194.71 61.3547 192.035 57.255 187.663 59.193C186.366 59.8657 185.117 60.8427 184.044 61.9478C179.063 66.9447 178.359 63.4695 178.359 63.4695Z" fill="white"/>
<path d="M175.797 93.6579L175.669 93.8341L158.485 101.538C158.005 101.458 157.092 101.602 156.644 100.737C155.843 99.6165 156.163 97.6947 157.732 94.7959C158.629 93.5627 159.174 92.0733 159.286 90.8081C159.35 89.2386 158.853 88.0695 157.844 87.6052C156.659 87.0127 153.968 87.7495 150.926 91.1929C148.716 94.9725 149.1 97.4068 150.029 98.3516L150.205 98.4797C152.175 102.067 149.693 105.11 148.572 105.911L131.389 113.615L130.86 113.231L132.765 94.6851C132.589 94.557 132.541 94.2527 132.188 93.9965C131.708 93.9164 130.619 93.9325 127.913 96.5431C126.888 97.9524 125.462 98.8013 124.165 99.474C122.259 100.243 120.514 100.051 119.409 98.9778C118.256 97.6006 117.903 94.3816 120.802 90.0253L120.93 89.8492C123.716 86.7581 126.663 85.6689 128.809 86.4215C132.348 87.11 133.821 83.6027 134.078 83.2503L136.11 64.5287L136.415 64.4806L153.47 56.9527C153.951 57.0327 154.864 56.8886 155.312 57.7534C156.113 58.8744 155.793 60.7962 154.223 63.695C153.327 64.9282 152.782 66.4176 152.67 67.6828C152.606 69.2522 153.103 70.4213 154.112 70.8857C155.297 71.4782 157.987 70.7414 161.03 67.298C163.24 63.5183 162.855 61.0841 161.926 60.1393L161.75 60.0112C159.38 55.8634 163.255 52.7563 163.383 52.5801L163.512 52.4039L180.695 44.6998L181.224 45.0841L181.272 45.3884L179.319 63.6296C179.495 63.7577 179.543 64.062 179.895 64.3182C180.376 64.3982 181.465 64.3822 184.171 61.7716C185.196 60.3622 186.621 59.5134 187.919 58.8407C189.824 58.0719 191.57 58.264 192.675 59.3369C193.828 60.7141 194.181 63.9331 191.282 68.2893C188.368 71.5565 185.421 72.6457 183.403 71.717C179.864 71.0285 178.391 74.5358 178.134 74.8882L175.797 93.6579ZM158.293 100.321L174.916 93.0173L176.869 74.7762C176.869 74.7762 178.583 69.8274 183.435 70.9322L183.611 71.0603C184.796 71.6528 187.359 71.0922 190.273 67.8249C192.788 63.9972 192.659 61.2107 191.554 60.1377C190.801 59.321 189.536 59.2089 188.063 59.7535C186.894 60.25 185.645 61.227 184.748 62.4602C182.474 64.8466 180.744 65.7435 179.431 65.3272C178.598 64.9909 178.15 64.1261 178.102 63.8219L178.23 63.6457L180.151 46.1892L164.136 53.3968C163.704 53.621 160.821 56.1035 162.743 59.3865C164.249 61.02 163.993 64.3351 161.911 67.9385C158.532 72.2147 155.361 72.8715 153.823 72.0228C152.334 71.4783 151.613 69.8769 151.885 67.6508C152.126 66.2094 152.67 64.72 153.519 63.1825C155.344 59.9314 154.848 58.7623 154.495 58.5061C154.271 58.0737 153.967 58.1218 153.663 58.1698L137.039 65.4735L135.087 83.7147C135.087 83.7147 133.373 88.6634 128.521 87.5586L128.344 87.4305C127.159 86.838 124.597 87.3987 121.81 90.4897C119.296 94.3174 119.425 97.104 120.53 98.177C121.282 98.9937 122.548 99.1057 124.021 98.5612C125.19 98.0646 126.439 97.0877 127.336 95.8545C129.61 93.4681 131.339 92.5712 132.653 92.9875C133.486 93.3238 133.934 94.1886 133.982 94.4928L133.854 94.669L131.933 112.125L147.948 104.918C148.38 104.694 151.263 102.211 149.341 98.9282C147.835 97.2947 148.091 93.9796 150.173 90.3761C153.552 86.1 156.723 85.4432 158.26 86.2919C159.75 86.8363 160.471 88.4378 160.198 90.6639C159.958 92.1053 159.414 93.5947 158.565 95.1322C156.74 98.3833 157.236 99.5524 157.588 99.8086C157.636 100.113 158.117 100.193 158.293 100.321Z" fill="#150035"/>
<path d="M154.976 58.5862L162.872 64.0555L161.896 66.6492L158.326 70.5243L154.56 71.7505L152.19 70.5655L151.501 68.1793L152.494 64.5919L152.622 64.4157L154.399 60.8603L154.271 58.0737L154.976 58.5862Z" fill="#150035"/>
<path d="M149.675 92.1699L149.386 93.307L148.554 95.9335L148.586 98.1115L149.707 100.273L150.252 101.747L149.851 104.149L148.522 105.607L156.802 111.628L158.324 108.425L157.971 105.206L156.962 101.779L156.465 100.609L157.074 97.5505L149.675 92.1699Z" fill="#150035"/>
<path d="M174.915 93.0178L183.195 99.039L184.924 83.3282L185.356 80.1412L177.076 74.12L174.915 93.0178Z" fill="#150035"/>
<path d="M189.12 69.4108L197.4 75.432L200.554 70.7235L200.57 65.8869L198.76 64.3015L192.947 60.0739L192.739 63.6933L191.217 66.8964L189.12 69.4108Z" fill="#150035"/>
<path d="M181.621 64.3225L185.2 61.3362L187.267 59.2974L188.238 50.9936L179.958 44.9724L178.39 59.7222L177.957 62.9092L178.457 64.4424L179.974 64.8585L181.621 64.3225Z" fill="#150035"/>
<path d="M183.912 71.0134L183.271 71.8943L191.728 78.0436L192.368 77.1627L183.912 71.0134Z" fill="#150035"/>
<path d="M127.719 95.3273L127.078 96.2082L132.539 100.18L133.18 99.2987L127.719 95.3273Z" fill="#150035"/>
<path d="M129.003 21.1399L128.911 20.7142C129.67 20.1032 130.382 19.2794 130.882 18.5019C131.881 16.9469 131.816 15.6235 131.158 14.6519L126.566 5.84264L120.939 6.62135L115.149 17.9133L95.9287 25.8861L95.2438 25.8122L95.1236 26.2842L92.875 27.2194L83.8528 31.8581L80.8455 33.4044L86.5859 44.416L76.5922 49.712L67.987 56.2663L64.7204 57.646L69.3591 66.6681L80.8164 67.0726L81.381 67.6185L76.8562 70.3867L81.4949 79.4088C82.3375 81.2318 85.5952 81.8603 90.2591 79.7307C93.9788 77.3606 95.2184 74.8616 94.5886 72.9923C94.3007 68.5964 99.0296 67.7902 99.0296 67.7902L117.502 68.6742L127.493 53.1242C127.493 53.1242 127.613 52.6521 127.474 52.0136L127.428 51.8008L122.789 42.7786C123.215 42.686 123.428 42.6397 123.9 42.7599C125.27 42.9076 126.26 43.3608 126.871 44.1196C130.379 46.9229 133.655 43.5349 133.655 43.5349L143.646 27.9849L139.007 18.9627L129.003 21.1399Z" fill="#54BAF9"/>
<path d="M87.3436 81.7025C84.3637 82.351 82.2165 81.7037 81.2537 80.3528L80.9482 79.9734L76.0041 70.5719L76.3834 70.2664L80.3161 67.85L68.8588 67.4455L68.7661 67.0198L63.8683 57.8312L63.9885 57.3592L64.2013 57.3128L67.4678 55.9331L75.8603 49.4252L85.4746 44.4347L79.7342 33.423L80.1135 33.1175L92.143 26.9326L94.3917 25.9974L94.7247 25.4791L95.6224 25.5066L114.676 17.793L120.467 6.50105L126.732 5.58338L127.037 5.96274L131.981 15.3642C132.472 16.595 132.324 17.9647 131.279 19.3069C130.946 19.8252 130.567 20.1307 130.233 20.649L139.173 18.7035L139.478 19.0828L144.423 28.4843L144.256 28.7435L134.311 44.5064C133.219 45.6357 129.879 47.7003 126.63 45.0635C126.065 44.5176 125.288 44.0181 123.964 44.0832L123.752 44.1295L127.992 52.3466L128.038 52.5594C128.39 53.1516 128.104 53.8828 128.104 53.8828L128.15 54.0956L117.992 69.9049L117.779 69.9512L99.3068 69.0671C98.8811 69.1598 95.2627 69.9473 95.4117 73.7046C96.0878 75.7867 94.256 78.6376 90.7491 80.9613L90.5362 81.0076C89.4257 81.0264 88.4078 81.4709 87.3436 81.7025ZM81.8735 79.1032L82.179 79.4826C82.9289 80.8799 85.761 81.6011 90.2583 79.7306C93.9318 77.1477 94.7919 74.9541 94.3011 73.7234C94.0595 69.5404 97.7518 68.068 99.2417 67.7437L99.4545 67.6974L117.668 68.415L127.493 53.1241C127.446 52.9112 127.613 52.6521 127.354 52.4855L127.307 52.2727L122.27 42.4455L123.122 42.2602C123.335 42.2139 123.76 42.1212 124.232 42.2414C125.815 42.3429 126.805 42.7961 127.675 43.7213C130.619 45.9788 133.441 43.5812 133.774 43.0628L143.599 27.7719L139.312 19.342L129.095 21.5655L128.817 20.2884L128.984 20.0293C129.743 19.4183 130.501 18.8073 130.788 18.0761C131.621 16.7803 131.815 15.6234 131.204 14.8647L130.852 14.2725L126.658 6.26823L121.67 6.90798L115.879 18.2L115.666 18.2463L96.2334 26.2653L95.7614 26.1451L95.5949 26.4043L93.1334 27.3859L81.7424 33.4318L87.4828 44.4434L87.1035 44.7489L77.1098 50.0449L67.866 56.7382L65.238 57.9789L69.4785 66.196L80.9358 66.6005L82.1115 67.9051L77.3738 70.7196L81.8735 79.1032Z" fill="#150035"/>
<path d="M117.849 5.73444C114.129 8.10449 112.89 10.6035 113.52 12.4728C113.808 16.8687 109.079 17.6749 109.079 17.6749L90.6063 16.7909L80.615 32.3409C80.615 32.3409 79.6071 35.9042 86.4457 33.5241C89.2865 32.2371 92.4053 32.2271 94.3121 33.8184C95.7106 38.1955 89.1224 42.7503 84.3747 42.4461C83.005 42.2983 82.0147 41.8451 81.4037 41.0863C77.8955 38.283 74.6202 41.671 74.6202 41.671L64.6289 57.2211L83.1013 58.1051C83.1013 58.1051 86.498 59.3722 80.7149 63.5289C78.1795 65.1953 76.2551 67.6205 76.5982 70.221C79.3939 73.8481 86.8247 71.1162 89.3225 67.2287C90.1552 65.9329 90.3955 64.9889 89.9511 63.971C89.6631 59.5751 94.392 58.7688 94.392 58.7688L112.864 59.6529L122.856 44.1028C122.856 44.1028 123.864 40.5396 117.025 42.9196C114.184 44.2067 111.065 44.2166 109.159 42.6253C107.76 38.2482 114.348 33.6934 119.096 33.9977C120.466 34.1454 121.456 34.5987 122.067 35.3574C125.575 38.1607 128.851 34.7728 128.851 34.7728L138.842 19.2227L120.369 18.3386C120.369 18.3386 116.973 17.0715 122.756 12.9148C124.153 12.1649 125.245 11.0356 126.077 9.73973C128.529 5.63937 124.928 2.41036 117.849 5.73444Z" fill="white"/>
<path d="M82.4911 72.7271C82.0654 72.8197 81.4269 72.9587 80.9549 72.8385C78.9466 72.8297 77.2714 72.3026 76.0958 70.998L75.8366 70.8314L75.7903 70.6186C75.4472 68.0181 77.1125 65.4264 80.24 63.4082C83.1084 61.2234 83.3025 60.0666 83.2099 59.6409C83.1173 59.2152 82.8581 59.0487 82.5989 58.8822L63.9137 58.0444L63.5619 57.4522L63.7284 57.193L73.6734 41.4301C73.6734 41.4301 77.3281 37.7366 81.3545 40.873C81.9192 41.4189 82.6967 41.9185 84.0201 41.8534C86.926 41.8897 90.3591 40.2508 92.2835 37.8257C92.9959 37.0018 93.7822 35.4932 93.4579 34.0032C91.5511 32.4119 88.525 32.8476 86.2763 33.7828C83.1763 34.9034 81.168 34.8946 80.2979 33.9693C79.6869 33.2106 79.7145 32.3129 79.881 32.0537L79.8347 31.8409L89.9924 16.0316L90.2053 15.9853L108.678 16.8694C109.316 16.7304 112.675 15.7764 112.573 12.2319C111.897 10.1498 113.728 7.29892 117.023 5.02151L117.235 4.97519C122.112 2.79921 125.157 3.47408 126.379 4.99154C127.295 6.12964 127.24 7.92504 126.288 9.6929C125.455 10.9887 124.363 12.1181 122.753 12.9143C119.885 15.0991 119.691 16.256 119.783 16.6817C119.876 17.1073 120.135 17.2739 120.394 17.4404L139.079 18.2781L139.431 18.8704L139.265 19.1295L129.32 34.8925C128.228 36.0218 124.887 38.0863 121.639 35.4495C121.074 34.9037 120.296 34.4041 118.973 34.4692C116.067 34.4329 112.634 36.0717 110.71 38.4969C109.997 39.3207 109.211 40.8294 109.535 42.3193C111.442 43.9107 114.468 43.475 116.717 42.5397C119.817 41.4192 121.825 41.428 122.695 42.3532C123.306 43.112 123.279 44.0097 123.112 44.2688L123.158 44.4817L113.001 60.2909L112.788 60.3373L94.3154 59.4532C93.6768 59.5921 90.3176 60.5462 90.4203 64.0906C90.6519 65.1549 90.4578 66.3117 89.6252 67.6076C88.1728 70.1529 85.2581 72.1249 82.4911 72.7271ZM76.8545 70.387C77.8173 71.7379 79.3999 71.8393 80.7233 71.7743C83.7957 71.5514 87.1825 69.6997 88.6812 67.3672C89.3473 66.3305 89.5876 65.3865 89.4024 64.5351C89.0218 59.7136 94.1301 58.6018 94.3429 58.5555L94.5558 58.5092L112.769 59.2267L122.594 43.9358C122.547 43.7229 122.668 43.2509 122.408 43.0844C122.103 42.705 121.113 42.2518 117.587 43.465C114.32 44.8447 111.155 44.6418 109.202 42.8377L109.156 42.6248L109.109 42.412C108.526 40.7555 109.053 39.0803 110.265 37.479C112.356 34.7947 116.168 32.8503 119.546 33.0068C121.129 33.1083 122.119 33.5615 122.989 34.4868C125.933 36.7442 128.755 34.3466 129.088 33.8282L138.58 19.0557L120.792 18.2455C120.32 18.1253 119.543 17.6257 119.57 16.728C119.292 15.4509 120.504 13.8496 123.206 11.924C124.604 11.174 125.695 10.0447 126.361 9.00805C127.194 7.71221 127.342 6.34249 126.518 5.63008C125.601 4.49198 123.029 3.93731 118.744 5.76147C115.071 8.34437 114.21 10.5379 114.701 11.7687C115.082 16.5902 109.974 17.702 109.761 17.7483L109.548 17.7946L91.3346 17.0771L81.5099 32.368C81.5562 32.5808 81.436 33.0528 81.6951 33.2194C82.0006 33.5987 82.991 34.052 86.5167 32.8388C89.7832 31.4591 92.9484 31.6619 94.9015 33.4661L94.9478 33.679C95.5313 35.3354 95.0041 37.0106 93.7922 38.6119C91.7013 41.2963 87.8888 43.2406 84.5109 43.0841C82.9283 42.9827 81.938 42.5294 81.0678 41.6042C78.1243 39.3468 75.3022 41.7443 74.9692 42.2627L65.4774 57.0353L83.265 57.8455C83.737 57.9657 84.5145 58.4653 84.4869 59.363C84.7649 60.64 83.5529 62.2413 80.851 64.1669C78.7414 65.7407 76.7706 67.953 76.8545 70.387Z" fill="#150035"/>
<path d="M85.6208 70.7086L90.4913 80.0697L92.6553 78.3385L94.8194 75.3088L94.8194 72.712L94.9772 70.6787L96.6148 68.9847L97.6327 68.5402L92.9941 59.5181L91.8096 60.2217L90.172 61.9157L89.5986 63.3781L89.5622 66.284L88.3272 68.8167L85.6208 70.7086Z" fill="#150035"/>
<path d="M112.907 59.8658L117.545 68.888L128.144 53.2357L123.185 43.5846L121.926 44.9731L112.907 59.8658Z" fill="#150035"/>
<path d="M114.2 35.0627L118.089 42.6875L114.35 43.947L109.676 42.9579L109.102 40.2514L111.192 36.6089L114.2 35.0627Z" fill="#150035"/>
<path d="M127.07 35.828L131.709 44.8502L133.652 43.5356L143.643 27.9855L139.005 18.9633L129.939 33.6433L127.07 35.828Z" fill="#150035"/>
<path d="M126.741 6.05947L132.041 16.014L130.714 18.7618L120.321 18.1256L119.489 17.3125L119.922 15.1484L121.654 13.4172L123.679 12.0446L126.742 8.70293L126.741 6.05947Z" fill="#150035"/>
<path d="M122.509 34.8411L121.543 35.3446L126.276 44.4221L127.242 43.9186L122.509 34.8411Z" fill="#150035"/>
<path d="M88.8641 32.5375L87.8984 33.0411L91.7262 40.3803L92.6919 39.8766L88.8641 32.5375Z" fill="#150035"/>
</svg>
