<svg width="221" height="236" viewBox="0 0 221 236" fill="none" xmlns="http://www.w3.org/2000/svg">
<path opacity="0.53" d="M49.8489 218.432C61.9713 225.43 77.4162 230.197 94.2304 232.128C111.045 234.059 128.473 233.068 144.312 229.28C160.15 225.492 173.688 219.078 183.213 210.848C192.737 202.618 197.821 192.943 197.821 183.045C197.821 173.147 192.737 163.471 183.213 155.241C173.688 147.012 160.15 140.597 144.312 136.809C128.473 133.022 111.045 132.031 94.2304 133.962C77.4162 135.893 61.9713 140.659 49.8489 147.658C33.5932 157.043 24.4609 169.772 24.4609 183.045C24.4609 196.317 33.5933 209.046 49.8489 218.432Z" fill="#3C089F"/>
<path d="M135.192 47.9968L112.153 70.1983L102.192 62.2955L95.7661 65.0405L82.6018 75.7294L74.5318 123.248L73.2424 127.345L70.9755 130.34L80.9367 138.243L102.209 129.814C102.209 129.814 107.107 126.456 104.47 121.706C103.578 120.922 103.555 119.564 103.765 117.803C103.998 117.399 103.913 117.081 104.06 116.359L114.022 124.262C114.022 124.262 114.684 124.161 114.769 124.48C115.629 124.249 115.629 124.249 115.629 124.249L136.434 115.91L139.639 93.867C139.639 93.867 141.989 87.3912 147.211 89.0612C149.228 90.2259 152.551 88.9762 156.323 85.2371C160.073 80.1401 159.968 76.825 157.865 75.3422L147.904 67.4395L142.859 71.5196L144.858 57.3429L135.192 47.9968Z" fill="#5600D6"/>
<path d="M80.386 138.731L79.9826 138.499L69.618 130.363L70.0839 129.556L72.3507 126.561L73.4072 122.868L81.392 75.0307L81.7101 74.9455L95.1926 64.1713L102.255 61.2558L102.658 61.4888L112.131 68.8404L135.169 46.6389L135.658 47.1901L146.023 55.3258L145.79 55.7292L143.916 67.8263L147.859 64.7236L148.348 65.2747L159.116 73.6433C160.667 75.6148 160.968 79.2854 157.071 85.104C153.299 88.8431 149.651 90.5026 146.912 89.1903C142.582 88.3043 140.889 92.1681 140.424 92.975L137.056 116.044L136.738 116.129L115.147 124.643C115.147 124.643 114.107 124.58 113.301 124.115L112.897 123.882L104.231 116.996C103.936 118.439 104.277 119.712 104.766 120.263L104.851 120.581C107.084 125.098 104.267 128.581 102.21 129.815L101.892 129.9L80.386 138.731ZM71.8453 129.766L80.9144 136.885L101.869 128.542C102.42 128.053 105.812 125.439 104.067 121.473C103.09 120.371 102.663 118.78 103.192 116.933C103.425 116.53 103.254 115.894 103.487 115.49L103.868 114.365L114.721 123.052L114.255 123.859L114.806 123.37C115.21 123.603 115.21 123.603 115.528 123.518L136.164 115.26L139.384 92.9126C139.384 92.9126 141.838 86.7986 148.014 88.2128C149.543 88.8264 152.492 88.3773 156.264 84.6382C159.463 80.0299 159.48 76.274 157.78 75.0242L157.695 74.706L148.223 67.3543L143.496 71.3491L142.604 70.5651L142.751 69.8435L144.602 56.3884L135.533 49.2697L112.495 71.4711L112.006 70.92L102.13 63.3354L96.3404 65.9099L83.4092 76.1953L75.5721 123.311L74.2826 127.408L71.8453 129.766Z" fill="#0F0225"/>
<path d="M99.4328 78.7223C97.711 76.1145 98.6822 72.1029 100.949 69.1083C105.375 61.443 100.982 61.5967 100.982 61.5967L79.3917 70.1102L70.8057 129.704L92.0783 121.275C92.0783 121.275 96.9759 117.917 94.339 113.167C92.8729 111.514 92.9749 108.076 95.7701 103.235C102.361 96.0123 108.498 97.3228 107.72 103.329C107.51 105.09 106.479 107.366 105.548 108.979C101.122 116.645 105.101 116.422 105.101 116.422L126.374 107.994L129.508 85.3279C129.508 85.3279 131.729 79.6173 136.951 81.2874C138.968 82.452 142.383 81.196 146.156 77.4569C151.536 69.5358 148.728 64.1495 143.172 66.3205C141.666 67.065 139.927 68.2129 138.592 69.5937C132.064 75.7763 131.507 71.1512 131.507 71.1512L134.641 48.4855L113.369 56.9137C113.369 56.9137 108.471 60.2722 111.108 65.0221C112 65.8061 112.023 67.1641 111.813 68.9255C111.586 74.4428 104.592 81.4322 99.4328 78.7223Z" fill="white"/>
<path d="M70.7446 130.744L69.9377 130.278L70.1706 129.874L78.6714 69.9629L100.495 61.0459C101.131 60.8754 102.257 61.256 102.83 62.1253C103.893 63.5457 103.217 66.114 101.354 69.3416C99.6381 71.8475 98.4962 75.2227 99.8999 77.9158C101.832 78.7622 103.338 78.0178 104.61 77.6767C107.94 76.1025 110.905 71.8976 111.411 68.6929C111.706 67.2497 111.365 65.977 110.876 65.4258L110.791 65.1077C107.899 59.4032 113.433 55.8742 113.433 55.8742L113.751 55.789L135.66 47.1903L136.467 47.6561L136.234 48.0596L133.099 70.7252C133.184 71.0434 133.27 71.3616 133.673 71.5945C134.076 71.8274 135.434 71.8046 138.656 68.5542C139.906 66.8552 141.644 65.7073 143.554 65.1957C146.014 64.1955 148.179 64.6385 149.645 66.2919C151.196 68.2634 151.497 71.9339 147.833 77.3491L147.6 77.7526C143.828 81.4916 140.095 82.8329 137.759 81.7535C133.43 80.8675 131.737 84.7314 131.271 85.5383L127.903 108.607L127.585 108.693L105.994 117.206C105.358 117.377 104.233 116.996 103.659 116.127C102.596 114.706 103.272 112.138 105.136 108.911C106.386 107.211 106.999 105.683 107.209 103.922C107.419 102.16 106.993 100.569 105.783 99.8704C104.254 99.2569 100.987 99.7913 97.3851 104.167C94.5047 108.69 94.6357 111.724 95.9312 112.741L96.0165 113.059C98.9091 118.764 93.3752 122.293 93.3752 122.293L93.057 122.378L70.7446 130.744ZM79.967 70.9798L71.591 128.812L91.5909 120.724C92.142 120.236 95.5339 117.622 93.7892 113.656C91.8344 111.452 92.4875 107.525 95.135 103.406L95.3679 103.002C99.8392 98.0527 103.743 97.3478 105.76 98.5124C107.692 99.3589 108.607 101.501 107.931 104.069C107.721 105.831 106.874 107.763 105.624 109.462C103.295 113.496 103.636 114.769 104.04 115.002C104.125 115.32 104.846 115.468 104.846 115.468L125.483 107.21L128.702 84.8624C129.316 83.3339 131.793 78.5778 137.248 79.8444C138.776 80.458 141.725 80.0088 145.498 76.2698C148.696 71.6614 148.48 68.3091 147.417 66.8887C146.44 65.7864 145.082 65.8093 143.173 66.3208C141.667 67.0653 140.247 68.128 138.912 69.5088C135.923 72.3557 133.781 73.2707 131.935 72.7424C130.809 72.3618 130.15 71.1744 130.298 70.4527L130.213 70.1346L133.37 48.8269L113.37 56.914C112.819 57.4027 109.427 60.0167 111.172 63.9826C112.149 65.0848 112.576 66.6757 112.047 68.5224C111.394 72.4487 108.196 77.0571 104.548 78.7165C102.173 80.0349 99.7751 79.9954 98.1613 79.0637L98.0761 78.7455C96.2689 75.8195 96.9221 71.8931 99.3366 68.1769C101.348 64.2278 101.325 62.8698 100.921 62.6369C100.836 62.3187 100.115 62.171 100.115 62.171L79.967 70.9798Z" fill="#0F0225"/>
<path d="M126.607 107.591L136.569 115.493L139.198 96.0325L139.851 92.1061L129.89 84.2034L126.607 107.591Z" fill="#0F0225"/>
<path d="M144.734 78.5206L154.695 86.4233L157.067 84.5772L158.678 80.9229L159.439 77.9514L159.177 75.2567L156.547 72.9683L149.58 67.3323L149.097 71.895L147.086 75.8442L144.734 78.5206Z" fill="#0F0225"/>
<path d="M135.119 71.8898L139.931 68.2131L143.408 65.9173L144.839 55.9851L134.878 48.0823L132.311 66.5035L131.658 70.4298L132.403 71.9355L133.846 72.2308L135.119 71.8898Z" fill="#0F0225"/>
<path d="M95.2191 103.724L94.9238 105.167L93.7821 108.543L93.4242 111.026L94.828 113.719L95.6577 115.543L94.7488 118.514L92.8625 120.384L103.142 128.201L105.153 124.252L103.471 119.247L103.658 116.127L103.232 114.536L104.288 110.843L95.2191 103.724Z" fill="#0F0225"/>
<path d="M103.403 62.9955L112.068 69.8813L110.841 72.9383L106.285 77.5696L102.319 79.3142L99.2618 78.0872L98.4092 74.9054L99.9315 70.4051L102.494 65.9673L102.277 62.6149L103.403 62.9955Z" fill="#0F0225"/>
<path d="M139.239 80.2103L138.221 81.505L148.319 89.4458L149.337 88.1511L139.239 80.2103Z" fill="#0F0225"/>
<path d="M110.142 166.946C104.212 166.946 97.9534 166.287 92.3535 164.97L92.6829 163.323C98.2829 164.64 104.212 165.299 110.142 165.299C136.824 165.299 161.859 150.805 175.035 127.417L176.352 128.076C162.847 152.123 137.482 166.946 110.142 166.946Z" fill="white"/>
<path d="M186.238 97.7719H184.591C184.92 95.4661 184.92 93.1602 184.92 90.525C184.92 78.9957 182.285 68.1252 177.344 57.9136L178.991 57.2548C183.932 67.7958 186.567 78.9957 186.567 90.525C186.567 93.1602 186.238 95.4661 186.238 97.7719Z" fill="white"/>
<path d="M36.3579 110.29C34.7108 104.031 33.7227 97.4428 33.7227 90.8547C33.7227 48.6905 67.981 14.4321 110.145 14.4321C124.639 14.4321 138.804 18.385 150.992 26.2908L150.003 27.6084C138.145 20.0321 124.31 16.0792 110.145 16.0792C68.9692 16.0792 35.3697 49.6787 35.3697 90.8547C35.3697 97.4428 36.3579 103.702 37.6755 109.96L36.3579 110.29Z" fill="white"/>
<path d="M65.3421 152.453C53.154 143.559 43.9307 131.371 38.6602 117.207L40.3072 116.548C45.5777 130.383 54.4717 142.242 66.3304 150.806L65.3421 152.453Z" fill="white"/>
<path d="M62.7043 48.6887L61.3867 47.7005C64.3514 44.077 67.9749 41.1123 71.5984 38.1476L72.5866 39.4653C68.9631 42.1005 65.669 45.0652 62.7043 48.6887Z" fill="white"/>
<path d="M46.565 90.5238H44.918C44.918 75.7005 49.859 61.8653 58.753 50.3361L60.0707 51.3243C51.5061 62.8536 46.565 76.3593 46.565 90.5238Z" fill="white"/>
<path d="M110.143 155.747V154.1C122.331 154.1 134.189 150.806 144.401 144.218L145.389 145.536C134.848 152.124 122.66 155.747 110.143 155.747Z" fill="white"/>
<path d="M150.66 141.582L149.672 140.265C151.978 138.288 153.954 136.312 156.26 134.335L157.578 135.324C155.272 137.629 152.966 139.606 150.66 141.582Z" fill="white"/>
<path d="M175.361 90.5233H173.714C173.714 55.6061 145.385 26.9477 110.139 26.9477V25.3006C146.044 25.63 175.361 54.6179 175.361 90.5233Z" fill="white"/>
<path d="M41.2981 38.1494L39.9805 37.1612C50.1921 23.6554 64.0272 13.4438 80.1681 7.8439L80.827 9.49094C65.0154 15.0909 51.5097 24.9731 41.2981 38.1494Z" fill="white"/>
<path d="M27.8549 116.903L26.3002 117.446C20.7746 101.441 20.0033 84.2633 24.3463 67.7397L26.0811 68.1102C21.9216 84.3603 22.6029 101.081 27.8549 116.903Z" fill="white"/>
<path d="M69.7947 169.623C63.3625 166.682 57.5333 162.717 52.3252 158.058L53.2386 156.688C58.4284 161.018 64.2577 164.982 70.361 167.942L69.7947 169.623Z" fill="white"/>
<path d="M143.279 172.113C136.809 174.97 129.974 176.697 123.032 177.498L122.614 175.905C129.298 174.899 136.132 173.172 142.398 170.573L143.279 172.113Z" fill="white"/>
<path d="M113.504 178.407C100.348 179.139 87.7033 177.204 75.8806 172.253L76.4468 170.572C88.2512 175.194 100.585 177.476 113.412 176.762L113.504 178.407Z" fill="white"/>
<path d="M152.361 168.192L151.665 166.894C162.04 160.993 171.69 152.805 178.988 143.038L180.334 143.988C172.707 153.765 163.066 162.281 152.361 168.192Z" fill="white"/>
<path d="M196.466 101.141C197.341 94.1534 196.962 86.7606 196.168 79.5799L197.938 79.4598C199.045 86.7419 199.111 94.0334 198.448 101.436L196.466 101.141Z" fill="white"/>
<path d="M110.143 4.21985C102.896 4.21985 95.6486 5.20809 88.4016 6.85512L88.0723 5.20809C95.3192 3.23164 102.566 2.57281 110.143 2.57281C130.486 2.57281 149.994 9.67258 165.5 22.1526L164.5 23.5389C149.301 11.2401 130.143 4.21985 110.143 4.21985Z" fill="white"/>
<path d="M19.0293 42.4217L24.0421 39.4512C24.4134 39.2655 24.7847 39.2655 25.156 39.6369L32.9536 44.0927C33.8819 44.6496 34.6246 46.1349 34.6246 47.4345V55.7891C34.6246 56.5317 34.4389 56.903 34.0676 57.0887L29.0548 60.0592V58.7596L29.2405 57.8313L22.3711 53.9325C21.4429 53.3755 20.7002 51.8903 20.7002 50.5907V43.7213L19.9576 44.2783L19.0293 42.4217Z" fill="#54BAF9"/>
<path d="M29.057 60.4304H28.8713C28.6857 60.4304 28.6857 60.2448 28.6857 60.0591V58.7595L28.8713 58.2025L22.1877 54.3037C21.0737 53.7467 20.3311 52.0758 20.3311 50.7762V44.6495L20.1454 44.8352C20.1454 44.8352 19.9598 44.8352 19.7741 44.8352C19.5884 44.8352 19.5884 44.6495 19.5884 44.6495L18.6602 42.6073C18.6602 42.4216 18.6602 42.236 18.8458 42.0503L23.8586 39.0798C24.2299 38.8941 24.7869 38.8941 25.3438 39.2654L33.1415 43.7212C34.2554 44.2782 34.9981 45.9491 34.9981 47.2487V55.6033C34.9981 56.346 34.8124 56.9029 34.2554 57.2742C34.2554 57.2742 32.5845 58.2025 29.2426 60.2448C29.2426 60.4304 29.057 60.4304 29.057 60.4304ZM20.888 43.5356H21.0737C21.2594 43.5356 21.2594 43.7212 21.2594 43.9069V50.7762C21.2594 51.8902 22.002 53.1898 22.7446 53.7467L29.614 57.6456C29.7996 57.6456 29.7996 57.8312 29.7996 58.0169L29.4283 58.9452V59.5021C30.7279 58.7595 33.8841 56.9029 33.8841 56.9029C34.0698 56.7173 34.2554 56.346 34.2554 55.789V47.4344C34.2554 46.3204 33.5128 45.0208 32.7702 44.4639L24.9725 40.0081C24.7869 39.8224 24.4156 39.8224 24.2299 39.8224L19.5884 42.4216L20.3311 43.7212L20.888 43.5356C20.7024 43.5356 20.7024 43.5356 20.888 43.5356Z" fill="#0F0225"/>
<path d="M25.16 39.4507L25.9027 40.0077L19.5903 43.7209L18.8477 42.2356L23.8604 39.2651C24.4174 39.2651 24.7887 39.2651 25.16 39.4507Z" fill="#0F0225"/>
<path d="M19.7741 44.0921C19.5884 44.0921 19.5884 44.0921 19.7741 44.0921C19.5884 44.0921 19.4028 43.9065 19.4028 43.9065L18.6602 42.4212C18.6602 42.2356 18.6602 42.0499 18.8458 41.8642L23.8586 38.8937C24.2299 38.7081 24.7869 38.7081 25.3438 39.0794L26.0865 39.6363C26.2721 39.6363 26.2721 39.822 26.2721 40.0077C26.2721 40.1933 26.2721 40.1933 26.0865 40.379L19.7741 44.0921ZM19.5884 42.4212L19.9598 43.1638L25.3438 40.0077L25.1582 39.822C24.9725 39.6363 24.6012 39.6363 24.4155 39.6363L19.5884 42.4212Z" fill="#0F0225"/>
<path d="M29.4282 51.3334L28.6855 59.131L29.0569 60.0593L34.0696 57.0887C34.4409 56.9031 34.6266 56.3461 34.6266 55.7891V48.3628L29.4282 51.3334Z" fill="#0F0225"/>
<path d="M29.059 60.4305C28.8734 60.4305 28.6877 60.2448 28.6877 60.2448L28.3164 59.3165V59.1309L29.059 51.3332C29.059 51.1476 29.059 51.1476 29.2447 50.9619L34.4431 47.9914C34.6288 47.9914 34.6288 47.9914 34.8144 47.9914C35.0001 47.9914 35.0001 48.177 35.0001 48.3627V55.789C35.0001 56.5317 34.8144 57.0886 34.2575 57.4599C34.2575 57.4599 32.5865 58.3882 29.2447 60.4305H29.059ZM29.059 58.9452L29.2447 59.5022C30.3586 58.7596 33.8861 56.7173 33.8861 56.7173C34.0718 56.5317 34.2575 56.1603 34.2575 55.6034V48.734L29.8017 51.5189L29.059 58.9452Z" fill="#0F0225"/>
<path d="M25.1615 39.4511L32.9592 43.9069C33.3305 44.0926 33.8875 44.6495 34.0731 45.2065L29.0603 48.177L19.5918 42.793L25.1615 39.4511Z" fill="#E6DEF8"/>
<path d="M29.0606 48.548H28.8749L19.4064 43.1639C19.2207 43.1639 19.2207 42.9783 19.2207 42.7926C19.2207 42.6069 19.2207 42.6069 19.4064 42.4213L24.9761 39.2651C25.1618 39.2651 25.1617 39.2651 25.3474 39.2651L33.145 43.7209C33.702 43.9066 34.0733 44.4635 34.4446 45.0205C34.6303 45.2062 34.4446 45.3918 34.259 45.5775L29.2462 48.548H29.0606ZM20.3346 42.7926L29.0606 47.8054L33.5164 45.2062C33.3307 44.8348 32.9594 44.6492 32.7737 44.4635L25.1617 40.0077L20.3346 42.7926Z" fill="#0F0225"/>
<path d="M20.1436 55.4164L27.9412 59.8722C28.8695 60.4292 29.6121 59.8722 29.6121 58.5726V50.218C29.6121 48.9184 28.8695 47.4331 27.9412 46.8762L20.1436 42.4204C19.2153 41.8634 18.4727 42.4204 18.4727 43.72V52.0746C18.4727 53.3742 19.2153 54.8595 20.1436 55.4164Z" fill="#54BAF9"/>
<path d="M28.686 60.6157C28.5004 60.6157 28.129 60.6157 27.7577 60.43L19.9601 55.9742C18.8461 55.4173 18.1035 53.7464 18.1035 52.4467V44.0921C18.1035 43.3495 18.4748 42.6069 18.8461 42.4212C19.2175 42.2356 19.7744 42.2356 20.3314 42.4212L28.129 46.877C29.243 47.434 29.9856 49.1049 29.9856 50.4045V58.7591C29.9856 59.5017 29.6143 60.2444 29.243 60.43C29.0573 60.43 28.8717 60.6157 28.686 60.6157ZM19.4031 42.6069H19.2175C19.0318 42.7925 18.8461 43.1639 18.8461 43.7208V52.0754C18.8461 53.1894 19.5888 54.489 20.3314 55.046L28.129 59.5017C28.3147 59.6874 28.686 59.6874 28.8717 59.5017C29.0573 59.3161 29.243 58.9448 29.243 58.3878V50.0332C29.243 48.9193 28.5004 47.6196 27.7577 47.0627L19.9601 42.6069C19.7744 42.7925 19.5888 42.6069 19.4031 42.6069Z" fill="#0F0225"/>
<path d="M184.787 114.01L190.295 110.746C190.703 110.542 191.111 110.542 191.519 110.95L200.086 115.846C201.106 116.458 201.922 118.089 201.922 119.517V128.697C201.922 129.512 201.718 129.92 201.31 130.124L195.802 133.388V131.96L196.006 130.94L188.459 126.657C187.439 126.045 186.623 124.413 186.623 122.985V115.438L185.807 116.05L184.787 114.01Z" fill="#54BAF9"/>
<path d="M195.802 133.796H195.598C195.394 133.796 195.394 133.592 195.394 133.388V131.96L195.598 131.348L188.255 127.064C187.031 126.453 186.215 124.617 186.215 123.189V116.457L186.011 116.661C186.011 116.661 185.807 116.661 185.603 116.661C185.399 116.661 185.399 116.457 185.399 116.457L184.379 114.214C184.379 114.01 184.379 113.806 184.583 113.602L190.09 110.338C190.498 110.134 191.11 110.134 191.722 110.542L200.289 115.438C201.513 116.049 202.329 117.885 202.329 119.313V128.492C202.329 129.308 202.125 129.92 201.513 130.328C201.513 130.328 199.678 131.348 196.006 133.592C196.006 133.796 196.006 133.796 195.802 133.796ZM186.827 115.234H187.031C187.235 115.234 187.235 115.438 187.235 115.641V123.189C187.235 124.413 188.051 125.841 188.867 126.453L196.414 130.736C196.618 130.736 196.618 130.94 196.618 131.144L196.414 132.164V132.776C197.842 131.96 201.309 129.92 201.309 129.92C201.513 129.716 201.717 129.308 201.717 128.696V119.313C201.717 118.089 200.901 116.661 200.086 116.049L191.518 111.154C191.314 110.95 190.906 110.95 190.702 110.95L185.603 114.01L186.419 115.438L186.827 115.234C186.623 115.234 186.623 115.234 186.827 115.234Z" fill="#0F0225"/>
<path d="M191.519 110.746L192.335 111.358L185.4 115.437L184.584 113.806L190.092 110.542C190.703 110.542 191.111 110.542 191.519 110.746Z" fill="#0F0225"/>
<path d="M185.603 115.845C185.399 115.845 185.399 115.845 185.603 115.845C185.399 115.845 185.195 115.641 185.195 115.641L184.379 114.01C184.379 113.806 184.379 113.602 184.583 113.398L190.09 110.134C190.498 109.93 191.11 109.93 191.722 110.338L192.538 110.95C192.742 110.95 192.742 111.154 192.742 111.358C192.742 111.562 192.742 111.562 192.538 111.766L185.603 115.845ZM185.399 114.214L185.807 115.03L191.722 111.562L191.518 111.358C191.314 111.154 190.906 111.154 190.702 111.154L185.399 114.214Z" fill="#0F0225"/>
<path d="M196.209 123.802L195.393 132.369L195.801 133.389L201.308 130.125C201.716 129.921 201.92 129.309 201.92 128.697V120.538L196.209 123.802Z" fill="#0F0225"/>
<path d="M195.8 133.797C195.596 133.797 195.392 133.593 195.392 133.593L194.984 132.573V132.369L195.8 123.801C195.8 123.597 195.8 123.597 196.004 123.393L201.716 120.13C201.92 120.13 201.92 120.13 202.124 120.13C202.328 120.13 202.328 120.334 202.328 120.538V128.697C202.328 129.513 202.124 130.125 201.512 130.533C201.512 130.533 199.676 131.553 196.004 133.797C196.004 133.797 196.004 133.797 195.8 133.797ZM195.8 132.165L196.004 132.777C197.228 131.961 201.104 129.717 201.104 129.717C201.308 129.513 201.512 129.105 201.512 128.493V120.946L196.616 123.801L195.8 132.165Z" fill="#0F0225"/>
<path d="M191.52 110.746L200.087 115.641C200.495 115.845 201.107 116.457 201.311 117.069L195.803 120.333L185.4 114.418L191.52 110.746Z" fill="#E6DEF8"/>
<path d="M195.803 120.741H195.599L185.196 114.826C184.992 114.826 184.992 114.622 184.992 114.418C184.992 114.214 184.992 114.214 185.196 114.01L191.316 110.542C191.52 110.542 191.52 110.542 191.724 110.542L200.291 115.437C200.903 115.641 201.311 116.253 201.719 116.865C201.923 117.069 201.719 117.273 201.515 117.477L196.007 120.741C196.007 120.741 196.007 120.741 195.803 120.741ZM186.216 114.418L195.803 119.925L200.699 117.069C200.495 116.661 200.087 116.457 199.883 116.253L191.52 111.358L186.216 114.418Z" fill="#0F0225"/>
<path d="M186.01 128.288L194.577 133.184C195.597 133.796 196.413 133.184 196.413 131.756V122.577C196.413 121.149 195.597 119.517 194.577 118.905L186.01 114.009C184.99 113.397 184.174 114.009 184.174 115.437V124.616C184.174 126.044 184.99 127.676 186.01 128.288Z" fill="#54BAF9"/>
<path d="M195.393 134C195.189 134 194.781 134 194.373 133.796L185.805 128.901C184.582 128.289 183.766 126.453 183.766 125.025V115.846C183.766 115.03 184.174 114.214 184.582 114.01C184.99 113.806 185.601 113.806 186.213 114.01L194.781 118.906C196.005 119.518 196.82 121.353 196.82 122.781V131.96C196.82 132.776 196.412 133.592 196.005 133.796C195.801 133.796 195.597 134 195.393 134ZM185.193 114.214H184.99C184.786 114.418 184.582 114.826 184.582 115.438V124.617C184.582 125.841 185.397 127.269 186.213 127.881L194.781 132.776C194.985 132.98 195.393 132.98 195.597 132.776C195.801 132.572 196.005 132.164 196.005 131.553V122.373C196.005 121.149 195.189 119.722 194.373 119.11L185.805 114.214C185.601 114.418 185.397 114.214 185.193 114.214Z" fill="#0F0225"/>
<path d="M174.289 20.217L178.84 17.4695C179.441 17.126 180.128 17.2119 180.9 17.6412L195.754 26.2272C197.557 27.2575 199.017 30.0051 199.017 32.4091V48.465C199.017 49.7529 198.587 50.6115 197.986 51.0408C197.901 51.0408 193.35 53.8742 193.35 53.8742L193.436 51.4701L193.865 49.8387L180.814 42.2831C179.011 41.2527 177.552 38.5052 177.552 36.1011V23.2221L176.006 24.0807L174.289 20.217Z" fill="#54BAF9"/>
<path d="M193.436 53.9599H193.35C193.264 53.9599 193.264 53.8741 193.264 53.7882L193.35 51.3841L193.779 49.8387L180.9 42.3688C179.097 41.3385 177.552 38.5051 177.552 36.0152V23.3938L176.264 24.1665C176.264 24.1665 176.178 24.1665 176.092 24.1665C176.006 24.1665 176.006 24.0806 176.006 24.0806L174.117 20.2169C174.117 20.1311 174.117 20.0452 174.203 19.9593L178.754 17.2118C179.441 16.8684 180.213 16.9542 180.986 17.3835L195.84 25.9696C197.643 26.9999 199.188 29.8333 199.188 32.3232V48.379C199.188 49.6669 198.759 50.6114 198.072 51.1266C197.986 51.1266 193.951 53.6165 193.436 53.9599ZM177.723 22.9645H177.809C177.895 22.9645 177.895 23.0503 177.895 23.1362V36.0152C177.895 38.3334 179.269 41.0809 181.072 42.0254L194.123 49.5811C194.208 49.5811 194.208 49.6669 194.208 49.7528L193.779 51.3841L193.693 53.4448C195.325 52.5003 197.986 50.869 197.986 50.7831C198.587 50.3538 198.931 49.4952 198.931 48.379V32.4091C198.931 30.0908 197.557 27.3433 195.754 26.3989L180.9 17.8128C180.127 17.2977 179.441 17.2977 178.925 17.5553L174.461 20.2169L176.178 23.7372L177.723 22.9645C177.637 22.9645 177.637 22.9645 177.723 22.9645Z" fill="#150035"/>
<path d="M180.898 17.5553L182.444 18.4139L175.489 22.7928L174.201 20.1311L178.752 17.3836C179.439 17.126 180.126 17.126 180.898 17.5553Z" fill="#150035"/>
<path d="M175.577 23.0504C175.491 23.0504 175.491 23.0504 175.577 23.0504C175.491 23.0504 175.405 22.9645 175.405 22.9645L174.117 20.3028C174.117 20.217 174.117 20.1311 174.203 20.0453L178.754 17.2977C179.441 16.9543 180.213 17.0402 180.986 17.4695L182.531 18.3281C182.617 18.3281 182.617 18.4139 182.617 18.4998C182.617 18.5856 182.617 18.5856 182.531 18.6715L175.577 23.0504C175.577 23.0504 175.577 22.9645 175.577 23.0504ZM174.461 20.217L175.577 22.5352L182.102 18.4139L180.814 17.6412C180.127 17.2977 179.441 17.2977 178.925 17.5553L174.461 20.217Z" fill="#150035"/>
<path d="M194.118 35.1567L192.572 51.8994L193.345 53.7024C193.345 53.7024 197.896 50.9549 197.981 50.8691C198.582 50.4398 199.012 49.5812 199.012 48.2933V32.4091L194.118 35.1567Z" fill="#150035"/>
<path d="M193.433 53.96C193.347 53.96 193.347 53.96 193.433 53.96C193.347 53.96 193.261 53.8742 193.261 53.8742L192.488 52.0711V51.9852L194.034 35.2425C194.034 35.1567 194.034 35.1567 194.12 35.0708L199.1 32.2374C199.185 32.2374 199.185 32.2374 199.271 32.2374C199.357 32.2374 199.357 32.3233 199.357 32.4091V48.465C199.357 49.7529 198.928 50.6973 198.241 51.2125C198.155 51.2125 194.12 53.7024 193.604 54.0459C193.433 53.96 193.433 53.96 193.433 53.96ZM192.746 51.8994L193.433 53.5307C195.064 52.5863 197.812 50.8691 197.897 50.8691C198.498 50.4398 198.842 49.5812 198.842 48.465V32.6667L194.205 35.2425L192.746 51.8994Z" fill="#150035"/>
<path d="M180.899 17.5554L195.753 26.1414C196.612 26.6566 197.385 27.5152 197.9 28.5455L193.349 31.293L175.49 20.904L180.899 17.5554Z" fill="white"/>
<path d="M193.435 31.4647H193.349L175.404 21.0756C175.318 21.0756 175.318 20.9898 175.318 20.9039C175.318 20.8181 175.318 20.8181 175.404 20.7322L180.813 17.4695C180.899 17.4695 180.899 17.4695 180.985 17.4695L195.839 26.0555C196.698 26.5707 197.47 27.4293 198.071 28.4596C198.157 28.5455 198.071 28.6313 197.985 28.7172L193.521 31.3788C193.435 31.3788 193.435 31.4647 193.435 31.4647ZM175.834 20.9039L193.435 31.0354L197.814 28.4596C197.213 27.5151 196.526 26.7424 195.839 26.3131L180.899 17.813L175.834 20.9039Z" fill="#150035"/>
<path d="M176.347 45.0306L191.2 53.6166C193.004 54.6469 194.463 53.5307 194.463 51.1266V35.1566C194.463 32.7526 193.004 30.005 191.2 28.9747L176.347 20.3887C174.544 19.3584 173.084 20.4746 173.084 22.8786V38.9345C173.17 41.1668 174.544 44.0002 176.347 45.0306Z" fill="#54BAF9"/>
<path d="M192.576 54.1318C192.147 54.1318 191.717 53.96 191.202 53.7024L176.349 45.1164C174.545 44.0861 173 41.2527 173 38.7628V22.7928C173 21.5049 173.429 20.4746 174.202 20.0453C174.889 19.7019 175.662 19.7019 176.52 20.217L191.374 28.803C193.177 29.8333 194.723 32.6667 194.723 35.1567V51.2125C194.723 52.5004 194.293 53.5307 193.521 53.96C193.177 54.0459 192.834 54.1318 192.576 54.1318ZM175.061 20.1312C174.803 20.1312 174.545 20.217 174.288 20.3029C173.601 20.6463 173.258 21.5908 173.258 22.7928V38.8487C173.258 41.1669 174.631 43.9144 176.434 44.8589L191.288 53.4449C191.975 53.8742 192.662 53.96 193.263 53.6166C193.95 53.2732 194.293 52.3287 194.293 51.1266V35.1567C194.293 32.8384 192.92 30.0909 191.116 29.1465L176.263 20.5605C175.833 20.217 175.49 20.1312 175.061 20.1312Z" fill="#150035"/>
<path d="M193.522 51.5557C193.436 51.5557 193.436 51.5557 193.35 51.4699C193.264 51.384 193.35 51.2981 193.436 51.2123L199.36 47.7779C199.446 47.692 199.532 47.7779 199.618 47.8637C199.704 47.9496 199.618 48.0355 199.532 48.1213L193.608 51.5557H193.522Z" fill="#54BAF9"/>
<path d="M187.339 36.1867L186.222 35.5857V33.8685C186.222 33.0099 185.621 31.8937 184.849 31.4644L182.96 30.3482C182.187 29.9189 181.586 30.2624 181.586 31.121V32.8382L180.47 32.2371C179.955 31.8937 179.439 32.1513 179.439 32.8382V38.4191C179.439 39.8787 180.47 41.7676 181.758 42.4545L185.879 44.8586C187.167 45.6313 188.197 45.0303 188.197 43.4848V37.9039C188.369 37.217 187.94 36.4443 187.339 36.1867ZM182.273 31.5503C182.273 31.0351 182.616 30.8634 183.046 31.121L184.934 32.1513C185.364 32.4089 185.707 32.924 185.707 33.4392V35.1564L182.359 33.1816V31.5503H182.273ZM187.682 43.1414C187.682 44.2575 186.909 44.6868 185.965 44.0858L181.844 41.6817C180.899 41.1666 180.126 39.7928 180.126 38.7625V33.1816C180.126 32.924 180.298 32.8382 180.47 33.0099L181.844 33.7826L185.879 36.1008L187.253 36.8736C187.424 36.9594 187.596 37.217 187.596 37.4746V43.1414H187.682Z" fill="white"/>
<path d="M183.989 36.9594C183.474 36.616 182.959 36.8736 182.959 37.5605C182.959 38.0756 183.217 38.6766 183.646 39.0201V40.308C183.646 40.4797 183.818 40.7373 183.989 40.909C184.161 40.9949 184.333 40.909 184.333 40.7373V39.4494C184.762 39.5352 185.02 39.2777 185.02 38.7625C185.02 38.0756 184.59 37.3029 183.989 36.9594Z" fill="white"/>
<path d="M16.3672 128.331L21.2084 125.408C21.8478 125.043 22.5786 125.134 23.4007 125.591L39.2033 134.725C41.1215 135.821 42.6744 138.744 42.6744 141.302V158.383C42.6744 159.754 42.2176 160.667 41.5782 161.124C41.4869 161.124 36.6456 164.138 36.6456 164.138L36.737 161.581L37.1937 159.845L23.3094 151.807C21.3911 150.711 19.8383 147.788 19.8383 145.23V131.528L18.1941 132.442L16.3672 128.331Z" fill="#54BAF9"/>
<path d="M36.738 164.321H36.6467C36.5553 164.321 36.5553 164.229 36.5553 164.138L36.6467 161.581L37.1034 159.936L23.4018 151.989C21.4835 150.893 19.8393 147.879 19.8393 145.23V131.802L18.4692 132.624C18.4692 132.624 18.3778 132.624 18.2865 132.624C18.1951 132.624 18.1951 132.533 18.1951 132.533L16.1855 128.423C16.1855 128.331 16.1855 128.24 16.2769 128.148L21.1181 125.225C21.8489 124.86 22.671 124.951 23.4931 125.408L39.2957 134.543C41.2139 135.639 42.8581 138.653 42.8581 141.302V158.383C42.8581 159.754 42.4014 160.758 41.6706 161.306C41.5793 161.306 37.2861 163.955 36.738 164.321C36.738 164.321 36.8294 164.321 36.738 164.321ZM20.022 131.346H20.1134C20.2047 131.346 20.2047 131.437 20.2047 131.528V145.321C20.2047 147.788 21.6662 150.711 23.5844 151.715L37.4688 159.754C37.5601 159.754 37.5601 159.845 37.5601 159.936L37.1034 161.672L37.0121 163.864C38.7476 162.859 41.5793 161.124 41.5793 161.032C42.2187 160.576 42.5841 159.662 42.5841 158.475V141.393C42.5841 138.927 41.1226 136.004 39.2043 134.999L23.4018 125.865C22.671 125.408 21.9402 125.317 21.3922 125.682L16.6423 128.514L18.4692 132.259L20.022 131.346C19.9307 131.346 20.022 131.346 20.022 131.346Z" fill="#150035"/>
<path d="M23.492 125.591L25.1362 126.504L17.7374 131.163L16.3672 128.331L21.2084 125.408C21.8478 125.134 22.6699 125.134 23.492 125.591Z" fill="#150035"/>
<path d="M17.7384 131.437C17.7384 131.437 17.7384 131.346 17.7384 131.437C17.6471 131.437 17.5557 131.346 17.5557 131.346L16.1855 128.514C16.1855 128.423 16.1855 128.331 16.2769 128.24L21.1181 125.225C21.8489 124.86 22.671 124.951 23.4931 125.408L25.1373 126.322C25.2286 126.322 25.2286 126.413 25.2286 126.504C25.2286 126.596 25.2286 126.596 25.1373 126.687L17.7384 131.346C17.8297 131.346 17.7384 131.437 17.7384 131.437ZM16.6423 128.423L17.8297 130.889L24.7719 126.504L23.4018 125.682C22.671 125.225 21.9402 125.134 21.3922 125.499L16.6423 128.423Z" fill="#150035"/>
<path d="M37.4665 144.317L35.8223 162.129L36.6444 164.047C36.6444 164.047 41.4856 161.124 41.577 161.033C42.2164 160.576 42.6731 159.662 42.6731 158.292V141.393L37.4665 144.317Z" fill="#150035"/>
<path d="M36.7372 164.321C36.6459 164.321 36.5545 164.23 36.5545 164.23L35.7324 162.311V162.22L37.3766 144.408C37.3766 144.317 37.3766 144.317 37.468 144.225L42.7659 141.211C42.8573 141.211 42.8573 141.211 42.9486 141.211C43.04 141.211 43.04 141.302 43.04 141.394V158.475C43.04 159.845 42.5832 160.85 41.8525 161.398C41.7611 161.398 37.468 164.047 36.9199 164.412C36.8286 164.321 36.7372 164.321 36.7372 164.321ZM36.0978 162.129L36.8286 163.864C38.5641 162.859 41.4871 161.033 41.5785 161.033C42.2179 160.576 42.5832 159.662 42.5832 158.475V141.668L37.6507 144.408L36.0978 162.129Z" fill="#150035"/>
<path d="M23.4925 125.591L39.2951 134.725C40.2085 135.273 41.0306 136.187 41.5787 137.283L36.7375 140.206L17.6465 129.153L23.4925 125.591Z" fill="white"/>
<path d="M36.7385 140.297H36.6472L17.5562 129.245C17.4648 129.245 17.4648 129.153 17.4648 129.062C17.4648 128.971 17.4648 128.971 17.5562 128.879L23.3109 125.408C23.4022 125.408 23.4022 125.408 23.4936 125.408L39.2961 134.543C40.2096 135.091 41.0317 136.004 41.6711 137.1C41.7624 137.192 41.6711 137.283 41.5798 137.374L36.7385 140.297C36.8298 140.297 36.7385 140.297 36.7385 140.297ZM18.0129 129.153L36.7385 139.932L41.3971 137.192C40.7577 136.187 40.0269 135.365 39.2961 134.908L23.4936 125.865L18.0129 129.153Z" fill="#150035"/>
<path d="M18.6527 154.821L34.4553 163.955C36.3735 165.052 37.9264 163.864 37.9264 161.306V144.225C37.9264 141.667 36.3735 138.744 34.4553 137.648L18.6527 128.605C16.7345 127.509 15.1816 128.696 15.1816 131.254V148.335C15.1816 150.71 16.7345 153.725 18.6527 154.821Z" fill="#54BAF9"/>
<path d="M35.8265 164.503C35.3698 164.503 34.9131 164.321 34.365 164.047L18.5624 154.912C16.5529 153.816 15 150.802 15 148.244V131.163C15 129.793 15.4567 128.697 16.2788 128.24C17.0096 127.874 17.8317 127.874 18.7451 128.422L34.5477 137.557C36.4659 138.653 38.1101 141.667 38.1101 144.316V161.398C38.1101 162.768 37.6534 163.864 36.8313 164.321C36.5573 164.412 36.1919 164.503 35.8265 164.503ZM18.7451 154.638L34.5477 163.773C35.2784 164.229 36.0092 164.321 36.6486 163.955C37.3794 163.59 37.7447 162.585 37.7447 161.306V144.225C37.7447 141.759 36.2832 138.836 34.365 137.831L18.5624 128.697C17.8317 128.24 17.1009 128.148 16.4615 128.514C15.7308 128.879 15.3654 129.884 15.3654 131.163V148.244C15.3654 150.71 16.9182 153.542 18.7451 154.638Z" fill="#150035"/>
<path d="M36.8279 161.763C36.7366 161.763 36.7366 161.763 36.6453 161.672C36.5539 161.58 36.6453 161.489 36.7366 161.398L43.0394 157.744C43.1307 157.653 43.2221 157.744 43.3134 157.835C43.4047 157.927 43.3134 158.018 43.2221 158.109L36.9193 161.763C36.9193 161.763 36.9193 161.763 36.8279 161.763Z" fill="#54BAF9"/>
<path d="M31.3464 144.773C31.3464 144.591 31.255 144.499 31.1637 144.316L26.8705 139.932C26.8705 139.932 26.8705 139.932 26.7792 139.841C26.7792 139.841 26.7792 139.841 26.6878 139.841C26.6878 139.841 26.6878 139.841 26.5965 139.841L22.3033 139.293C22.2119 139.293 22.1206 139.384 22.1206 139.475C22.1206 139.567 21.0245 146.509 26.5965 153.451L26.6878 153.542H26.7792C26.7792 153.542 26.7792 153.542 26.8705 153.542C32.5338 153.086 31.3464 144.865 31.3464 144.773ZM26.8705 152.629C26.0484 148.518 25.9571 146.052 25.9571 146.052C25.9571 145.869 25.7744 145.595 25.5917 145.413C25.409 145.321 25.2263 145.413 25.2263 145.595C25.2263 145.687 25.2263 147.97 26.0484 151.898C22.1206 146.326 22.486 141.211 22.5773 140.115L25.8657 140.48C25.5917 141.028 25.3176 141.85 25.2263 143.129C25.2263 143.312 25.3176 143.586 25.5003 143.768C25.683 143.86 25.8657 143.768 25.8657 143.586C26.0484 141.942 26.4138 141.028 26.6878 140.663L30.5243 144.682C30.7983 146.052 31.1637 151.989 26.8705 152.629Z" fill="white"/>
</svg>
