<svg width="295" height="136" viewBox="0 0 295 136" fill="none" xmlns="http://www.w3.org/2000/svg">
<path opacity="0.53" d="M114.021 125.876C121.007 129.91 129.907 132.656 139.597 133.769C149.286 134.882 159.33 134.311 168.457 132.128C177.585 129.945 185.386 126.249 190.875 121.506C196.363 116.763 199.293 111.188 199.293 105.484C199.293 99.78 196.363 94.2042 190.875 89.4616C185.386 84.719 177.585 81.0226 168.457 78.8398C159.33 76.657 149.286 76.0859 139.597 77.1987C129.907 78.3115 121.007 81.0581 114.021 85.0914C104.653 90.4998 99.3906 97.8352 99.3906 105.484C99.3906 113.132 104.653 120.468 114.021 125.876Z" fill="#3C089F"/>
<path d="M106.858 60.4765L103.812 27.4111L59.1152 43.7152L73.2009 80.6295L106.858 60.4765ZM106.858 60.4765L147.102 14.5765L171.901 12.1836L194.291 57.3407M106.858 60.4765L123.173 89.8437M194.291 57.3407L165.109 106.9M194.291 57.3407L189.969 89.8437L225.715 80.6295M194.291 57.3407L225.715 80.6295M225.715 80.6295L241.744 45.658" stroke="#E6DEF8"/>
<path d="M114.646 4.24072V4.10951L120.551 0.566867C120.813 0.304449 121.207 0.435661 121.732 0.69808L123.962 2.535C124.094 2.66621 134.721 11.326 146.399 9.22667C146.662 9.22667 146.924 9.22667 147.186 9.22667C148.367 9.35788 149.679 10.1451 150.86 11.326C151.123 11.5884 151.385 11.9821 151.647 12.2445C162.931 27.4647 173.559 31.2698 174.084 31.401L176.315 32.0571C177.102 32.3195 177.758 33.3692 177.758 34.1564V36.6494C177.233 69.4517 168.049 82.3102 160.438 87.2961L153.353 91.626L152.828 90.1827C151.385 90.4451 150.467 90.3139 150.335 90.3139C149.679 90.3139 148.761 89.7891 148.105 89.0018C147.186 87.9521 126.193 65.1217 121.601 18.8049L118.452 11.8509L114.646 4.24072Z" fill="#0F0225"/>
<path d="M153.091 92.0181C152.96 92.0181 152.828 91.8868 152.828 91.8868L152.435 90.706C151.123 90.8372 150.204 90.8372 150.073 90.8372C149.286 90.706 148.367 90.3123 147.711 89.5251C146.793 88.6066 125.668 65.645 121.076 19.197L117.927 12.2429L114.515 4.50157C114.384 4.37037 114.515 4.10794 114.646 3.97674L120.551 0.434089C120.945 0.171671 121.469 0.171672 121.994 0.696508L124.225 2.53343C124.618 2.92706 134.984 11.3244 146.399 9.2251C146.662 9.2251 146.924 9.2251 147.186 9.2251C148.367 9.35631 149.811 10.1436 150.991 11.4557C151.254 11.7181 151.516 12.1117 151.779 12.3741C162.931 27.5944 173.559 31.2682 174.084 31.3994L176.315 32.0555C177.233 32.3179 177.889 33.4988 177.889 34.4172V36.9102C177.364 69.8437 168.18 82.7022 160.57 87.6881L153.484 92.0181C153.222 92.0181 153.222 92.0181 153.091 92.0181ZM152.697 90.0499C152.828 90.0499 152.96 90.1811 152.96 90.1811L153.353 91.2308L160.176 87.0321C167.655 82.1774 176.84 69.4501 177.364 36.6478V34.1548C177.364 33.3676 176.708 32.4491 176.184 32.3179L173.953 31.6619C173.559 31.5306 162.669 27.7256 151.385 12.3741C151.123 11.9805 150.86 11.7181 150.598 11.4557C149.548 10.2748 148.236 9.48751 147.186 9.48751C146.924 9.48751 146.793 9.48751 146.53 9.48751C134.853 11.5869 124.356 3.05827 123.962 2.66464L121.732 0.827715C121.338 0.565297 121.076 0.434087 120.945 0.565296L115.171 4.10794L118.583 11.7181L121.732 18.6722C121.732 18.6722 121.732 18.6721 121.732 18.8034C126.324 64.989 147.318 87.8194 148.236 88.7378C148.892 89.5251 149.679 89.9187 150.335 89.9187C150.335 90.1811 151.254 90.1811 152.697 90.0499C152.566 90.0499 152.566 90.0499 152.697 90.0499Z" fill="#0F0225"/>
<path d="M120.681 0.566867C120.943 0.304449 121.337 0.435661 121.862 0.69808L124.092 2.535C124.223 2.66621 134.851 11.326 146.529 9.22667C146.791 9.22667 147.054 9.22667 147.316 9.22667C148.497 9.35788 149.809 10.1451 150.99 11.326C151.252 11.5884 151.515 11.9821 151.777 12.2445C163.061 27.4647 173.689 31.2698 174.214 31.401L176.445 32.0571C176.838 32.1883 177.232 32.5819 177.494 32.9755L159.912 42.9474L122.78 27.3335C122.386 24.5781 121.993 21.8228 121.73 18.9362L118.581 11.9821L115.17 4.24072V4.10951L120.681 0.566867Z" fill="#E6DEF8"/>
<path d="M159.52 43.209C159.52 43.209 159.389 43.209 159.52 43.209L122.257 27.5951C122.125 27.5951 122.125 27.4639 122.125 27.3327C121.732 24.5773 121.338 21.8219 121.076 18.9353L117.927 11.9812L114.515 4.23985C114.384 4.10864 114.515 3.84622 114.646 3.71501L120.551 0.17237C120.945 -0.0900481 121.469 -0.0900471 121.994 0.434789L124.225 2.27171C124.618 2.66534 134.984 11.0627 146.399 8.96338C146.662 8.96338 146.924 8.96338 147.186 8.96338C148.367 9.09459 149.811 9.88185 150.991 11.1939C151.254 11.4564 151.516 11.85 151.779 12.1124C162.931 27.3327 173.559 31.0065 174.084 31.1377L176.315 31.7938C176.708 31.925 177.233 32.3186 177.496 32.8434C177.496 32.8434 177.496 32.9746 177.496 33.1059C177.496 33.2371 177.496 33.2371 177.364 33.2371L159.52 43.209C159.651 43.209 159.52 43.209 159.52 43.209ZM122.519 27.2014L159.389 42.8153L176.708 32.9747C176.446 32.7122 176.184 32.4498 175.921 32.4498L173.691 31.7938C173.297 31.6626 162.407 27.8575 151.123 12.506C150.86 12.1124 150.598 11.85 150.335 11.5876C149.286 10.4067 147.974 9.61942 146.924 9.61942C146.662 9.61942 146.53 9.61942 146.268 9.61942C134.59 11.7188 124.094 3.19018 123.7 2.79655L121.469 0.959623C121.076 0.697205 120.813 0.566 120.682 0.697209L114.909 4.23985L118.32 11.85L121.469 18.8041C121.469 18.8041 121.469 18.8041 121.469 18.9353C121.863 21.6907 122.125 24.4461 122.519 27.2014Z" fill="#0F0225"/>
<path d="M124.354 2.92746L121.73 0.696913C121.205 0.303285 120.811 0.303282 120.549 0.565701L114.644 4.10835C114.644 4.10835 114.513 4.23956 114.644 4.23956L116.744 7.51978L124.354 2.92746Z" fill="#0F0225"/>
<path d="M116.744 7.78216C116.613 7.78216 116.613 7.78215 116.482 7.65094L114.382 4.37071C114.251 4.10829 114.382 3.97709 114.514 3.84588L120.418 0.30323C120.812 0.0408113 121.337 0.0408123 121.861 0.565649L124.486 2.79621C124.617 2.79621 124.617 2.92742 124.617 3.05862C124.617 3.18983 124.617 3.18983 124.486 3.32104L116.875 8.04457C116.875 7.78215 116.744 7.78216 116.744 7.78216ZM115.039 4.2395L116.875 7.25732L123.961 2.92741L121.599 0.959275C121.205 0.696857 120.943 0.565652 120.812 0.696861L115.039 4.2395Z" fill="#0F0225"/>
<path d="M141.806 92.8072C140.756 91.6263 115.301 63.9412 114.383 7.52126V4.89708C114.383 3.97861 115.039 3.71619 115.826 4.37224L118.057 6.20917C118.188 6.34038 128.816 15.0002 140.493 12.9008C140.756 12.9008 141.018 12.9008 141.281 12.9008C142.462 13.032 143.774 13.8193 144.955 15.0002C145.217 15.2626 145.479 15.6562 145.742 15.9186C157.026 31.1389 167.654 34.944 168.179 35.0752L170.409 35.7312C171.196 35.9936 171.852 37.0433 171.852 37.8306V40.3235C170.934 95.6938 145.479 94.1193 144.43 93.9881C143.38 93.9881 142.462 93.5945 141.806 92.8072ZM164.373 40.1923C159.65 37.5682 151.909 32.0574 143.774 21.8231C143.249 21.0358 142.462 20.6422 141.937 20.7734C133.802 21.6918 126.06 18.2804 121.468 15.525C120.812 15.1314 120.418 15.525 120.418 16.1811C122.124 54.2317 135.507 76.5373 141.281 84.541C142.199 85.8531 144.036 87.5588 144.955 87.4276C150.859 86.1155 163.717 78.1118 165.423 42.1605C165.554 41.3732 165.03 40.4548 164.373 40.1923Z" fill="#5600D6"/>
<path d="M144.692 94.3807C144.299 94.3807 144.036 94.3807 144.036 94.3807C143.249 94.2495 142.331 93.8559 141.675 93.0686L141.806 92.8062L141.675 92.9374C140.625 91.7565 115.039 63.9402 114.252 7.52025V4.89606C114.252 4.37123 114.383 3.97761 114.777 3.8464C115.17 3.71519 115.695 3.84639 116.089 4.10881L118.319 5.94574C118.713 6.33937 129.079 14.7367 140.494 12.6374C140.756 12.6374 141.019 12.6374 141.281 12.6374C142.462 12.7686 143.905 13.5559 145.086 14.868C145.349 15.1304 145.611 15.524 145.873 15.7864C157.026 31.0067 167.654 34.6805 168.179 34.8117L170.409 35.4678C171.197 35.7302 171.984 36.9111 171.984 37.8296V40.3225C171.459 70.107 163.849 83.2279 157.42 89.0011C151.778 93.8558 146.661 94.3807 144.692 94.3807ZM115.039 4.37123H114.908C114.777 4.50243 114.646 4.63365 114.646 4.89606V7.52025C115.564 63.809 140.887 91.4941 141.937 92.675C142.593 93.331 143.38 93.8558 144.036 93.8558C144.299 93.8558 150.466 94.3807 156.764 88.7387C163.062 83.0967 170.672 70.107 171.066 40.4537V37.9608C171.066 37.1735 170.409 36.255 169.885 36.1238L167.654 35.4678C167.26 35.3366 156.37 31.5315 145.086 16.18C144.824 15.7864 144.561 15.524 144.299 15.2616C143.249 14.0807 141.937 13.2934 140.887 13.2934C140.625 13.2934 140.494 13.2934 140.231 13.2934C128.554 15.3928 118.057 6.86421 117.663 6.47058L115.433 4.63365C115.433 4.37123 115.17 4.37123 115.039 4.37123ZM144.824 87.5578C143.512 87.5578 141.675 85.4585 141.019 84.54C135.245 76.6675 121.731 54.3619 120.025 15.9176C120.025 15.524 120.156 15.1304 120.419 14.868C120.681 14.7367 121.075 14.7368 121.468 14.9992C126.323 17.8858 133.802 21.166 141.806 20.2475C142.462 20.1163 143.249 20.6412 143.905 21.4284C151.778 31.5315 159.388 37.0423 164.374 39.7977C165.03 40.1913 165.686 41.1098 165.555 41.897C163.718 80.2101 149.285 86.3769 144.955 87.2954C144.955 87.5578 144.955 87.5578 144.824 87.5578ZM120.944 15.524H120.812C120.681 15.6552 120.681 15.7864 120.681 16.0488C122.387 54.2307 135.901 76.5362 141.543 84.2776C142.593 85.7209 144.299 87.1642 144.955 87.033C149.285 86.1145 163.455 79.9477 165.161 42.0282C165.161 41.3722 164.767 40.5849 164.243 40.3225C159.257 37.5671 151.515 32.0564 143.643 21.822C143.118 21.166 142.462 20.7724 142.068 20.9036C133.933 21.822 126.323 18.5418 121.337 15.524C121.206 15.524 121.075 15.524 120.944 15.524Z" fill="#0F0225"/>
<path d="M121.468 15.3918C126.192 18.1472 133.802 21.5586 141.937 20.6401C142.462 20.6401 143.249 21.0338 143.774 21.6898C151.778 32.0553 159.519 37.4349 164.374 40.0591C165.03 40.4527 165.555 41.24 165.423 42.0272C163.718 77.9785 150.859 85.8511 144.955 87.2944C144.036 87.5568 142.199 85.8511 141.281 84.4078C135.377 76.404 122.124 54.0985 120.419 16.0478C120.287 15.2606 120.812 14.9982 121.468 15.3918Z" fill="#5600D6"/>
<path d="M144.824 87.5573C143.512 87.5573 141.675 85.458 141.019 84.5395C135.246 76.6669 121.731 54.3614 120.025 15.9171C120.025 15.5235 120.157 15.1299 120.419 14.8674C120.681 14.7362 121.075 14.7362 121.469 14.9986C126.323 17.8853 133.802 21.1655 141.806 20.247C142.462 20.1158 143.249 20.6406 143.905 21.4279C151.778 31.531 159.388 37.0418 164.374 39.7972C165.03 40.1908 165.686 41.1093 165.555 41.8965C163.718 80.2096 149.285 86.3764 144.955 87.2949C144.955 87.5573 144.955 87.5573 144.824 87.5573ZM120.944 15.5235H120.813C120.681 15.6547 120.681 15.7859 120.681 16.0483C122.387 54.2302 135.902 76.5357 141.544 84.2771C142.593 85.7204 144.299 87.1637 144.955 87.0325C149.285 86.114 163.456 79.9472 165.161 42.0277C165.161 41.3717 164.768 40.5844 164.243 40.322C159.257 37.5666 151.516 32.0558 143.643 21.8215C143.118 21.1655 142.462 20.7719 142.069 20.9031C133.934 21.8215 126.323 18.5413 121.337 15.5235C121.206 15.5235 121.075 15.5235 120.944 15.5235Z" fill="#0F0225"/>
<path d="M121.468 15.3918C122.386 15.9166 123.305 16.4415 124.355 16.9663C126.323 54.0985 139.444 75.8792 145.217 83.7517C145.873 84.6702 146.923 85.8511 147.841 86.2447C146.791 86.7695 145.873 87.032 145.086 87.2944C144.167 87.5568 142.33 85.8511 141.412 84.4078C135.507 76.404 122.255 54.0985 120.549 16.0478C120.287 15.2606 120.812 14.9982 121.468 15.3918Z" fill="#0F0225"/>
<path d="M144.824 87.5573C143.512 87.5573 141.675 85.458 141.019 84.5395C135.246 76.6669 121.731 54.3614 120.025 15.9171C120.025 15.5235 120.157 15.1299 120.419 14.8674C120.681 14.7362 121.075 14.7362 121.469 14.9986C122.387 15.5235 123.306 16.0483 124.355 16.5732C124.487 16.5732 124.486 16.7044 124.486 16.8356C126.455 54.099 139.707 75.8797 145.218 83.4898C145.874 84.4083 146.923 85.458 147.842 85.9828C147.973 85.9828 147.973 86.114 147.973 86.2452C147.973 86.3764 147.973 86.3764 147.842 86.5076C146.923 87.0325 145.874 87.2949 144.955 87.5573C144.955 87.5573 144.955 87.5573 144.824 87.5573ZM120.944 15.5235H120.813C120.681 15.6547 120.681 15.7859 120.681 16.0483C122.387 54.2302 135.902 76.5357 141.544 84.2771C142.593 85.7204 144.299 87.1637 144.955 87.0325C145.742 86.9012 146.53 86.6388 147.317 86.2452C146.398 85.5892 145.611 84.6707 144.955 83.8834C139.313 76.2733 126.192 54.3614 124.093 17.098C123.174 16.5732 122.256 16.1795 121.337 15.5235C121.206 15.5235 121.075 15.5235 120.944 15.5235Z" fill="#0F0225"/>
<path d="M170.934 36.78C170.803 36.78 170.803 36.78 170.672 36.6488C170.54 36.5176 170.672 36.3864 170.803 36.2552L176.97 32.7126C177.101 32.5813 177.232 32.7126 177.363 32.8438C177.494 32.975 177.363 33.1062 177.232 33.2374L170.934 36.78C171.065 36.78 171.065 36.78 170.934 36.78Z" fill="#0F0225"/>
<path d="M167.129 34.9421C166.998 34.9421 166.998 34.9421 166.867 34.8109C166.736 34.6797 166.867 34.5485 166.998 34.4173L173.165 30.8747C173.296 30.7435 173.427 30.8747 173.559 31.0059C173.69 31.1371 173.559 31.2683 173.427 31.3995L167.129 34.9421Z" fill="#0F0225"/>
<path d="M142.461 13.4246C142.33 13.4246 142.33 13.4246 142.199 13.2934C142.068 13.1621 142.199 13.0309 142.33 12.8997L148.497 9.35708C148.628 9.22587 148.759 9.35708 148.891 9.48829C149.022 9.6195 148.891 9.75071 148.759 9.88192L142.461 13.4246C142.593 13.4246 142.593 13.4246 142.461 13.4246Z" fill="#0F0225"/>
<path d="M119.631 25.233C119.5 25.233 119.5 25.233 119.369 25.1017C119.238 24.9705 119.369 24.8393 119.5 24.7081L126.979 20.5094C127.11 20.3782 127.241 20.5094 127.373 20.6406C127.504 20.7718 127.373 20.9031 127.241 21.0343L119.631 25.233Z" fill="#5600D6"/>
<path d="M139.575 85.065C139.443 85.065 139.443 85.065 139.312 84.9338C139.181 84.8026 139.312 84.6714 139.443 84.5402L146.922 80.3415C147.054 80.2102 147.185 80.3415 147.316 80.4727C147.447 80.6039 147.316 80.7351 147.185 80.8663L139.575 85.065C139.706 85.065 139.706 85.065 139.575 85.065Z" fill="#5600D6"/>
<path d="M170.319 42.6434C170.188 42.6434 170.188 42.6434 170.058 42.5168C169.927 42.3902 170.058 42.2636 170.188 42.137L177.626 38.0856C177.757 37.959 177.887 38.0857 178.018 38.2123C178.148 38.3389 178.018 38.4655 177.887 38.5921L170.319 42.6434C170.449 42.6434 170.449 42.6434 170.319 42.6434Z" fill="#5600D6"/>
<path d="M150.071 66.1721C149.94 66.1721 149.94 66.1721 149.809 66.0409L147.71 63.2855L141.936 60.0053C140.231 58.9556 138.787 56.5938 138.787 54.4945V45.1787L138.394 45.3099C138.263 45.3099 138.131 45.3099 138.131 45.1787L137.213 43.4729C137.213 43.4729 137.213 43.3417 137.213 43.2105C137.213 43.0793 137.344 43.0793 137.344 43.0793L139.443 42.0296C139.443 42.0296 139.575 42.0296 139.575 41.8984H139.706H139.837C140.099 41.8984 140.362 41.8984 140.624 42.0296V41.636L141.018 40.1927C140.887 40.1927 140.887 40.0615 140.756 40.0615L140.1 38.487C140.1 38.3558 140.099 38.2246 140.231 38.0934L142.33 37.0437C142.33 37.0437 142.33 37.0437 142.461 37.0437H142.592C143.38 36.6501 144.298 36.7813 145.217 37.4373L147.185 38.6182C149.284 39.7991 150.99 42.6857 150.99 45.0474V48.0652L151.646 48.4589C152.696 49.1149 153.614 50.5582 153.614 51.8703V63.0231C153.614 64.0728 153.22 64.86 152.564 65.2536L150.071 66.1721C150.203 66.1721 150.071 66.1721 150.071 66.1721ZM139.181 44.5226H139.312C139.312 44.5226 139.443 44.6538 139.443 44.785V54.4945C139.443 56.3314 140.756 58.562 142.33 59.4804L148.103 62.7607C148.103 62.7607 148.103 62.7607 148.234 62.8919L150.203 65.5161L152.433 64.4664C152.958 64.204 153.22 63.5479 153.22 62.7607V51.6079C153.22 50.5582 152.433 49.1149 151.515 48.5901L150.727 48.1965C150.596 48.1965 150.596 48.0653 150.596 47.934V44.785C150.596 42.5545 149.022 39.7991 147.054 38.7494L145.085 37.5685C144.298 37.0437 143.511 37.0437 142.986 37.3061L142.855 37.0437L142.986 37.3061L141.018 38.2246L141.412 39.2742H141.543C141.674 39.2742 141.674 39.2742 141.805 39.2742C141.936 39.4055 141.936 39.4054 141.936 39.5367L141.412 41.3736V42.1608C141.412 42.292 141.412 42.292 141.28 42.4233C141.149 42.4233 141.149 42.4233 141.018 42.4233C140.624 42.292 140.362 42.1608 140.1 42.292H139.968L138 43.2105L138.656 44.5226H139.181ZM147.972 46.622H147.841L143.642 44.2602C143.511 44.2602 143.511 44.129 143.511 43.9978V40.8487C143.511 40.3239 143.642 39.9303 144.036 39.6679C144.429 39.4054 144.823 39.5367 145.348 39.7991C145.348 39.7991 145.479 39.7991 145.479 39.9303L146.266 41.3736C147.054 41.8984 147.71 42.8169 147.71 43.7353L148.366 46.3595C148.366 46.4907 148.366 46.622 148.234 46.622C148.103 46.622 147.972 46.622 147.972 46.622ZM144.036 43.7353L147.578 45.7035L147.054 43.6041C147.054 42.8169 146.529 42.0296 145.873 41.636C145.873 41.636 145.741 41.636 145.741 41.5048L144.954 40.0615C144.692 39.9303 144.429 39.9303 144.298 40.0615C144.167 40.1927 144.036 40.4551 144.036 40.7175V43.7353Z" fill="#0F0225"/>
<path d="M149.285 49.5081L148.498 49.1144V45.9654C148.498 43.6037 146.923 40.8483 144.824 39.6674L142.856 38.4865C140.888 37.3056 139.182 38.2241 139.182 40.5858V43.7349L138.657 43.4724C137.608 42.8164 136.82 43.3412 136.82 44.5221V55.6749C136.82 57.643 138.132 60.0048 139.838 60.9233L147.973 65.6468C149.679 66.5653 150.991 65.778 150.991 63.9411V52.7883C151.122 51.6074 150.335 50.1641 149.285 49.5081ZM141.544 42.0291C141.544 41.1107 142.2 40.7171 142.987 41.2419L144.955 42.4228C145.743 42.8164 146.399 43.9973 146.399 44.7845V47.9336L141.675 45.1782V42.0291H141.544Z" fill="#E6DEF8"/>
<path d="M149.417 66.3028C148.892 66.3028 148.498 66.1716 147.973 65.9092L139.838 61.1857C138.133 60.136 136.689 57.7742 136.689 55.6749V44.5221C136.689 43.8661 136.952 43.3412 137.345 43.0788C137.739 42.8164 138.395 42.8164 138.92 43.21L139.051 43.3412V40.717C139.051 39.5362 139.445 38.6177 140.232 38.0929C141.019 37.6992 141.938 37.6992 142.987 38.3553L144.956 39.5362C147.055 40.717 148.761 43.6036 148.761 45.9654V48.9832L149.417 49.3768C150.466 50.0329 151.385 51.4762 151.385 52.7883V63.941C151.385 64.9907 150.991 65.778 150.335 66.1716C150.073 66.1716 149.81 66.3028 149.417 66.3028ZM138.002 43.4724C137.87 43.4724 137.739 43.4724 137.608 43.6036C137.345 43.7348 137.214 44.1285 137.214 44.5221V55.6749C137.214 57.5118 138.526 59.7424 140.101 60.6608L148.236 65.3843C149.023 65.778 149.679 65.9092 150.073 65.6468C150.598 65.3844 150.86 64.7283 150.86 63.941V52.7883C150.86 51.7386 150.073 50.2953 149.154 49.7705L148.367 49.3768C148.236 49.3768 148.236 49.2456 148.236 49.1144V45.9654C148.236 43.7348 146.661 40.9795 144.693 39.9298L142.725 38.7489C141.807 38.2241 141.019 38.0928 140.495 38.4865C139.838 38.8801 139.576 39.5362 139.576 40.5858V43.7348C139.576 43.8661 139.576 43.8661 139.445 43.9973C139.314 43.9973 139.314 43.9973 139.182 43.9973L138.658 43.7348C138.395 43.6036 138.133 43.4724 138.002 43.4724ZM146.268 48.0647H146.137L141.413 45.3094C141.282 45.3094 141.282 45.1781 141.282 45.0469V41.8979C141.282 41.3731 141.413 40.9795 141.807 40.717C142.2 40.4546 142.594 40.5858 143.119 40.8482L145.087 42.0291C146.005 42.554 146.661 43.7348 146.661 44.6533V47.8023C146.661 47.9335 146.661 47.9335 146.53 48.0647C146.399 48.0647 146.268 48.0647 146.268 48.0647ZM141.807 44.9157L146.005 47.2775V44.6533C146.005 43.8661 145.48 42.8164 144.693 42.4228L142.725 41.2419C142.463 41.1107 142.2 40.9794 142.069 41.1107C141.938 41.2419 141.807 41.5043 141.807 41.7667V44.9157Z" fill="#0F0225"/>
<path d="M145.219 58.3013L144.563 57.9077V55.6771C145.219 55.8083 145.744 55.4147 145.744 54.4962C145.744 53.3154 144.957 52.0033 143.907 51.3472C142.858 50.8224 142.07 51.216 142.07 52.3969C142.07 53.3154 142.595 54.365 143.251 55.0211V57.9077C143.251 58.3013 143.514 58.6949 143.776 58.8261L144.957 59.4822C145.219 59.6134 145.482 59.4822 145.482 59.2198C145.744 58.9574 145.482 58.4325 145.219 58.3013Z" fill="#5600D6"/>
<path d="M145.482 59.8746C145.351 59.8746 145.219 59.8746 145.088 59.7434L143.907 59.0874C143.514 58.825 143.251 58.3001 143.251 57.9065V55.1511C142.464 54.3639 142.07 53.3142 142.07 52.3957C142.07 51.7397 142.333 51.2148 142.726 50.9524C143.12 50.69 143.645 50.69 144.301 51.0836C145.351 51.7397 146.269 53.183 146.269 54.3639C146.269 54.8887 146.138 55.4135 145.744 55.676C145.482 55.8072 145.351 55.9384 144.957 55.9384V57.6441L145.482 57.9065C145.875 58.1689 146.138 58.6938 146.138 59.0874C146.138 59.3498 146.007 59.6122 145.875 59.6122C145.613 59.8746 145.613 59.8746 145.482 59.8746ZM143.251 51.4773C143.12 51.4773 142.989 51.4773 142.858 51.6085C142.595 51.7397 142.464 52.1333 142.464 52.5269C142.464 53.3142 142.989 54.3639 143.645 55.0199L143.776 55.1511V58.0377C143.776 58.3001 144.038 58.6938 144.17 58.825L145.351 59.481C145.482 59.481 145.482 59.481 145.482 59.481C145.482 59.481 145.482 59.481 145.482 59.3498C145.482 59.0874 145.219 58.6938 145.088 58.5626L144.432 58.1689C144.301 58.1689 144.301 58.0377 144.301 57.9065V55.676C144.301 55.5447 144.301 55.5447 144.432 55.4135C144.432 55.4135 144.563 55.2823 144.694 55.4135C144.826 55.4135 145.088 55.4135 145.351 55.2823C145.613 55.1511 145.613 54.7575 145.613 54.3639C145.613 53.3142 144.826 52.0021 143.907 51.4773C143.645 51.4773 143.382 51.4773 143.251 51.4773Z" fill="#0F0225"/>
<path d="M145.35 58.301L145.218 58.1698L144.693 57.9074V57.3826V57.2514V54.3648C144.037 53.7087 143.513 52.6591 143.513 51.7406C143.513 51.4782 143.513 51.347 143.644 51.0845C142.988 50.9533 142.463 51.4782 142.463 52.2654C142.463 53.1839 142.988 54.2336 143.644 54.8896V57.7762C143.644 58.1698 143.906 58.5635 144.169 58.6947L145.35 59.3507C145.612 59.4819 145.874 59.3507 145.874 59.0883C145.743 58.9571 145.612 58.5635 145.35 58.301Z" fill="#0F0225"/>
<path d="M139.314 42.4238V43.7359L138.002 43.2111L139.314 42.4238Z" fill="#0F0225"/>
<path d="M141.545 45.046L143.775 43.9963V41.6346L142.595 40.9785L141.807 41.1097L141.545 42.0282V45.046Z" fill="#0F0225"/>
<path d="M148.498 49.1151L150.729 47.9342V44.7852L148.498 45.966V49.1151Z" fill="#0F0225"/>
<path d="M151.123 52.7884L150.992 52.0012L153.353 50.8203V51.6076V62.7603L153.222 63.81L152.566 64.5973L150.467 65.7782L151.123 64.5973V63.6788V52.7884Z" fill="#0F0225"/>
<mask id="mask0_3889_19619" style="mask-type:alpha" maskUnits="userSpaceOnUse" x="150" y="50" width="4" height="16">
<path d="M151.123 52.7884L150.992 52.0012L153.353 50.8203V51.6076V62.7603L153.222 63.81L152.566 64.5973L150.467 65.7782L151.123 64.5973V63.6788V52.7884Z" fill="#1A0244"/>
</mask>
<g mask="url(#mask0_3889_19619)">
<path d="M151.307 64.3485C151.176 64.3485 151.176 64.3484 151.045 64.2172C150.913 64.086 151.045 63.9548 151.176 63.8236L155.112 61.7243C155.243 61.5931 155.374 61.7243 155.506 61.8555C155.637 61.9867 155.506 62.1179 155.374 62.2491L151.307 64.3485Z" fill="#5600D6"/>
<path d="M149.996 55.1629C149.865 55.1629 149.865 55.1629 149.734 55.0317C149.603 54.9005 149.734 54.7693 149.865 54.6381L153.802 52.5387C153.933 52.4075 154.064 52.5387 154.195 52.6699C154.326 52.8011 154.195 52.9324 154.064 53.0636L149.996 55.1629C150.128 55.1629 150.128 55.1629 149.996 55.1629Z" fill="#5600D6"/>
</g>
<path d="M96.9824 25.7248L100.044 23.9104C100.271 23.797 100.498 23.797 100.725 24.0238L105.487 26.7454C106.054 27.0856 106.508 27.9928 106.508 28.7866V33.8895C106.508 34.3431 106.395 34.5699 106.168 34.6833L103.106 36.4977V35.7039L103.219 35.1369L99.0236 32.7555C98.4566 32.4154 98.003 31.5082 98.003 30.7144V26.5186L97.5494 26.8588L96.9824 25.7248Z" fill="#54BAF9"/>
<path d="M103.106 36.7228H102.993C102.879 36.7228 102.879 36.6094 102.879 36.496V35.7022L102.993 35.362L98.9104 32.9806C98.23 32.6404 97.7765 31.6198 97.7765 30.826V27.0839L97.6631 27.1973C97.6631 27.1973 97.5497 27.1973 97.4363 27.1973C97.3229 27.1973 97.3229 27.0839 97.3229 27.0839L96.7559 25.8365C96.7559 25.7231 96.7559 25.6097 96.8693 25.4963L99.931 23.6819C100.158 23.5685 100.498 23.5685 100.838 23.7953L105.601 26.5169C106.281 26.8571 106.735 27.8777 106.735 28.6715V33.7744C106.735 34.228 106.622 34.5682 106.281 34.795C106.281 34.795 105.261 35.362 103.22 36.6094C103.22 36.7228 103.106 36.7228 103.106 36.7228ZM98.1166 26.4035H98.2301C98.3434 26.4035 98.3434 26.5169 98.3434 26.6303V30.826C98.3434 31.5064 98.797 32.3002 99.2506 32.6404L103.446 35.0218C103.56 35.0218 103.56 35.1352 103.56 35.2486L103.333 35.8156V36.1558C104.127 35.7022 106.055 34.5682 106.055 34.5682C106.168 34.4548 106.281 34.228 106.281 33.8878V28.7849C106.281 28.1045 105.828 27.3107 105.374 26.9705L100.611 24.2489C100.498 24.1355 100.271 24.1355 100.158 24.1355L97.3229 25.7231L97.7765 26.5169L98.1166 26.4035C98.0032 26.4035 98.0032 26.4035 98.1166 26.4035Z" fill="#0F0225"/>
<path d="M100.725 23.9083L101.178 24.2485L97.3227 26.5165L96.8691 25.6093L99.9309 23.7949C100.271 23.7949 100.498 23.7949 100.725 23.9083Z" fill="#0F0225"/>
<path d="M97.4363 26.7438C97.3229 26.7438 97.3229 26.7438 97.4363 26.7438C97.3229 26.7438 97.2095 26.6304 97.2095 26.6304L96.7559 25.7232C96.7559 25.6098 96.7559 25.4964 96.8693 25.383L99.931 23.5686C100.158 23.4552 100.498 23.4552 100.838 23.682L101.292 24.0222C101.405 24.0222 101.405 24.1356 101.405 24.249C101.405 24.3624 101.405 24.3624 101.292 24.4758L97.4363 26.7438ZM97.3229 25.7232L97.5496 26.1768L100.838 24.249L100.725 24.1356C100.611 24.0222 100.385 24.0222 100.271 24.0222L97.3229 25.7232Z" fill="#0F0225"/>
<path d="M103.333 31.1679L102.879 35.9307L103.106 36.4977L106.167 34.6833C106.394 34.5699 106.508 34.2297 106.508 33.8895V29.3535L103.333 31.1679Z" fill="#0F0225"/>
<path d="M103.106 36.7227C102.993 36.7227 102.879 36.6093 102.879 36.6093L102.652 36.0423V35.9289L103.106 31.1662C103.106 31.0528 103.106 31.0528 103.219 30.9394L106.395 29.125C106.508 29.125 106.508 29.125 106.621 29.125C106.735 29.125 106.735 29.2384 106.735 29.3518V33.8878C106.735 34.3414 106.621 34.6816 106.281 34.9084C106.281 34.9084 105.261 35.4753 103.219 36.7227H103.106ZM103.106 35.8155L103.219 36.1557C103.9 35.7021 106.054 34.4548 106.054 34.4548C106.168 34.3414 106.281 34.1146 106.281 33.7744V29.5786L103.56 31.2796L103.106 35.8155Z" fill="#0F0225"/>
<path d="M100.726 23.9082L105.489 26.6298C105.716 26.7432 106.056 27.0834 106.169 27.4236L103.108 29.238L97.3242 25.9494L100.726 23.9082Z" fill="#E6DEF8"/>
<path d="M103.108 29.4649H102.994L97.2111 26.1763C97.0977 26.1763 97.0977 26.0629 97.0977 25.9495C97.0977 25.8361 97.0977 25.8361 97.2111 25.7227L100.613 23.7949C100.726 23.7949 100.726 23.7949 100.84 23.7949L105.603 26.5165C105.943 26.6299 106.17 26.9701 106.396 27.3103C106.51 27.4237 106.396 27.5371 106.283 27.6505L103.221 29.4649H103.108ZM97.778 25.9495L103.108 29.0113L105.829 27.4237C105.716 27.1969 105.489 27.0835 105.376 26.9701L100.726 24.2485L97.778 25.9495Z" fill="#0F0225"/>
<path d="M97.6632 33.6591L102.426 36.3807C102.993 36.7209 103.447 36.3807 103.447 35.5869V30.484C103.447 29.6902 102.993 28.783 102.426 28.4428L97.6632 25.7212C97.0962 25.381 96.6426 25.7212 96.6426 26.515V31.618C96.6426 32.4117 97.0962 33.3189 97.6632 33.6591Z" fill="#54BAF9"/>
<path d="M102.88 36.8349C102.766 36.8349 102.54 36.8349 102.313 36.7215L97.55 33.9999C96.8696 33.6597 96.416 32.6391 96.416 31.8453V26.7424C96.416 26.2888 96.6428 25.8352 96.8696 25.7218C97.0964 25.6084 97.4366 25.6084 97.7768 25.7218L102.54 28.4433C103.22 28.7835 103.674 29.8041 103.674 30.5979V35.7009C103.674 36.1545 103.447 36.6081 103.22 36.7215C103.107 36.7215 102.993 36.8349 102.88 36.8349ZM97.2098 25.8352H97.0964C96.983 25.9486 96.8696 26.1754 96.8696 26.5156V31.6185C96.8696 32.2989 97.3232 33.0927 97.7768 33.4329L102.54 36.1545C102.653 36.2679 102.88 36.2679 102.993 36.1545C103.107 36.0411 103.22 35.8143 103.22 35.4741V30.3711C103.22 29.6907 102.766 28.8969 102.313 28.5567L97.55 25.8352C97.4366 25.9486 97.3232 25.8352 97.2098 25.8352Z" fill="#0F0225"/>
<path d="M70.2422 77.5153L72.6352 76.0973C72.8124 76.0086 72.9897 76.0086 73.167 76.1859L76.8894 78.313C77.3325 78.5789 77.6871 79.2879 77.6871 79.9083V83.8967C77.6871 84.2512 77.5984 84.4284 77.4212 84.5171L75.0282 85.9351V85.3147L75.1168 84.8716L71.8375 83.0104C71.3944 82.7445 71.0399 82.0354 71.0399 81.415V78.1358L70.6853 78.4016L70.2422 77.5153Z" fill="#54BAF9"/>
<path d="M75.0296 86.1119H74.941C74.8524 86.1119 74.8524 86.0233 74.8524 85.9347V85.3143L74.941 85.0484L71.7504 83.1871C71.2186 82.9213 70.8641 82.1236 70.8641 81.5032V78.5784L70.7754 78.6671C70.7754 78.6671 70.6868 78.6671 70.5982 78.6671C70.5096 78.6671 70.5096 78.5784 70.5096 78.5784L70.0664 77.6035C70.0664 77.5149 70.0664 77.4262 70.155 77.3376L72.548 75.9195C72.7253 75.8309 72.9912 75.8309 73.2571 76.0082L76.9795 78.1353C77.5113 78.4012 77.8658 79.1988 77.8658 79.8192V83.8076C77.8658 84.1621 77.7772 84.428 77.5113 84.6052C77.5113 84.6052 76.7136 85.0484 75.1183 86.0233C75.1183 86.1119 75.0296 86.1119 75.0296 86.1119ZM71.13 78.0466H71.2186C71.3072 78.0466 71.3072 78.1353 71.3072 78.2239V81.5032C71.3072 82.035 71.6617 82.6554 72.0162 82.9213L75.2955 84.7825C75.3842 84.7825 75.3842 84.8711 75.3842 84.9597L75.2069 85.4029V85.6688C75.8273 85.3143 77.334 84.428 77.334 84.428C77.4226 84.3393 77.5113 84.1621 77.5113 83.8962V79.9079C77.5113 79.3761 77.1568 78.7557 76.8022 78.4898L73.0798 76.3627C72.9912 76.2741 72.8139 76.2741 72.7253 76.2741L70.5096 77.5149L70.8641 78.1353L71.13 78.0466C71.0413 78.0466 71.0413 78.0466 71.13 78.0466Z" fill="#0F0225"/>
<path d="M73.1696 76.0945L73.5242 76.3604L70.5108 78.133L70.1562 77.4239L72.5492 76.0059C72.8151 76.0059 72.9924 76.0059 73.1696 76.0945Z" fill="#0F0225"/>
<path d="M70.5982 78.3113C70.5096 78.3113 70.5096 78.3113 70.5982 78.3113C70.5096 78.3113 70.4209 78.2227 70.4209 78.2227L70.0664 77.5137C70.0664 77.425 70.0664 77.3364 70.155 77.2478L72.548 75.8297C72.7253 75.7411 72.9912 75.7411 73.2571 75.9183L73.6116 76.1842C73.7002 76.1842 73.7002 76.2728 73.7002 76.3615C73.7002 76.4501 73.7002 76.4501 73.6116 76.5387L70.5982 78.3113ZM70.5096 77.5137L70.6868 77.8682L73.2571 76.3615L73.1684 76.2728C73.0798 76.1842 72.9025 76.1842 72.8139 76.1842L70.5096 77.5137Z" fill="#0F0225"/>
<path d="M75.2061 81.7677L74.8516 85.4901L75.0288 85.9333L77.4218 84.5152C77.5991 84.4266 77.6877 84.1607 77.6877 83.8948V80.3496L75.2061 81.7677Z" fill="#0F0225"/>
<path d="M75.0303 86.11C74.9417 86.11 74.853 86.0214 74.853 86.0214L74.6758 85.5783V85.4896L75.0303 81.7672C75.0303 81.6786 75.0303 81.6786 75.1189 81.5899L77.6006 80.1719C77.6892 80.1719 77.6892 80.1719 77.7778 80.1719C77.8664 80.1719 77.8664 80.2605 77.8664 80.3491V83.8943C77.8664 84.2488 77.7778 84.5147 77.5119 84.692C77.5119 84.692 76.7143 85.1351 75.1189 86.11H75.0303ZM75.0303 85.401L75.1189 85.6669C75.6507 85.3124 77.3347 84.3375 77.3347 84.3375C77.4233 84.2488 77.5119 84.0716 77.5119 83.8057V80.5264L75.3848 81.8558L75.0303 85.401Z" fill="#0F0225"/>
<path d="M73.1667 76.0977L76.8891 78.2248C77.0664 78.3134 77.3323 78.5793 77.4209 78.8452L75.0279 80.2632L70.5078 77.693L73.1667 76.0977Z" fill="#E6DEF8"/>
<path d="M75.0294 80.4393H74.9408L70.4207 77.869C70.332 77.869 70.332 77.7804 70.332 77.6918C70.332 77.6031 70.332 77.6031 70.4207 77.5145L73.0795 76.0078C73.1682 76.0078 73.1682 76.0078 73.2568 76.0078L76.9792 78.1349C77.2451 78.2235 77.4224 78.4894 77.5996 78.7553C77.6883 78.844 77.5996 78.9326 77.511 79.0212L75.118 80.4393H75.0294ZM70.8638 77.6918L75.0294 80.0848L77.1565 78.844C77.0679 78.6667 76.8906 78.5781 76.802 78.4894L73.1682 76.3623L70.8638 77.6918Z" fill="#0F0225"/>
<path d="M70.7742 83.7149L74.4967 85.842C74.9398 86.1079 75.2943 85.842 75.2943 85.2216V81.2333C75.2943 80.6129 74.9398 79.9039 74.4967 79.638L70.7742 77.5109C70.3311 77.245 69.9766 77.5109 69.9766 78.1313V82.1196C69.9766 82.74 70.3311 83.449 70.7742 83.7149Z" fill="#54BAF9"/>
<path d="M74.8527 86.1975C74.764 86.1975 74.5868 86.1975 74.4095 86.1088L70.6871 83.9817C70.1553 83.7158 69.8008 82.9182 69.8008 82.2978V78.3094C69.8008 77.9549 69.978 77.6004 70.1553 77.5118C70.3326 77.4232 70.5984 77.4232 70.8643 77.5118L74.5868 79.6389C75.1185 79.9048 75.4731 80.7024 75.4731 81.3228V85.3112C75.4731 85.6657 75.2958 86.0202 75.1185 86.1088C75.0299 86.1088 74.9413 86.1975 74.8527 86.1975ZM70.4212 77.6004H70.3326C70.2439 77.689 70.1553 77.8663 70.1553 78.1322V82.1205C70.1553 82.6523 70.5098 83.2727 70.8643 83.5386L74.5868 85.6657C74.6754 85.7543 74.8527 85.7543 74.9413 85.6657C75.0299 85.5771 75.1185 85.3998 75.1185 85.1339V81.1456C75.1185 80.6138 74.764 79.9934 74.4095 79.7275L70.6871 77.6004C70.5984 77.689 70.5098 77.6004 70.4212 77.6004Z" fill="#0F0225"/>
<path d="M51.3496 34.938L56.6407 31.8025C57.0326 31.6066 57.4245 31.6066 57.8164 31.9985L66.047 36.7017C67.0268 37.2896 67.8106 38.8573 67.8106 40.229V49.0474C67.8106 49.8313 67.6147 50.2232 67.2228 50.4192L61.9317 53.5546V52.1829L62.1277 51.2031L54.877 47.0878C53.8972 46.4999 53.1133 44.9322 53.1133 43.5604V36.3097L52.3294 36.8976L51.3496 34.938Z" fill="#54BAF9"/>
<path d="M61.933 53.9459H61.737C61.5411 53.9459 61.5411 53.7499 61.5411 53.554V52.1822L61.737 51.5943L54.6823 47.4791C53.5065 46.8912 52.7227 45.1275 52.7227 43.7557V37.2889L52.5267 37.4849C52.5267 37.4849 52.3307 37.4849 52.1348 37.4849C51.9388 37.4849 51.9388 37.2889 51.9388 37.2889L50.959 35.1333C50.959 34.9373 50.959 34.7414 51.1549 34.5454L56.446 31.41C56.8379 31.214 57.4258 31.214 58.0137 31.6059L66.2442 36.3091C67.42 36.897 68.2039 38.6607 68.2039 40.0324V48.8508C68.2039 49.6347 68.0079 50.2226 67.42 50.6145C67.42 50.6145 65.6563 51.5943 62.129 53.7499C62.129 53.9459 61.933 53.9459 61.933 53.9459ZM53.3106 36.1131H53.5065C53.7025 36.1131 53.7025 36.3091 53.7025 36.5051V43.7557C53.7025 44.9315 54.4863 46.3033 55.2702 46.8912L62.5209 51.0064C62.7169 51.0064 62.7169 51.2024 62.7169 51.3984L62.3249 52.3782V52.9661C63.6967 52.1822 67.0281 50.2226 67.0281 50.2226C67.224 50.0266 67.42 49.6347 67.42 49.0468V40.2284C67.42 39.0526 66.6362 37.6808 65.8523 37.0929L57.6218 32.3898C57.4258 32.1938 57.0339 32.1938 56.8379 32.1938L51.9388 34.9373L52.7227 36.3091L53.3106 36.1131C53.1146 36.1131 53.1146 36.1131 53.3106 36.1131Z" fill="#0F0225"/>
<path d="M57.8191 31.8034L58.6029 32.3913L51.9401 36.3106L51.1562 34.7429L56.4473 31.6074C57.0352 31.6074 57.4271 31.6074 57.8191 31.8034Z" fill="#0F0225"/>
<path d="M52.1348 36.7017C51.9388 36.7017 51.9388 36.7017 52.1348 36.7017C51.9388 36.7017 51.7428 36.5057 51.7428 36.5057L50.959 34.938C50.959 34.742 50.959 34.5461 51.1549 34.3501L56.446 31.2147C56.8379 31.0187 57.4258 31.0187 58.0137 31.4106L58.7976 31.9985C58.9935 31.9985 58.9935 32.1945 58.9935 32.3904C58.9935 32.5864 58.9935 32.5864 58.7976 32.7824L52.1348 36.7017ZM51.9388 34.938L52.3307 35.7218L58.0137 32.3904L57.8177 32.1945C57.6218 31.9985 57.2299 31.9985 57.0339 31.9985L51.9388 34.938Z" fill="#0F0225"/>
<path d="M62.3249 44.3444L61.541 52.5749L61.9329 53.5548L67.224 50.4193C67.6159 50.2234 67.8119 49.6355 67.8119 49.0476V41.209L62.3249 44.3444Z" fill="#0F0225"/>
<path d="M61.9343 53.946C61.7383 53.946 61.5423 53.7501 61.5423 53.7501L61.1504 52.7703V52.5743L61.9343 44.3438C61.9343 44.1478 61.9342 44.1478 62.1302 43.9518L67.6172 40.8164C67.8132 40.8164 67.8132 40.8164 68.0092 40.8164C68.2051 40.8164 68.2051 41.0124 68.2051 41.2083V49.0469C68.2051 49.8308 68.0092 50.4187 67.4213 50.8106C67.4213 50.8106 65.6576 51.7904 62.1302 53.946H61.9343ZM61.9343 52.3783L62.1302 52.9662C63.306 52.1824 67.0293 50.0267 67.0293 50.0267C67.2253 49.8308 67.4213 49.4389 67.4213 48.851V41.6003L62.7181 44.5397L61.9343 52.3783Z" fill="#0F0225"/>
<path d="M57.8184 31.8047L66.0489 36.5078C66.4408 36.7038 67.0287 37.2917 67.2247 37.8796L61.9336 41.015L51.9395 35.3321L57.8184 31.8047Z" fill="#E6DEF8"/>
<path d="M61.9349 41.4057H61.739L51.7448 35.7227C51.5488 35.7227 51.5488 35.5267 51.5488 35.3308C51.5488 35.1348 51.5488 35.1348 51.7448 34.9388L57.6237 31.6074C57.8197 31.6074 57.8197 31.6074 58.0157 31.6074L66.2462 36.3106C66.8341 36.5065 67.226 37.0944 67.6179 37.6823C67.8139 37.8783 67.6179 38.0743 67.422 38.2702L62.1309 41.4057H61.9349ZM52.7246 35.3308L61.9349 40.6218L66.6381 37.8783C66.4421 37.4864 66.0502 37.2904 65.8542 37.0944L57.8197 32.3913L52.7246 35.3308Z" fill="#0F0225"/>
<path d="M52.5254 48.6516L60.7559 53.3547C61.7357 53.9426 62.5196 53.3547 62.5196 51.983V43.1645C62.5196 41.7928 61.7357 40.2251 60.7559 39.6372L52.5254 34.934C51.5456 34.3461 50.7617 34.934 50.7617 36.3058V45.1242C50.7617 46.4959 51.5456 48.0637 52.5254 48.6516Z" fill="#54BAF9"/>
<path d="M61.5411 54.1406C61.3451 54.1406 60.9532 54.1406 60.5613 53.9446L52.3307 49.2415C51.155 48.6536 50.3711 46.8899 50.3711 45.5181V36.6997C50.3711 35.9159 50.763 35.132 51.155 34.936C51.5469 34.7401 52.1348 34.7401 52.7227 34.936L60.9532 39.6392C62.129 40.2271 62.9128 41.9908 62.9128 43.3625V52.1809C62.9128 52.9648 62.5209 53.7486 62.129 53.9446C61.933 53.9446 61.7371 54.1406 61.5411 54.1406ZM51.7429 35.132H51.5469C51.3509 35.328 51.155 35.7199 51.155 36.3078V45.1262C51.155 46.302 51.9388 47.6737 52.7227 48.2616L60.9532 52.9648C61.1492 53.1607 61.5411 53.1607 61.7371 52.9648C61.933 52.7688 62.129 52.3769 62.129 51.789V42.9706C62.129 41.7948 61.3451 40.423 60.5613 39.8352L52.3307 35.132C52.1348 35.328 51.9388 35.132 51.7429 35.132Z" fill="#0F0225"/>
<path d="M167.805 9.25494L170.355 7.74368C170.544 7.64923 170.733 7.64923 170.922 7.83814L174.889 10.105C175.361 10.3884 175.739 11.144 175.739 11.8052V16.0556C175.739 16.4334 175.644 16.6223 175.455 16.7168L172.905 18.228V17.5668L173 17.0946L169.505 15.111C169.033 14.8277 168.655 14.0721 168.655 13.4109V9.91611L168.277 10.1995L167.805 9.25494Z" fill="#54BAF9"/>
<path d="M172.905 18.4164H172.81C172.716 18.4164 172.716 18.3219 172.716 18.2275V17.5663L172.81 17.2829L169.41 15.2994C168.843 15.016 168.465 14.166 168.465 13.5048V10.3878L168.371 10.4823C168.371 10.4823 168.276 10.4823 168.182 10.4823C168.087 10.4823 168.088 10.3878 168.088 10.3878L167.615 9.34884C167.615 9.25439 167.615 9.15994 167.71 9.06548L170.26 7.55423C170.449 7.45978 170.732 7.45978 171.016 7.64868L174.983 9.91556C175.549 10.1989 175.927 11.049 175.927 11.7102V15.9606C175.927 16.3384 175.833 16.6218 175.549 16.8107C175.549 16.8107 174.699 17.2829 172.999 18.3219C172.999 18.4164 172.999 18.4164 172.905 18.4164ZM168.749 9.82111H168.843C168.938 9.82111 168.938 9.91556 168.938 10.01V13.5048C168.938 14.0715 169.315 14.7327 169.693 15.016L173.188 16.9996C173.282 16.9996 173.282 17.094 173.282 17.1885L173.188 17.6607V17.9441C173.849 17.5663 175.455 16.6217 175.455 16.6217C175.549 16.5273 175.644 16.3384 175.644 16.055V11.7102C175.644 11.1435 175.266 10.4823 174.888 10.1989L170.921 7.93204C170.827 7.83759 170.638 7.83759 170.543 7.83759L168.182 9.25439L168.56 9.91556L168.749 9.82111C168.654 9.82111 168.654 9.82111 168.749 9.82111Z" fill="#0F0225"/>
<path d="M170.922 7.74094L171.3 8.0243L168.089 9.91337L167.711 9.15774L170.261 7.64648C170.545 7.64648 170.733 7.64649 170.922 7.74094Z" fill="#0F0225"/>
<path d="M168.182 10.1032C168.087 10.1032 168.087 10.1032 168.182 10.1032C168.087 10.1032 167.993 10.0088 167.993 10.0088L167.615 9.25314C167.615 9.15869 167.615 9.06423 167.71 8.96978L170.26 7.45853C170.449 7.36407 170.732 7.36407 171.016 7.55298L171.393 7.83634C171.488 7.83634 171.488 7.93079 171.488 8.02525C171.488 8.1197 171.488 8.1197 171.393 8.21416L168.182 10.1032ZM168.088 9.34759L168.276 9.72541L171.016 8.1197L170.921 8.02525C170.827 7.93079 170.638 7.93079 170.543 7.93079L168.088 9.34759Z" fill="#0F0225"/>
<path d="M173.095 13.7866L172.717 17.7537L172.906 18.226L175.456 16.7147C175.645 16.6202 175.739 16.3369 175.739 16.0535V12.2754L173.095 13.7866Z" fill="#0F0225"/>
<path d="M172.905 18.4143C172.811 18.4143 172.716 18.3199 172.716 18.3199L172.527 17.8476V17.7531L172.905 13.7861C172.905 13.6916 172.905 13.6916 173 13.5972L175.644 12.0859C175.739 12.0859 175.739 12.0859 175.833 12.0859C175.928 12.0859 175.928 12.1804 175.928 12.2748V16.053C175.928 16.4308 175.833 16.7141 175.55 16.9031C175.55 16.9031 174.7 17.3753 173 18.4143C173 18.4143 173 18.4143 172.905 18.4143ZM172.905 17.6587L173 17.942C173.566 17.5642 175.361 16.5252 175.361 16.5252C175.455 16.4308 175.55 16.2419 175.55 15.9585V12.4638L173.283 13.7861L172.905 17.6587Z" fill="#0F0225"/>
<path d="M170.921 7.74219L174.889 10.0091C175.077 10.1035 175.361 10.3869 175.455 10.6702L172.905 12.1815L168.088 9.44234L170.921 7.74219Z" fill="#E6DEF8"/>
<path d="M172.904 12.3692H172.81L167.993 9.63001C167.898 9.63001 167.898 9.53555 167.898 9.4411C167.898 9.34665 167.898 9.34665 167.993 9.2522L170.826 7.64648C170.921 7.64648 170.921 7.64648 171.015 7.64648L174.982 9.91337C175.266 10.0078 175.455 10.2912 175.644 10.5745C175.738 10.669 175.644 10.7634 175.549 10.8579L172.999 12.3692C172.999 12.3692 172.999 12.3692 172.904 12.3692ZM168.465 9.4411L172.904 11.9913L175.171 10.669C175.077 10.4801 174.888 10.3856 174.794 10.2912L170.921 8.0243L168.465 9.4411Z" fill="#0F0225"/>
<path d="M168.372 15.8657L172.339 18.1326C172.811 18.4159 173.189 18.1326 173.189 17.4714V13.221C173.189 12.5598 172.811 11.8042 172.339 11.5208L168.372 9.25394C167.899 8.97058 167.521 9.25394 167.521 9.91512V14.1655C167.521 14.8267 167.899 15.5823 168.372 15.8657Z" fill="#54BAF9"/>
<path d="M172.716 18.5089C172.621 18.5089 172.433 18.5089 172.244 18.4145L168.277 16.1476C167.71 15.8642 167.332 15.0141 167.332 14.353V10.1026C167.332 9.72475 167.521 9.34693 167.71 9.25248C167.899 9.15803 168.182 9.15803 168.465 9.25248L172.433 11.5194C172.999 11.8027 173.377 12.6528 173.377 13.314V17.5644C173.377 17.9422 173.188 18.32 172.999 18.4145C172.905 18.4145 172.81 18.5089 172.716 18.5089ZM167.993 9.34693H167.899C167.804 9.44139 167.71 9.63029 167.71 9.91365V14.1641C167.71 14.7308 168.088 15.3919 168.465 15.6753L172.433 17.9422C172.527 18.0366 172.716 18.0366 172.81 17.9422C172.905 17.8477 172.999 17.6588 172.999 17.3755V13.1251C172.999 12.5583 172.621 11.8972 172.244 11.6138L168.277 9.34693C168.182 9.44139 168.088 9.34693 167.993 9.34693Z" fill="#0F0225"/>
<path d="M186.693 85.9932L189.244 84.482C189.433 84.3875 189.621 84.3875 189.81 84.5764L193.777 86.8433C194.25 87.1267 194.627 87.8823 194.627 88.5435V92.7939C194.627 93.1717 194.533 93.3606 194.344 93.455L191.794 94.9663V94.3051L191.888 93.8328L188.394 91.8493C187.921 91.566 187.543 90.8103 187.543 90.1492V86.6544L187.166 86.9378L186.693 85.9932Z" fill="#54BAF9"/>
<path d="M191.793 95.1546H191.699C191.604 95.1546 191.604 95.0602 191.604 94.9657V94.3046L191.699 94.0212L188.299 92.0377C187.732 91.7543 187.354 90.9042 187.354 90.2431V87.1261L187.26 87.2206C187.26 87.2206 187.165 87.2206 187.071 87.2206C186.976 87.2206 186.976 87.1261 186.976 87.1261L186.504 86.0871C186.504 85.9927 186.504 85.8982 186.598 85.8038L189.149 84.2925C189.338 84.1981 189.621 84.1981 189.904 84.387L193.871 86.6538C194.438 86.9372 194.816 87.7873 194.816 88.4485V92.6989C194.816 93.0767 194.721 93.36 194.438 93.5489C194.438 93.5489 193.588 94.0212 191.888 95.0602C191.888 95.1546 191.888 95.1546 191.793 95.1546ZM187.637 86.5594H187.732C187.826 86.5594 187.826 86.6538 187.826 86.7483V90.2431C187.826 90.8098 188.204 91.471 188.582 91.7543L192.077 93.7378C192.171 93.7378 192.171 93.8323 192.171 93.9268L192.077 94.399V94.6824C192.738 94.3046 194.344 93.36 194.344 93.36C194.438 93.2656 194.532 93.0767 194.532 92.7933V88.4485C194.532 87.8817 194.155 87.2206 193.777 86.9372L189.81 84.6703C189.715 84.5759 189.526 84.5759 189.432 84.5759L187.071 85.9927L187.448 86.6538L187.637 86.5594C187.543 86.5594 187.543 86.5594 187.637 86.5594Z" fill="#0F0225"/>
<path d="M189.811 84.4792L190.189 84.7626L186.977 86.6516L186.6 85.896L189.15 84.3848C189.433 84.3848 189.622 84.3848 189.811 84.4792Z" fill="#0F0225"/>
<path d="M187.071 86.8415C186.976 86.8415 186.976 86.8415 187.071 86.8415C186.976 86.8415 186.882 86.747 186.882 86.747L186.504 85.9914C186.504 85.897 186.504 85.8025 186.598 85.7081L189.149 84.1968C189.338 84.1024 189.621 84.1024 189.904 84.2913L190.282 84.5746C190.376 84.5746 190.376 84.6691 190.376 84.7635C190.376 84.858 190.376 84.858 190.282 84.9524L187.071 86.8415ZM186.976 86.0859L187.165 86.4637L189.904 84.858L189.81 84.7635C189.715 84.6691 189.526 84.6691 189.432 84.6691L186.976 86.0859Z" fill="#0F0225"/>
<path d="M191.983 90.5249L191.605 94.492L191.794 94.9642L194.345 93.453C194.534 93.3585 194.628 93.0752 194.628 92.7918V89.0137L191.983 90.5249Z" fill="#0F0225"/>
<path d="M191.794 95.1526C191.699 95.1526 191.605 95.0581 191.605 95.0581L191.416 94.5859V94.4914L191.794 90.5244C191.794 90.4299 191.794 90.4299 191.888 90.3355L194.533 88.8242C194.627 88.8242 194.627 88.8242 194.722 88.8242C194.816 88.8242 194.816 88.9187 194.816 89.0131V92.7913C194.816 93.1691 194.722 93.4524 194.439 93.6413C194.439 93.6413 193.588 94.1136 191.888 95.1526C191.888 95.1526 191.888 95.1526 191.794 95.1526ZM191.794 94.397L191.888 94.6803C192.455 94.3025 194.25 93.2635 194.25 93.2635C194.344 93.1691 194.439 92.9802 194.439 92.6968V89.202L192.172 90.5244L191.794 94.397Z" fill="#0F0225"/>
<path d="M189.81 84.4805L193.777 86.7473C193.966 86.8418 194.249 87.1252 194.344 87.4085L191.794 88.9198L186.977 86.1806L189.81 84.4805Z" fill="#E6DEF8"/>
<path d="M191.793 89.1074H191.699L186.882 86.3683C186.787 86.3683 186.787 86.2738 186.787 86.1794C186.787 86.0849 186.787 86.0849 186.882 85.9905L189.715 84.3848C189.81 84.3848 189.81 84.3848 189.904 84.3848L193.871 86.6516C194.154 86.7461 194.343 87.0295 194.532 87.3128C194.627 87.4073 194.532 87.5017 194.438 87.5962L191.888 89.1074C191.888 89.1074 191.888 89.1074 191.793 89.1074ZM187.354 86.1794L191.793 88.7296L194.06 87.4073C193.966 87.2184 193.777 87.1239 193.682 87.0295L189.81 84.7626L187.354 86.1794Z" fill="#0F0225"/>
<path d="M187.26 92.604L191.227 94.8708C191.7 95.1542 192.077 94.8708 192.077 94.2097V89.9593C192.077 89.2981 191.7 88.5425 191.227 88.2591L187.26 85.9922C186.788 85.7089 186.41 85.9922 186.41 86.6534V90.9038C186.41 91.565 186.788 92.3206 187.26 92.604Z" fill="#54BAF9"/>
<path d="M191.605 95.2472C191.51 95.2472 191.321 95.2472 191.132 95.1527L187.165 92.8859C186.599 92.6025 186.221 91.7524 186.221 91.0912V86.8408C186.221 86.463 186.41 86.0852 186.599 85.9908C186.787 85.8963 187.071 85.8963 187.354 85.9908L191.321 88.2576C191.888 88.541 192.266 89.3911 192.266 90.0523V94.3027C192.266 94.6805 192.077 95.0583 191.888 95.1527C191.793 95.1527 191.699 95.2472 191.605 95.2472ZM186.882 86.0852H186.787C186.693 86.1797 186.599 86.3686 186.599 86.6519V90.9023C186.599 91.4691 186.976 92.1302 187.354 92.4136L191.321 94.6805C191.416 94.7749 191.605 94.7749 191.699 94.6805C191.793 94.586 191.888 94.3971 191.888 94.1137V89.8633C191.888 89.2966 191.51 88.6355 191.132 88.3521L187.165 86.0852C187.071 86.1797 186.976 86.0852 186.882 86.0852Z" fill="#0F0225"/>
<path d="M220.121 73.7461L224.009 71.4422C224.297 71.2982 224.585 71.2982 224.873 71.5862L230.921 75.0421C231.641 75.4741 232.217 76.626 232.217 77.634V84.1137C232.217 84.6897 232.073 84.9777 231.785 85.1217L227.897 87.4256V86.4176L228.041 85.6976L222.713 82.6738C221.993 82.2418 221.417 81.0898 221.417 80.0819V74.7541L220.841 75.1861L220.121 73.7461Z" fill="#54BAF9"/>
<path d="M227.896 87.7125H227.752C227.608 87.7125 227.608 87.5685 227.608 87.4245V86.4165L227.752 85.9846L222.568 82.9607C221.704 82.5287 221.128 81.2328 221.128 80.2248V75.473L220.984 75.617C220.984 75.617 220.84 75.617 220.696 75.617C220.552 75.617 220.552 75.473 220.552 75.473L219.832 73.8891C219.832 73.7451 219.832 73.6011 219.976 73.4571L223.864 71.1532C224.152 71.0092 224.584 71.0092 225.016 71.2972L231.064 74.753C231.928 75.185 232.504 76.481 232.504 77.4889V83.9686C232.504 84.5446 232.36 84.9766 231.928 85.2646C231.928 85.2646 230.632 85.9846 228.04 87.5685C228.04 87.7125 228.04 87.7125 227.896 87.7125ZM221.56 74.609H221.704C221.848 74.609 221.848 74.753 221.848 74.897V80.2248C221.848 81.0888 222.424 82.0967 223 82.5287L228.328 85.5526C228.472 85.5526 228.472 85.6966 228.472 85.8406L228.328 86.5605V86.9925C229.336 86.4165 231.784 84.9766 231.784 84.9766C231.928 84.8326 232.072 84.5446 232.072 84.1126V77.4889C232.072 76.625 231.496 75.617 230.92 75.185L224.872 71.7292C224.728 71.5852 224.44 71.5852 224.296 71.5852L220.696 73.7451L221.272 74.753L221.56 74.609C221.416 74.609 221.416 74.609 221.56 74.609Z" fill="#0F0225"/>
<path d="M224.872 71.4389L225.448 71.8709L220.553 74.7508L219.977 73.5988L223.864 71.2949C224.296 71.2949 224.584 71.2949 224.872 71.4389Z" fill="#0F0225"/>
<path d="M220.696 75.0405C220.552 75.0405 220.552 75.0405 220.696 75.0405C220.552 75.0405 220.408 74.8965 220.408 74.8965L219.832 73.7445C219.832 73.6005 219.832 73.4565 219.976 73.3125L223.864 71.0086C224.152 70.8647 224.584 70.8647 225.016 71.1526L225.592 71.5846C225.736 71.5846 225.736 71.7286 225.736 71.8726C225.736 72.0166 225.736 72.0166 225.592 72.1606L220.696 75.0405ZM220.552 73.8885L220.84 74.4645L225.016 72.0166L224.872 71.8726C224.728 71.7286 224.44 71.7286 224.296 71.7286L220.552 73.8885Z" fill="#0F0225"/>
<path d="M228.185 80.6555L227.609 86.7032L227.897 87.4232L231.785 85.1193C232.073 84.9753 232.217 84.5433 232.217 84.1113V78.3516L228.185 80.6555Z" fill="#0F0225"/>
<path d="M227.896 87.7101C227.752 87.7101 227.608 87.5661 227.608 87.5661L227.32 86.8461V86.7021L227.896 80.6544C227.896 80.5104 227.896 80.5104 228.04 80.3664L232.072 78.0625C232.216 78.0625 232.216 78.0625 232.36 78.0625C232.504 78.0625 232.504 78.2065 232.504 78.3505V84.1102C232.504 84.6862 232.36 85.1182 231.928 85.4062C231.928 85.4062 230.632 86.1262 228.04 87.7101C228.04 87.7101 228.04 87.7101 227.896 87.7101ZM227.896 86.5582L228.04 86.9901C228.904 86.4142 231.64 84.8302 231.64 84.8302C231.784 84.6862 231.928 84.3982 231.928 83.9663V78.6385L228.472 80.6544L227.896 86.5582Z" fill="#0F0225"/>
<path d="M224.875 71.4395L230.922 74.8953C231.21 75.0393 231.642 75.4713 231.786 75.9033L227.898 78.2072L220.555 74.0313L224.875 71.4395Z" fill="#E6DEF8"/>
<path d="M227.897 78.4946H227.753L220.41 74.3188C220.266 74.3188 220.266 74.1748 220.266 74.0308C220.266 73.8868 220.266 73.8868 220.41 73.7428L224.729 71.2949C224.873 71.2949 224.873 71.2949 225.017 71.2949L231.065 74.7508C231.497 74.8948 231.785 75.3268 232.073 75.7587C232.217 75.9027 232.073 76.0467 231.929 76.1907L228.041 78.4946C228.041 78.4946 228.041 78.4946 227.897 78.4946ZM221.13 74.0308L227.897 77.9187L231.353 75.9027C231.209 75.6147 230.921 75.4708 230.777 75.3268L224.873 71.8709L221.13 74.0308Z" fill="#0F0225"/>
<path d="M220.985 83.8245L227.033 87.2804C227.753 87.7124 228.329 87.2804 228.329 86.2724V79.7927C228.329 78.7847 227.753 77.6328 227.033 77.2008L220.985 73.7449C220.265 73.3129 219.689 73.7449 219.689 74.7529V81.2326C219.689 82.2406 220.265 83.3925 220.985 83.8245Z" fill="#54BAF9"/>
<path d="M227.608 87.8561C227.464 87.8561 227.176 87.8561 226.888 87.7121L220.84 84.2563C219.976 83.8243 219.4 82.5284 219.4 81.5204V75.0407C219.4 74.4647 219.688 73.8887 219.976 73.7447C220.264 73.6007 220.696 73.6007 221.128 73.7447L227.176 77.2006C228.04 77.6326 228.616 78.9285 228.616 79.9365V86.4162C228.616 86.9922 228.328 87.5681 228.04 87.7121C227.896 87.7121 227.752 87.8561 227.608 87.8561ZM220.408 73.8887H220.264C220.12 74.0327 219.976 74.3207 219.976 74.7527V81.2324C219.976 82.0964 220.552 83.1043 221.128 83.5363L227.176 86.9922C227.32 87.1362 227.608 87.1362 227.752 86.9922C227.896 86.8482 228.04 86.5602 228.04 86.1282V79.6485C228.04 78.7845 227.464 77.7765 226.888 77.3446L220.84 73.8887C220.696 74.0327 220.552 73.8887 220.408 73.8887Z" fill="#0F0225"/>
<path d="M238.33 41.6866L240.88 40.1753C241.069 40.0809 241.258 40.0809 241.447 40.2698L245.414 42.5367C245.886 42.82 246.264 43.5756 246.264 44.2368V48.4872C246.264 48.865 246.17 49.0539 245.981 49.1484L243.431 50.6596V49.9985L243.525 49.5262L240.03 47.5427C239.558 47.2593 239.18 46.5037 239.18 45.8425V42.3477L238.802 42.6311L238.33 41.6866Z" fill="#54BAF9"/>
<path d="M243.43 50.848H243.336C243.241 50.848 243.241 50.7536 243.241 50.6591V49.9979L243.336 49.7146L239.935 47.731C239.369 47.4477 238.991 46.5976 238.991 45.9364V42.8195L238.896 42.9139C238.896 42.9139 238.802 42.9139 238.707 42.9139C238.613 42.9139 238.613 42.8195 238.613 42.8195L238.141 41.7805C238.141 41.686 238.141 41.5916 238.235 41.4971L240.785 39.9859C240.974 39.8914 241.258 39.8914 241.541 40.0803L245.508 42.3472C246.075 42.6306 246.453 43.4806 246.453 44.1418V48.3922C246.453 48.77 246.358 49.0534 246.075 49.2423C246.075 49.2423 245.225 49.7146 243.524 50.7536C243.524 50.848 243.524 50.848 243.43 50.848ZM239.274 42.2528H239.369C239.463 42.2528 239.463 42.3472 239.463 42.4417V45.9364C239.463 46.5032 239.841 47.1643 240.219 47.4477L243.713 49.4312C243.808 49.4312 243.808 49.5257 243.808 49.6201L243.713 50.0924V50.3757C244.375 49.9979 245.98 49.0534 245.98 49.0534C246.075 48.9589 246.169 48.77 246.169 48.4867V44.1418C246.169 43.5751 245.791 42.9139 245.414 42.6306L241.446 40.3637C241.352 40.2692 241.163 40.2692 241.069 40.2692L238.707 41.686L239.085 42.3472L239.274 42.2528C239.18 42.2528 239.18 42.2528 239.274 42.2528Z" fill="#0F0225"/>
<path d="M241.448 40.1726L241.826 40.4559L238.614 42.345L238.236 41.5894L240.787 40.0781C241.07 40.0781 241.259 40.0781 241.448 40.1726Z" fill="#0F0225"/>
<path d="M238.707 42.5349C238.613 42.5349 238.613 42.5349 238.707 42.5349C238.613 42.5349 238.518 42.4404 238.518 42.4404L238.141 41.6848C238.141 41.5903 238.141 41.4959 238.235 41.4014L240.785 39.8902C240.974 39.7957 241.258 39.7957 241.541 39.9846L241.919 40.268C242.013 40.268 242.013 40.3624 242.013 40.4569C242.013 40.5513 242.013 40.5513 241.919 40.6458L238.707 42.5349ZM238.613 41.7792L238.802 42.157L241.541 40.5513L241.446 40.4569C241.352 40.3624 241.163 40.3624 241.069 40.3624L238.613 41.7792Z" fill="#0F0225"/>
<path d="M243.62 46.2163L243.242 50.1834L243.431 50.6556L245.981 49.1444C246.17 49.0499 246.265 48.7666 246.265 48.4832V44.7051L243.62 46.2163Z" fill="#0F0225"/>
<path d="M243.431 50.844C243.336 50.844 243.242 50.7495 243.242 50.7495L243.053 50.2773V50.1828L243.431 46.2158C243.431 46.1213 243.431 46.1213 243.525 46.0269L246.17 44.5156C246.264 44.5156 246.264 44.5156 246.359 44.5156C246.453 44.5156 246.453 44.6101 246.453 44.7045V48.4827C246.453 48.8605 246.359 49.1438 246.075 49.3327C246.075 49.3327 245.225 49.805 243.525 50.844C243.525 50.844 243.525 50.844 243.431 50.844ZM243.431 50.0884L243.525 50.3717C244.092 49.9939 245.886 48.9549 245.886 48.9549C245.981 48.8605 246.075 48.6716 246.075 48.3882V44.8934L243.808 46.2158L243.431 50.0884Z" fill="#0F0225"/>
<path d="M241.447 40.1738L245.414 42.4407C245.603 42.5352 245.886 42.8185 245.981 43.1019L243.43 44.6131L238.613 41.874L241.447 40.1738Z" fill="#E6DEF8"/>
<path d="M243.43 44.8008H243.335L238.518 42.0617C238.424 42.0617 238.424 41.9672 238.424 41.8727C238.424 41.7783 238.424 41.7783 238.518 41.6838L241.352 40.0781C241.446 40.0781 241.446 40.0781 241.541 40.0781L245.508 42.345C245.791 42.4395 245.98 42.7228 246.169 43.0062C246.263 43.1006 246.169 43.1951 246.075 43.2895L243.524 44.8008C243.524 44.8008 243.524 44.8008 243.43 44.8008ZM238.991 41.8727L243.43 44.423L245.697 43.1006C245.602 42.9117 245.413 42.8173 245.319 42.7228L241.446 40.4559L238.991 41.8727Z" fill="#0F0225"/>
<path d="M238.897 48.2973L242.864 50.5642C243.336 50.8476 243.714 50.5642 243.714 49.903V45.6526C243.714 44.9915 243.336 44.2358 242.864 43.9525L238.897 41.6856C238.425 41.4022 238.047 41.6856 238.047 42.3468V46.5972C238.047 47.2583 238.425 48.014 238.897 48.2973Z" fill="#54BAF9"/>
<path d="M243.241 50.9405C243.147 50.9405 242.958 50.9405 242.769 50.8461L238.802 48.5792C238.235 48.2959 237.857 47.4458 237.857 46.7846V42.5342C237.857 42.1564 238.046 41.7786 238.235 41.6841C238.424 41.5897 238.707 41.5897 238.991 41.6841L242.958 43.951C243.525 44.2344 243.902 45.0844 243.902 45.7456V49.996C243.902 50.3738 243.714 50.7516 243.525 50.8461C243.43 50.8461 243.336 50.9405 243.241 50.9405ZM238.519 41.7786H238.424C238.33 41.873 238.235 42.0619 238.235 42.3453V46.5957C238.235 47.1624 238.613 47.8236 238.991 48.1069L242.958 50.3738C243.052 50.4683 243.241 50.4683 243.336 50.3738C243.43 50.2794 243.525 50.0905 243.525 49.8071V45.5567C243.525 44.99 243.147 44.3288 242.769 44.0455L238.802 41.7786C238.708 41.873 238.613 41.7786 238.519 41.7786Z" fill="#0F0225"/>
<path d="M119.947 87.1319L122.498 85.6206C122.686 85.5262 122.875 85.5262 123.064 85.7151L127.031 87.982C127.504 88.2653 127.881 89.021 127.881 89.6821V93.9325C127.881 94.3103 127.787 94.4993 127.598 94.5937L125.048 96.105V95.4438L125.142 94.9715L121.647 92.988C121.175 92.7046 120.797 91.949 120.797 91.2878V87.7931L120.42 88.0764L119.947 87.1319Z" fill="#54BAF9"/>
<path d="M125.047 96.2933H124.953C124.858 96.2933 124.858 96.1989 124.858 96.1044V95.4432L124.953 95.1599L121.552 93.1764C120.986 92.893 120.608 92.0429 120.608 91.3817V88.2648L120.513 88.3592C120.513 88.3592 120.419 88.3592 120.325 88.3592C120.23 88.3592 120.23 88.2648 120.23 88.2648L119.758 87.2258C119.758 87.1313 119.758 87.0369 119.852 86.9424L122.403 85.4312C122.591 85.3367 122.875 85.3367 123.158 85.5256L127.125 87.7925C127.692 88.0759 128.07 88.926 128.07 89.5871V93.8375C128.07 94.2153 127.975 94.4987 127.692 94.6876C127.692 94.6876 126.842 95.1599 125.142 96.1989C125.142 96.2933 125.142 96.2933 125.047 96.2933ZM120.891 87.6981H120.986C121.08 87.6981 121.08 87.7925 121.08 87.887V91.3817C121.08 91.9485 121.458 92.6096 121.836 92.893L125.331 94.8765C125.425 94.8765 125.425 94.971 125.425 95.0654L125.331 95.5377V95.8211C125.992 95.4432 127.597 94.4987 127.597 94.4987C127.692 94.4042 127.786 94.2153 127.786 93.932V89.5871C127.786 89.0204 127.409 88.3592 127.031 88.0759L123.064 85.809C122.969 85.7145 122.78 85.7145 122.686 85.7145L120.325 87.1313L120.702 87.7925L120.891 87.6981C120.797 87.6981 120.797 87.6981 120.891 87.6981Z" fill="#0F0225"/>
<path d="M123.065 85.6179L123.443 85.9013L120.231 87.7903L119.854 87.0347L122.404 85.5234C122.687 85.5234 122.876 85.5234 123.065 85.6179Z" fill="#0F0225"/>
<path d="M120.325 87.9802C120.23 87.9802 120.23 87.9802 120.325 87.9802C120.23 87.9802 120.136 87.8857 120.136 87.8857L119.758 87.1301C119.758 87.0356 119.758 86.9412 119.852 86.8467L122.403 85.3355C122.591 85.241 122.875 85.241 123.158 85.4299L123.536 85.7133C123.63 85.7133 123.63 85.8077 123.63 85.9022C123.63 85.9967 123.63 85.9967 123.536 86.0911L120.325 87.9802ZM120.23 87.2245L120.419 87.6024L123.158 85.9967L123.064 85.9022C122.969 85.8077 122.78 85.8077 122.686 85.8077L120.23 87.2245Z" fill="#0F0225"/>
<path d="M125.237 91.6636L124.859 95.6306L125.048 96.1029L127.599 94.5917C127.787 94.4972 127.882 94.2138 127.882 93.9305V90.1523L125.237 91.6636Z" fill="#0F0225"/>
<path d="M125.048 96.2913C124.953 96.2913 124.859 96.1968 124.859 96.1968L124.67 95.7245V95.6301L125.048 91.663C125.048 91.5686 125.048 91.5686 125.142 91.4741L127.787 89.9629C127.881 89.9629 127.881 89.9629 127.976 89.9629C128.07 89.9629 128.07 90.0573 128.07 90.1518V93.9299C128.07 94.3077 127.976 94.5911 127.692 94.78C127.692 94.78 126.842 95.2523 125.142 96.2913C125.142 96.2913 125.142 96.2913 125.048 96.2913ZM125.048 95.5356L125.142 95.819C125.709 95.4412 127.504 94.4022 127.504 94.4022C127.598 94.3077 127.692 94.1188 127.692 93.8355V90.3407L125.426 91.663L125.048 95.5356Z" fill="#0F0225"/>
<path d="M123.064 85.6191L127.031 87.886C127.22 87.9805 127.503 88.2638 127.598 88.5472L125.048 90.0584L120.23 87.3193L123.064 85.6191Z" fill="#E6DEF8"/>
<path d="M125.047 90.2461H124.953L120.135 87.507C120.041 87.507 120.041 87.4125 120.041 87.3181C120.041 87.2236 120.041 87.2236 120.135 87.1291L122.969 85.5234C123.064 85.5234 123.064 85.5234 123.158 85.5234L127.125 87.7903C127.408 87.8848 127.597 88.1681 127.786 88.4515C127.881 88.5459 127.786 88.6404 127.692 88.7349L125.141 90.2461C125.141 90.2461 125.141 90.2461 125.047 90.2461ZM120.608 87.3181L125.047 89.8683L127.314 88.5459C127.219 88.357 127.031 88.2626 126.936 88.1681L123.064 85.9013L120.608 87.3181Z" fill="#0F0225"/>
<path d="M120.514 93.7426L124.481 96.0095C124.953 96.2929 125.331 96.0095 125.331 95.3483V91.0979C125.331 90.4368 124.953 89.6811 124.481 89.3978L120.514 87.1309C120.042 86.8475 119.664 87.1309 119.664 87.7921V92.0425C119.664 92.7036 120.042 93.4593 120.514 93.7426Z" fill="#54BAF9"/>
<path d="M124.858 96.3859C124.764 96.3859 124.575 96.3859 124.386 96.2914L120.419 94.0245C119.852 93.7412 119.475 92.8911 119.475 92.2299V87.9795C119.475 87.6017 119.664 87.2239 119.852 87.1294C120.041 87.035 120.325 87.035 120.608 87.1294L124.575 89.3963C125.142 89.6797 125.52 90.5297 125.52 91.1909V95.4413C125.52 95.8191 125.331 96.197 125.142 96.2914C125.047 96.2914 124.953 96.3859 124.858 96.3859ZM120.136 87.2239H120.041C119.947 87.3183 119.852 87.5072 119.852 87.7906V92.041C119.852 92.6077 120.23 93.2689 120.608 93.5523L124.575 95.8191C124.67 95.9136 124.858 95.9136 124.953 95.8191C125.047 95.7247 125.142 95.5358 125.142 95.2524V91.002C125.142 90.4353 124.764 89.7741 124.386 89.4908L120.419 87.2239C120.325 87.3183 120.23 87.2239 120.136 87.2239Z" fill="#0F0225"/>
<path d="M157.121 96.0898L160.175 94.2457C160.579 94.0152 161.04 94.0729 161.558 94.361L171.528 100.124C172.738 100.815 173.718 102.659 173.718 104.273V115.049C173.718 115.914 173.43 116.49 173.026 116.778C172.969 116.778 169.914 118.68 169.914 118.68L169.972 117.066L170.26 115.971L161.501 110.9C160.291 110.208 159.311 108.364 159.311 106.751V98.1068L158.274 98.683L157.121 96.0898Z" fill="#54BAF9"/>
<path d="M169.972 118.738H169.914C169.857 118.738 169.857 118.681 169.857 118.623L169.914 117.009L170.202 115.972L161.558 110.959C160.348 110.267 159.311 108.365 159.311 106.694V98.223L158.447 98.7417C158.447 98.7417 158.389 98.7417 158.331 98.7417C158.274 98.7417 158.274 98.684 158.274 98.684L157.006 96.0908C157.006 96.0332 157.006 95.9756 157.063 95.9179L160.118 94.0739C160.579 93.8434 161.097 93.901 161.616 94.1891L171.586 99.9518C172.796 100.643 173.833 102.545 173.833 104.216V114.993C173.833 115.857 173.545 116.491 173.084 116.837C173.026 116.837 170.318 118.508 169.972 118.738ZM159.426 97.9349H159.484C159.541 97.9349 159.541 97.9925 159.541 98.0501V106.694C159.541 108.25 160.463 110.094 161.674 110.728L170.433 115.799C170.491 115.799 170.491 115.857 170.491 115.915L170.202 117.009L170.145 118.393C171.24 117.759 173.026 116.664 173.026 116.606C173.43 116.318 173.66 115.742 173.66 114.993V104.274C173.66 102.718 172.738 100.874 171.528 100.24L161.558 94.4773C161.04 94.1315 160.579 94.1315 160.233 94.3044L157.236 96.0908L158.389 98.4535L159.426 97.9349C159.369 97.9349 159.369 97.9349 159.426 97.9349Z" fill="#150035"/>
<path d="M161.557 94.3036L162.595 94.8798L157.927 97.8188L157.062 96.0324L160.117 94.1883C160.578 94.0154 161.039 94.0154 161.557 94.3036Z" fill="#150035"/>
<path d="M157.986 97.9915C157.928 97.9915 157.928 97.9915 157.986 97.9915C157.928 97.9915 157.87 97.9339 157.87 97.9339L157.006 96.1475C157.006 96.0898 157.006 96.0322 157.063 95.9746L160.118 94.1305C160.579 93.9 161.097 93.9576 161.616 94.2458L162.653 94.822C162.711 94.822 162.711 94.8797 162.711 94.9373C162.711 94.9949 162.711 94.9949 162.653 95.0525L157.986 97.9915C157.986 97.9915 157.986 97.9339 157.986 97.9915ZM157.236 96.0898L157.986 97.6458L162.365 94.8797L161.501 94.361C161.04 94.1305 160.579 94.1305 160.233 94.3034L157.236 96.0898Z" fill="#150035"/>
<path d="M170.43 106.118L169.393 117.355L169.911 118.565C169.911 118.565 172.965 116.721 173.023 116.663C173.426 116.375 173.715 115.799 173.715 114.934V104.273L170.43 106.118Z" fill="#150035"/>
<path d="M169.97 118.738C169.912 118.738 169.912 118.738 169.97 118.738C169.912 118.738 169.855 118.68 169.855 118.68L169.336 117.47V117.412L170.373 106.175C170.373 106.118 170.373 106.118 170.431 106.06L173.773 104.158C173.831 104.158 173.831 104.158 173.888 104.158C173.946 104.158 173.946 104.216 173.946 104.273V115.05C173.946 115.914 173.658 116.548 173.197 116.894C173.139 116.894 170.431 118.565 170.085 118.795C169.97 118.738 169.97 118.738 169.97 118.738ZM169.509 117.355L169.97 118.45C171.065 117.816 172.909 116.663 172.966 116.663C173.37 116.375 173.6 115.799 173.6 115.05V104.446L170.488 106.175L169.509 117.355Z" fill="#150035"/>
<path d="M161.558 94.3027L171.528 100.065C172.104 100.411 172.623 100.987 172.968 101.679L169.914 103.523L157.928 96.5502L161.558 94.3027Z" fill="white"/>
<path d="M169.972 103.639H169.914L157.87 96.6664C157.813 96.6664 157.812 96.6088 157.812 96.5512C157.812 96.4936 157.813 96.4936 157.87 96.4359L161.501 94.2461C161.558 94.2461 161.558 94.2461 161.616 94.2461L171.585 100.009C172.162 100.355 172.68 100.931 173.084 101.622C173.141 101.68 173.084 101.738 173.026 101.795L170.029 103.582C169.972 103.582 169.972 103.639 169.972 103.639ZM158.158 96.5512L169.972 103.351L172.911 101.622C172.507 100.988 172.046 100.47 171.585 100.182L161.558 94.4766L158.158 96.5512Z" fill="#150035"/>
<path d="M158.502 112.746L168.472 118.508C169.682 119.2 170.662 118.451 170.662 116.837V106.119C170.662 104.505 169.682 102.661 168.472 101.969L158.502 96.2068C157.292 95.5152 156.312 96.2644 156.312 97.878V108.654C156.37 110.153 157.292 112.054 158.502 112.746Z" fill="#54BAF9"/>
<path d="M169.395 118.855C169.107 118.855 168.819 118.74 168.473 118.567L158.503 112.804C157.293 112.113 156.256 110.211 156.256 108.54V97.8211C156.256 96.9567 156.544 96.2652 157.063 95.9771C157.524 95.7465 158.042 95.7465 158.619 96.0923L168.588 101.855C169.798 102.547 170.836 104.448 170.836 106.119V116.896C170.836 117.76 170.547 118.452 170.029 118.74C169.798 118.797 169.568 118.855 169.395 118.855ZM157.639 96.0347C157.466 96.0347 157.293 96.0923 157.12 96.1499C156.659 96.3804 156.429 97.0143 156.429 97.8211V108.597C156.429 110.153 157.351 111.997 158.561 112.631L168.53 118.394C168.991 118.682 169.452 118.74 169.856 118.509C170.317 118.279 170.547 117.645 170.547 116.838V106.119C170.547 104.563 169.625 102.719 168.415 102.086L158.446 96.3228C158.158 96.0923 157.927 96.0347 157.639 96.0347Z" fill="#150035"/>
<path d="M170.03 117.124C169.972 117.124 169.972 117.124 169.914 117.066C169.857 117.009 169.914 116.951 169.972 116.893L173.948 114.588C174.006 114.531 174.064 114.588 174.121 114.646C174.179 114.704 174.121 114.761 174.064 114.819L170.087 117.124H170.03Z" fill="#54BAF9"/>
<path d="M165.88 106.81L165.131 106.407V105.254C165.131 104.678 164.727 103.929 164.209 103.641L162.941 102.892C162.422 102.603 162.019 102.834 162.019 103.41V104.563L161.27 104.159C160.924 103.929 160.578 104.102 160.578 104.563V108.309C160.578 109.288 161.27 110.556 162.134 111.017L164.9 112.631C165.765 113.149 166.456 112.746 166.456 111.709V107.963C166.571 107.502 166.283 106.983 165.88 106.81ZM162.48 103.698C162.48 103.353 162.71 103.237 162.998 103.41L164.266 104.102C164.554 104.275 164.785 104.62 164.785 104.966V106.119L162.537 104.793V103.698H162.48ZM166.11 111.478C166.11 112.227 165.592 112.515 164.958 112.112L162.192 110.498C161.558 110.153 161.039 109.231 161.039 108.539V104.793C161.039 104.62 161.154 104.563 161.27 104.678L162.192 105.197L164.9 106.753L165.822 107.271C165.937 107.329 166.053 107.502 166.053 107.675V111.478H166.11Z" fill="white"/>
<path d="M163.631 107.33C163.285 107.1 162.939 107.273 162.939 107.734C162.939 108.079 163.112 108.483 163.4 108.713V109.578C163.4 109.693 163.516 109.866 163.631 109.981C163.746 110.039 163.861 109.981 163.861 109.866V109.001C164.15 109.059 164.323 108.886 164.323 108.54C164.323 108.079 164.034 107.561 163.631 107.33Z" fill="white"/>
<path d="M97.1895 50.5078L100.244 48.6637C100.647 48.4332 101.108 48.4908 101.627 48.779L111.596 54.5417C112.806 55.2332 113.786 57.0773 113.786 58.6908V69.4671C113.786 70.3315 113.498 70.9078 113.095 71.1959C113.037 71.1959 109.983 73.0976 109.983 73.0976L110.04 71.4841L110.328 70.3891L101.569 65.318C100.359 64.6264 99.3793 62.7824 99.3793 61.1688V52.5247L98.342 53.101L97.1895 50.5078Z" fill="#54BAF9"/>
<path d="M110.04 73.2129H109.983C109.925 73.2129 109.925 73.1553 109.925 73.0976L109.983 71.4841L110.271 70.4468L101.627 65.4332C100.417 64.7417 99.3793 62.84 99.3793 61.1688V52.6976L98.5149 53.2163C98.5149 53.2163 98.4573 53.2163 98.3996 53.2163C98.342 53.2163 98.342 53.1587 98.342 53.1587L97.0742 50.5654C97.0742 50.5078 97.0742 50.4502 97.1318 50.3926L100.186 48.5485C100.647 48.318 101.166 48.3756 101.684 48.6637L111.654 54.4264C112.864 55.118 113.901 57.0197 113.901 58.6909V69.4671C113.901 70.3315 113.613 70.9654 113.152 71.3112C113.095 71.3112 110.386 72.9824 110.04 73.2129C110.04 73.2129 110.098 73.2129 110.04 73.2129ZM99.4946 52.4095H99.5522C99.6098 52.4095 99.6098 52.4671 99.6098 52.5248V61.2264C99.6098 62.7824 100.532 64.6264 101.742 65.2603L110.501 70.3315C110.559 70.3315 110.559 70.3892 110.559 70.4468L110.271 71.5417L110.213 72.9248C111.308 72.2909 113.095 71.1959 113.095 71.1383C113.498 70.8502 113.728 70.2739 113.728 69.5248V58.7485C113.728 57.1926 112.806 55.3485 111.596 54.7146L101.627 48.9519C101.166 48.6637 100.705 48.6061 100.359 48.8366L97.3624 50.6231L98.5149 52.9858L99.4946 52.4095C99.4369 52.4095 99.4946 52.4095 99.4946 52.4095Z" fill="#150035"/>
<path d="M101.684 48.7801L102.722 49.3564L98.0539 52.2954L97.1895 50.5089L100.244 48.6649C100.647 48.492 101.166 48.492 101.684 48.7801Z" fill="#150035"/>
<path d="M98.0539 52.4671C98.0539 52.4671 98.0539 52.4095 98.0539 52.4671C97.9963 52.4671 97.9386 52.4095 97.9386 52.4095L97.0742 50.6231C97.0742 50.5654 97.0742 50.5078 97.1318 50.4502L100.186 48.5485C100.647 48.318 101.166 48.3756 101.684 48.6637L102.722 49.24C102.779 49.24 102.779 49.2976 102.779 49.3553C102.779 49.4129 102.779 49.4129 102.722 49.4705L98.0539 52.4095C98.1115 52.4095 98.0539 52.4671 98.0539 52.4671ZM97.3624 50.5654L98.1115 52.1214L102.491 49.3553L101.627 48.8366C101.166 48.5485 100.705 48.4909 100.359 48.7214L97.3624 50.5654Z" fill="#150035"/>
<path d="M110.498 60.5921L109.461 71.8294L109.98 73.0396C109.98 73.0396 113.034 71.1955 113.091 71.1379C113.495 70.8497 113.783 70.2735 113.783 69.4091V58.748L110.498 60.5921Z" fill="#150035"/>
<path d="M110.038 73.2125C109.981 73.2125 109.923 73.1548 109.923 73.1548L109.404 71.9447V71.887L110.442 60.6498C110.442 60.5921 110.442 60.5921 110.499 60.5345L113.842 58.6328C113.899 58.6328 113.899 58.6328 113.957 58.6328C114.014 58.6328 114.014 58.6904 114.014 58.7481V69.5243C114.014 70.3887 113.726 71.0226 113.265 71.3684C113.208 71.3684 110.499 73.0396 110.153 73.2701C110.096 73.2125 110.038 73.2125 110.038 73.2125ZM109.635 71.8294L110.096 72.9243C111.191 72.2904 113.035 71.1379 113.092 71.1379C113.496 70.8498 113.726 70.2735 113.726 69.5243V58.9209L110.614 60.6498L109.635 71.8294Z" fill="#150035"/>
<path d="M101.684 48.7793L111.654 54.542C112.23 54.8878 112.749 55.464 113.094 56.1556L110.04 57.9996L97.9961 51.0268L101.684 48.7793Z" fill="white"/>
<path d="M110.04 58.0573H109.983L97.9385 51.0844C97.8809 51.0844 97.8809 51.0268 97.8809 50.9691C97.8809 50.9115 97.8809 50.9115 97.9385 50.8539L101.569 48.6641C101.627 48.6641 101.627 48.6641 101.684 48.6641L111.654 54.4268C112.23 54.7725 112.749 55.3488 113.152 56.0403C113.21 56.098 113.152 56.1556 113.094 56.2132L110.04 58.0573C110.098 58.0573 110.04 58.0573 110.04 58.0573ZM98.2266 51.0268L110.04 57.8268L112.979 56.098C112.576 55.4641 112.115 54.9454 111.654 54.6573L101.684 48.9522L98.2266 51.0268Z" fill="#150035"/>
<path d="M98.6293 67.2204L108.599 72.9831C109.809 73.6746 110.789 72.9254 110.789 71.3119V60.5356C110.789 58.9221 109.809 57.078 108.599 56.3865L98.6293 50.6814C97.4191 49.9899 96.4395 50.739 96.4395 52.3526V63.1288C96.4395 64.6271 97.4191 66.5288 98.6293 67.2204Z" fill="#54BAF9"/>
<path d="M109.463 73.3296C109.175 73.3296 108.887 73.2144 108.541 73.0415L98.5717 67.2788C97.3039 66.5873 96.3242 64.6856 96.3242 63.072V52.2957C96.3242 51.4313 96.6124 50.7398 97.131 50.4517C97.592 50.2212 98.1107 50.2212 98.6869 50.5669L108.656 56.3296C109.867 57.0212 110.904 58.9229 110.904 60.594V71.3703C110.904 72.2347 110.616 72.9262 110.097 73.2144C109.924 73.272 109.694 73.3296 109.463 73.3296ZM98.6869 67.1059L108.656 72.8686C109.117 73.1567 109.578 73.2144 109.982 72.9839C110.443 72.7534 110.673 72.1195 110.673 71.3127V60.5364C110.673 58.9805 109.751 57.1364 108.541 56.5025L98.5717 50.7398C98.1107 50.4517 97.6496 50.394 97.2463 50.6245C96.7852 50.8551 96.5547 51.489 96.5547 52.2957V63.072C96.5547 64.6279 97.5344 66.4144 98.6869 67.1059Z" fill="#150035"/>
<path d="M110.098 71.5985C110.04 71.5985 110.04 71.5985 109.983 71.5409C109.925 71.4833 109.983 71.4256 110.04 71.368L114.017 69.0629C114.074 69.0053 114.132 69.0629 114.19 69.1206C114.247 69.1782 114.19 69.2358 114.132 69.2934L110.156 71.5985C110.156 71.5985 110.156 71.5985 110.098 71.5985Z" fill="#54BAF9"/>
<path d="M106.639 60.8795C106.639 60.7642 106.582 60.7066 106.524 60.5914L103.815 57.8253C103.815 57.8253 103.815 57.8253 103.758 57.7676C103.758 57.7676 103.758 57.7676 103.7 57.7676C103.7 57.7676 103.7 57.7676 103.643 57.7676L100.934 57.4219C100.876 57.4219 100.819 57.4795 100.819 57.5371C100.819 57.5948 100.127 61.9744 103.643 66.3541L103.7 66.4117H103.758C103.758 66.4117 103.758 66.4117 103.815 66.4117C107.388 66.1236 106.639 60.9371 106.639 60.8795ZM103.815 65.8354C103.297 63.2422 103.239 61.6863 103.239 61.6863C103.239 61.571 103.124 61.3981 103.009 61.2829C102.893 61.2253 102.778 61.2829 102.778 61.3981C102.778 61.4558 102.778 62.8964 103.297 65.3744C100.819 61.8592 101.049 58.632 101.107 57.9405L103.182 58.171C103.009 58.5168 102.836 59.0354 102.778 59.8422C102.778 59.9575 102.836 60.1304 102.951 60.2456C103.066 60.3032 103.182 60.2456 103.182 60.1303C103.297 59.0931 103.527 58.5168 103.7 58.2863L106.12 60.8219C106.293 61.6863 106.524 65.432 103.815 65.8354Z" fill="white"/>
<path d="M185.936 46.4746L188.99 44.6305C189.393 44.4 189.854 44.4576 190.373 44.7458L200.342 50.5085C201.552 51.2 202.532 53.0441 202.532 54.6576V65.4339C202.532 66.2983 202.244 66.8746 201.841 67.1627C201.783 67.1627 198.729 69.0644 198.729 69.0644L198.786 67.4508L199.075 66.3559L190.315 61.2847C189.105 60.5932 188.125 58.7492 188.125 57.1356V48.4339L187.088 49.0102L185.936 46.4746Z" fill="#54BAF9"/>
<path d="M198.786 69.1797H198.729C198.671 69.1797 198.671 69.1221 198.671 69.0644L198.729 67.4509L199.017 66.4136L190.373 61.4C189.163 60.7085 188.125 58.8068 188.125 57.1356V48.6644L187.261 49.1831C187.261 49.1831 187.203 49.1831 187.146 49.1831C187.088 49.1831 187.088 49.1254 187.088 49.1254L185.82 46.5322C185.82 46.4746 185.82 46.417 185.878 46.3594L188.932 44.5153C189.393 44.2848 189.912 44.3424 190.43 44.6305L200.4 50.3933C201.61 51.0848 202.647 52.9865 202.647 54.6577V65.4339C202.647 66.2983 202.359 66.9322 201.898 67.278C201.841 67.278 199.305 68.8339 198.786 69.1797C198.844 69.1797 198.844 69.1797 198.786 69.1797ZM188.241 48.3763H188.298C188.356 48.3763 188.356 48.4339 188.356 48.4916V57.1932C188.356 58.7492 189.278 60.5932 190.488 61.2271L199.247 66.2983C199.305 66.2983 199.305 66.356 199.305 66.4136L199.017 67.5085L198.959 68.8916C200.054 68.2577 201.841 67.1627 201.841 67.1051C202.244 66.817 202.475 66.2407 202.475 65.4916V54.7153C202.475 53.1594 201.553 51.3153 200.342 50.6814L190.373 44.9187C189.912 44.6305 189.451 44.5729 189.105 44.8034L186.108 46.5899L187.261 48.9526L188.241 48.3763Z" fill="#150035"/>
<path d="M190.43 44.7469L191.468 45.3232L186.8 48.2622L185.936 46.4757L188.99 44.6317C189.393 44.4588 189.912 44.4588 190.43 44.7469Z" fill="#150035"/>
<path d="M186.8 48.3763C186.742 48.3763 186.685 48.3187 186.685 48.3187L185.82 46.5322C185.82 46.4746 185.82 46.417 185.878 46.3594L188.932 44.5153C189.393 44.2848 189.912 44.3424 190.43 44.6305L191.468 45.2068C191.525 45.2068 191.525 45.2644 191.525 45.3221C191.525 45.3797 191.525 45.3797 191.468 45.4373L186.8 48.3763C186.858 48.3763 186.858 48.3763 186.8 48.3763ZM186.108 46.5322L186.858 48.0882L191.237 45.3221L190.373 44.8034C189.912 44.5153 189.451 44.4577 189.105 44.6882L186.108 46.5322Z" fill="#150035"/>
<path d="M199.303 56.5589L198.266 67.7962L198.784 69.0064C198.784 69.0064 201.839 67.1623 201.896 67.1047C202.3 66.8166 202.588 66.2403 202.588 65.3759V54.5996L199.303 56.5589Z" fill="#150035"/>
<path d="M198.784 69.1793C198.727 69.1793 198.669 69.1217 198.669 69.1217L198.15 67.9115V67.8538L199.188 56.6166C199.188 56.5589 199.188 56.5589 199.245 56.5013L202.588 54.5996C202.645 54.5996 202.645 54.5996 202.703 54.5996C202.761 54.5996 202.761 54.6572 202.761 54.7149V65.4911C202.761 66.3555 202.472 66.9894 202.011 67.3352C201.954 67.3352 199.418 68.8911 198.9 69.2369C198.842 69.1793 198.842 69.1793 198.784 69.1793ZM198.381 67.7962L198.842 68.8911C199.937 68.2572 201.781 67.1047 201.839 67.1047C202.242 66.8166 202.472 66.2403 202.472 65.4911V54.9454L199.361 56.6742L198.381 67.7962Z" fill="#150035"/>
<path d="M190.43 44.7461L200.4 50.5088C200.976 50.8546 201.495 51.4308 201.84 52.1224L198.786 53.9664L186.742 46.9935L190.43 44.7461Z" fill="white"/>
<path d="M198.786 54.0241H198.729L186.685 47.0512C186.627 47.0512 186.627 46.9936 186.627 46.9359C186.627 46.8783 186.627 46.8783 186.685 46.8207L190.315 44.6309C190.373 44.6309 190.373 44.6309 190.43 44.6309L200.4 50.3936C200.976 50.7393 201.495 51.3156 201.898 52.0071C201.956 52.0648 201.898 52.1224 201.841 52.18L198.786 54.0241C198.844 54.0241 198.844 54.0241 198.786 54.0241ZM187.03 46.9936L198.844 53.7936L201.783 52.0648C201.379 51.4309 200.918 50.9122 200.457 50.6241L190.546 44.919L187.03 46.9936Z" fill="#150035"/>
<path d="M187.375 63.1862L197.345 68.9489C198.555 69.6404 199.535 68.8913 199.535 67.2777V56.5014C199.535 54.8879 198.555 53.0438 197.345 52.3523L187.375 46.5896C186.165 45.8981 185.186 46.6472 185.186 48.2608V59.037C185.186 60.593 186.165 62.4947 187.375 63.1862Z" fill="#54BAF9"/>
<path d="M198.209 69.2955C197.921 69.2955 197.633 69.1802 197.287 69.0073L187.318 63.2446C186.108 62.5531 185.07 60.6514 185.07 58.9802V48.2039C185.07 47.3395 185.358 46.648 185.877 46.3599C186.28 46.1294 186.857 46.1294 187.433 46.4751L197.403 52.2378C198.613 52.9294 199.65 54.8311 199.65 56.5022V67.2785C199.65 68.1429 199.362 68.8344 198.843 69.1226C198.67 69.2378 198.44 69.2955 198.209 69.2955ZM186.511 46.4751C186.338 46.4751 186.165 46.5327 185.992 46.5904C185.531 46.8209 185.301 47.4548 185.301 48.2616V59.0378C185.301 60.5938 186.223 62.4378 187.433 63.0717L197.403 68.8344C197.864 69.1226 198.325 69.1802 198.728 68.9497C199.189 68.7192 199.419 68.0853 199.419 67.2785V56.5022C199.419 54.9463 198.497 53.1022 197.287 52.4683L187.318 46.7056C187.03 46.5327 186.741 46.4751 186.511 46.4751Z" fill="#150035"/>
<path d="M198.901 67.5653C198.843 67.5653 198.843 67.5653 198.786 67.5077C198.728 67.4501 198.786 67.3924 198.843 67.3348L202.819 65.0297C202.877 64.9721 202.935 65.0297 202.992 65.0874C203.05 65.145 202.992 65.2026 202.935 65.2602L198.958 67.5653C198.901 67.5653 198.901 67.5653 198.901 67.5653Z" fill="#54BAF9"/>
<path d="M195.213 57.8272C195.213 56.9628 194.925 55.9832 194.348 55.0611C193.83 54.1391 193.081 53.4476 192.332 53.0442C190.891 52.295 189.738 52.9866 189.738 54.6001C189.738 55.9832 190.487 57.712 191.64 58.8069V61.5154C191.64 62.034 191.986 62.6103 192.447 62.8984L193.484 63.4747C193.945 63.7052 194.291 63.5323 194.291 63.0137C194.291 62.495 193.945 61.8611 193.484 61.6306L193.254 61.5154V60.8238L194.003 61.2272C194.118 61.2849 194.233 61.2272 194.233 61.112C194.233 60.9967 194.118 60.8238 194.003 60.7086L193.254 60.3052V59.7289C194.406 59.9594 195.213 59.2103 195.213 57.8272ZM193.484 62.0916C193.715 62.2069 193.83 62.495 193.83 62.7255C193.83 62.956 193.657 63.0713 193.484 62.956L192.447 62.3798C192.274 62.2645 192.101 61.9764 192.101 61.7459V58.8645C192.101 58.7493 192.043 58.634 191.928 58.5188C190.891 57.6543 190.142 56.0984 190.142 54.8882C190.142 53.5052 191.179 52.9289 192.332 53.5628C192.389 53.5628 192.389 53.6205 192.447 53.6205C193.023 53.9662 193.599 54.5425 194.06 55.2916C194.521 56.0408 194.752 56.9052 194.752 57.5967C194.752 58.8069 194.003 59.4408 192.965 59.1527C192.85 59.095 192.793 59.2103 192.793 59.3255V60.3628V61.5154C192.793 61.6306 192.908 61.8035 193.023 61.9188L193.484 62.0916Z" fill="white"/>
<path d="M193.657 56.9618C193.657 56.2126 193.138 55.2906 192.446 54.8872C191.813 54.4838 191.236 54.8296 191.236 55.5787C191.236 56.3279 191.755 57.2499 192.446 57.6533C193.138 58.0567 193.657 57.7685 193.657 56.9618ZM192.446 57.1923C192.043 56.9617 191.697 56.3855 191.697 55.8668C191.697 55.3482 192.043 55.1753 192.446 55.4058C192.85 55.6363 193.196 56.2126 193.196 56.7312C193.196 57.2499 192.908 57.4228 192.446 57.1923Z" fill="white"/>
</svg>
