<svg width="221" height="236" viewBox="0 0 221 236" fill="none" xmlns="http://www.w3.org/2000/svg">
<path opacity="0.53" d="M34.3203 214.718C49.5141 223.49 68.8721 229.464 89.9464 231.884C111.021 234.304 132.865 233.062 152.717 228.315C172.568 223.567 189.536 215.528 201.473 205.213C213.411 194.898 219.783 182.771 219.783 170.365C219.783 157.96 213.411 145.833 201.473 135.518C189.536 125.203 172.568 117.163 152.717 112.416C132.865 107.668 111.021 106.426 89.9464 108.846C68.8721 111.267 49.5141 117.24 34.3203 126.013C13.9461 137.776 2.5 153.73 2.5 170.365C2.5 187.001 13.9461 202.955 34.3203 214.718Z" fill="#3C089F"/>
<path d="M203.989 84.8741C204.195 84.6678 204.195 84.2552 203.989 83.8426C203.576 83.2237 202.751 82.6049 200.894 82.1923C198.006 81.5734 193.262 85.2866 190.167 84.6678L189.961 84.8741L190.167 85.0804L191.818 87.3495L198.006 87.9684L202.957 86.3181L203.989 84.8741Z" fill="#5600D6"/>
<path d="M197.801 88.7935L191.2 88.1746L189.343 85.2866L189.137 84.6678L190.168 84.0489H190.374C191.818 84.2552 193.675 83.6363 195.532 82.8111C197.595 81.986 199.451 81.1608 201.101 81.5734C202.958 81.986 203.99 82.8111 204.402 83.43C204.815 84.0489 204.815 84.6677 204.402 85.2866L202.958 86.9369L197.801 88.7935ZM192.025 86.7306L197.595 87.3495L202.133 85.9055L203.164 84.4614V84.2551C202.958 83.8426 202.133 83.2237 200.483 82.8111C199.245 82.6048 197.595 83.2237 195.738 84.0489C194.088 84.6677 192.231 85.4929 190.787 85.4929L192.025 86.7306Z" fill="#0F0225"/>
<path d="M168.92 85.4927C168.92 85.4927 161.907 88.9996 157.162 93.1253C152.417 97.0448 156.13 87.5555 156.13 87.5555C156.13 87.5555 164.382 77.0348 164.795 77.0348C165.207 76.8285 170.158 77.0348 170.158 77.0348L170.777 79.5103L168.92 85.4927Z" fill="white"/>
<path d="M155.304 94.5693C155.098 94.5693 154.891 94.5693 154.685 94.363C153.241 93.3316 154.685 89.4121 155.51 87.1429V86.9366C163.968 76.2096 164.174 76.2096 164.587 76.0033C164.793 76.0033 165 75.797 170.157 76.0033H170.569L171.395 79.304L169.332 85.9052L169.125 86.1115C169.125 86.1115 162.112 89.6184 157.367 93.5378C156.954 94.1567 156.129 94.5693 155.304 94.5693ZM156.748 87.7618C155.717 90.2373 155.304 92.7127 155.51 93.3316C155.717 93.3316 155.923 93.1253 156.748 92.5064C161.08 88.9995 167.062 85.6989 168.506 85.08L170.157 79.304L169.538 77.4474C167.681 77.4474 165.618 77.4474 165 77.4474C164.174 78.2725 159.636 84.0486 156.748 87.7618Z" fill="#0F0225"/>
<path d="M179.646 116.23C179.852 116.642 180.471 116.849 180.884 116.436C182.328 114.373 186.041 109.216 188.31 103.852C191.198 96.8385 195.53 93.3317 195.53 93.3317L189.548 91.475C189.548 91.475 188.723 92.9191 187.073 94.7757C185.216 96.6323 180.265 100.345 180.265 100.345L177.377 110.041L179.646 116.23Z" fill="white"/>
<path d="M180.266 117.468C179.647 117.468 179.234 117.055 179.028 116.643L176.553 110.248L179.647 100.14L179.853 99.9333C179.853 99.9333 184.804 96.0138 186.661 94.3635C188.311 92.7132 189.136 91.2692 189.136 91.2692L189.343 90.8566L197.182 93.1258L196.15 93.951C196.15 93.951 191.818 97.4579 189.136 104.265C186.867 109.835 183.154 114.992 181.71 117.055C181.091 117.262 180.679 117.468 180.266 117.468ZM177.997 110.041L180.472 116.024C181.916 113.961 185.423 108.804 187.692 103.44C189.961 98.283 192.849 94.7761 194.294 93.3321L189.961 92.0943C189.549 92.7132 188.724 93.7446 187.486 95.1887C185.836 96.839 181.71 99.9333 180.885 100.758L177.997 110.041Z" fill="#0F0225"/>
<path d="M182.743 101.996C183.155 92.9192 183.361 83.0174 183.361 83.0174C183.361 83.0174 170.778 82.1922 170.984 82.6048C170.984 83.0174 170.365 85.2865 170.365 85.2865C170.365 85.2865 170.984 97.8701 171.809 110.247C172.634 122.625 180.061 120.974 181.711 114.786C182.124 112.929 182.536 109.01 182.743 104.678V101.996Z" fill="white"/>
<path d="M176.76 120.149C176.554 120.149 176.554 120.149 176.348 120.149C174.904 119.943 171.397 118.705 170.778 110.247C169.953 98.0762 169.334 85.4926 169.334 85.2863V85.08V84.8737C169.747 83.8423 169.953 82.6046 169.953 82.3983V81.9857L170.159 81.7794C170.365 81.3668 170.572 81.1605 183.155 81.9857H183.774V82.6046C183.774 82.6046 183.568 92.7127 183.155 101.583H181.711C182.124 93.9504 182.33 85.4926 182.33 83.2234C177.586 83.0171 172.635 82.6046 171.191 82.6046C171.191 83.0171 170.984 83.636 170.572 84.8737C170.572 86.3177 171.191 98.0762 172.016 109.628C172.428 115.817 174.491 118.086 176.348 118.292C178.204 118.499 179.855 116.642 180.68 114.167C181.092 112.516 181.505 109.216 181.711 104.265H182.949C182.743 109.216 182.33 112.723 181.711 114.373C181.299 117.88 179.03 120.149 176.76 120.149Z" fill="#0F0225"/>
<path d="M160.458 85.0803C160.458 85.0803 160.664 91.269 156.126 97.4576C151.587 103.646 150.968 106.741 147.668 108.391C144.161 110.248 141.892 109.422 141.273 106.947C140.86 105.709 141.892 100.346 142.923 95.1885C144.367 88.7935 146.636 82.8112 149.731 77.2414L150.762 75.1785L160.458 83.0175V85.0803Z" fill="white"/>
<path d="M144.162 110.042C143.543 110.042 143.13 110.042 142.511 109.835C141.48 109.423 140.655 108.598 140.449 107.36C140.242 106.947 140.036 105.709 142.099 95.3951C143.543 89.0001 145.812 83.0178 148.906 77.2417L150.35 74.5599L160.871 83.0178L161.077 85.2869C161.077 85.4932 161.077 91.6819 156.539 98.0768C155.095 100.14 153.857 101.996 153.032 103.44C151.382 106.328 150.144 108.185 147.669 109.423C146.431 109.835 145.193 110.042 144.162 110.042ZM150.969 76.4166L150.35 77.6543C147.256 83.224 144.987 89.2064 143.543 95.3951C141.686 104.472 141.686 106.328 141.893 106.741C142.099 107.566 142.511 108.185 143.337 108.391C144.368 108.804 145.812 108.598 147.462 107.772C149.525 106.741 150.557 105.091 152.207 102.409C153.032 100.965 154.27 99.1083 155.714 97.0454C159.84 91.2693 160.046 85.2869 160.046 85.0807V83.4303L150.969 76.4166Z" fill="#0F0225"/>
<path d="M180.674 66.3083C180.674 66.3083 184.8 70.8467 184.181 83.0177C184.181 83.0177 179.024 82.8114 168.915 85.4931C168.915 85.4931 168.297 82.1925 167.471 80.1296C167.059 79.0982 165.409 79.0982 164.79 80.1296L161.902 85.4931C161.902 85.4931 154.475 84.0491 148.699 76.829C148.699 76.829 150.556 71.8781 152.825 68.3712C155.094 64.8643 161.283 64.0392 161.283 64.0392L180.674 66.3083Z" fill="#0F0225"/>
<path d="M168.298 86.3184L168.091 85.4933C168.091 85.4933 167.472 82.399 166.647 80.3361C166.441 79.9235 166.028 79.9235 166.028 79.9235C165.822 79.9235 165.41 79.9235 165.203 80.3361L162.109 86.1122H161.696C161.284 86.1122 153.857 84.4618 148.081 77.2418L147.875 77.0355L148.081 76.6229C148.081 76.4166 149.938 71.672 152.413 67.9588C154.889 64.0393 161.077 63.2141 161.284 63.2141L180.881 65.6896L181.087 65.8959C181.294 66.1022 185.419 70.8468 184.801 83.0178V83.6367H184.182C184.182 83.6367 179.025 83.4304 169.123 86.1122L168.298 86.3184ZM149.525 76.6229C154.064 82.1927 159.84 84.2556 161.49 84.6681L164.172 79.7172C164.584 78.8921 165.41 78.4795 166.235 78.6858C167.06 78.6858 167.679 79.0984 168.091 79.9235C168.916 81.5738 169.329 83.6367 169.535 84.6681C177.374 82.6053 182.119 82.399 183.769 82.1927C183.975 72.4971 181.087 67.7525 180.469 66.9273L161.49 64.6582C160.871 64.8644 155.508 65.6896 153.651 68.7839C151.588 71.672 149.938 75.5914 149.525 76.6229Z" fill="#0F0225"/>
<path d="M134.88 65.8956C133.436 56.2 135.293 51.6617 135.293 51.6617C136.118 49.8051 137.149 47.9485 138.181 46.2982C142.1 40.7284 147.257 33.7146 147.257 33.7146L150.352 33.302C150.352 33.302 153.652 33.9209 154.684 35.7775L172.837 32.0643L178.613 36.8089L178.201 39.9032C178.201 39.9032 175.931 50.0114 176.963 55.9937C177.994 61.7698 181.089 65.483 181.089 65.483C175.725 73.1157 170.362 79.3043 162.11 76.21C153.858 73.1157 151.796 67.1333 151.796 67.1333C151.796 67.1333 155.096 59.9132 153.033 58.0566C150.97 56.2 148.908 54.1371 150.97 47.9485C151.796 45.6793 152.002 43.8227 151.796 42.585C150.558 44.029 149.32 45.473 148.289 46.9171C145.194 51.4554 141.481 55.3749 141.481 55.3749C141.481 55.3749 139.418 66.927 140.243 70.0213C141.069 72.9094 142.306 75.5911 142.306 75.5911C142.306 75.5911 146.02 81.7798 144.576 83.4301C143.131 85.0804 141.687 83.0175 141.687 83.0175C141.687 83.0175 141.481 83.0175 141.481 83.2238C141.481 84.4615 140.862 88.9999 137.149 87.9684C134.261 87.1433 134.88 78.6854 134.88 78.6854C134.88 78.6854 136.118 74.5597 134.88 65.8956Z" fill="#5600D6"/>
<path d="M138.8 88.1746C138.388 88.1746 137.975 88.1746 137.563 87.9683C134.262 87.1432 134.675 79.5105 134.675 77.8602C134.675 77.6539 135.293 74.3533 134.056 65.8955C132.612 56.1999 134.468 51.4553 134.468 51.249C135.293 49.1861 136.325 47.3295 137.563 45.6792C141.482 40.1094 146.639 33.0957 146.639 33.0957L146.846 32.8894L150.353 32.2705H150.559C150.765 32.2705 153.653 32.8894 155.097 34.5397L173.251 30.8265L179.645 36.19L179.233 39.6969C179.233 39.9032 176.964 50.0113 177.995 55.5811C178.82 61.1509 181.915 64.6578 181.915 64.6578L182.327 65.0704L182.121 65.4829C176.964 72.9093 171.394 79.7168 162.317 76.4162C153.859 73.1156 151.59 67.1332 151.59 66.9269V66.7206L151.797 66.5144C153.034 63.6263 154.478 59.2943 153.241 58.2628C150.765 56.1999 148.908 53.9308 150.971 47.5358C151.384 46.2981 151.59 45.2667 151.797 44.2352C150.971 45.0604 150.146 46.0918 149.527 46.917C146.639 51.0427 143.545 54.5496 142.926 55.3748C142.307 58.6754 141.07 67.1332 141.688 69.4024C142.514 72.2904 143.751 74.7659 143.751 74.9722C144.576 76.4162 147.464 81.5734 146.02 83.43C145.402 84.2552 144.783 84.2551 144.164 84.2551C143.751 84.2551 143.339 84.0489 142.926 83.8426C142.72 85.0803 142.307 86.5243 141.07 87.5558C140.244 87.9683 139.626 88.1746 138.8 88.1746ZM147.671 34.1271C146.846 35.3648 142.307 41.3472 138.8 46.5044C137.769 48.1547 136.738 49.805 135.912 51.8679C135.912 51.8679 134.262 56.4062 135.5 65.8955C136.737 74.7659 136.119 78.0665 136.119 78.2728C135.912 81.5734 136.325 86.3181 137.975 86.7306C138.8 86.9369 139.419 86.9369 140.038 86.5243C141.07 85.6992 141.482 84.0489 141.482 82.6049C141.482 82.3986 141.688 81.986 141.895 81.986L142.307 81.7797L142.926 81.986V82.1923C143.132 82.3985 143.545 83.0174 143.958 83.0174C143.958 83.0174 144.37 83.0174 144.576 82.6049C145.195 81.7797 143.958 78.2728 142.307 75.591C142.307 75.3848 140.863 72.703 140.244 69.815C139.419 66.7206 141.482 55.3748 141.482 54.9622V54.7559L141.688 54.5496C141.688 54.5496 145.195 50.6301 148.29 46.0918C149.115 44.8541 150.353 43.6164 151.384 42.3786L153.034 40.522V42.1723C153.034 43.8226 152.828 45.8855 152.209 47.7421C150.146 53.9308 152.209 55.5811 154.066 57.0251C156.335 58.8817 153.859 64.8641 153.034 66.5144C153.447 67.5458 155.922 72.2904 162.936 74.9722C170.156 77.6539 175.107 73.1156 180.883 65.0704C180.058 64.0389 177.583 60.532 176.964 55.7874C175.932 50.0113 178.201 39.9032 178.201 39.4906L178.408 36.8088L173.044 32.4768L154.685 36.19L154.478 35.7774C153.653 34.5397 151.59 33.9208 150.765 33.7145L147.671 34.1271Z" fill="#0F0225"/>
<path d="M168.299 42.3786C168.299 42.3786 165.618 40.5221 166.443 39.2843C167.268 38.0466 169.743 37.0151 169.743 37.0151L169.95 39.9032L168.299 42.3786Z" fill="#0F0225"/>
<path d="M168.505 43.4103L167.886 42.9977C167.68 42.7914 165.823 41.76 165.617 40.316C165.617 39.9034 165.617 39.4908 165.823 39.0783C166.855 37.6343 169.33 36.6028 169.537 36.6028L170.362 36.1902L170.568 40.316L168.505 43.4103ZM169.33 38.2531C168.505 38.6657 167.68 39.2845 167.061 39.9034V40.1097C167.061 40.5223 167.68 41.1411 168.299 41.5537L169.537 39.9034L169.33 38.2531Z" fill="#0F0225"/>
<path d="M155.301 41.5531C155.301 41.5531 151.382 40.1091 148.906 37.221C146.431 34.333 150.763 29.5883 150.969 29.5883L154.476 30.8261C154.476 30.8261 155.92 34.333 155.92 34.5393C156.126 34.7456 155.301 41.5531 155.301 41.5531Z" fill="#0F0225"/>
<path d="M155.922 42.3787L155.096 42.1724C154.89 42.1724 150.971 40.7284 148.495 37.6341C147.67 36.8089 147.464 35.7775 147.67 34.5397C148.083 31.858 150.558 29.1763 150.764 28.97C151.177 28.7637 151.177 28.7637 154.89 30.2077L155.096 30.414L155.303 30.6202C155.715 31.4454 156.747 34.1272 156.747 34.3334C156.747 34.5397 156.953 34.746 156.128 41.5535L155.922 42.3787ZM151.177 30.2077C150.352 31.0328 147.67 34.5397 149.527 36.8089C151.177 38.6655 153.652 40.1095 154.89 40.5221C155.096 38.2529 155.509 35.1586 155.509 34.746C155.303 34.3334 154.684 32.6831 154.065 31.4454C153.034 30.8266 151.796 30.414 151.177 30.2077Z" fill="#0F0225"/>
<path d="M170.159 36.3959C170.159 36.3959 166.858 43.8223 161.082 44.8537C159.019 45.2663 156.957 44.2349 155.925 42.5846C154.894 40.728 153.656 37.8399 153.45 32.889C153.037 23.606 165.208 27.3192 165.208 27.3192L171.397 31.2387L170.159 36.3959Z" fill="white"/>
<path d="M160.256 45.4729C158.194 45.4729 156.337 44.4415 155.306 42.7911C154.274 41.1408 152.83 37.8402 152.83 32.683C152.83 30.2075 153.449 28.3509 155.099 27.1132C158.606 24.4315 165.207 26.4943 165.62 26.4943H165.826L172.427 30.6201L170.983 36.3962C170.777 36.8088 167.477 44.2351 161.288 45.0603C160.875 45.4729 160.463 45.4729 160.256 45.4729ZM160.05 27.1132C158.606 27.1132 156.956 27.3195 155.718 28.351C154.48 29.1761 153.862 30.8264 154.068 32.683C154.274 37.6339 155.512 40.522 156.543 42.1723C157.575 43.6163 159.225 44.4414 161.082 44.2352C166.239 43.41 169.333 37.0151 169.746 36.3962L170.983 31.6516L165.207 27.9384C164.589 27.7321 162.319 27.1132 160.05 27.1132Z" fill="#0F0225"/>
<path d="M166.442 32.8893C166.442 32.8893 163.348 37.6339 158.191 39.4905C157.572 39.6968 156.953 39.4905 156.54 39.078C155.096 38.0465 152.415 34.9522 151.383 28.5572C150.145 19.8931 163.967 24.4315 163.967 24.4315L166.442 32.8893Z" fill="white"/>
<path d="M157.778 40.1094C157.159 40.1094 156.746 39.9031 156.127 39.4905C154.89 38.4591 151.795 35.571 150.764 28.5572C150.351 26.4943 150.97 24.844 152.208 23.8126C155.715 20.9246 163.966 23.4 164.173 23.6063L164.585 23.8126L167.267 32.8893L167.061 33.0956C166.854 33.3019 163.966 38.0465 158.397 39.9031C158.19 40.1094 157.984 40.1094 157.778 40.1094ZM157.159 24.0189C155.509 24.0189 154.065 24.2252 153.033 25.0503C152.208 25.8755 151.795 26.9069 152.208 28.5572C153.239 35.1584 156.127 37.8402 157.159 38.6654C157.572 38.8716 157.984 39.0779 158.19 38.8716C162.522 37.4276 165.204 33.9207 166.029 32.8893L163.76 25.0503C161.904 24.4314 159.428 24.0189 157.159 24.0189Z" fill="#0F0225"/>
<path d="M153.654 25.6694C153.654 25.6694 153.86 31.6517 160.255 32.4769C166.65 33.302 162.937 31.2391 162.937 31.2391C162.937 31.2391 170.157 34.5398 170.157 38.6655C170.157 38.6655 169.951 42.1724 168.3 42.7913C168.3 42.7913 172.632 41.5536 174.695 34.9523C174.695 34.9523 176.139 35.9838 176.346 32.6832C176.552 29.3825 176.346 26.9071 172.632 23.4002C169.126 19.8933 169.332 16.5927 166.856 13.7046C164.381 10.8166 159.843 10.404 157.161 12.4669C157.161 12.4669 154.479 10.8166 152.21 15.3549C149.941 19.8933 149.116 23.1939 149.116 23.1939C149.116 23.1939 146.228 25.0505 147.878 28.5574C147.878 28.5574 145.402 34.1272 150.147 37.6341C150.147 37.6341 149.322 32.2706 150.972 30.8266C152.623 29.3826 152.416 27.9385 152.416 27.9385L153.654 25.6694Z" fill="#5600D6"/>
<path d="M168.507 43.6162L168.094 42.3785C169.126 41.9659 169.538 39.4904 169.538 38.8715C169.538 36.6024 166.65 34.3332 164.587 33.0955C164.175 33.7144 162.937 33.7143 160.255 33.3018C155.923 32.6829 154.067 29.7949 153.448 27.732L153.035 28.7634C153.035 29.3823 152.829 30.62 151.385 32.0641C150.353 32.8892 150.353 36.3961 150.766 38.2527L150.972 39.903L149.735 38.8715C145.402 35.5709 146.847 30.4137 147.259 29.3823C146.228 26.4943 147.672 24.4314 148.703 23.6062C148.909 22.7811 149.941 19.893 151.797 15.7673C152.623 13.9107 153.86 12.6729 155.098 12.2604C155.923 12.0541 156.748 12.2604 157.161 12.2604C160.255 10.1975 164.794 10.8163 167.475 13.7044C168.713 14.9421 169.332 16.5924 169.951 17.8301C170.776 19.4804 171.395 21.3371 173.251 23.1937C176.965 26.9068 177.171 29.5886 177.171 32.8892C177.171 34.5395 176.758 35.3646 175.933 35.7772C175.727 35.9835 175.521 35.9835 175.314 35.9835C173.045 42.1722 168.713 43.6162 168.507 43.6162ZM163.143 30.62C163.556 30.8263 170.776 34.1269 170.776 38.6653C170.776 38.8716 170.776 39.6967 170.363 40.7282C171.601 39.6967 173.045 37.8401 173.87 34.9521L174.077 34.1269L174.902 34.5395H175.108C175.314 34.5395 175.521 33.9206 175.521 32.6829C175.727 29.3823 175.521 27.1131 172.014 24.0188C169.951 21.9559 169.126 20.0993 168.3 18.2427C167.682 16.7987 167.063 15.561 166.031 14.3232C163.762 11.8478 159.636 11.2289 157.161 13.2918L156.748 13.4981L156.336 13.2918C156.336 13.2918 155.717 12.8792 154.892 13.0855C154.067 13.2918 153.035 14.3232 152.416 15.7673C150.353 20.3056 149.322 23.6062 149.322 23.6062V23.8125L149.116 24.0188C149.116 24.0188 146.846 25.6691 148.084 28.5571L148.291 28.7634L148.084 28.9697C148.084 29.176 146.434 32.8892 148.909 35.9835C148.909 34.1269 148.909 31.4452 150.147 30.4137C151.385 29.176 151.385 28.1446 151.385 28.1446V27.9383L154.067 22.5748L154.273 25.0502C154.273 25.2565 154.479 30.4137 160.255 31.2389C161.493 31.4452 162.318 31.4452 162.731 31.4452L162.524 31.2389L163.143 30.62Z" fill="#0F0225"/>
<path d="M154.403 21.2603L152.811 25.9483L154.178 26.4127L155.77 21.7247L154.403 21.2603Z" fill="#0F0225"/>
<path d="M148.91 23.607C148.91 23.607 148.291 23.1944 148.91 21.3378C149.322 20.3063 150.148 19.6875 151.385 19.4812C153.861 19.2749 157.161 19.2749 162.112 21.3378C163.556 21.9566 165.207 22.5755 168.714 25.051C170.364 26.2887 169.951 27.939 168.714 29.383C168.714 29.383 167.888 28.7642 165 27.1139C157.78 22.5755 151.385 23.1944 148.91 23.607Z" fill="white"/>
<path d="M168.918 30.414L168.299 30.0014C168.299 30.0014 167.474 29.3825 164.586 27.7322C157.366 23.1939 151.177 23.8127 148.908 24.2253L148.289 24.4316L148.083 24.019C147.876 23.6064 147.464 22.7813 148.083 21.3373C148.495 19.8932 149.527 19.0681 151.177 19.0681C153.859 18.8618 157.159 18.8618 162.317 20.9247C163.761 21.5436 165.411 22.1624 169.124 24.6379C169.949 25.2568 170.362 25.8756 170.568 26.7008C170.774 27.7322 170.362 28.7637 169.33 30.0014L168.918 30.414ZM152.208 22.575C155.509 22.575 160.254 23.4002 165.617 26.4945C167.268 27.5259 168.299 28.1448 168.712 28.3511C169.124 27.7322 169.33 27.1133 169.33 26.4945C169.33 26.0819 168.918 25.6693 168.505 25.2568C164.998 22.7813 163.348 22.1624 162.11 21.7499C157.366 19.8933 154.065 19.687 151.59 19.8933C150.971 19.8933 150.146 20.3058 149.733 21.3373C149.527 21.9561 149.527 22.3687 149.527 22.575C150.146 22.7813 150.971 22.575 152.208 22.575Z" fill="#0F0225"/>
<path d="M174.076 35.3644C174.076 35.3644 173.663 33.0953 171.807 31.6513L172.632 30.6198C175.107 32.4764 175.52 35.1582 175.52 35.3644H174.076Z" fill="#0F0225"/>
<path d="M156.747 16.3858L155.51 16.1795C156.335 13.0852 157.779 11.8474 157.779 11.8474L158.604 12.8789C158.604 12.8789 157.366 13.704 156.747 16.3858Z" fill="#0F0225"/>
<path d="M177.788 35.7773C177.788 35.7773 182.533 38.8717 182.121 45.0603C181.708 51.249 175.107 69.6087 175.107 69.6087C175.107 69.6087 172.631 74.7659 167.474 77.4476C162.523 80.1294 157.572 84.0488 157.572 84.0488C157.572 84.0488 154.272 88.7935 152.209 90.8564C149.94 92.9192 145.607 93.3318 145.814 88.7935C145.814 88.7935 144.576 86.7306 145.814 84.874C147.052 83.0174 153.24 79.9231 153.24 79.9231C153.24 79.9231 159.016 76.8287 162.317 73.3218C165.617 70.0212 168.918 65.6892 168.918 65.6892C168.918 65.6892 170.156 56.8188 172.838 47.3295L177.788 35.7773Z" fill="#5600D6"/>
<path d="M148.494 92.7132C147.875 92.7132 147.256 92.5069 146.844 92.3007C146.019 91.8881 144.781 91.0629 144.781 88.5875C144.368 87.9686 143.543 85.9057 144.987 84.0491C146.431 82.1925 152.001 79.3045 152.62 78.8919C152.62 78.8919 158.396 75.7976 161.49 72.2907C164.378 69.4027 167.266 65.6894 167.885 64.8643C168.092 63.4203 169.329 55.1687 171.805 46.7109L173.043 47.1235C170.361 56.4065 169.123 65.2769 169.123 65.2769V65.4832L168.917 65.6894C168.917 65.6894 165.41 69.8152 162.316 73.3221C158.809 76.829 153.239 79.9233 153.033 80.1296C151.382 80.9548 146.844 83.4302 145.812 84.8743C144.781 86.3183 145.812 87.9686 145.812 87.9686L146.019 88.1749V88.3812C146.019 89.4126 146.225 90.6503 147.256 91.0629C148.288 91.6818 150.145 91.0629 151.382 90.0315C153.445 87.9686 156.746 83.4302 156.746 83.4302L156.952 83.2239C156.952 83.2239 161.903 79.3045 167.06 76.6227C171.805 73.941 174.28 69.1964 174.28 68.9901C174.28 68.7838 180.881 50.6304 181.294 44.8543C181.707 39.2845 177.375 36.3965 177.168 36.1902L177.993 35.1588C178.2 35.3651 183.151 38.6657 182.738 45.0606C182.326 51.2493 175.931 68.99 175.724 69.8152C175.518 70.0215 173.043 75.1787 167.885 78.0667C163.347 80.5422 158.809 84.0491 158.19 84.4617C157.777 85.0806 154.889 89.4126 152.62 91.2692C151.382 92.3007 149.938 92.7132 148.494 92.7132Z" fill="#0F0225"/>
<path d="M135.499 77.8605C135.499 77.8605 135.705 76.2102 135.705 72.497C138.8 70.4342 141.275 71.4656 141.275 71.4656C141.894 73.5285 142.719 74.9725 142.719 74.9725C142.719 74.9725 146.432 81.1611 144.988 82.8115C143.544 84.4618 142.1 82.3989 142.1 82.3989C142.1 82.3989 141.894 82.3989 141.894 82.6052C141.894 83.8429 141.481 88.1749 137.562 87.3498C134.468 86.5246 135.499 77.8605 135.499 77.8605Z" fill="white"/>
<path d="M138.595 87.9685C138.182 87.9685 137.976 87.9685 137.563 87.7622C133.644 86.9371 134.675 78.6855 134.675 77.6541C134.675 77.6541 134.882 76.0038 134.882 72.4969V72.0843L135.088 71.878C138.389 69.6088 141.277 70.8465 141.277 70.8465L141.483 71.0528V71.2591C142.102 73.1157 142.927 74.766 142.927 74.766C143.752 76.2101 146.64 81.3672 145.196 83.2238C144.577 84.049 143.958 84.049 143.339 84.049C142.927 84.049 142.514 83.8427 142.102 83.6364C141.895 84.8742 141.483 86.3182 140.245 87.1433C140.245 87.7622 139.626 87.9685 138.595 87.9685ZM136.119 78.0666C135.913 80.1295 135.707 86.1119 137.976 86.7308C138.801 86.9371 139.626 86.7307 140.039 86.3182C141.277 85.493 141.483 83.2239 141.483 82.605C141.483 82.3987 141.689 81.9861 141.895 81.9861L142.308 81.7798L142.927 81.9861V82.1924C143.133 82.3987 143.546 83.0176 143.958 83.0176C143.958 83.0176 144.371 83.0176 144.577 82.605C145.196 81.7798 143.958 78.2729 142.308 75.5912C142.308 75.3849 141.483 74.1472 140.864 72.2906C140.245 72.0843 138.389 71.878 136.532 73.1157C136.326 76.21 136.119 77.8603 136.119 78.0666Z" fill="#0F0225"/>
<path d="M164.174 61.5632C162.936 61.5632 161.286 61.3569 159.429 60.1192C158.191 59.294 157.366 59.0878 156.335 59.0878C155.303 59.0878 154.066 58.8815 152.209 57.4374L153.034 56.406C154.478 57.6437 155.51 57.6437 156.541 57.6437C157.572 57.6437 158.604 57.85 160.254 58.8815C162.936 60.7381 165.411 59.9129 165.618 59.9129L166.03 61.1506C165.824 61.3569 165.205 61.5632 164.174 61.5632Z" fill="#0F0225"/>
<path d="M158.606 51.6618C158.4 51.6618 158.194 51.6618 157.987 51.6618C153.243 50.8366 152.83 38.6656 152.83 37.2216H154.274C154.48 41.9662 155.718 49.8052 158.4 50.2177C161.7 50.8366 167.064 43.4102 168.921 40.5222L169.952 41.3474C169.333 42.3788 163.145 51.6618 158.606 51.6618Z" fill="#0F0225"/>
<path d="M157.777 54.3426C158.808 54.5489 159.839 53.93 160.046 52.8986L160.458 50.8357C160.665 49.8043 160.046 48.7729 159.014 48.5666C157.983 48.3603 156.951 48.9791 156.745 50.0106L156.332 52.0735C156.126 53.1049 156.745 54.1363 157.777 54.3426Z" fill="white"/>
<path d="M158.191 54.9619C157.985 54.9619 157.779 54.9619 157.779 54.9619C157.16 54.7556 156.541 54.5493 156.128 53.9305C155.716 53.3116 155.509 52.6927 155.716 52.0739L156.128 50.011C156.335 48.567 157.779 47.7418 159.223 47.9481C160.667 48.1544 161.492 49.5984 161.285 51.0424L160.873 53.1053C160.667 53.7242 160.46 54.3431 159.841 54.7556C159.223 54.7556 158.604 54.9619 158.191 54.9619ZM158.604 49.1858C157.985 49.1858 157.572 49.5984 157.366 50.2173L156.953 52.2802C156.953 52.6927 156.953 52.899 157.16 53.1053C157.366 53.3116 157.572 53.5179 157.985 53.7242C158.397 53.7242 158.604 53.7242 158.81 53.5179C159.016 53.3116 159.223 53.1053 159.429 52.6928L159.841 50.6299C160.048 50.011 159.429 49.3921 158.81 49.1858C158.604 49.1858 158.604 49.1858 158.604 49.1858Z" fill="#0F0225"/>
<path d="M170.296 63.4808L167.73 65.8721L168.715 66.9284L171.28 64.5371L170.296 63.4808Z" fill="#0F0225"/>
<path d="M142.512 52.6932H141.068V56.4063H142.512V52.6932Z" fill="#0F0225"/>
<path d="M141.691 82.8115C141.691 82.8115 141.072 81.5737 140.453 80.1297L141.691 79.7171C142.103 81.1612 142.722 82.1926 142.929 82.1926L141.691 82.8115Z" fill="#0F0225"/>
<path d="M175.314 116.23C173.87 116.23 172.426 115.817 171.395 114.167L172.632 113.548C173.87 115.817 176.964 114.786 176.964 114.58L177.377 115.817C176.964 116.024 176.139 116.23 175.314 116.23Z" fill="#0F0225"/>
<path d="M144.987 106.122C144.987 106.122 143.337 105.915 142.306 104.265C141.274 103.027 141.068 101.171 141.48 98.9016L142.718 99.1079C141.893 104.059 144.987 104.678 145.194 104.678L144.987 106.122Z" fill="#0F0225"/>
<path d="M170.359 82.3989L169.74 81.1612C175.723 78.6857 182.324 78.6857 182.736 78.6857V80.1297C182.736 79.9235 175.929 79.9235 170.359 82.3989Z" fill="#5600D6"/>
<path d="M153.447 78.4793C153.447 78.4793 151.591 77.0352 150.146 75.1786L151.178 74.3535C152.622 76.2101 154.272 77.4478 154.272 77.4478L153.447 78.4793Z" fill="#5600D6"/>
<path d="M203.987 84.256C203.987 84.256 204.194 84.256 203.987 84.256C204.4 84.8749 205.225 87.3504 202.337 88.5881C199.449 89.8258 196.767 91.8887 195.53 93.539C194.292 95.1893 193.26 96.6333 193.26 96.6333C193.26 96.6333 190.372 96.4271 187.484 93.9516C187.484 93.9516 188.722 92.095 188.722 89.207C188.722 87.1441 189.135 85.7001 189.341 84.8749C189.547 84.4623 189.754 84.4623 190.166 84.4623C191.816 85.2875 196.767 87.1441 199.037 86.5252C201.925 85.7001 203.987 84.256 203.987 84.256Z" fill="#0F0225"/>
<path d="M193.674 97.458H193.261C193.055 97.458 190.167 97.2517 187.073 94.5699L186.66 94.1574L187.073 93.7448C187.073 93.7448 188.31 92.0945 188.104 89.4127C188.104 87.3499 188.517 85.6996 188.723 84.8744C188.929 84.4618 189.136 84.2555 189.342 84.0493C189.754 83.843 189.961 83.843 190.373 84.0493C193.261 85.287 197.181 86.5247 198.831 86.1121C201.513 85.287 203.576 83.843 203.576 83.843H203.782H203.988C204.401 83.843 204.814 84.0492 205.02 84.2555C205.845 85.9058 205.639 88.175 202.751 89.4127C200.069 90.6505 197.387 92.7134 196.149 94.1574C194.912 95.8077 194.087 97.2517 194.087 97.2517L193.674 97.458ZM188.517 93.9511C190.373 95.6014 192.23 96.014 193.055 96.014C193.468 95.3951 194.087 94.3637 195.118 93.1259C196.356 91.2693 199.244 89.2065 202.338 87.9687C203.988 87.1436 204.195 86.1121 203.988 85.287C203.163 85.9058 201.513 86.731 199.656 87.3499C197.387 88.175 192.849 86.5247 190.373 85.287C190.167 85.9058 189.754 87.3499 189.754 89.2065C189.548 91.4756 188.929 93.126 188.517 93.9511Z" fill="#0F0225"/>
<path d="M153.034 79.7164C153.034 79.7164 154.272 79.0975 156.128 77.8598C159.016 79.7164 159.429 82.6044 159.429 82.6044C159.429 82.6044 157.366 84.6673 156.334 85.905C155.303 87.5553 153.653 89.6182 152.415 90.6497C150.146 92.7126 145.814 93.1251 145.814 88.5868C145.814 88.5868 144.576 86.5239 145.814 84.6673C147.052 82.8107 153.034 79.7164 153.034 79.7164Z" fill="white"/>
<path d="M148.494 92.7125C147.875 92.7125 147.256 92.5062 146.844 92.2999C146.019 91.8874 144.781 91.0622 144.781 88.5867C144.368 87.9679 143.543 85.905 144.987 84.0484C146.431 82.1918 152.001 79.3038 152.62 78.8912C152.826 78.8912 154.064 78.066 155.508 77.0346L155.921 76.8283L156.333 77.0346C159.427 79.0975 159.84 81.9855 159.84 82.1918V82.6044L159.634 82.8107C159.634 82.8107 157.571 84.6673 156.539 85.905C155.302 87.5553 153.858 89.6182 152.414 90.8559C151.382 92.2999 149.938 92.7125 148.494 92.7125ZM155.921 78.6849C154.477 79.7163 153.239 80.3352 153.239 80.3352C151.589 81.1604 147.05 83.6358 146.019 85.0798C144.987 86.5239 146.019 88.1742 146.019 88.1742L146.225 88.3804V88.5867C146.225 90.0308 146.638 90.8559 147.463 91.2685C148.7 91.8874 150.351 91.2685 151.589 90.2371C152.826 88.9993 154.477 86.9364 155.508 85.4924C156.333 84.461 157.777 83.017 158.396 82.3981C158.396 81.7792 157.777 80.1289 155.921 78.6849Z" fill="#0F0225"/>
<path d="M146.225 89L145.193 88.1749C146.225 86.5246 149.113 84.8743 149.113 84.8743L149.732 86.112C148.907 86.5246 146.844 87.7623 146.225 89Z" fill="#0F0225"/>
<path d="M177.991 120.974C177.785 120.768 175.929 120.561 173.247 120.355L170.771 118.911L169.121 119.943C164.995 119.53 160.869 118.911 160.869 118.911H157.981V130.67L148.698 128.194L138.178 129.844V137.683L146.842 142.634L142.097 143.047V150.886C142.097 150.886 142.097 150.886 142.097 151.092C142.304 152.536 144.16 154.186 148.08 154.393C151.38 153.98 153.237 152.742 153.443 151.298C154.887 148.204 158.394 149.235 158.394 149.235L170.771 156.456L203.365 137.683V129.844C203.159 129.638 178.404 121.18 177.991 120.974Z" fill="#54BAF9"/>
<path d="M170.771 157.074L170.564 156.868L158.187 149.648C157.774 149.442 155.093 148.823 153.855 151.298C153.442 152.949 151.379 154.393 148.079 154.805C143.953 154.599 142.096 152.949 141.684 151.505V150.886C141.684 150.679 141.684 150.679 141.684 150.679V142.428H142.096L145.397 142.222L137.971 137.89V137.477V129.019H138.383L148.904 127.369H149.11L157.774 129.638V118.086H158.393H161.281C161.281 118.086 166.026 118.498 169.533 118.911L171.183 117.88L171.389 118.086L173.865 119.53C178.197 120.149 178.403 120.149 178.61 120.355C179.641 120.768 201.095 128.194 203.983 129.019L204.396 129.225L204.189 129.638V137.89L203.983 138.096L170.771 157.074ZM156.949 148.617C157.774 148.617 158.393 148.823 158.6 148.823H158.806L170.977 155.837L203.158 137.271V130.051C200.27 129.019 179.228 122.005 177.991 121.387C177.784 121.387 177.165 121.18 173.452 120.768H173.246L171.183 119.53L169.739 120.355H169.533C165.407 119.942 161.281 119.53 161.075 119.324H158.806V130.669L158.393 131.082H158.187L148.904 128.607L139.002 130.051V137.271L147.666 142.222L147.46 143.047H147.047L142.715 143.459V151.092C142.715 152.33 144.572 153.567 148.285 153.98C151.586 153.567 152.823 152.33 153.03 151.298V151.092C153.855 149.029 155.505 148.617 156.949 148.617Z" fill="#0F0225"/>
<path d="M170.771 110.866L158.188 118.086C158.188 118.086 156.331 120.149 161.695 120.974C164.17 121.18 166.233 122.212 167.058 124.068C166.439 127.575 160.251 128.4 157.156 126.544C156.125 125.925 155.712 125.306 155.506 124.687C154.062 121.593 150.555 122.624 150.555 122.624L138.178 129.844L150.555 137.064C150.555 137.064 152.412 139.127 147.048 139.952C144.573 140.159 142.51 141.19 141.685 143.047C142.303 146.554 148.492 147.379 151.586 145.522C152.618 144.903 153.031 144.285 153.237 143.666C154.681 140.571 158.188 141.603 158.188 141.603L170.565 148.823L203.159 130.051L170.771 110.866Z" fill="#54BAF9"/>
<path d="M170.771 149.029L170.565 148.823L158.187 141.603C157.775 141.397 155.093 140.778 153.855 143.253C153.649 144.078 153.03 144.904 151.999 145.522C149.73 146.76 146.429 146.966 143.954 145.729C142.51 145.11 141.478 143.872 141.272 142.634V142.428V142.222C141.891 140.365 144.16 138.921 147.048 138.921C149.73 138.509 150.348 137.89 150.348 137.477C150.348 137.271 150.348 137.065 150.142 136.858L137.559 129.638V129.019L137.765 128.813L150.348 121.593C150.555 121.593 154.474 120.355 155.918 123.862V124.068C156.125 124.687 156.537 125.306 157.362 125.719C159.219 126.75 162.313 126.957 164.376 125.925C165.201 125.513 166.233 124.894 166.439 123.656C165.614 121.799 163.551 121.18 161.694 120.974C159.219 120.562 157.775 119.943 157.362 118.911C157.156 118.292 157.569 117.467 157.775 117.261H157.981L170.771 109.835L170.977 110.041L203.777 129.019V129.638L203.571 129.845L170.771 149.029ZM156.95 140.572C157.775 140.572 158.394 140.778 158.6 140.778H158.806L170.977 147.792L202.539 129.638L170.977 111.485L158.806 118.499C158.806 118.499 158.6 118.911 158.6 119.118C158.6 119.324 159.219 120.149 162.107 120.562C164.995 120.768 167.058 122.006 167.883 124.068V124.275C167.677 125.719 166.645 126.75 165.201 127.369C162.726 128.401 159.425 128.401 157.156 127.163C156.125 126.544 155.506 125.719 155.299 124.894C154.062 122.418 151.38 123.037 150.967 123.243L139.415 130.051L151.174 136.858C151.38 137.065 151.792 137.89 151.586 138.509C151.174 139.54 149.936 140.159 147.254 140.572C145.398 140.778 143.128 141.397 142.51 143.253C142.716 144.285 143.747 145.11 144.572 145.522C146.635 146.554 149.73 146.348 151.586 145.316C152.411 144.904 152.824 144.285 153.03 143.666V143.46C153.855 140.984 155.506 140.572 156.95 140.572Z" fill="#0F0225"/>
<path d="M148.289 146.348V154.187L150.352 153.981L152.827 152.537L153.653 151.093L154.89 149.649L156.541 149.03L157.572 149.236V141.191H156.541L154.684 141.81L153.859 142.635L152.827 144.491L151.177 145.935H150.971L148.289 146.348Z" fill="#0F0225"/>
<path d="M170.773 148.617V156.456L203.367 137.684V129.845L170.773 148.617C170.773 148.411 170.773 148.411 170.773 148.617Z" fill="#0F0225"/>
<path d="M163.346 120.974H162.314V127.575H163.346V120.974Z" fill="#0F0225"/>
<path d="M171.806 104.265L153.24 96.8384L155.097 88.9995L151.796 85.9051L142.307 81.1605L113.22 88.7932L110.745 89.2058L108.476 88.5869L106.619 96.2195L116.934 106.121C116.934 106.121 120.028 107.978 122.297 105.296C122.503 104.677 123.329 104.058 124.36 103.852C124.566 103.852 124.979 103.646 125.185 103.646L123.329 111.279C123.329 111.279 123.329 111.279 123.329 111.485C123.329 111.897 123.535 112.31 123.535 112.31L133.849 122.212L147.671 118.292C147.671 118.292 151.384 118.086 152.003 121.593C152.003 123.037 153.24 124.687 156.541 125.925C160.46 126.544 162.73 125.512 163.142 124.068L164.999 116.436L161.492 114.579L170.156 112.104L171.806 104.265Z" fill="#54BAF9"/>
<path d="M158.604 126.75C157.778 126.75 156.953 126.75 156.128 126.544H155.922C152.827 125.306 151.177 123.656 151.177 121.799C150.558 119.118 147.877 119.118 147.464 119.118L133.436 123.243L122.709 112.929C122.709 112.929 122.503 112.31 122.503 111.691V111.485L124.153 104.677C123.328 104.884 122.709 105.296 122.503 105.915V106.121C120.646 108.597 117.758 107.772 116.521 107.153L106 97.0447V96.8384L108.063 88.5869L110.745 89.2057L113.22 88.7932L142.513 80.9542L142.719 81.1605L152.002 85.9051L152.209 86.1114L155.715 89.412V89.6183L153.859 97.0447L172.425 104.677L172.219 105.09L170.156 113.135H169.743L162.523 115.198L165.205 116.642V117.055L163.142 125.512C162.523 125.925 161.079 126.75 158.604 126.75ZM156.541 125.512C160.254 126.131 162.11 125.1 162.523 124.068V123.862L164.38 116.642L160.873 114.992V114.373L161.285 114.167L169.537 111.691L171.187 104.677L152.621 97.251V96.8384L154.478 89.2057L151.59 86.524L142.307 81.7793L113.22 89.412L110.332 89.8246L108.682 89.412L107.031 96.4258L117.14 106.121C117.552 106.328 120.028 107.565 121.678 105.502C122.09 104.677 122.916 104.058 123.947 103.852C124.153 103.852 124.566 103.646 124.772 103.646L125.597 103.44L123.535 111.897C123.535 112.104 123.535 112.31 123.535 112.31L133.643 122.006L147.258 118.086C148.702 118.086 151.59 118.705 152.209 121.799C152.209 122.831 153.24 124.275 156.541 125.512Z" fill="#0F0225"/>
<path d="M144.986 91.8882C146.018 90.2379 148.493 89.619 150.969 90.2379C156.539 90.8568 155.095 88.3813 155.095 88.3813L144.78 78.4795L108.68 89.0001L118.994 98.902C118.994 98.902 122.088 100.759 124.358 98.0769C124.976 96.8391 127.039 96.014 130.34 96.4265C136.116 98.2831 136.735 101.996 133.022 103.028C131.99 103.234 130.753 103.44 129.515 103.028C123.945 102.409 125.389 104.884 125.389 104.884L135.703 114.786L149.525 110.867C149.525 110.867 153.238 110.66 153.857 114.167C153.857 115.611 155.095 117.262 158.395 118.499C164.378 119.531 166.647 116.437 163.965 113.961C163.14 113.136 162.108 112.517 160.871 112.311C155.713 110.248 158.189 108.598 158.189 108.598L172.01 104.678L161.696 94.7762C161.696 94.7762 158.601 92.9196 156.332 95.6014C156.126 96.2202 155.301 96.8391 154.269 97.0454C150.35 97.6643 144.78 95.3951 144.986 91.8882Z" fill="white"/>
<path d="M160.458 119.118C159.839 119.118 159.014 119.118 157.983 118.911H157.777C154.682 117.674 153.032 116.023 153.032 114.167C152.413 111.485 149.731 111.485 149.319 111.485L135.291 115.611L124.564 105.296C124.358 104.884 124.152 104.265 124.564 103.646C125.183 102.821 126.627 102.408 129.102 102.615C130.34 102.821 131.578 102.821 132.403 102.615C133.641 102.202 134.26 101.583 134.26 100.758C134.26 99.7267 133.022 98.0764 129.721 97.0449C126.421 96.6324 124.77 97.4575 124.358 98.4889V98.6952C121.882 101.79 118.375 99.7267 118.375 99.5204L107.648 89.206L107.855 88.5871H108.267L144.574 78.0664L144.78 78.2727L155.301 88.3808C155.507 88.7934 155.714 89.4122 155.301 90.0311C154.682 90.8563 153.238 91.2688 150.763 91.0625C148.906 90.65 146.637 90.8563 145.399 92.5066C145.399 93.7443 146.224 94.5694 146.843 95.1883C148.7 96.6323 151.588 97.2512 153.857 96.6323C154.682 96.426 155.301 96.0135 155.507 95.3946V95.1883C157.364 92.7129 160.252 93.538 161.49 94.1569L172.01 104.265L171.804 104.884H171.598L157.983 108.803C157.983 108.803 157.777 109.01 157.777 109.422C157.777 109.629 158.189 110.454 160.871 111.691C162.109 112.104 163.346 112.723 164.171 113.548C165.409 114.786 165.822 116.023 165.203 117.261C164.584 118.086 163.14 119.118 160.458 119.118ZM158.395 117.88C161.902 118.499 163.553 117.674 164.171 116.642C164.584 116.023 164.171 114.992 163.346 114.167C162.727 113.548 161.696 112.929 160.458 112.517C157.983 111.485 156.951 110.454 156.745 109.422C156.745 108.597 157.158 108.184 157.57 107.978H157.777L170.773 104.265L161.077 94.982C160.665 94.7758 158.189 93.538 156.539 95.6009C156.126 96.426 155.301 97.0449 154.27 97.2512C151.794 97.8701 148.494 97.2512 146.431 95.6009C145.193 94.5694 144.574 93.3317 144.574 91.8877V91.6814V91.4751C145.812 89.8248 148.081 88.9997 150.969 89.6185C153.651 89.8248 154.476 89.4122 154.682 88.9997C154.888 88.7934 154.682 88.5871 154.682 88.3808L144.574 78.6852L109.505 88.7934L119.201 98.0764C119.613 98.2827 122.089 99.5204 123.739 97.4575C124.564 95.8072 127.04 95.1883 130.134 95.6009C134.26 96.8386 135.704 98.9015 135.497 100.346C135.497 101.583 134.466 102.615 132.816 103.234C131.784 103.646 130.34 103.646 129.102 103.44C126.421 103.234 125.596 103.646 125.389 104.059C125.183 104.265 125.389 104.471 125.389 104.678L135.497 114.373L149.112 110.454C150.556 110.454 153.444 111.073 154.063 114.167C154.063 114.992 155.095 116.642 158.395 117.88Z" fill="#0F0225"/>
<path d="M135.499 114.785L133.643 122.418L145.401 119.118L147.876 118.499L149.733 110.866L135.499 114.785Z" fill="#0F0225"/>
<path d="M156.749 117.674L154.893 125.307L159.225 126.132L162.732 124.688L163.35 122.831L164.794 117.468L162.113 118.499H159.431L156.749 117.674Z" fill="#0F0225"/>
<path d="M157.987 110.453L161.494 112.31L163.763 113.754L169.746 112.104L171.602 104.471L160.463 107.771L157.987 108.39L157.162 109.215L157.368 110.041L157.987 110.453Z" fill="#0F0225"/>
<path d="M129.516 95.8074L128.69 96.0137L126.421 96.22L124.977 96.8388L123.739 98.2829L122.914 99.108L121.058 99.5206L119.407 98.9017L117.551 106.741L120.439 106.947L122.914 104.678L124.771 104.059L125.39 103.44L127.865 102.821L129.516 95.8074Z" fill="#0F0225"/>
<path d="M154.888 90.0313L153.237 96.8388H151.175L147.255 95.601L145.398 93.5382V91.6816L146.842 90.4438L149.937 90.0313L153.031 90.2376L154.888 89.4124V90.0313Z" fill="#0F0225"/>
<path d="M153.268 114.813L151.336 122.622L152.337 122.87L154.269 115.06L153.268 114.813Z" fill="#0F0225"/>
<path d="M146.638 15.149L145.812 14.7364C145.812 14.5301 151.589 4.21569 164.791 6.69115L164.585 7.72259C152.001 5.24713 146.638 15.149 146.638 15.149Z" fill="white"/>
<path d="M169.123 6.48447C162.728 2.3587 154.889 5.04046 154.889 5.04046L154.477 4.00902C154.889 3.80273 162.934 1.12097 169.742 5.45303L169.123 6.48447Z" fill="white"/>
<path d="M101.86 147.012V146.806C102.685 146.6 103.304 146.394 103.923 145.981C105.161 145.362 105.574 144.331 105.574 143.506V135.667L101.448 134.223L93.4025 139.999L77.312 138.555L76.8994 138.348L76.4869 138.555L74.424 138.348H66.3788H63.9033V148.044H55.0329L46.7814 149.488L44.0996 149.282V157.121L51.7323 161.659L51.9386 162.278L47.8128 162.69V170.529C47.8128 172.18 49.6694 173.83 53.7952 174.036C57.0958 173.624 58.9524 172.386 59.1587 170.942C60.6027 167.848 64.1096 168.879 64.1096 168.879L76.4869 176.099L88.8642 168.879C88.8642 168.879 89.0705 168.466 89.2767 168.054C89.2767 168.054 89.2767 168.054 89.2767 167.848V160.009C89.483 160.215 89.8956 160.215 90.1019 160.421C91.1334 161.04 91.5459 161.659 91.7522 162.278C93.1962 165.372 96.7031 164.341 96.7031 164.341L109.08 157.121V149.282L101.86 147.012Z" fill="#54BAF9"/>
<path d="M76.9007 176.512L76.6944 176.306L64.3171 169.086C63.9045 168.879 61.2227 168.261 59.985 170.736C59.5724 172.593 57.5096 173.83 54.2089 174.243C50.0832 174.037 48.0203 172.386 47.814 170.736V170.323V161.866H48.2266L51.3209 161.659L43.8945 157.327V157.121V148.869L44.3071 148.457L47.1951 148.663L55.4467 147.219H63.9045V137.524H64.5234H75.0441L76.9007 137.73L77.3133 137.524L77.9321 137.936L93.8163 139.38L101.862 133.604L106.606 135.254V135.667V143.919C106.4 144.95 105.781 145.775 104.75 146.394C104.543 146.6 104.131 146.807 103.718 146.807L110.526 148.663V149.076V157.327L110.319 157.534L97.7358 164.754C96.7043 165.166 93.4037 165.373 92.166 162.485V162.278C91.9597 161.659 91.5471 161.041 90.722 160.628V167.642C90.722 167.642 90.722 167.642 90.722 167.848C90.722 168.467 90.3094 168.879 90.3094 168.879H90.1031L76.9007 176.512ZM63.0793 168.054C63.9045 168.054 64.5234 168.261 64.7297 168.261H64.9359L77.1069 175.274L89.278 168.261C89.278 168.261 89.4842 168.054 89.4842 167.848V167.642V159.184L90.1031 159.39C90.3094 159.596 90.722 159.596 90.9283 159.803C91.9597 160.422 92.5786 161.247 92.7849 162.072C94.0226 164.547 96.7043 163.929 97.1169 163.722L109.288 156.708V149.488L101.449 147.425L101.655 146.394H101.862C102.687 146.188 103.306 145.981 103.718 145.775C104.75 145.156 105.162 144.537 105.162 143.712V143.093V136.08L101.655 134.842L93.61 140.618H93.4037L77.1069 139.174H76.9007L76.6944 139.38L74.6315 139.174H64.7297V148.869H64.1108H55.2404L46.9889 150.314L44.7197 150.107V157.121L52.3524 161.453L52.7649 162.897L48.4329 163.31V170.323V170.736C48.4329 171.974 50.0832 173.418 53.7964 173.624C57.097 173.212 58.541 171.974 58.7473 170.942V170.736C59.985 168.467 61.6353 168.054 63.0793 168.054Z" fill="#0F0225"/>
<path d="M54.2109 165.786V173.624L56.4801 173.212L58.7493 171.974L59.5744 170.324L60.8122 169.086L62.6688 168.467H63.4939V160.628H62.4625L60.8122 161.247L59.7807 161.866L58.9556 163.929L57.099 165.373L54.2109 165.786Z" fill="#0F0225"/>
<path d="M76.9023 167.848V175.687L89.4859 168.054L89.6922 160.215L88.2482 160.628L76.9023 167.848Z" fill="#0F0225"/>
<path d="M86.5964 151.345V157.947L83.7083 157.534L80.8203 155.058L81.0266 152.789L84.1209 151.345H86.5964Z" fill="#0F0225"/>
<path d="M95.2598 156.502V164.548L96.9101 164.341L109.287 157.121V149.282L97.7352 156.09L95.2598 156.502Z" fill="#0F0225"/>
<path d="M105.369 136.699L105.575 144.125L103.925 145.982L97.1176 141.856L96.7051 140.824L98.1491 139.587L101.45 138.968L104.75 137.73L105.369 136.699Z" fill="#0F0225"/>
<path d="M92.5783 154.233H91.5469V162.278H92.5783V154.233Z" fill="#0F0225"/>
<path d="M70.299 140.411H69.2676V147.012H70.299V140.411Z" fill="#0F0225"/>
<path d="M130.948 169.498L129.504 168.673C129.504 168.673 126.822 167.847 125.172 169.704L122.284 169.91V165.166V164.959V157.12L116.508 155.264C116.508 155.264 112.795 157.12 111.144 158.152L109.494 157.12L97.1167 164.341C97.1167 164.341 96.0852 164.547 95.0538 164.547C94.4349 163.103 92.9909 159.596 92.5783 159.183C91.9595 158.564 89.8966 156.089 89.0714 155.676C88.4526 155.47 87.8337 154.851 87.0085 154.851C86.3897 154.851 81.0262 154.645 80.8199 154.645C80.8199 154.851 80.8199 162.897 80.8199 162.897V163.103C80.8199 163.103 81.4388 164.547 82.4702 165.166C83.5016 165.785 84.5331 165.991 85.7708 166.197C87.0085 166.403 87.8337 166.61 88.4525 166.816L88.2462 168.879L76.9004 168.26V176.099L89.2777 183.319C89.2777 183.319 92.7846 184.351 94.2286 181.256C94.4349 180.637 94.8475 179.812 95.8789 179.4C96.0852 179.193 96.2915 179.193 96.7041 178.987V186.826C96.7041 187.239 97.1167 187.651 97.1167 187.651L109.494 194.871L142.088 176.099V168.26L130.948 169.498Z" fill="#54BAF9"/>
<path d="M109.494 195.284L109.287 195.077L96.7038 187.857C96.7038 187.857 96.0849 187.238 96.2912 186.619V179.606C95.4661 180.018 95.0535 180.637 94.8472 181.256V181.462C93.6095 184.35 90.7214 184.144 89.2774 183.731H89.0711L76.2812 176.305V176.099V167.847L76.6938 167.435H76.9001L87.8334 168.054V167.022C87.2145 166.816 86.5957 166.61 85.5642 166.403C84.3265 166.403 82.8825 165.991 82.0573 165.372C80.8196 164.753 80.2007 163.103 80.2007 163.103V162.69C80.2007 162.69 80.2007 162.69 80.2007 154.851V154.438L79.7881 153.407L80.8196 153.82C81.851 153.82 86.1831 154.026 86.8019 154.026C87.4208 154.026 87.8334 154.438 88.2459 154.645C88.4522 154.851 88.6585 154.851 88.8648 155.057C89.4837 155.264 90.5151 156.295 92.1654 158.152L92.578 158.564C92.9906 159.183 94.2283 161.659 95.0535 163.928C95.8786 163.928 96.4975 163.928 96.7038 163.721L109.494 156.295L111.144 157.327C112.794 156.501 115.682 154.851 116.301 154.645L116.507 154.438L116.714 154.645L122.696 156.501V156.914V164.959V165.165V169.291H124.965C126.822 167.435 129.71 168.26 129.71 168.26H129.916L131.154 168.879L142.294 167.228L142.706 167.641V167.847V176.099L142.5 176.305L109.494 195.284ZM97.3227 187.032L109.494 194.046L141.675 175.48V168.466L130.948 169.91H130.741L129.504 169.085C129.091 169.085 127.028 168.466 125.79 170.116L125.584 170.323H125.378L122.284 170.529L121.871 170.323V170.116V157.739L116.714 156.089C115.682 156.501 113.001 157.945 111.557 158.771L111.35 158.977L109.7 157.945L97.3227 164.959C97.1164 164.959 96.0849 165.372 95.0535 165.165H94.8472L94.6409 164.959C93.1969 161.452 92.3717 160.008 92.1654 159.596L91.7529 159.183C91.134 158.358 89.2774 156.501 88.8648 156.295C88.6585 156.089 88.4523 156.089 88.0397 155.883C87.6271 155.676 87.2145 155.47 87.0082 155.47C86.5957 155.47 83.9139 155.264 81.4385 155.264C81.4385 161.452 81.4385 162.896 81.4385 163.103C81.6447 163.515 82.2636 164.547 82.8825 164.959C83.7076 165.372 84.7391 165.784 85.9768 165.784C87.2145 165.991 88.246 166.197 88.8648 166.609L89.0711 166.816V167.228L88.8648 169.704H88.4523L77.519 169.085V176.099L89.69 183.113C90.1026 183.319 92.7843 183.938 94.022 181.462C94.2283 180.637 94.8472 179.812 95.8786 179.193C96.0849 178.987 96.4975 178.987 96.7038 178.781L97.3227 178.574V187.238C97.1164 186.826 97.3227 187.032 97.3227 187.032Z" fill="#0F0225"/>
<path d="M142.086 167.848L129.708 160.628C129.708 160.628 126.201 159.596 124.757 162.691C124.551 164.135 122.694 165.372 119.394 165.785C113.411 165.372 111.967 161.865 115.062 160.009C116.093 159.39 117.125 159.184 118.362 158.977C123.932 158.152 121.869 156.089 121.869 156.089L109.492 148.869L97.1147 156.089C97.1147 156.089 93.6078 157.121 92.1638 154.026C91.9575 152.582 90.1009 151.345 86.8003 150.932C80.8179 151.345 79.3739 154.852 82.4682 156.708C83.4997 157.327 84.5311 157.533 85.7688 157.74C91.3386 158.565 89.2757 160.628 89.2757 160.628L76.8984 167.848L89.2757 175.068C89.2757 175.068 92.7827 176.099 94.2267 173.005C94.433 171.561 96.2895 170.323 99.5902 169.911C105.573 170.323 107.017 173.83 103.922 175.687C102.891 176.306 101.859 176.512 100.622 176.718C95.0518 177.543 97.1147 179.606 97.1147 179.606L109.492 186.826L142.086 167.848Z" fill="white"/>
<path d="M109.492 187.445L109.286 187.238L96.7026 180.018C96.4963 179.812 96.0837 178.987 96.29 178.368C96.7026 177.337 97.9403 176.718 100.622 176.305C101.86 176.305 102.891 175.893 103.923 175.48C104.954 174.861 105.573 174.036 105.367 173.211C105.16 172.179 103.51 170.942 100.003 170.735C96.7026 171.148 95.2586 172.386 95.0523 173.417V173.623C93.8146 176.511 90.9265 176.305 89.4825 175.893H89.2762L76.4863 168.466V167.847L76.6926 167.641L89.0699 160.421C89.0699 160.421 89.2762 160.008 89.2762 159.802C89.2762 159.596 88.6573 158.771 85.7693 158.358C84.5316 158.358 83.0876 157.945 82.2624 157.327C80.8184 156.501 80.1995 155.264 80.4058 154.026C80.8184 152.582 82.675 150.932 86.8007 150.725C90.1014 151.138 92.3706 152.376 92.7831 154.232C94.0209 156.708 96.7026 156.089 97.1152 155.883L109.905 148.456L110.111 148.662L122.695 155.883C122.901 156.089 123.314 156.914 123.108 157.533C122.695 158.564 121.457 159.183 118.775 159.596C117.538 159.596 116.506 160.008 115.475 160.421C114.443 161.04 113.825 161.865 114.031 162.69C114.237 163.722 115.887 164.959 119.394 165.166C122.695 164.753 124.139 163.515 124.345 162.484V162.277C125.996 158.771 129.709 159.802 129.915 160.008H130.121L142.911 167.435V168.054L142.705 168.26L109.492 187.445ZM97.3215 179.193L109.492 186.207L141.055 168.054L129.502 161.246C129.09 161.04 126.408 160.421 125.17 162.896C124.758 164.753 122.695 165.991 119.394 166.403C115.062 166.197 113.206 164.547 112.999 163.103C112.793 161.865 113.412 160.627 114.856 159.802C115.887 159.183 117.125 158.977 118.569 158.771C121.251 158.358 121.87 157.739 121.87 157.327C121.87 157.12 121.87 156.914 121.663 156.708L109.492 149.694L97.1152 156.708C95.6711 157.12 92.7831 157.12 91.5454 154.439V154.232C91.3391 153.201 89.8951 151.963 86.5945 151.551C83.0876 151.757 81.4373 152.995 81.231 154.232C81.0247 155.057 81.6435 155.883 82.675 156.501C83.5001 156.914 84.5316 157.327 85.7693 157.327C88.2448 157.739 89.6888 158.358 90.1014 159.389C90.3077 160.215 89.8951 160.833 89.6888 161.04H89.4825L77.7241 167.847L89.2762 174.655C89.6888 174.861 92.3705 175.48 93.6083 173.004C94.0208 171.148 96.0837 169.91 99.3843 169.498C103.716 169.704 105.573 171.354 105.779 172.798C105.986 174.036 105.367 175.274 103.923 176.099C102.891 176.718 101.654 176.924 100.209 177.13C97.5277 177.543 96.9089 178.162 96.9089 178.574C97.1152 178.781 97.3215 178.987 97.3215 179.193Z" fill="#0F0225"/>
<path d="M122.282 158.152V165.165L120.426 165.578L116.3 165.372L113.825 163.928L113.412 161.865L114.65 160.421L117.332 159.389L120.632 158.77L122.076 157.326L122.282 158.152Z" fill="#0F0225"/>
<path d="M99.3853 169.704L98.5601 169.91L96.4972 170.735L95.0532 171.766L94.2281 173.417L93.8155 174.448L91.9589 175.273L90.3086 175.067V183.112L93.1966 182.493L95.0532 179.812L96.7035 178.574L97.1161 177.955L99.3853 176.924V169.704Z" fill="#0F0225"/>
<path d="M109.496 186.826V194.665L142.09 175.893V168.054L109.496 186.826Z" fill="#0F0225"/>
<path d="M86.3889 157.739H85.3574V162.897H86.3889V157.739Z" fill="#0F0225"/>
<path d="M99.7997 132.366C96.4991 132.779 94.6425 134.017 94.4362 135.461C92.9922 138.555 89.4853 137.524 89.4853 137.524L77.108 130.303L64.7307 137.524C64.7307 137.524 62.8741 139.586 68.2376 140.412C70.713 140.618 72.7759 141.649 73.6011 143.506C72.9822 147.013 66.7935 147.838 63.6992 145.981C62.6678 145.363 62.2552 144.744 62.0489 144.125C60.6049 141.03 57.098 142.062 57.098 142.062L44.7207 149.282L57.098 156.502C57.098 156.502 58.9546 158.565 53.5911 159.39C51.1156 159.596 49.0528 160.628 48.2276 162.484C48.8465 165.991 55.0351 166.817 58.1294 164.96C59.1609 164.341 59.5735 163.722 59.7797 163.103C61.2238 160.009 64.7307 161.04 64.7307 161.04L77.108 168.261L89.4853 161.04C89.4853 161.04 91.3419 158.978 85.9784 158.152C83.5029 157.946 81.44 156.915 80.6149 155.058C81.2337 151.551 87.4224 150.726 90.5167 152.583C91.5481 153.201 91.9607 153.82 92.167 154.439C93.611 157.534 97.1179 156.502 97.1179 156.502L109.495 149.282L97.1179 142.062C97.1179 142.062 95.2613 139.999 100.625 139.174C101.863 139.174 103.1 138.761 103.925 138.142C107.226 136.286 105.782 132.779 99.7997 132.366Z" fill="white"/>
<path d="M76.9019 168.467L76.6956 168.26L64.3183 161.04C63.9057 160.834 61.224 160.215 59.9862 162.691C59.7799 163.516 59.1611 164.341 58.1296 164.96C55.8605 166.198 52.5598 166.404 50.0844 165.166C48.6404 164.547 47.6089 163.31 47.4026 162.072V161.866V161.659C48.0215 159.803 50.2907 158.359 53.1787 158.359C55.8605 157.946 56.4793 157.327 56.4793 156.915C56.4793 156.708 56.4793 156.502 56.273 156.296L43.6895 149.076V148.457L43.8957 148.25L56.4793 141.03C57.5108 140.618 60.8114 140.412 62.0491 143.3V143.506C62.2554 144.125 62.668 144.744 63.4931 145.156C65.3497 146.188 68.4441 146.394 70.5069 145.362C71.3321 144.95 72.3635 144.331 72.5698 143.093C71.951 141.237 69.6818 140.618 67.8252 140.412C65.3497 139.999 63.9057 139.38 63.4931 138.349C63.2868 137.524 63.6994 136.905 63.9057 136.698H64.112L76.9019 129.272L77.1082 129.478L89.4855 136.698C89.898 136.905 92.5798 137.524 93.8175 135.048C94.2301 133.398 96.293 131.954 99.5936 131.747H99.7999C103.926 131.954 105.782 133.604 106.195 135.048C106.401 136.286 105.782 137.524 104.338 138.349C103.307 138.968 102.069 139.174 100.625 139.38C97.9433 139.793 97.3244 140.412 97.3244 140.824C97.3244 141.03 97.3244 141.237 97.5307 141.443L110.114 148.663V149.282L109.908 149.488L97.5307 156.708C97.3244 156.708 93.405 157.946 91.7546 154.439V154.233C91.5484 153.614 91.1358 152.995 90.3106 152.583C88.454 151.551 85.3597 151.345 83.2968 152.376C82.4717 152.789 81.4402 153.408 81.2339 154.645C81.8528 156.502 84.122 157.121 85.9786 157.327C88.454 157.74 89.898 158.359 90.3106 159.39C90.5169 160.215 90.1043 160.834 89.898 161.04H89.6918L76.9019 168.467ZM63.0805 160.009C63.9057 160.009 64.5246 160.215 64.7309 160.215H64.9371L77.1082 167.229L89.2792 160.215C89.2792 160.215 89.4855 159.803 89.4855 159.596C89.4855 159.39 88.8666 158.565 85.9786 158.152C83.0905 157.946 81.0276 156.708 80.2025 154.645V154.439C80.4088 153.201 81.4402 152.17 82.8842 151.551C85.3597 150.52 88.6603 150.52 90.9295 151.757C91.9609 152.376 92.5798 153.201 92.7861 154.027C94.0238 156.502 96.7056 155.883 97.1181 155.677L108.67 148.869L96.9119 142.062C96.7056 141.856 96.293 141.03 96.4993 140.412C96.9118 139.38 98.1496 138.761 100.831 138.349C102.069 138.349 103.101 137.936 104.132 137.524C105.163 136.905 105.782 136.079 105.576 135.254C105.37 134.223 103.719 132.985 100.212 132.779C96.9118 133.191 95.4678 134.429 95.2615 135.461V135.667C94.0238 138.555 91.1358 138.349 89.6918 137.936H89.4855L77.3145 130.922L65.1434 137.936C65.1434 137.936 64.9371 138.349 64.9371 138.555C64.9371 138.761 65.556 139.586 68.4441 139.999C71.3321 140.205 73.395 141.443 74.2201 143.506V143.712C74.0138 145.156 72.9824 146.188 71.5384 146.806C69.0629 147.838 65.7623 147.838 63.4931 146.6C62.4617 145.981 61.8428 145.156 61.6365 144.331C60.3988 141.856 57.7171 142.474 57.3045 142.681L45.7523 149.488L57.5108 156.296C57.7171 156.502 58.1296 157.327 57.9233 157.946C57.5108 158.977 56.273 159.596 53.5913 160.009C51.7347 160.215 49.4655 160.834 48.8467 162.691C49.053 163.722 50.0844 164.547 50.9095 164.96C52.9724 165.991 56.0667 165.785 57.9233 164.754C58.7485 164.341 59.1611 163.722 59.3674 163.103V162.897C59.9862 160.422 61.6365 160.009 63.0805 160.009Z" fill="#0F0225"/>
<path d="M119.821 142.72L100.017 139.832V131.787L96.098 129.724L85.7836 127.249L59.3787 141.689L56.9032 142.72H54.4277V150.559L66.805 157.78C66.805 157.78 70.3119 158.811 71.756 155.717C71.9622 155.098 72.3748 154.273 73.4063 153.86C73.6126 153.654 73.8189 153.654 74.2314 153.448V161.286C74.2314 161.286 74.2314 161.286 74.2314 161.493C74.2314 161.905 74.644 162.318 74.644 162.318L87.0213 169.538L99.3986 162.318C99.3986 162.318 102.905 161.286 104.35 164.381C104.556 165.825 106.412 167.063 109.713 167.475C113.632 167.269 115.695 165.619 115.695 164.174V156.129L111.776 155.304L119.409 150.766L119.821 142.72Z" fill="#54BAF9"/>
<path d="M87.228 170.156L87.0218 169.95L74.4382 162.73C74.4382 162.73 74.0256 162.317 74.0256 161.699C74.0256 161.492 74.0256 161.492 74.0256 161.492V154.478C73.2004 154.891 72.7879 155.51 72.5816 156.129V156.335C71.3438 159.223 68.4558 159.017 67.0118 158.604H66.8055L54.0156 151.178V150.972V142.307H54.6345H56.9037L59.1728 141.482L85.784 126.836H85.9903L96.511 129.311L100.637 131.58V131.993V139.626L120.44 142.514V142.926V151.178L120.234 151.384L113.633 155.097L116.727 155.716V156.129V164.587C116.315 166.031 114.664 167.681 110.332 168.094C107.032 167.681 104.763 166.443 104.35 164.587C103.112 162.111 100.431 162.73 100.018 162.936L87.228 170.156ZM75.057 162.111L87.228 169.125L99.6054 162.111C100.637 161.699 103.937 161.492 105.175 164.38V164.587C105.381 165.618 106.825 166.856 110.126 167.268C113.839 167.062 115.49 165.618 115.49 164.38V164.174V156.748L111.57 155.922L111.364 155.304L111.57 155.097L118.996 150.765V143.545L99.1928 140.657V140.245V132.406L95.6859 130.343L85.5778 128.074L59.1728 142.514L56.4911 143.545H55.0471V150.765L67.2181 157.779C67.6307 157.985 70.3124 158.604 71.5501 156.129C71.7564 155.304 72.3753 154.478 73.4067 153.86C73.613 153.653 74.0256 153.653 74.2319 153.447L74.8507 153.241V161.905L74.2319 162.111H74.8507C74.8507 161.699 74.8507 161.905 75.057 162.111Z" fill="#0F0225"/>
<path d="M90.7352 137.15C91.3541 135.294 93.6232 134.262 96.0987 134.056C101.668 133.231 99.6056 131.168 99.6056 131.168L87.2283 123.948L54.6348 142.72L67.0121 149.94C67.0121 149.94 70.519 150.972 71.963 147.877C72.1693 146.433 74.0259 145.196 77.3265 144.783C83.3088 145.196 84.7529 148.702 81.6585 150.559C80.6271 151.178 79.5957 151.384 78.3579 151.59C72.7881 152.416 74.851 154.479 74.851 154.479L87.2283 161.699L99.6056 154.479C99.6056 154.479 103.113 153.447 104.557 156.541C104.763 157.985 106.619 159.223 109.92 159.636C115.902 159.223 117.346 155.716 114.252 153.86C113.221 153.241 112.189 153.035 110.951 152.828C105.382 152.003 107.445 149.94 107.445 149.94L119.822 142.72L107.445 135.5C107.445 135.5 103.938 134.469 102.494 137.563C102.287 138.182 101.875 139.007 100.843 139.419C97.5427 141.482 91.3541 140.657 90.7352 137.15Z" fill="#54BAF9"/>
<path d="M87.0218 162.317L86.8155 162.111L74.2319 154.891C74.0256 154.684 73.613 153.859 73.8193 153.24C74.2319 152.209 75.4696 151.59 78.1514 151.177C79.3891 151.177 80.4205 150.765 81.452 150.352C82.4834 149.733 83.1023 148.908 82.896 148.083C82.6897 147.052 81.0394 145.814 77.5325 145.608C74.2319 146.02 72.7879 147.258 72.5816 148.289V148.496C71.3438 151.384 68.4558 151.177 67.0118 150.765H66.8055L54.0156 143.338V142.72L54.2219 142.513L87.228 123.535L87.4343 123.741L100.018 130.961C100.224 131.167 100.637 131.993 100.431 132.611C100.018 133.643 98.7802 134.262 96.0984 134.674C94.2418 134.881 91.9727 135.499 91.3538 137.356C91.5601 138.387 92.5916 139.213 93.4167 139.625C95.4796 140.657 98.5739 140.45 100.431 139.419C101.256 139.006 101.668 138.387 101.875 137.769V137.562C103.112 134.674 106 134.881 107.444 135.293H107.651L120.44 142.72V143.132V143.545L120.234 143.751L107.857 150.971C107.857 150.971 107.651 151.384 107.651 151.59C107.651 151.796 108.269 152.621 111.157 153.034C112.395 153.034 113.839 153.447 114.664 154.065C116.108 154.891 116.727 156.128 116.521 157.366C116.108 158.81 114.252 160.46 110.126 160.667C106.825 160.254 104.556 159.016 104.144 157.16C102.906 154.684 100.224 155.303 99.8116 155.509L87.0218 162.317ZM75.057 154.065L87.228 161.079L99.3991 154.065C99.6054 154.065 103.525 152.828 105.175 156.335V156.541C105.381 157.572 106.825 158.81 110.126 159.223C113.633 159.016 115.283 157.779 115.49 156.541C115.696 155.716 115.077 154.891 114.046 154.272C113.22 153.859 112.189 153.447 110.951 153.447C108.476 153.034 107.032 152.415 106.619 151.384C106.413 150.559 106.825 149.94 107.032 149.733H107.238L118.996 142.926L107.444 136.118C107.032 135.912 104.35 135.293 103.112 137.769C102.906 138.594 102.287 139.419 101.256 140.038C98.9865 141.276 95.6859 141.482 93.2104 140.244C91.7664 139.625 90.7349 138.387 90.5287 137.15V136.943V136.737C91.1475 134.674 93.4167 133.437 96.3047 133.23C98.9865 132.818 99.6054 132.199 99.6054 131.786C99.6054 131.58 99.6054 131.374 99.3991 131.167L87.228 124.154L55.6659 142.307L67.2181 149.114C67.6307 149.321 70.3124 149.94 71.5501 147.464C71.9627 145.814 74.0256 144.37 77.3262 144.164H77.5325H77.7388C81.8646 144.37 83.7211 146.02 83.9274 147.464C84.1337 148.702 83.5149 149.94 82.0708 150.765C81.0394 151.384 79.8017 151.59 78.3577 151.796C75.6759 152.209 75.057 152.828 75.057 153.24C74.8507 153.653 74.8507 153.859 75.057 154.065Z" fill="#0F0225"/>
<path d="M87.0195 161.698V169.537L97.5402 163.348L99.8094 162.111V154.272L87.0195 161.698Z" fill="#0F0225"/>
<path d="M108.27 159.222V167.061L112.602 166.855L115.696 164.586L115.902 162.729V157.159L113.633 158.81L110.951 159.429L108.27 159.222Z" fill="#0F0225"/>
<path d="M107.855 152.002L111.568 152.828L114.044 153.653L119.613 150.558V142.719L109.505 148.496L107.236 149.733L106.617 150.558L107.03 151.384L107.855 152.002Z" fill="#0F0225"/>
<path d="M76.7036 144.782L76.0848 144.988L73.8156 145.813L72.3716 146.845L71.5464 148.495L71.1339 149.527L69.2773 150.352L67.627 150.146V158.191L70.515 157.572L72.3716 154.89L74.0219 153.652L74.4345 153.034L76.7036 152.002V144.782Z" fill="#0F0225"/>
<path d="M99.8099 133.025V140.038L98.1595 140.451L94.0338 140.245L91.5583 138.801L90.9395 136.738L92.1772 135.294L95.0652 134.056L98.1595 133.643L99.8099 132.199V133.025Z" fill="#0F0225"/>
<path d="M105.381 157.366H104.35V165.411H105.381V157.366Z" fill="#0F0225"/>
<path d="M111.132 49.8774V49.6711C111.751 49.2585 112.37 48.8459 112.989 48.4334C114.02 47.4019 114.226 46.3705 113.814 45.5453L111.545 38.1189L107.213 37.9127L101.024 45.7516L85.1397 48.8459L84.7271 48.6396L84.5208 48.8459L82.6642 49.2585L75.0315 51.5277L72.5561 52.1465L75.2378 61.4295L66.78 63.905L59.3536 67.6182L56.6719 68.237L58.941 75.8697L67.6051 77.9326L68.0177 78.5515L64.0983 79.9955L66.3674 87.6281C66.78 89.0722 69.0492 90.1036 72.9687 89.2785C76.063 88.0407 77.507 86.1841 77.3007 84.7401C77.7133 81.2332 81.4265 81.4395 81.4265 81.4395L95.4541 84.7401L105.356 74.2194C105.356 74.2194 105.562 73.8068 105.356 73.3942C105.356 73.3942 105.356 73.3942 105.356 73.188L103.087 65.5553C103.293 65.5553 103.706 65.5553 103.912 65.7616C104.943 65.9679 105.769 66.5867 105.975 67.2056C108.244 69.8873 111.338 67.8245 111.338 67.8245L121.24 57.3038L118.971 49.6711L111.132 49.8774Z" fill="#54BAF9"/>
<path d="M70.0816 89.8976C67.8124 89.8976 66.3684 89.0724 65.7495 88.041L63.274 79.5832L63.6866 79.3769L66.7809 78.1392L58.3231 76.0763L58.1168 75.87L55.8477 68.031L56.0539 67.6185L58.942 66.9996L66.5746 63.2864L74.4136 61.0172L71.7319 51.7342L72.1444 51.528L82.2526 48.6399L84.1092 48.2273L84.5217 47.8148L85.1406 48.0211L100.819 44.9267L107.007 37.0878H107.213L111.958 37.2941L112.164 37.7066L114.434 45.7519C114.64 46.7833 114.227 47.8148 113.402 48.6399C113.196 48.8462 112.99 49.0525 112.577 49.2588L119.591 49.0525L119.797 49.4651L122.066 57.304L121.86 57.5103L111.958 68.031C111.752 68.031 108.451 70.5065 105.769 67.4122C105.563 66.7933 104.944 66.3807 103.913 66.1744L105.976 72.9819C105.976 72.9819 105.976 72.9819 105.976 73.1882C106.182 73.8071 105.976 74.2197 105.769 74.426V74.6322L95.6613 85.3592H95.455L81.4274 82.0586C81.0148 82.0586 78.1268 82.2649 77.9205 84.9467C78.1268 86.8033 76.2702 88.6599 73.3822 89.8976H73.1759C71.9382 89.6913 70.9067 89.8976 70.0816 89.8976ZM66.5746 86.8033L66.7809 87.2158C67.1935 88.4536 69.0501 89.2787 72.7633 88.4536C75.8576 87.2158 76.6828 85.5655 76.6828 84.5341C77.0954 80.8209 81.2211 80.6146 81.4274 80.6146H81.6337L95.455 83.9152L105.151 73.8071C105.151 73.8071 105.151 73.6008 105.151 73.3945V73.1882L102.675 64.9367H103.5C103.707 64.9367 104.119 64.9367 104.325 65.143C105.563 65.3493 106.388 65.9681 106.801 66.7933C108.657 68.8562 110.927 67.4122 111.339 67.2059L121.035 57.0977L118.972 50.0839L110.927 50.2902V49.0525L111.133 48.8462C111.752 48.4336 112.371 48.021 112.783 47.6085C113.608 46.7833 113.815 45.9582 113.608 45.3393L113.402 44.7204L111.546 38.1192L107.832 37.9129L101.85 45.3393V45.5456H101.644L85.5532 48.6399H85.3469L85.1406 48.8462L83.0777 49.2588L73.5884 52.1468L76.2702 61.4298L75.8576 61.6361L67.3998 64.1115L60.1797 67.6185V68.031H59.7671L57.7043 68.4436L59.7671 75.2511L68.4312 77.314L69.2564 78.5517L65.3369 79.9958L66.5746 86.8033Z" fill="#0F0225"/>
<path d="M104.943 36.2621C101.849 37.4999 100.405 39.3565 100.611 40.8005C100.199 44.3074 96.4855 44.1011 96.4855 44.1011L82.4579 40.8005L72.5561 51.3212C72.5561 51.3212 71.3183 53.7966 76.8881 52.9715C79.1573 52.3526 81.6328 52.7652 82.8705 54.4155C83.2831 57.9224 77.7133 60.3979 74.0001 59.5727C72.9687 59.3664 72.1435 58.7476 71.9372 58.1287C69.668 55.447 66.5737 57.5098 66.5737 57.5098L56.6719 68.0305L70.6995 71.3312C70.6995 71.3312 73.1749 72.7752 68.0177 75.0443C65.7486 75.8695 63.892 77.5198 63.892 79.5827C65.5423 82.677 71.5246 81.8519 74.2064 79.1701C75.0315 78.345 75.2378 77.5198 75.2378 76.9009C75.6504 73.394 79.3636 73.6003 79.3636 73.6003L93.3912 76.9009L103.293 66.3802C103.293 66.3802 104.531 63.9048 98.961 64.7299C96.6918 65.3488 94.2164 64.9362 92.9786 63.2859C92.566 59.779 98.1358 57.3035 101.849 58.1287C102.88 58.335 103.706 58.9539 103.912 59.5727C106.181 62.2545 109.275 60.1916 109.275 60.1916L119.177 49.6709L105.15 46.3703C105.15 46.3703 102.674 44.9262 107.831 42.6571C109.069 42.2445 110.101 41.6256 110.719 40.8005C113.195 37.9124 110.926 35.0244 104.943 36.2621Z" fill="white"/>
<path d="M67.8112 82.2646C67.3986 82.2646 66.986 82.2646 66.7797 82.2646C65.1294 82.0584 63.8917 81.2332 63.2728 79.9955V79.7892V79.5829C63.4791 77.52 65.1294 75.6634 67.8112 74.632C70.2866 73.3942 70.6992 72.5691 70.6992 72.3628C70.6992 72.1565 70.4929 71.9502 70.4929 71.9502L56.259 68.4433L56.0527 67.8245L66.1609 57.0975C66.3672 57.0975 69.6678 54.622 72.3495 57.7163C72.5558 58.3352 73.1747 58.7478 74.2061 58.9541C76.269 59.3666 79.3633 58.7478 81.0136 57.0975C81.6325 56.4786 82.4577 55.6534 82.4577 54.4157C81.4262 52.9717 78.9508 52.7654 77.0942 53.178C74.6187 53.5906 72.9684 53.178 72.3495 52.3528C71.9369 51.734 72.1432 50.9088 72.1432 50.7025V50.4962L82.2514 39.7692H82.4577L96.4852 43.0699C96.8978 43.0699 99.7859 42.8636 99.9922 40.1818C99.7859 38.3252 101.642 36.4686 104.531 35.2309H104.737C108.863 34.4057 110.925 35.4372 111.751 36.6749C112.369 37.7064 112.163 39.1504 110.925 40.3881C110.1 41.2133 109.069 41.8321 107.831 42.451C105.356 43.6887 104.943 44.5139 104.943 44.7202C104.943 44.9265 105.149 45.1327 105.149 45.339L119.383 48.8459L119.59 49.4648L119.383 49.6711L109.481 59.9855C109.275 59.9855 105.975 62.461 103.293 59.3666C103.086 58.7478 102.468 58.3352 101.436 58.1289C99.3733 57.7163 96.279 58.3352 94.6287 59.9855C94.0098 60.6044 93.1846 61.4295 93.1846 62.6673C94.4224 64.1113 96.6915 64.3176 98.5481 63.905C101.024 63.4924 102.674 63.905 103.293 64.7301C103.705 65.349 103.499 66.1741 103.499 66.3804V66.5867L93.3909 77.3137L92.9784 77.1074L79.157 73.8068C78.7445 73.8068 75.8564 74.0131 75.6501 76.6948C75.6501 77.52 75.2376 78.5514 74.4124 79.3766C72.7621 81.2332 70.0804 82.2646 67.8112 82.2646ZM64.098 79.5829C64.7168 80.6143 65.7483 81.0269 66.7797 81.0269C69.0489 81.4395 71.9369 80.408 73.5872 78.7577C74.2061 78.1389 74.6187 77.52 74.4124 76.9011C74.825 73.188 78.9508 72.9817 79.157 72.9817H79.3633L93.1846 76.2823L102.88 66.1741C102.88 65.9679 103.086 65.7616 102.88 65.5553C102.674 65.349 102.055 64.7301 99.167 65.1427C96.279 65.7616 94.0098 65.1427 92.7721 63.4924V63.2861C92.5658 61.8421 93.1846 60.6044 94.4224 59.5729C96.4852 57.9226 99.7859 56.8912 102.261 57.51C103.499 57.7163 104.324 58.3352 104.737 59.1603C106.593 61.2232 108.863 59.7792 109.275 59.5729L118.558 49.8774L105.356 46.5768C104.943 46.3705 104.531 45.7516 104.531 45.1327C104.531 44.1013 105.768 43.0699 108.037 42.0384C109.275 41.6258 110.1 41.007 110.925 40.3881C111.751 39.563 111.957 38.5315 111.544 37.9127C110.925 36.8812 109.069 36.2623 105.562 36.8812C102.468 38.1189 101.436 39.7692 101.642 40.8007C101.23 44.1013 98.1356 44.7202 96.8978 44.7202H96.6916L82.8702 41.4195L73.1747 51.5277C73.1747 51.734 72.9684 51.9403 73.1747 52.1465C73.381 52.3528 73.9998 52.9717 76.8879 52.5591C79.7759 51.9403 82.0451 52.5591 83.2828 54.2094L83.4891 54.4157C83.6954 55.8597 83.0765 57.0975 81.8388 58.1289C79.7759 59.7792 76.4753 60.8107 73.9998 60.1918C72.7621 59.9855 71.9369 59.3666 71.5244 58.5415C69.6678 56.4786 67.3986 57.9226 66.986 58.1289L57.703 67.8245L70.9055 71.1251C71.3181 71.3314 71.7306 71.9502 71.7306 72.5691C71.7306 73.6005 70.4929 74.632 68.2238 75.6634C66.3672 76.2823 64.3043 77.7263 64.098 79.5829Z" fill="#0F0225"/>
<path d="M70.6992 81.2332L72.9684 88.8658L75.0313 87.8344L76.8879 85.7715L77.3005 84.1212L77.9193 82.4709L79.5696 81.4395L80.3948 81.2332L78.1256 73.6005L77.3005 73.8068L75.6501 75.0445L75.0313 76.076L74.6187 78.1388L73.381 79.9954L70.6992 81.2332Z" fill="#0F0225"/>
<path d="M93.1855 76.9008L95.4547 84.5334L105.563 73.6001L103.706 66.1738L102.469 66.9989L93.1855 76.9008Z" fill="#0F0225"/>
<path d="M97.7224 58.1287L99.7853 64.5236L96.691 64.9362L93.1841 63.4922L92.7715 61.223L95.2469 58.9538L97.7224 58.1287Z" fill="#0F0225"/>
<path d="M107.625 60.6048C107.625 60.6048 107.625 60.8111 107.625 60.6048L109.894 68.2374L111.544 67.6186L121.446 57.0979L119.177 49.4652L110.1 59.1608L107.625 60.6048Z" fill="#0F0225"/>
<path d="M111.749 38.7377L114.019 45.9578L112.987 48.2269L105.148 46.1641L104.529 45.3389L105.354 43.6886L108.449 42.0383L111.337 39.9754L111.749 38.7377Z" fill="#0F0225"/>
<path d="M104.232 59.4005L103.242 59.6918L105.514 67.4096L106.504 67.1183L104.232 59.4005Z" fill="#0F0225"/>
<path d="M79.0637 52.5209L78.0742 52.8122L79.9384 59.1448L80.9279 58.8535L79.0637 52.5209Z" fill="#0F0225"/>
<path d="M32.741 94.2305C32.1222 95.262 27.9964 102.895 25.1083 111.765C24.9021 112.384 25.3146 113.003 25.9335 113.003L27.9964 113.415C28.409 113.415 28.8215 113.828 28.8215 114.447C28.8215 115.066 29.4404 115.478 30.0593 115.272L30.6781 115.066C31.0907 114.859 31.7096 115.272 31.9159 115.685L32.1222 116.303C32.3284 116.922 33.1536 117.129 33.5662 116.716H33.7725C34.185 116.303 34.8039 116.51 35.2165 116.922L35.6291 117.747C35.8353 118.16 36.2479 118.16 36.6605 118.16L41.8177 117.541C42.2303 117.541 42.6429 117.129 42.6429 116.716L46.1498 96.0871C46.1498 95.6745 45.9435 95.262 45.7372 95.0557L39.7548 91.7551C39.5485 91.7551 39.5485 91.5488 39.3422 91.5488L36.0416 91.3425C35.8353 91.3425 35.4228 91.3425 35.2165 91.5488L33.1536 93.6117C32.741 94.0242 32.741 94.0242 32.741 94.2305Z" fill="#5600D6"/>
<path d="M36.4542 118.778C35.8354 118.778 35.4228 118.572 35.0102 117.953L34.5976 117.128L34.3913 116.922H34.1851H33.9788C33.5662 117.334 32.9473 117.334 32.5347 117.128C31.9159 116.922 31.5033 116.509 31.5033 116.097L31.297 115.478C31.297 115.271 31.0907 115.271 30.8844 115.271L30.0593 115.684C29.6467 115.89 29.0278 115.684 28.6153 115.478C28.2027 115.065 27.9964 114.653 27.9964 114.24C27.9964 114.034 27.9964 114.034 27.7901 114.034L25.7272 113.621C25.3147 113.621 24.9021 113.209 24.4895 112.796C24.2832 112.383 24.2832 111.971 24.2832 111.352C27.1712 102.275 31.5033 94.6426 32.1222 93.8175C32.1222 93.6112 32.3285 93.6112 32.3285 93.4049L34.3913 91.342C34.8039 90.9294 35.2165 90.9294 35.6291 90.9294L38.9297 91.1357C39.136 91.1357 39.3423 91.1357 39.5485 91.342L45.5309 94.6426C46.1498 95.0552 46.5624 95.674 46.3561 96.2929L42.8492 116.922C42.6429 117.541 42.2303 118.159 41.4051 118.366L36.4542 118.778ZM34.1851 115.684H34.3913C34.8039 115.684 35.2165 116.097 35.4228 116.509L35.8354 117.334L36.0416 117.541L41.1989 116.922C41.4051 116.922 41.4051 116.715 41.4051 116.715L44.912 96.0866C44.912 95.8803 44.912 95.8803 44.7058 95.8803L38.7234 92.5797C38.7234 92.5797 38.7234 92.5797 38.5171 92.5797L35.2165 92.3734H35.0102L32.9473 94.4363L32.3285 94.23L32.9473 94.6426C32.5347 95.4678 28.2027 103.1 25.3146 111.971C25.3146 112.177 25.3146 112.177 25.3146 112.177C25.3146 112.177 25.3147 112.383 25.5209 112.383L27.5838 112.796C28.409 113.002 29.0278 113.621 29.0278 114.446C29.0278 114.653 29.0278 114.653 29.2341 114.653H29.4404L30.0593 114.446C30.8844 114.24 31.9159 114.653 32.1222 115.478L32.3285 116.097C32.3285 116.303 32.5347 116.303 32.5347 116.303H32.741H32.9473C33.3599 115.89 33.7725 115.684 34.1851 115.684Z" fill="#0F0225"/>
<path d="M23.2509 168.906L22.4258 173.651L22.8384 177.364L29.027 176.745L30.0584 169.525L23.2509 168.906Z" fill="white"/>
<path d="M22.2204 178.189L21.6016 173.651L22.8393 168.288L30.8845 169.113L29.6468 177.571L22.2204 178.189ZM23.0456 173.651L23.4582 176.539L28.4091 175.92L29.2342 169.938L23.6644 169.319L23.0456 173.651Z" fill="#0F0225"/>
<path d="M65.1276 132.393L63.6836 136.725L65.7465 138.581L69.4597 137.756L71.11 133.218L65.1276 132.393Z" fill="white"/>
<path d="M65.5399 139.407L63.0645 137.138L64.7148 131.568L72.1411 132.806L69.872 138.375L65.5399 139.407ZM64.5085 136.519L65.9525 137.756L69.0468 136.931L70.2845 133.631L65.5399 132.806L64.5085 136.519Z" fill="#0F0225"/>
<path d="M95.0391 72.9821V72.157C95.0391 71.1255 95.4516 70.3004 96.2768 69.6815L96.6894 69.2689L97.3082 69.6815C98.7522 68.6501 100.815 68.6501 101.847 69.8878C102.259 70.3004 102.465 70.9192 102.672 71.5381C103.291 74.2198 100.815 76.6953 98.1334 77.1079C96.0705 77.5205 95.2454 74.4261 95.0391 73.3947C95.2454 73.3947 95.0391 73.1884 95.0391 72.9821Z" fill="white"/>
<path d="M97.9276 77.9328C96.2773 77.9328 95.0395 76.2825 94.627 73.6008C94.627 73.3945 94.627 73.1882 94.627 72.9819V72.1568C94.627 70.919 95.0395 69.8876 96.071 69.0624L96.8961 68.2373L97.515 68.6499C99.1653 67.6184 101.228 67.8247 102.466 69.2687C102.878 69.8876 103.291 70.5065 103.497 71.1253C103.91 72.3631 103.497 73.6008 102.878 74.6322C101.847 76.0762 100.197 77.1077 98.5464 77.5203C98.1338 77.9328 97.9276 77.9328 97.9276 77.9328ZM96.6898 70.0939C96.071 70.7128 95.8647 71.3316 95.8647 72.1568V72.9819C95.8647 73.1882 95.8647 73.1882 95.8647 73.3945C96.071 74.2196 96.4835 76.6951 98.1338 76.4888C99.5779 76.2825 100.816 75.4574 101.641 74.2197C102.053 73.6008 102.466 72.7756 102.053 71.7442C101.847 71.1253 101.641 70.7127 101.228 70.3002C100.403 69.2687 98.7527 69.2687 97.515 70.0939L97.1024 70.5065L96.6898 70.0939Z" fill="#0F0225"/>
<path d="M29.2326 90.7232L31.9143 94.0238C32.1206 94.4364 32.5332 94.6427 33.152 94.6427L34.5961 94.849C35.0086 94.849 35.6275 94.849 36.0401 94.6427C36.8652 94.0238 38.5155 92.9924 38.5155 92.7861C38.5155 92.7861 38.5155 92.5798 38.5155 92.3735C38.5155 91.5484 38.103 90.9295 37.4841 90.7232L35.8338 89.8981C35.2149 89.6918 34.8024 89.0729 34.8024 88.454V88.2478H36.6589C37.2778 88.2478 37.8967 88.6603 38.3092 89.0729L39.547 88.6603L38.5155 87.2163C38.103 86.8037 37.6904 86.5975 37.2778 86.3912L34.3898 85.9786H34.1835H32.1206C31.5017 85.9786 30.8829 86.3912 30.4703 86.8037L29.6451 88.0415C28.6137 89.0729 28.82 90.1043 29.2326 90.7232Z" fill="white"/>
<path d="M35.0088 95.6741C34.8026 95.6741 34.8025 95.6741 34.5963 95.6741L33.1522 95.4678C32.5334 95.2616 31.9145 95.0553 31.5019 94.4364L28.8202 91.1358C28.2013 90.3106 27.995 89.0729 28.6139 88.0414L29.439 86.8037C29.8516 86.1849 30.6768 85.7723 31.5019 85.7723H33.5648H33.7711L36.6591 86.1849C37.278 86.1849 38.1032 86.5974 38.5157 87.2163L40.166 89.4855L37.4843 90.3106L37.278 89.898C37.0717 89.4855 36.6591 89.2792 36.2466 89.2792H35.4214C35.6277 89.4855 35.6277 89.4855 35.834 89.6918L37.4843 90.5169C38.3094 90.9295 38.9283 91.7546 38.9283 92.7861C38.9283 92.9924 38.9283 92.9924 38.9283 92.9924C38.9283 93.4049 38.9283 93.8175 36.2466 95.4678C35.834 95.6741 35.4214 95.6741 35.0088 95.6741ZM29.8516 90.3106L32.5334 93.6112C32.7397 93.8175 32.9459 94.0238 33.3585 94.0238L34.8026 94.2301C35.0088 94.2301 35.4214 94.2301 35.6277 94.0238C36.8654 93.1987 37.4843 92.7861 37.6906 92.5798V92.3735C37.6906 91.9609 37.4843 91.5484 36.8654 91.3421L35.2151 90.5169C34.39 90.1043 33.9774 89.4855 33.7711 88.6603L33.5648 87.6289H36.2466C36.8654 87.6289 37.278 87.8352 37.6906 88.0414L37.4843 87.6289C37.278 87.4226 36.8654 87.2163 36.6591 87.2163L33.7711 86.8037C33.7711 86.8037 33.7711 86.8037 33.5648 86.8037H31.5019C31.0894 86.8037 30.6768 87.01 30.4705 87.4226L29.6453 88.6603C29.4391 89.2792 29.4391 89.8981 29.8516 90.3106Z" fill="#0F0225"/>
<path d="M41.8195 97.7369C41.8195 97.7369 37.6938 115.684 36.456 126.617C35.2183 137.551 31.0925 135.281 27.5856 146.215C24.9039 154.26 23.8725 163.749 23.4599 168.081C23.2536 169.525 24.285 170.763 25.729 170.763L28.6171 171.176C29.8548 171.382 31.0925 170.557 31.5051 169.113C32.5366 163.955 35.6309 151.784 39.5504 145.183C44.7076 136.725 45.5327 137.963 48.4208 129.918C50.6899 123.11 53.578 115.065 54.1968 112.796C54.1968 112.59 54.6094 112.383 54.8157 112.59C55.6409 113.415 59.354 114.24 65.749 111.146C71.5251 108.258 74.6194 107.432 76.0634 107.02C76.2697 107.02 76.476 107.226 76.2697 107.432C75.032 108.877 72.1439 112.796 71.1125 118.159C70.2873 122.698 67.3993 127.855 65.749 130.743C65.1301 131.981 65.749 133.425 67.193 133.631L69.2559 134.044C69.8747 134.044 70.6999 133.837 71.1125 133.219C73.7942 129.093 83.9024 114.446 86.9967 107.226C90.2973 98.9747 89.4721 95.2615 84.3149 93.6112C79.364 91.9609 59.1478 97.1181 59.1478 97.1181L41.8195 97.7369Z" fill="#0F0225"/>
<path d="M28.6164 172C28.4101 172 28.4101 172 28.2038 172L25.3158 171.588C23.6655 171.382 22.4277 169.938 22.4277 168.081C22.8403 163.336 24.078 154.053 26.5535 146.008C28.2038 140.851 29.8541 138.582 31.5044 136.519C33.361 134.043 34.805 132.187 35.4239 126.411C36.6616 115.477 40.7874 97.5303 40.7874 97.324L40.9937 96.9115L58.7345 96.2926C60.1785 95.88 79.157 91.1354 84.3142 92.7857C86.5834 93.6109 88.0274 94.6423 88.8526 96.2926C89.884 98.7681 89.4715 102.275 87.4086 107.432C84.7268 113.827 76.269 126.617 72.5558 131.98L71.5244 133.631C70.9055 134.456 70.0803 134.869 69.0489 134.662L66.3671 134.25C65.542 134.25 64.7168 133.631 64.3043 132.806C63.8917 131.98 63.8917 131.155 64.5105 130.33C66.1609 127.648 69.0489 122.491 69.8741 117.953C70.6992 113.415 72.9684 109.701 74.4124 107.845C72.7621 108.464 69.874 109.495 65.3357 111.558C59.3533 114.446 55.6402 114.033 53.9898 113.208C53.1647 115.89 50.483 123.316 48.2138 129.918C46.3572 135.075 45.3257 136.725 43.4691 139.201C42.4377 140.645 41.2 142.501 39.3434 145.389C35.4239 151.784 32.5359 164.161 31.5044 169.112C31.5044 170.969 30.2667 172 28.6164 172ZM42.2314 98.3555C41.6125 101.45 38.1056 116.921 36.8679 126.617C36.0428 132.806 34.5987 134.869 32.7422 137.344C31.2981 139.201 29.6478 141.47 27.9975 146.421C25.5221 154.26 24.2843 163.543 23.8717 168.287C23.8717 169.319 24.4906 170.144 25.5221 170.35L28.4101 170.763C29.4415 170.969 30.2667 170.35 30.473 169.319C31.5044 164.161 34.5987 151.784 38.5182 145.183C40.3748 142.089 41.6125 140.232 42.8503 138.788C44.7069 136.313 45.7383 134.869 47.3886 129.918C49.6578 123.11 52.5458 115.065 53.1647 112.796C53.371 112.383 53.5773 112.177 53.7836 112.177C54.1961 112.177 54.4024 112.177 54.815 112.383C55.4339 113.002 58.7345 113.827 64.9231 110.939C70.9055 108.051 73.9998 107.02 75.2376 106.813C75.6501 106.813 76.0627 106.813 76.269 107.226C76.4753 107.638 76.4753 108.051 76.269 108.257C75.0313 109.701 72.3495 113.415 71.3181 118.778C70.4929 123.316 67.8112 128.267 65.7483 131.568C65.542 131.98 65.542 132.393 65.7483 132.806C65.9546 133.218 66.3672 133.425 66.7797 133.425L69.4615 133.837C69.874 133.837 70.2866 133.631 70.6992 133.218L71.7306 131.568C75.2375 126.204 83.6954 113.621 86.3771 107.432C88.2337 102.688 88.8526 99.5932 87.8211 97.5303C87.2023 96.2926 85.9645 95.2612 84.1079 94.6423C79.3633 93.1983 59.3533 98.1492 59.1471 98.1492H58.9408L42.2314 98.3555Z" fill="#0F0225"/>
<path d="M99.9911 75.2516C99.1659 71.3321 96.2779 72.5698 96.2779 72.5698C91.7395 75.6641 87.6138 79.5836 87.6138 79.5836C87.6138 79.5836 84.932 79.5836 78.3308 72.9824C71.7296 66.3812 64.5095 61.8428 64.5095 61.8428L56.6705 57.3045C56.6705 57.3045 50.0693 54.6227 45.7372 53.385C41.4052 51.941 38.9297 51.5284 31.0908 58.5422C25.9336 63.2868 24.077 64.9371 21.3952 67.4126C19.9512 68.6503 16.238 72.7761 15.6191 74.4264C17.682 81.4402 26.3461 88.8666 26.3461 88.8666C26.3461 88.8666 27.5839 89.898 29.2342 89.4855C32.1222 88.8666 32.3285 85.7723 32.3285 85.7723L24.2832 75.2516C24.077 75.0453 24.077 74.6327 24.4895 74.4264C30.4719 70.9195 37.4857 66.5875 37.4857 66.5875C37.0731 74.839 38.1046 88.8666 38.1046 88.8666C37.8983 91.5483 33.1537 103.1 33.1537 103.1L39.136 106.401C48.0064 111.146 58.5271 110.321 67.8101 106.607C69.0478 106.195 72.5547 103.1 73.1736 101.244L67.1912 83.9157L66.3661 77.3144C66.3661 76.9019 66.7787 76.9019 66.9849 77.1082C71.9359 81.4402 85.5509 88.6603 87.2012 88.2477C90.2955 87.4226 100.816 79.171 99.9911 75.2516Z" fill="#5600D6"/>
<path d="M52.7508 110.527C47.7999 110.527 42.8489 109.496 38.9295 107.226L32.5345 103.513L32.7408 102.894C34.3911 98.9749 37.2791 90.9297 37.4854 88.8668C37.4854 87.8354 36.454 75.8706 36.8666 67.8254C34.5974 69.2694 29.4402 72.3637 24.9018 74.8392L32.9471 85.5662V85.7725C32.9471 87.0102 32.1219 89.4857 29.4402 90.1045C27.5836 90.7234 25.9333 89.4857 25.9333 89.2794C25.5207 88.8668 17.0629 81.6467 15 74.4266V74.2203V74.014C15.6189 71.9512 19.7446 67.6191 20.9824 66.5877C23.6641 64.1122 25.727 62.4619 30.6779 57.7173C38.5169 50.4972 41.4049 50.9097 45.9433 52.3538C50.2753 53.7978 56.8765 56.2732 56.8765 56.4795L64.7155 61.0179C64.7155 61.0179 72.1419 65.5562 78.7431 72.1574C83.9003 77.3146 86.5821 78.3461 87.2009 78.5524C88.2324 77.7272 91.7393 74.4266 95.865 71.7449H96.0713C96.0713 71.7449 97.3091 71.126 98.7531 71.9512C99.7845 72.3637 100.403 73.6015 100.816 75.0455C101.847 79.5838 90.9141 88.0416 87.8198 88.8668C85.7569 89.4857 72.5545 82.4719 67.3972 78.1398L68.2224 83.7096L74.2048 101.038V101.244C73.5859 103.101 69.8727 106.401 68.635 107.02C63.0652 109.289 57.7017 110.527 52.7508 110.527ZM34.1848 102.894L39.5483 105.989C47.3873 110.114 57.4954 110.321 67.6035 105.989C68.635 105.576 71.7293 102.894 72.3482 101.244L66.3658 84.1222L65.5406 77.5209V77.3146C65.5406 76.9021 65.9532 76.6958 66.3658 76.4895C66.7784 76.2832 67.191 76.4895 67.3972 76.6958C72.3482 81.0278 85.138 87.6291 86.9946 87.6291C89.6764 86.8039 99.7845 78.7587 99.1656 75.458C98.9594 74.4266 98.5468 73.6015 97.9279 73.1889C97.3091 72.7763 96.6902 72.9826 96.4839 72.9826C91.9455 76.0769 87.8198 79.7901 87.8198 79.7901L87.6135 79.9964H87.4072C87.2009 79.9964 84.3129 79.7901 77.7117 73.1889C71.3167 66.7939 64.0966 62.2556 63.8903 62.2556L56.0514 57.7173C55.4325 57.511 49.2439 55.0355 45.1181 53.7978C41.1986 52.56 38.9295 51.7349 31.2968 58.955C26.3459 63.4933 24.283 65.3499 21.6012 67.8254C20.1572 69.0631 16.8566 72.7763 16.2377 74.4266C18.3006 81.0278 26.5522 88.2479 26.7584 88.2479C26.7584 88.2479 27.7899 89.0731 29.0276 88.8668C30.8842 88.4542 31.2968 86.5976 31.5031 85.9788L23.6641 75.6643C23.4578 75.458 23.4578 75.0455 23.4578 74.6329C23.4578 74.2203 23.6641 74.014 24.0767 73.8078C29.8528 70.5071 37.0729 65.9688 37.0729 65.9688L38.1043 65.3499V66.5877C37.6917 74.6329 38.7232 88.0416 38.7232 88.6605C38.5169 91.3423 35.01 100.419 34.1848 102.894Z" fill="#0F0225"/>
<path d="M60.5897 58.5421C60.5897 56.6855 60.5897 54.4163 60.796 53.5912C61.0023 52.9723 61.6211 52.5597 62.24 52.5597C63.0651 52.766 64.7154 52.766 66.1595 51.7346C66.3657 51.5283 66.572 51.322 66.7783 50.9094C67.1909 49.2591 68.8412 44.3082 69.0475 40.8013C69.2538 36.8818 64.7155 34.2001 64.7155 34.2001L53.5759 39.5636L52.3381 42.6579V48.434C52.3381 48.434 53.9884 51.5283 48.625 55.4478C43.2615 59.3673 55.4325 63.0804 55.4325 63.0804L60.3834 61.0176L60.5897 58.5421Z" fill="white"/>
<path d="M55.4349 63.9059H55.2286C54.4034 63.6996 47.1833 61.4304 46.5645 58.1298C46.3582 57.0984 46.9771 56.0669 48.2148 55.0355C53.1657 51.5286 51.7217 48.8468 51.7217 48.8468V48.6405V42.6582L53.1657 39.1513L64.9241 33.3752L65.3367 33.5815C65.543 33.7878 70.2876 36.4695 69.8751 40.8016C69.6688 44.1022 68.2248 49.0531 67.6059 50.9097C67.3996 51.3223 67.1933 51.7349 66.7807 51.9412C65.1304 52.7663 63.4801 52.9726 62.4487 52.7663C62.0361 52.7663 61.8298 52.9726 61.6235 53.1789C61.4173 53.7978 61.4172 56.0669 61.4172 57.9235L61.211 61.2241L55.4349 63.9059ZM53.1657 48.4343C53.5783 49.2594 54.4034 52.56 49.2462 56.0669C48.4211 56.6858 48.0085 57.3047 48.2148 57.7172C48.4211 59.3675 52.7531 61.4304 55.6412 62.2556L59.9732 60.6053V58.3361C59.9732 56.4795 59.9732 54.2103 60.1795 53.3852C60.3858 52.3537 61.4172 51.7349 62.4487 51.7349C63.2738 51.9412 64.7179 51.7349 65.9556 51.116C66.1619 51.116 66.1619 50.9097 66.1619 50.7034C66.5745 49.2594 68.2248 44.1022 68.431 40.8016C68.6373 37.9136 65.7493 35.6444 64.7179 35.0255L54.1971 40.1827L52.9594 42.8645V48.4343H53.1657Z" fill="#0F0225"/>
<path d="M66.984 26.5675C66.7777 26.3612 66.3651 26.5675 66.5714 26.9801C66.7777 28.0115 66.984 29.6619 65.54 30.487C65.54 30.487 61.8268 28.2178 58.9387 28.4241C55.6381 28.6304 50.6872 29.2493 49.8621 35.4379C49.0369 36.6757 48.0055 39.1511 48.6243 42.2454C49.4495 46.9901 53.369 50.0844 59.5576 49.2592C59.5576 49.2592 59.3513 49.2592 59.5576 49.2592C59.5576 49.2592 62.0331 48.4341 63.0645 45.7523C64.096 42.8643 66.5714 42.658 66.5714 42.658C66.5714 42.658 69.2532 41.4203 70.4909 39.77C71.7286 37.9134 74.6167 30.6933 66.984 26.5675Z" fill="#0F0225"/>
<path d="M57.4957 49.8779C52.3385 49.8779 48.6253 46.9898 47.8001 42.2452C47.1812 38.9446 48.2127 36.2628 49.0378 35.0251C50.0693 28.0113 56.2579 27.805 58.7334 27.5987C61.2089 27.3924 64.0969 29.0428 65.3346 29.6616C65.9535 28.8365 65.9535 27.805 65.7472 27.1862C65.7472 26.7736 65.7472 26.361 66.1598 26.1547C66.5723 25.9484 66.9849 25.9484 67.1912 26.1547C70.0793 27.805 71.9358 29.8679 72.5547 32.5497C73.3799 36.0566 71.7296 39.3572 70.9044 40.1823C69.6667 41.8326 66.7786 43.0704 66.7786 43.2766H66.5723C66.5723 43.2766 64.5095 43.6892 63.478 45.9584C62.2403 49.0527 59.5586 49.8779 59.5586 49.8779H59.3523C58.7334 49.8779 58.1145 49.8779 57.4957 49.8779ZM59.146 28.8365H58.9397C54.8139 29.0428 51.1007 30.0742 50.4819 35.2314V35.4377V35.644C49.863 36.6754 48.8316 38.9446 49.2441 42.0389C50.0693 46.7836 53.9888 49.259 59.3523 48.4339C59.7648 48.2276 61.6214 47.6087 62.4466 45.3395C63.478 42.4515 65.9535 41.8326 66.3661 41.8326C66.7786 41.6263 69.0478 40.5949 69.873 39.3572C70.4918 38.532 71.9358 35.8503 71.1107 32.7559C70.6981 30.6931 69.2541 28.8365 67.1912 27.5987C67.3975 29.0428 66.7786 30.2805 65.7472 31.1056L65.3346 31.3119L65.1283 30.8993C65.1283 30.8993 61.6214 28.8365 59.146 28.8365Z" fill="#0F0225"/>
<path d="M64.0992 48.4341C63.4804 48.4341 62.8615 48.2278 62.6552 47.8152C61.8301 46.99 61.8301 45.7523 61.8301 45.546H63.2741H62.6552H63.2741C63.2741 45.7523 63.2741 46.5775 63.6867 46.7838C63.6867 46.7838 63.893 46.99 64.3055 46.99L64.5118 48.2278C64.3055 48.4341 64.3055 48.4341 64.0992 48.4341Z" fill="#0F0225"/>
<path d="M57.0844 39.5637C55.4341 34.819 51.3083 36.0568 51.102 36.0568L50.6895 35.0253C50.6895 35.0253 56.4655 33.375 58.3221 39.3574L57.0844 39.5637Z" fill="#5600D6"/>
<path d="M51.5143 57.5106C53.3709 58.9546 56.4653 60.6049 60.591 59.5735L62.6539 59.1609L65.5419 62.4615C65.5419 62.4615 64.0979 67.4124 56.259 66.1747C48.42 65.1432 45.532 60.6049 45.9445 57.5106C46.3571 55.4477 48.0074 54.0037 50.0703 53.5911H50.6892C49.864 55.0351 50.2766 56.6854 51.5143 57.5106Z" fill="#5600D6"/>
<path d="M58.3224 66.9998C57.7035 66.9998 56.8784 66.9998 56.0532 66.7935C51.7211 66.1746 48.2143 64.5243 46.3577 61.8426C45.3262 60.3986 44.9136 58.7483 45.1199 57.3042C45.5325 54.8288 47.3891 53.1785 49.8646 52.7659L51.9274 52.5596L51.3086 53.7973C50.6897 54.8288 51.1023 56.2728 51.9274 56.8917C53.5777 58.3357 56.4658 59.7797 60.3853 58.7483L62.8607 58.3357L66.1613 62.0489L65.9551 62.4614C65.9551 62.874 64.511 66.9998 58.3224 66.9998ZM49.6583 54.4162C48.008 54.6225 46.5639 56.0665 46.3577 57.7168C46.1514 58.9545 46.5639 60.1923 47.3891 61.2237C48.4205 62.4614 50.6897 64.7306 56.0532 65.5558C62.0356 66.3809 64.0984 63.4929 64.511 62.6677L62.2419 59.986L60.5916 60.3986C56.0532 61.6363 52.7526 59.7797 50.896 58.1294C49.8646 57.3042 49.452 55.8602 49.6583 54.4162Z" fill="#0F0225"/>
<path d="M38.1061 66.5871H36.6621C36.6621 66.3809 36.6621 62.4614 38.725 60.8111L39.5501 61.8425C38.5187 63.0802 38.1061 65.762 38.1061 66.5871Z" fill="#0F0225"/>
<path d="M21.5999 173.651C21.5999 173.651 25.1068 173.857 26.1383 175.508C26.3445 175.714 26.5508 175.92 26.5508 176.126C27.5823 176.952 29.0263 176.126 29.2326 174.889L29.6452 172.826H29.8515C32.7395 172.413 35.6275 172.413 38.3093 173.032L39.547 173.238C39.547 173.238 41.8162 174.476 40.7847 175.714C39.7533 176.952 32.9458 178.396 28.2011 181.284C23.4565 184.172 19.7433 183.14 19.9496 178.396C20.1559 173.651 20.3622 173.238 21.5999 173.651Z" fill="#5600D6"/>
<path d="M23.6641 183.553C22.8389 183.553 22.0138 183.347 21.3949 182.934C19.9509 182.109 19.332 180.459 19.332 178.396C19.5383 174.683 19.7446 173.651 20.3635 173.032C20.9823 172.62 21.3949 172.826 21.8075 173.032C22.4264 173.032 25.727 173.445 26.7584 175.095C26.9647 175.301 26.9647 175.301 27.171 175.508C27.5836 175.714 27.9961 175.714 27.9961 175.508C28.4087 175.301 28.615 175.095 28.615 174.683L29.0276 172.001H29.6464C32.5345 171.588 35.4225 171.588 38.3106 172.207L39.7546 172.62C39.9609 172.62 41.4049 173.445 41.6112 174.683C41.6112 175.095 41.6112 175.508 41.1986 176.127C40.5797 176.745 39.1357 177.364 36.454 178.396C33.9785 179.221 30.8842 180.459 28.4087 181.903C26.7584 182.934 25.1081 183.553 23.6641 183.553ZM20.9823 174.27C20.776 174.683 20.5698 177.571 20.5698 178.396C20.5698 179.633 20.776 181.077 22.0138 181.696C23.2515 182.521 25.5207 182.109 27.9961 180.665C30.6779 179.015 33.7722 177.983 36.2477 176.952C38.1043 176.333 39.9609 175.508 40.3734 175.095C40.5797 174.889 40.5797 174.889 40.5797 174.683C40.5797 174.27 39.9609 173.857 39.5483 173.651L38.3106 173.445C35.6288 172.826 32.9471 172.826 30.2653 173.032L30.059 174.683C29.8527 175.508 29.4402 176.333 28.615 176.539C27.7899 176.745 26.9647 176.745 26.3458 176.333C26.1395 176.127 25.9333 175.92 25.727 175.714C24.9018 174.683 22.4264 174.27 21.6012 174.27H21.3949C21.1886 174.27 20.9823 174.27 20.9823 174.27Z" fill="#0F0225"/>
<path d="M31.9159 179.427C24.2832 182.315 24.6958 179.427 23.2518 177.57C22.014 175.92 19.9512 177.364 19.9512 177.364C19.9512 177.57 19.9512 177.983 19.9512 178.395C19.7449 183.14 23.6643 184.171 28.2027 181.283C29.4404 180.458 30.6782 180.046 31.9159 179.427Z" fill="white"/>
<path d="M23.6641 183.553C22.8389 183.553 22.0138 183.346 21.3949 182.934C19.9509 182.109 19.332 180.458 19.332 178.396C19.332 177.983 19.332 177.777 19.332 177.364V177.158L19.5383 176.952C19.5383 176.952 20.776 175.92 22.0138 176.126C22.6326 176.126 23.2515 176.539 23.8704 177.158C24.0767 177.57 24.283 177.983 24.4892 178.189C25.3144 179.633 25.9333 180.871 31.7093 178.602L32.1219 179.84C30.6779 180.458 29.6464 181.077 28.615 181.696C26.7584 182.934 25.1081 183.553 23.6641 183.553ZM20.5698 177.777C20.5698 177.983 20.5698 178.189 20.5698 178.396C20.5698 179.633 20.776 181.077 22.0138 181.696C23.0452 182.315 24.9018 182.109 26.7584 181.284C24.6955 181.284 23.8704 180.252 23.2515 178.808C23.0452 178.396 22.8389 178.189 22.6326 177.983C22.4264 177.57 22.2201 177.57 21.8075 177.364C21.3949 177.364 20.9823 177.57 20.5698 177.777Z" fill="#0F0225"/>
<path d="M64.3041 135.075C64.3041 135.075 66.7795 135.281 67.1921 136.725C67.6047 138.17 69.4613 137.757 69.4613 137.757L70.2864 135.488L70.9053 134.044C70.9053 134.044 77.0939 133.219 79.7757 134.044C82.6637 134.869 83.0763 135.9 82.0449 136.932C81.0134 137.963 70.0801 142.502 68.6361 142.914C68.0172 143.12 63.6852 144.977 62.6538 142.089C61.6223 139.201 63.4789 135.488 63.4789 135.488L64.3041 135.075Z" fill="#5600D6"/>
<path d="M64.9229 144.358C63.2726 144.358 62.2412 143.739 61.8286 142.295C60.7972 139.201 62.4475 135.282 62.6538 135.075L62.86 134.869L64.0978 134.25H64.3041C64.5103 134.25 67.1921 134.456 67.811 136.313C68.0173 136.932 68.6361 136.932 69.0487 136.932L70.4927 133.219H70.9053C71.1116 133.219 77.0939 132.394 79.982 133.219C81.8386 133.631 82.87 134.456 83.0763 135.282C83.2826 135.694 83.2826 136.519 82.4574 137.138C81.2197 138.376 70.0801 142.914 68.6361 143.327H68.4298C67.1921 144.152 65.9544 144.358 64.9229 144.358ZM63.8915 135.9C63.4789 136.726 62.4475 139.614 63.2726 141.883C63.6852 143.121 65.3355 143.327 68.2235 142.295C68.4298 142.295 68.4298 142.295 68.4298 142.295C70.2864 141.676 80.8071 137.344 81.6323 136.519C81.8386 136.313 82.0448 136.107 81.8386 135.9C81.8386 135.694 81.6323 135.282 79.5694 134.663C77.3002 134.044 72.7619 134.456 71.3179 134.663L69.8738 138.376H69.4613C68.6361 138.582 66.7795 138.582 66.3669 136.932C66.1606 136.107 64.9229 135.9 64.3041 135.9H63.8915Z" fill="#0F0225"/>
<path d="M72.968 141.057C70.9051 141.883 65.3353 142.295 64.9227 139.82C64.7164 137.344 62.241 138.169 62.241 138.169C62.0347 139.407 62.0347 140.851 62.4473 141.883C63.4787 144.771 67.8108 142.914 68.4296 142.708C69.0485 142.708 70.9051 141.883 72.968 141.057Z" fill="white"/>
<path d="M64.9224 144.358C63.2721 144.358 62.2407 143.739 61.8281 142.295C61.4155 141.057 61.4155 139.819 61.6218 138.169V137.756L62.0344 137.55C62.0344 137.55 63.4784 136.931 64.5099 137.756C64.9224 137.963 65.5413 138.582 65.5413 139.819C65.5413 140.026 65.5413 140.232 66.1602 140.644C67.6042 141.47 71.1111 141.263 72.5551 140.644L73.174 141.882C71.1111 142.707 69.2545 143.532 68.6356 143.739H68.4293C67.1916 144.151 65.9539 144.358 64.9224 144.358ZM63.0658 138.788C62.8596 140.026 62.8596 141.057 63.2721 141.882C63.6847 143.12 65.335 143.326 68.0168 142.295C67.1916 142.295 66.3665 142.088 65.7476 141.676C64.9224 141.057 64.5099 140.438 64.5099 139.819C64.5099 139.407 64.3036 138.994 64.0973 138.788C63.6847 138.788 63.2721 138.788 63.0658 138.788Z" fill="#0F0225"/>
<path d="M25.3154 88.0413C24.6965 88.0413 24.4902 88.0413 24.4902 88.0413L24.6965 86.8036L24.4902 87.4225L24.6965 86.8036C24.6965 86.8036 26.9657 87.2162 28.2034 85.5659L29.2349 86.391C28.2034 87.835 26.3468 88.0413 25.3154 88.0413Z" fill="#0F0225"/>
<path d="M97.1046 77.1081C95.6605 74.839 93.8039 75.0453 93.8039 75.0453L93.5977 73.8075C93.8039 73.8075 96.4857 73.1887 98.3423 76.4893L97.1046 77.1081Z" fill="#0F0225"/>
<path d="M66.5707 77.7263C65.5393 76.6948 64.7141 75.4571 64.5078 74.0131L65.7456 73.8068C65.9518 75.0446 66.3644 76.076 67.3959 76.6948L66.5707 77.7263Z" fill="#0F0225"/>
<path d="M65.9541 78.9645C65.9541 78.9645 65.7478 77.7268 65.1289 75.6639L66.3666 75.2513C66.7792 77.3142 67.1918 78.552 67.1918 78.552L65.9541 78.9645Z" fill="#0F0225"/>
<path d="M62.0348 66.3807L60.7971 65.7619C60.7971 65.7619 61.4159 64.3179 59.7656 62.4613L60.7971 61.6361C63.0662 64.3179 62.0348 66.3807 62.0348 66.3807Z" fill="#0F0225"/>
<path d="M46.5639 60.1925L45.3262 59.7799C45.3262 59.5736 46.3576 56.0667 50.4834 55.8604L50.6897 57.0982C47.3891 57.5108 46.5639 60.1925 46.5639 60.1925Z" fill="#0F0225"/>
<path d="M56.6699 97.5305C55.4322 97.5305 53.9882 97.5305 52.3379 97.3242L52.5442 96.0864C58.9391 96.7053 60.7957 95.8802 60.7957 95.8802L61.4146 97.1179C61.002 96.9116 59.7643 97.5305 56.6699 97.5305Z" fill="#0F0225"/>
<path d="M49.8641 96.9113C41.2 95.6736 37.2805 92.373 37.0742 92.373L37.8994 91.3415C37.8994 91.3415 41.8188 94.4358 50.0704 95.6736L49.8641 96.9113Z" fill="#0F0225"/>
<path d="M69.8714 34.406H68.4274C68.4274 32.3431 66.1582 30.8991 66.1582 30.8991L66.7771 29.6613C66.9834 29.8676 69.8714 31.7242 69.8714 34.406Z" fill="#5600D6"/>
<path d="M52.7523 112.796C51.7209 111.765 50.8957 110.527 50.6895 110.527L51.7209 109.702C51.7209 109.702 52.7523 110.94 53.5775 111.971L52.7523 112.796Z" fill="#5600D6"/>
<path d="M84.932 96.7049C83.6943 95.0546 80.1874 95.4672 78.9497 95.6735L78.5371 94.4358C78.7434 94.4358 83.9006 93.198 85.9635 95.8798L84.932 96.7049Z" fill="#5600D6"/>
<path d="M78.5682 106.341L75.7324 106.887L76.0058 108.305L78.8415 107.759L78.5682 106.341Z" fill="#5600D6"/>
<path d="M27.791 167.875C25.5219 167.875 23.459 166.637 23.459 166.431L24.2841 165.4C24.2841 165.4 27.5847 167.669 30.2665 165.812L30.8854 167.05C29.8539 167.669 28.8225 167.875 27.791 167.875Z" fill="#5600D6"/>
<path d="M71.1106 130.742C68.6352 130.742 66.7786 129.505 66.5723 129.505L67.3974 128.473C67.3974 128.473 69.6666 129.917 72.3483 129.298L72.5546 130.536C71.9358 130.742 71.5232 130.742 71.1106 130.742Z" fill="#5600D6"/>
<path d="M40.1638 135.9C39.9575 135.9 39.5449 135.694 39.3387 135.694C37.0695 135.075 35.2129 134.25 35.2129 134.25L35.8318 133.012C35.8318 133.012 37.4821 133.837 39.7512 134.25C39.9575 134.25 40.3701 134.456 40.5764 134.456L40.1638 135.9Z" fill="#5600D6"/>
<path d="M35.8353 87.0099C35.629 86.391 29.0278 70.0942 33.7724 58.7484C36.2479 52.766 39.7548 51.322 42.2303 50.9094C45.3246 50.7031 48.2126 52.3534 49.0378 53.3849L47.3875 54.6226C47.1812 54.21 44.912 52.766 42.4366 52.9723C39.7548 53.3849 37.4856 55.4478 35.8353 59.3672C31.297 69.8879 37.6919 85.7721 37.8982 85.9784L35.8353 87.0099Z" fill="#0F0225"/>
<path d="M34.8894 73.8211L32.2363 74.2118L32.4467 75.6404L35.0998 75.2497L34.8894 73.8211Z" fill="#5600D6"/>
<path d="M30.8686 105.257L30.2832 106.8L31.6334 107.312L32.2187 105.769L30.8686 105.257Z" fill="#0F0225"/>
<path d="M29.6291 108.514L27.873 113.143L29.2232 113.655L30.9793 109.026L29.6291 108.514Z" fill="#0F0225"/>
<path d="M33.3154 106.833L32.3477 109.988L33.7281 110.412L34.6959 107.256L33.3154 106.833Z" fill="#0F0225"/>
<path d="M32.0472 111.153L30.8379 115.098L32.2185 115.521L33.4278 111.577L32.0472 111.153Z" fill="#0F0225"/>
<path d="M35.2047 110.963L33.6914 116.324L35.0811 116.716L36.5944 111.356L35.2047 110.963Z" fill="#0F0225"/>
<path d="M67.1917 85.3596C67.1917 86.391 66.3666 87.2162 65.3351 87.2162C64.3037 87.2162 63.4785 86.391 63.4785 85.3596C63.4785 84.3281 64.3037 83.503 65.3351 83.503C66.3666 83.503 67.1917 84.3281 67.1917 85.3596Z" fill="white"/>
<path d="M65.3348 88.0408C63.8908 88.0408 62.8594 86.8031 62.8594 85.5654C62.8594 84.1213 64.0971 83.0899 65.3348 83.0899C66.7788 83.0899 67.8103 84.3276 67.8103 85.5654C67.8103 86.8031 66.7788 88.0408 65.3348 88.0408ZM65.3348 84.1213C64.716 84.1213 64.0971 84.7402 64.0971 85.3591C64.0971 85.9779 64.716 86.5968 65.3348 86.5968C65.9537 86.5968 66.5726 85.9779 66.5726 85.3591C66.5726 84.7402 65.9537 84.1213 65.3348 84.1213Z" fill="#0F0225"/>
<path d="M68.0168 94.4361C69.0421 94.4361 69.8734 93.6049 69.8734 92.5795C69.8734 91.5542 69.0421 90.7229 68.0168 90.7229C66.9914 90.7229 66.1602 91.5542 66.1602 92.5795C66.1602 93.6049 66.9914 94.4361 68.0168 94.4361Z" fill="white"/>
<path d="M68.0165 95.0554C66.5725 95.0554 65.541 93.8177 65.541 92.58C65.541 91.136 66.7788 90.1045 68.0165 90.1045C69.4605 90.1045 70.4919 91.3423 70.4919 92.58C70.4919 94.024 69.4605 95.0554 68.0165 95.0554ZM68.0165 91.3423C67.3976 91.3423 66.7788 91.9611 66.7788 92.58C66.7788 93.1989 67.3976 93.8177 68.0165 93.8177C68.6354 93.8177 69.2542 93.1989 69.2542 92.58C69.2542 91.9611 68.6354 91.3423 68.0165 91.3423Z" fill="#0F0225"/>
<path d="M35.4225 175.508L34.1847 175.302C34.391 173.445 32.5344 172.826 32.3281 172.826L32.7407 171.589C33.7722 172.001 35.6287 173.239 35.4225 175.508Z" fill="#0F0225"/>
<path d="M76.4744 136.519H75.0304C75.0304 134.662 73.5864 134.456 73.1738 134.456V133.012C74.4116 133.012 76.4744 133.837 76.4744 136.519Z" fill="#0F0225"/>
<path d="M44.0862 52.9716L36.8661 57.0974C36.2472 57.51 35.2158 57.3037 34.8032 56.4785L34.5969 56.2722C34.1843 55.6534 34.3906 54.6219 35.2158 54.2093L42.4359 50.0836C43.0547 49.671 44.0862 49.8773 44.4988 50.7024L44.705 50.9087C45.1176 51.5276 44.7051 52.559 44.0862 52.9716Z" fill="white"/>
<path d="M36.2462 57.9229C35.4211 57.9229 34.8022 57.5104 34.3896 56.8915L34.1833 56.6852C33.5645 55.6538 33.9771 54.416 35.0085 53.7972L42.2286 49.6714C43.26 49.0526 44.4978 49.4651 45.1166 50.4966L45.3229 50.7029C45.5292 51.1154 45.7355 51.7343 45.5292 52.3532C45.3229 52.972 45.1166 53.3846 44.4978 53.5909L37.2777 57.7167C36.8651 57.923 36.6588 57.9229 36.2462 57.9229ZM43.26 50.7029C43.0538 50.7029 43.0537 50.7029 42.8475 50.9092L35.6274 55.0349C35.2148 55.2412 35.2148 55.6538 35.4211 56.0664L35.6274 56.2726C35.8336 56.6852 36.2462 56.6852 36.6588 56.4789L43.8789 52.3532C44.0852 52.1469 44.0852 52.1469 44.2915 51.9406C44.2915 51.7343 44.2915 51.528 44.2915 51.3217L44.0852 51.1154C43.8789 50.9091 43.6726 50.7029 43.26 50.7029C43.4663 50.7029 43.26 50.7029 43.26 50.7029Z" fill="#0F0225"/>
<path d="M63.0664 43.8948L68.6362 44.9263L69.0488 43.4823L70.6991 43.8948L69.6676 47.4018L68.4299 47.1955L68.6362 45.3389L63.0664 43.8948Z" fill="#0F0225"/>
<path d="M70.0795 48.2271L67.8103 47.6083V45.7517L62.8594 44.514L63.0657 43.2762L68.0166 44.3077L68.6354 42.8636L71.3172 43.4825L70.0795 48.2271ZM69.2543 46.5768L69.8732 44.3077H69.6669L69.2543 45.3391V46.5768Z" fill="#0F0225"/>
<path d="M55.4324 94.0238C51.7193 94.0238 47.1809 92.3735 46.9746 92.1672L47.3872 90.9295C47.3872 90.9295 51.7192 92.5798 55.2261 92.5798L55.4324 94.0238Z" fill="#0F0225"/>
</svg>
