<svg width="221" height="237" viewBox="0 0 221 237" fill="none" xmlns="http://www.w3.org/2000/svg">
<path opacity="0.53" d="M34.3203 214.867C49.5141 223.639 68.8721 229.613 89.9464 232.034C111.021 234.454 132.865 233.212 152.717 228.464C172.568 223.717 189.536 215.677 201.473 205.362C213.411 195.047 219.783 182.92 219.783 170.515C219.783 158.109 213.411 145.982 201.473 135.667C189.536 125.352 172.568 117.313 152.717 112.565C132.865 107.818 111.021 106.576 89.9464 108.996C68.8721 111.416 49.5141 117.39 34.3203 126.162C13.9461 137.925 2.5 153.879 2.5 170.515C2.5 187.15 13.9461 203.104 34.3203 214.867Z" fill="#3C089F"/>
<path d="M107.703 150.675C102.809 150.675 97.6427 150.131 93.0205 149.044L93.2924 147.684C97.9147 148.772 102.809 149.315 107.703 149.315C129.726 149.315 150.391 137.352 161.266 118.047L162.354 118.591C151.206 138.44 130.27 150.675 107.703 150.675Z" fill="white"/>
<path d="M170.512 93.578H169.153C169.425 91.6747 169.425 89.7714 169.425 87.5963C169.425 78.0799 167.249 69.1073 163.171 60.6785L164.53 60.1348C168.609 68.8354 170.784 78.0799 170.784 87.5963C170.784 89.7714 170.512 91.6747 170.512 93.578Z" fill="white"/>
<path d="M46.8001 103.91C45.4407 98.7443 44.625 93.3064 44.625 87.8685C44.625 53.0658 72.9021 24.7886 107.705 24.7886C119.668 24.7886 131.36 28.0513 141.42 34.5768L140.604 35.6644C130.816 29.4108 119.396 26.1481 107.705 26.1481C73.7178 26.1481 45.9845 53.8815 45.9845 87.8685C45.9845 93.3064 46.8001 98.4724 47.8877 103.638L46.8001 103.91Z" fill="white"/>
<path d="M70.7257 138.713C60.6655 131.372 53.0525 121.311 48.7021 109.62L50.0616 109.076C54.412 120.496 61.7531 130.284 71.5414 137.353L70.7257 138.713Z" fill="white"/>
<path d="M68.5485 53.0642L67.4609 52.2485C69.908 49.2577 72.8989 46.8106 75.8897 44.3635L76.7054 45.4511C73.7145 47.6263 70.9956 50.0733 68.5485 53.0642Z" fill="white"/>
<path d="M55.2257 87.5952H53.8662C53.8662 75.3598 57.9446 63.9402 65.2858 54.4238L66.3734 55.2395C59.3042 64.7559 55.2257 75.9036 55.2257 87.5952Z" fill="white"/>
<path d="M107.704 141.432V140.072C117.764 140.072 127.553 137.353 135.981 131.915L136.797 133.003C128.096 138.441 118.036 141.432 107.704 141.432Z" fill="white"/>
<path d="M141.148 129.739L140.332 128.652C142.235 127.02 143.867 125.389 145.77 123.758L146.858 124.573C144.954 126.477 143.051 128.108 141.148 129.739Z" fill="white"/>
<path d="M161.535 87.595H160.175C160.175 58.774 136.792 35.119 107.699 35.119V33.7595C137.336 34.0314 161.535 57.9583 161.535 87.595Z" fill="white"/>
<path d="M50.8805 44.365L49.793 43.5493C58.2217 32.4016 69.6413 23.9728 82.9642 19.3506L83.5081 20.7101C70.4571 25.3323 59.3093 33.4892 50.8805 44.365Z" fill="white"/>
<path d="M39.7833 109.369L38.4999 109.817C33.9391 96.6068 33.3024 82.4277 36.8872 68.789L38.3191 69.0949C34.8858 82.5078 35.4482 96.3096 39.7833 109.369Z" fill="white"/>
<path d="M178.957 96.3587C179.679 90.5912 179.367 84.4892 178.712 78.5621L180.172 78.463C181.086 84.4737 181.14 90.4921 180.593 96.602L178.957 96.3587Z" fill="white"/>
<path d="M107.704 16.3592C101.723 16.3592 95.7408 17.1749 89.7591 18.5344L89.4873 17.1749C95.469 15.5436 101.451 14.9998 107.704 14.9998C124.496 14.9998 140.598 20.86 153.397 31.1611L152.571 32.3053C140.026 22.1538 124.213 16.3592 107.704 16.3592Z" fill="white"/>
<path d="M214.703 125.913L214.644 111.589L200.618 111.53L127.04 68.9168C116.045 62.5575 96.8484 63.3302 84.1893 70.6404L16.3174 109.628C15.7825 109.925 15.2476 110.282 14.7127 110.638L5.79785 110.579V123.832C5.85728 127.755 8.29402 131.559 13.1675 134.352L93.4013 180.888C104.396 187.247 123.593 186.474 136.252 179.164L204.183 140.117C211.197 136.076 214.762 130.845 214.703 125.913Z" fill="#54BAF9"/>
<path d="M112.123 185.464C105.05 185.464 98.2751 184.038 93.2828 181.126L13.0489 134.59C8.41318 131.915 5.73871 128.171 5.50098 124.13V123.833V110.282L14.6536 110.341C15.1885 109.985 15.7234 109.688 16.1988 109.391L84.0707 70.4028C96.8487 63.0926 116.224 62.32 127.219 68.6793L200.677 111.292L214.882 111.352L214.941 126.269C214.882 131.44 211.019 136.551 204.303 140.474L136.431 179.461C129.537 183.384 120.622 185.464 112.123 185.464ZM6.0953 123.654V123.833C6.15473 127.815 8.76977 131.44 13.3461 134.114L93.5799 180.65C104.456 186.95 123.534 186.177 136.134 178.927L204.005 139.939C210.721 136.076 214.466 131.024 214.347 125.972V125.675L214.287 111.946L200.499 111.887L200.44 111.827L126.862 69.2142C115.986 62.9143 96.9081 63.6869 84.3084 70.9377L16.4366 109.925C15.9611 110.223 15.4262 110.52 14.8319 110.876L14.7724 110.936L6.03587 110.876V123.654H6.0953Z" fill="#0F0225"/>
<path d="M93.4613 167.575L13.2274 121.039C2.23243 114.68 3.65881 103.626 16.3774 96.3153L84.2493 57.3276C96.9678 50.0174 116.165 49.2448 127.1 55.6041L207.334 102.14C218.329 108.499 216.903 119.553 204.184 126.864L136.312 165.851C123.594 173.162 104.397 173.934 93.4613 167.575Z" fill="#54BAF9"/>
<path d="M207.275 107.073L127.041 60.5369C116.046 54.1777 96.8491 54.9503 84.19 62.2605L16.3181 101.248C10.4937 104.576 7.04662 108.737 6.0957 112.838V117.652C6.86833 120.801 9.24562 123.714 13.2276 126.032L93.4615 172.567C104.456 178.926 123.653 178.154 136.312 170.844L204.184 131.856C209.771 128.647 213.158 124.724 214.288 120.801V114.977C213.337 112.005 211.078 109.272 207.275 107.073Z" fill="white"/>
<path d="M112.123 172.151C105.05 172.151 98.2751 170.725 93.2828 167.813L13.0489 121.277C8.17545 118.424 5.50098 114.561 5.50098 110.282C5.50098 105.111 9.42352 99.9408 16.1988 96.0182L84.0707 57.0305C96.8487 49.7203 116.224 48.9477 127.219 55.307L207.453 101.843C212.326 104.695 215 108.558 215 112.838C215 118.008 211.078 123.179 204.303 127.101L136.431 166.089C129.537 170.131 120.622 172.151 112.123 172.151ZM108.379 51.5627C99.9986 51.5627 91.2026 53.5834 84.3679 57.5654L16.496 96.5531C9.89898 100.357 6.15473 105.349 6.0953 110.282C6.0953 114.323 8.65091 118.068 13.3461 120.802L93.5799 167.337C104.456 173.637 123.534 172.864 136.134 165.614L204.005 126.626C210.602 122.822 214.347 117.83 214.406 112.897C214.406 108.856 211.851 105.111 207.155 102.377L126.922 55.8418C121.929 52.9891 115.332 51.5627 108.379 51.5627Z" fill="#0F0225"/>
<path d="M97.2846 119.361C93.2084 117.004 93.012 113.271 96.8917 111.012L109.759 103.548C113.638 101.288 120.121 101.387 124.197 103.744C128.273 106.101 128.47 109.834 124.59 112.093L111.723 119.558C107.893 121.817 101.41 121.719 97.2846 119.361ZM122.724 104.628C119.483 102.762 114.424 102.713 111.379 104.481L98.5124 111.945C95.4675 113.713 95.6148 116.66 98.807 118.526C102.048 120.393 107.107 120.442 110.152 118.674L123.019 111.209C126.113 109.441 125.965 106.494 122.724 104.628Z" fill="#54BAF9"/>
<path d="M104.82 114.968C104.185 114.611 104.265 113.976 104.979 113.579L114.148 108.26C114.863 107.863 115.934 107.783 116.569 108.141C117.205 108.498 117.125 109.133 116.411 109.53L107.242 114.849C106.527 115.286 105.455 115.325 104.82 114.968Z" fill="#54BAF9"/>
<path d="M91.4922 122.701C84.0274 118.379 83.6836 111.553 90.7555 107.477L104.015 99.8154C111.087 95.7392 122.923 95.8866 130.388 100.208C137.853 104.53 138.197 111.356 131.125 115.433L117.865 123.094C110.793 127.17 98.957 127.023 91.4922 122.701ZM128.915 101.043C122.334 97.2617 111.873 97.0652 105.636 100.699L92.3762 108.361C86.1391 111.946 86.4338 117.986 93.0146 121.817C99.5955 125.599 110.056 125.795 116.293 122.161L129.553 114.5C135.79 110.914 135.495 104.874 128.915 101.043Z" fill="#54BAF9"/>
<path d="M81.9646 127.907C77.9867 125.598 76.4642 123.634 75.0891 121.915C74.0087 120.54 72.9774 119.214 70.7674 117.839C65.709 114.745 60.1595 113.419 60.1104 113.419L60.847 112.24C61.0926 112.289 66.9859 113.714 72.2898 117.004C74.7945 118.526 75.8749 119.951 77.0536 121.473C78.4287 123.241 79.8529 125.058 83.6835 127.219C87.3668 129.282 90.6081 130.215 93.7021 131.099C96.6979 131.934 99.5463 132.769 102.493 134.487C102.493 134.487 102.542 134.487 102.542 134.537C108.632 138.072 108.976 140.086 108.976 140.282H106.815C106.815 140.282 106.471 138.514 101.02 135.371C98.2203 133.8 95.6174 133.063 92.769 132.228C89.6259 131.344 86.0899 130.313 82.112 128.103C82.1611 128.005 82.0629 127.956 81.9646 127.907Z" fill="#54BAF9"/>
<path d="M75.8251 131.442C71.5034 128.938 68.5567 125.795 66.3467 123.486C65.5119 122.602 64.7752 121.817 64.0877 121.227C61.6321 119.066 57.8997 118.428 57.8506 118.379L58.3908 117.151C58.5873 117.2 62.9581 117.986 65.8556 120.54C66.5432 121.178 67.329 121.964 68.213 122.897C70.3247 125.107 73.1731 128.201 77.2493 130.558C81.6202 133.063 86.3839 134.536 90.6075 135.813C91.9335 136.206 93.2103 136.599 94.389 136.992C98.7107 138.416 100.233 141.068 100.282 141.166L98.2196 141.51C98.2196 141.51 96.8936 139.251 93.3577 138.072C92.179 137.679 90.9021 137.287 89.6252 136.894C85.4017 135.666 80.4907 134.143 75.8251 131.442Z" fill="#54BAF9"/>
<path d="M69.1954 134.733C63.8915 131.688 60.2573 127.268 58.2928 124.813C57.6053 123.929 56.2793 123.438 56.2793 123.389L57.458 122.357C57.5562 122.407 59.2751 123.094 60.2573 124.273C62.2708 126.728 66.0032 131.296 71.4054 134.193C77.5934 137.484 83.1429 138.957 86.4824 139.792C87.7102 140.136 88.6433 140.332 89.2817 140.578C90.9515 141.216 91.8355 141.953 91.8846 142.002L90.0675 142.689C90.0675 142.689 89.3799 142.149 88.1031 141.658C87.612 141.462 86.7771 141.265 85.6475 140.97C82.2098 140.086 76.4147 138.564 69.9321 135.126C69.7356 135.028 69.4901 134.881 69.1954 134.733Z" fill="#54BAF9"/>
<path d="M66.8385 136.992C61.5345 133.947 57.2128 129.429 57.0654 129.232L58.9807 128.692C59.0299 128.741 63.4007 133.358 68.6065 136.304C73.7631 139.202 82.9959 141.657 83.0941 141.706L82.2592 142.836C81.8664 142.738 72.5844 140.233 67.1331 137.188C67.0349 137.09 66.9367 137.041 66.8385 136.992Z" fill="#54BAF9"/>
<path d="M78.5767 106.15C79.4607 105.414 80.4429 104.726 81.5725 104.039L96.895 95.1495C107.896 88.8142 126.312 89.0598 137.903 95.788C149.542 102.467 150.033 113.124 139.032 119.459L123.709 128.348C122.58 128.987 121.352 129.576 120.075 130.067L121.696 131C122.973 130.46 124.201 129.92 125.33 129.232L140.653 120.343C152.488 113.517 151.948 102.074 139.425 94.904C126.951 87.6847 107.159 87.39 95.3235 94.2164L80.0009 103.105C78.8714 103.744 77.8892 104.481 76.9561 105.217L78.5767 106.15Z" fill="#54BAF9"/>
<path d="M110.694 138.662L110.105 138.072C110.105 138.072 109.614 136.599 107.944 135.568C106.176 134.487 103.671 133.652 103.622 133.652L103.18 133.505L102.935 132.867L103.377 132.572L103.819 132.326L104.506 132.425C105.39 132.572 110.007 133.259 113.15 132.621C116.145 131.983 117.52 131.442 117.962 131.246C118.061 131.197 118.159 131.148 118.159 131.148L119.681 132.081C119.632 132.081 119.583 132.13 119.387 132.228C118.454 132.719 114.672 134.684 113.641 136.108C113.002 136.992 112.708 137.581 112.56 137.925C112.462 138.121 112.266 138.613 111.431 138.662H110.694ZM109.172 134.487C109.27 134.536 109.417 134.635 109.515 134.684C110.252 135.126 110.792 135.666 111.234 136.108C111.382 135.911 111.529 135.715 111.676 135.469C112.069 134.929 112.708 134.389 113.493 133.8C111.873 134.045 110.007 134.094 108.386 133.996C108.631 134.193 108.926 134.34 109.172 134.487Z" fill="#54BAF9"/>
<path d="M114.768 137.434C114.768 137.385 115.21 136.059 116.978 134.88C118.598 133.751 119.924 133.162 119.973 133.162L121.348 134.193C121.348 134.193 120.121 134.733 118.647 135.764C117.272 136.698 116.928 137.778 116.928 137.778L114.768 137.434Z" fill="#54BAF9"/>
<path d="M64.333 111.945L64.3821 111.503C64.4803 111.012 65.3152 110.914 65.659 110.865C66.2483 110.767 67.2797 110.619 68.8512 110.227C71.0612 109.686 74.2534 107.771 75.5303 106.936C75.6776 106.838 75.7758 106.789 75.7758 106.74L77.4456 107.624C77.4456 107.624 77.3474 107.673 77.2491 107.722C76.9054 107.968 75.9723 108.753 74.9409 110.472C73.8114 112.289 75.0883 114.99 75.3829 115.531L75.5794 115.874L74.7445 116.464L73.5658 116.316L73.3203 116.071C73.3203 116.071 71.7978 114.548 69.8825 113.517C68.0654 112.535 65.4626 112.24 65.4626 112.24L65.1188 112.142L64.333 111.945ZM72.6818 110.276C71.6996 110.718 70.7174 111.111 69.7843 111.356C69.3914 111.454 69.0476 111.503 68.7039 111.602C69.5388 111.847 70.4719 112.191 71.2576 112.633C71.6505 112.829 72.0434 113.075 72.3872 113.321C72.1907 112.338 72.1907 111.258 72.6818 110.276Z" fill="#54BAF9"/>
<path d="M66.3476 109.539L65.8564 108.312C65.8564 108.312 67.7227 108.115 69.3433 107.329C71.1113 106.494 72.0444 105.758 72.0444 105.758L73.8124 106.544C73.7633 106.593 72.732 107.329 70.8166 108.312C68.754 109.294 66.4458 109.539 66.3476 109.539Z" fill="#54BAF9"/>
<path d="M155.63 110.57C155.68 110.472 158.43 100.847 144.728 92.5959C131.026 84.3453 113.69 85.7204 113.543 85.7204L113.101 84.4926C113.837 84.4435 131.664 83.0193 146.25 91.761C160.836 100.552 157.939 110.472 157.791 110.865L155.63 110.57Z" fill="#54BAF9"/>
<path d="M142.961 85.18L143.992 84.0996C144.14 84.1487 148.068 85.5238 151.948 87.7338C155.828 89.9929 158.087 92.2029 158.185 92.3011L156.319 92.8904C156.319 92.8904 154.109 90.7296 150.475 88.6178C146.792 86.506 143.01 85.18 142.961 85.18Z" fill="#54BAF9"/>
<path d="M124.984 113.566L113.099 120.442C108.483 123.143 100.724 122.995 95.8125 120.196C90.9014 117.397 90.705 112.879 95.3214 110.227L108.581 102.565C113.198 99.8642 120.957 100.012 125.868 102.811C130.583 105.512 130.927 109.785 126.85 112.486L128.422 113.419C133.333 110.227 132.94 105.217 127.391 101.976C121.645 98.6365 112.51 98.4891 107.01 101.681L93.7498 109.343C88.2985 112.486 88.5441 117.79 94.3392 121.08C100.085 124.42 109.22 124.567 114.72 121.375L126.605 114.499L124.984 113.566Z" fill="#54BAF9"/>
<path d="M86.2367 120.442C82.0623 115.924 83.0445 110.325 89.3307 106.691L102.787 98.9312C110.596 94.413 123.659 94.6095 131.861 99.3732C135.298 101.338 137.312 103.793 137.999 106.298H140.209C139.473 103.449 137.214 100.699 133.383 98.4892C124.248 93.2344 109.81 93.0379 101.215 97.9981L87.7591 105.758C80.6381 109.883 79.705 116.267 84.6652 121.326L86.2367 120.442Z" fill="#54BAF9"/>
<path d="M140.456 107.869H138.295C138.442 110.914 136.576 113.91 132.696 116.169L119.24 123.929C111.431 128.447 98.3677 128.25 90.1662 123.487C89.2822 122.996 88.4964 122.406 87.8089 121.866L86.2373 122.701C86.974 123.29 87.7597 123.83 88.6928 124.371C97.8274 129.625 112.266 129.822 120.86 124.862L134.317 117.102C138.54 114.598 140.603 111.258 140.456 107.869Z" fill="#54BAF9"/>
<path d="M91.2444 102.271L100.232 97.0648C106.371 93.5288 115.26 92.3993 123.412 93.7253L123.952 92.4975C115.063 91.0733 105.388 92.252 98.6601 96.1317L89.6729 101.337L91.2444 102.271Z" fill="#54BAF9"/>
<path d="M136.428 96.7211C133.53 95.0514 130.142 93.8236 126.556 93.0378L126.016 94.2656C129.258 95.0023 132.302 96.1318 134.905 97.6543C144.727 103.302 145.169 112.289 135.888 117.691L121.547 125.991C116.341 128.987 109.171 130.264 102.148 129.773V131.05C109.761 131.541 117.471 130.166 123.07 126.924L137.41 118.625C147.576 112.682 147.134 102.909 136.428 96.7211Z" fill="#54BAF9"/>
<path d="M99.4484 129.429C94.8811 128.84 90.4611 127.465 86.876 125.402C77.0539 119.754 76.6119 110.767 85.8938 105.365L89.3807 103.351L87.8091 102.418L84.3223 104.432C74.2054 110.276 74.6474 120.098 85.3536 126.237C89.3807 128.594 94.3408 130.068 99.4484 130.706V129.429Z" fill="#54BAF9"/>
<path d="M75.187 132.621C75.0397 132.523 74.8924 132.474 74.6959 132.376C70.0795 129.92 66.6909 126.237 64.4318 123.781C63.3514 122.603 62.5656 121.768 61.9271 121.326C59.9627 120 57.4581 119.509 57.3598 119.509L56.7705 120.687C56.7705 120.687 58.784 121.129 60.3065 122.111C60.7485 122.406 61.5834 123.29 62.5165 124.321C64.7264 126.728 68.0169 130.264 72.486 132.867C72.7315 133.014 72.9771 133.161 73.2717 133.309C73.4191 133.358 73.5173 133.407 73.6155 133.505L75.187 132.621Z" fill="#54BAF9"/>
<path d="M92.0804 139.005C91.0982 138.563 89.9196 138.269 88.5936 137.876C85.8925 137.139 82.3565 136.157 77.2981 133.652L75.7266 134.487C81.1779 137.139 85.0576 138.22 87.7587 138.956C89.0356 139.3 90.0669 139.595 90.8527 139.939C92.8662 140.823 93.8484 142.05 93.8975 142.05L95.862 141.559C95.8129 141.608 94.5851 140.086 92.0804 139.005Z" fill="#54BAF9"/>
<path d="M70.1294 119.607C69.5892 119.115 68.9999 118.673 68.3615 118.281C63.5977 115.53 59.9635 114.745 59.8162 114.745L59.1777 115.923C59.2268 115.923 62.5173 116.66 66.8881 119.165C67.3301 119.41 67.7721 119.754 68.2141 120.147L70.1294 119.607Z" fill="#54BAF9"/>
<path d="M100.283 136.746C97.3364 134.978 94.3898 134.144 91.3449 133.309C88.2509 132.425 85.0588 131.541 81.3754 129.478C77.2501 127.121 74.8437 124.567 72.7811 122.357C72.3391 121.915 71.9462 121.473 71.5533 121.031L69.5889 121.522C69.9818 121.964 70.4237 122.406 70.8657 122.848C72.8793 125.009 75.3348 127.71 79.6075 130.166C79.7057 130.215 79.8039 130.264 79.9021 130.313C83.831 132.523 87.367 133.505 90.4609 134.389C93.3585 135.175 96.0596 135.961 98.7607 137.581C101.02 138.956 102.69 141.166 102.69 141.166L104.703 140.724C104.605 140.675 102.837 138.318 100.283 136.746Z" fill="#54BAF9"/>
<path d="M147.232 88.7653C138.883 84.3453 130.534 83.3631 130.19 83.314L129.896 84.5417C129.994 84.5417 137.851 85.4748 145.709 89.6001L147.232 88.7653Z" fill="#54BAF9"/>
<path d="M149.245 89.895L147.723 90.7299C155.777 95.5428 157.889 100.208 157.889 100.257L160 100.012C159.902 99.8154 157.79 95.0025 149.245 89.895Z" fill="#54BAF9"/>
<path d="M93.8957 93.382C94.043 93.2838 94.1904 93.2347 94.3377 93.1855L92.7661 92.2524C92.6188 92.3507 92.4715 92.3998 92.3241 92.4489L73.1218 103.548C72.8763 103.695 72.729 103.793 72.4834 103.941L74.0549 104.874C74.2514 104.727 74.4478 104.579 74.6934 104.481L93.8957 93.382Z" fill="#54BAF9"/>
<path d="M148.606 115.924C147.084 117.888 145.021 119.656 142.32 121.277L134.266 125.942L135.837 126.875L143.891 122.21C146.74 120.54 148.95 118.674 150.521 116.611L148.606 115.924Z" fill="#54BAF9"/>
<path d="M147.475 96.7704C146.051 95.5426 144.431 94.3148 142.515 93.2344C129.108 85.524 108.334 84.7873 94.7305 91.2208L96.302 92.1539C109.071 86.1624 128.47 86.8991 141.042 94.1184C142.81 95.1497 144.332 96.2301 145.658 97.4088L147.475 96.7704Z" fill="#54BAF9"/>
<path d="M151.552 115.187C154.941 109.735 154.057 103.498 148.9 98.1453L147.083 98.7837C151.798 103.695 152.633 109.49 149.588 114.499L151.552 115.187Z" fill="#54BAF9"/>
<path d="M132.351 127.023L123.069 132.376C122.824 132.523 122.627 132.621 122.382 132.72L123.953 133.653C124.199 133.505 124.444 133.407 124.641 133.309L133.923 127.956L132.351 127.023Z" fill="#54BAF9"/>
<path d="M121.155 105.561C118.749 104.186 114.918 104.137 112.659 105.414L102.346 111.356L103.328 111.897L103.917 112.24L114.231 106.298C115.704 105.463 118.11 105.512 119.633 106.396C121.155 107.28 121.253 108.655 119.78 109.539L107.306 116.758C105.833 117.593 103.426 117.544 101.904 116.66C100.381 115.776 100.283 114.401 101.756 113.517L102.1 113.321L101.805 113.124L100.529 112.388L100.185 112.584C97.9257 113.91 98.024 116.12 100.43 117.495C102.837 118.87 106.667 118.919 108.927 117.642L121.45 110.423C123.66 109.146 123.562 106.936 121.155 105.561Z" fill="#54BAF9"/>
<path d="M116.579 171.557V184.988L126.029 183.324L132.388 181.125L206.025 138.988L209.234 136.492L212.087 133.342L213.87 130.192L214.999 126.21L214.405 115.809L212.384 119.672L209.591 122.882L205.906 125.794L136.311 165.851L131.853 168.05L126.445 169.952L121.571 171.022L116.579 171.557Z" fill="#0F0225"/>
<path d="M111.41 171.854V185.167L107.071 184.87L103.98 184.454V171.081L108.497 171.735L111.41 171.854Z" fill="#0F0225"/>
<path d="M7.73242 14.2159L13.8595 10.5165C14.6688 10.0541 15.5936 10.1697 16.6341 10.7477L36.6338 22.3083C39.0615 23.6956 41.0268 27.3949 41.0268 30.6319V52.2501C41.0268 53.9842 40.4488 55.1402 39.6395 55.7183C39.5239 55.7183 33.3968 59.5332 33.3968 59.5332L33.5124 56.2963L34.0905 54.0998L16.5184 43.9265C14.0907 42.5392 12.1254 38.8399 12.1254 35.6029V18.1465L10.0445 19.3025L7.73242 14.2159Z" fill="#54BAF9"/>
<path d="M33.5142 59.7645H33.3986C33.283 59.7645 33.2829 59.6489 33.2829 59.5333L33.3986 56.2963L33.9766 54.2154L16.6358 44.1577C14.2081 42.7705 12.1271 38.9555 12.1271 35.6029V18.6089L10.3931 19.6494C10.3931 19.6494 10.2775 19.6494 10.1619 19.6494C10.0463 19.6494 10.0462 19.5338 10.0462 19.5338L7.50293 14.3315C7.50293 14.2159 7.50294 14.1003 7.61854 13.9847L13.7456 10.2853C14.6705 9.82291 15.7109 9.93853 16.7514 10.5166L36.7511 22.0771C39.1788 23.4644 41.2597 27.2793 41.2597 30.6319V52.2501C41.2597 53.9842 40.6817 55.2559 39.7569 55.9495C39.6413 55.9495 34.5546 59.0708 33.5142 59.7645C33.6298 59.7645 33.6298 59.7645 33.5142 59.7645ZM12.3584 18.0309H12.474C12.5896 18.0309 12.5896 18.1465 12.5896 18.2621V35.7185C12.5896 38.8399 14.4393 42.5392 16.867 43.8109L34.439 53.9842C34.5546 53.9842 34.5546 54.0998 34.5546 54.2154L33.9766 56.4119L33.861 59.1864C36.0575 57.9148 39.6412 55.7183 39.6412 55.6027C40.4505 55.0247 40.9129 53.8686 40.9129 52.3657V30.7475C40.9129 27.6262 39.0632 23.9268 36.6355 22.6551L16.6358 11.0946C15.7109 10.5166 14.7861 10.4009 14.0924 10.8634L8.08096 14.4471L10.3931 19.187L12.3584 18.0309Z" fill="#150035"/>
<path d="M16.7497 10.7479L18.8306 11.904L9.4665 17.7998L7.73242 14.2161L13.8595 10.5167C14.6688 10.1699 15.7092 10.1699 16.7497 10.7479Z" fill="#150035"/>
<path d="M9.46822 18.0309C9.35261 18.0309 9.23701 17.9153 9.23701 17.9153L7.50293 14.3315C7.50293 14.2159 7.50294 14.1003 7.61854 13.9847L13.7456 10.2853C14.6705 9.82291 15.7109 9.93853 16.7514 10.5166L18.8323 11.6726C18.9479 11.6726 18.9479 11.7882 18.9479 11.9038C18.9479 12.0194 18.9479 12.0194 18.8323 12.135L9.46822 18.0309C9.58382 18.0309 9.58382 18.0309 9.46822 18.0309ZM8.08096 14.3315L9.58383 17.4529L18.3699 11.9038L16.6358 10.8634C15.7109 10.2853 14.7861 10.1697 14.0924 10.6321L8.08096 14.3315Z" fill="#150035"/>
<path d="M34.5526 34.447L32.4717 56.99L33.5121 59.4177C33.5121 59.4177 39.6392 55.7184 39.7548 55.6028C40.5641 55.0247 41.1421 53.8687 41.1421 52.1346V30.5164L34.5526 34.447Z" fill="#150035"/>
<path d="M33.5129 59.7645C33.3973 59.7645 33.2817 59.6489 33.2817 59.6489L32.2412 57.2212V57.1056L34.3221 34.5625C34.3221 34.4469 34.3221 34.4469 34.4377 34.3313L41.1428 30.5164C41.2584 30.5164 41.2584 30.5164 41.374 30.5164C41.4896 30.5164 41.4896 30.632 41.4896 30.7476V52.3658C41.4896 54.0999 40.9116 55.3715 39.9868 56.0652C39.8712 56.0652 34.7845 59.1865 33.7441 59.8802C33.6285 59.7645 33.6285 59.7645 33.5129 59.7645ZM32.7036 56.99L33.6285 59.1865C35.825 57.9149 39.5243 55.6028 39.64 55.6028C40.4492 55.0247 40.9116 53.8687 40.9116 52.3658V31.21L34.6689 34.6782L32.7036 56.99Z" fill="#150035"/>
<path d="M16.7474 10.7478L36.7471 22.3083C37.9032 23.002 38.9436 24.158 39.6373 25.5453L33.5102 29.2447L9.34863 15.2564L16.7474 10.7478Z" fill="white"/>
<path d="M33.5119 29.3603H33.3963L9.23474 15.372C9.11913 15.372 9.11914 15.2564 9.11914 15.1408C9.11914 15.0252 9.11913 15.0252 9.23474 14.9096L16.5179 10.5166C16.6335 10.5166 16.6335 10.5166 16.7491 10.5166L36.7488 22.0771C37.9049 22.7708 38.9453 23.9268 39.7546 25.3141C39.8702 25.4297 39.7546 25.5453 39.639 25.6609L33.5119 29.3603C33.6275 29.3603 33.6275 29.3603 33.5119 29.3603ZM9.92838 15.2564L33.6275 28.8979L39.5234 25.4297C38.7141 24.158 37.7893 23.1176 36.8644 22.5396L16.9803 11.0946L9.92838 15.2564Z" fill="#150035"/>
<path d="M10.6225 47.7417L30.6222 59.3023C33.0499 60.6895 35.0152 59.1866 35.0152 55.9497V34.3315C35.0152 31.0945 33.0499 27.3951 30.6222 26.0079L10.6225 14.4473C8.19477 13.0601 6.22949 14.5629 6.22949 17.7999V39.4181C6.22949 42.5395 8.19477 46.3544 10.6225 47.7417Z" fill="#54BAF9"/>
<path d="M32.358 59.9956C31.78 59.9956 31.202 59.7644 30.5084 59.4176L10.5086 47.857C8.08091 46.4697 6 42.6548 6 39.3022V17.684C6 15.9499 6.57804 14.5627 7.61849 13.9846C8.42773 13.5222 9.58378 13.5222 10.7398 14.2158L30.7396 25.7764C33.1673 27.1637 35.2482 30.9786 35.2482 34.3312V55.9494C35.2482 57.6835 34.6702 59.0708 33.6297 59.6488C33.2829 59.88 32.8205 59.9956 32.358 59.9956ZM8.89014 14.2158C8.54332 14.2158 8.19651 14.3314 7.84969 14.447C6.92485 14.9095 6.46243 16.1811 6.46243 17.7996V39.4178C6.46243 42.5392 8.31212 46.2386 10.7398 47.5102L30.7396 59.0708C31.6644 59.6488 32.5893 59.7644 33.3985 59.302C34.3233 58.8395 34.7858 57.5679 34.7858 55.9494V34.3312C34.7858 31.2098 32.9361 27.5105 30.5084 26.2388L10.5086 14.6783C9.9306 14.3314 9.35256 14.2158 8.89014 14.2158Z" fill="#150035"/>
<path d="M33.7439 56.5278C33.6283 56.5278 33.6283 56.5278 33.5127 56.4122C33.3971 56.2966 33.5127 56.181 33.6283 56.0654L41.6051 51.4412C41.7207 51.3256 41.8363 51.4412 41.9519 51.5568C42.0675 51.6724 41.9519 51.788 41.8363 51.9036L33.8595 56.5278C33.7439 56.5278 33.7439 56.5278 33.7439 56.5278Z" fill="#54BAF9"/>
<path d="M26.3419 36.9899C26.3419 35.2558 25.7639 33.2905 24.6078 31.4408C23.5674 29.5911 22.0645 28.2039 20.5616 27.3946C17.6715 25.8918 15.3594 27.279 15.3594 30.516C15.3594 33.2905 16.8622 36.7587 19.1744 38.9552V44.3886C19.1744 45.4291 19.868 46.5852 20.7928 47.1632L22.8737 48.3192C23.7986 48.7817 24.4922 48.4348 24.4922 47.3944C24.4922 46.3539 23.7986 45.0823 22.8737 44.6199L22.4113 44.3886V43.0014L23.9142 43.8106C24.1454 43.9262 24.3766 43.8106 24.3766 43.5794C24.3766 43.3482 24.1454 43.0014 23.9142 42.7702L22.4113 41.9609V40.8049C24.7234 41.2673 26.3419 39.7644 26.3419 36.9899ZM22.8737 45.5447C23.3362 45.7759 23.5674 46.3539 23.5674 46.8164C23.5674 47.2788 23.2205 47.51 22.8737 47.2788L20.7928 46.1227C20.446 45.8915 20.0992 45.3135 20.0992 44.8511V39.0708C20.0992 38.8396 19.9836 38.6084 19.7524 38.3772C17.6715 36.6431 16.1686 33.5217 16.1686 31.094C16.1686 28.3195 18.2495 27.1634 20.5616 28.4351C20.6772 28.4351 20.6772 28.5507 20.7928 28.5507C21.9489 29.2443 23.1049 30.4004 24.0298 31.9033C24.9546 33.4061 25.417 35.1402 25.417 36.5275C25.417 38.9552 23.9142 40.2269 21.8333 39.6488C21.6021 39.5332 21.4865 39.7644 21.4865 39.9956V42.0765V44.3886C21.4865 44.6199 21.7177 44.9667 21.9489 45.1979L22.8737 45.5447Z" fill="white"/>
<path d="M23.2207 35.2563C23.2207 33.7534 22.1802 31.9037 20.7929 31.0945C19.5213 30.2852 18.3652 30.9789 18.3652 32.4818C18.3652 33.9846 19.4057 35.8343 20.7929 36.6435C22.1802 37.4528 23.2207 36.8748 23.2207 35.2563ZM20.7929 35.7187C19.9837 35.2563 19.2901 34.1002 19.2901 33.0598C19.2901 32.0193 19.9837 31.6725 20.7929 32.1349C21.6022 32.5974 22.2958 33.7534 22.2958 34.7939C22.2958 35.8343 21.7178 36.1811 20.7929 35.7187Z" fill="white"/>
<path d="M165.511 10.1092L174.389 4.74843C175.562 4.07834 176.902 4.24587 178.41 5.08349L207.391 21.8357C210.909 23.846 213.757 29.2067 213.757 33.8973V65.224C213.757 67.7368 212.92 69.412 211.747 70.2497C211.579 70.2497 202.701 75.7779 202.701 75.7779L202.868 71.0873L203.706 67.9043L178.242 53.1624C174.724 51.1521 171.877 45.7914 171.877 41.1008V15.9724L168.861 17.6477L165.511 10.1092Z" fill="#54BAF9"/>
<path d="M202.87 76.113H202.703C202.535 76.113 202.535 75.9455 202.535 75.778L202.703 71.0873L203.54 68.0719L178.412 53.4975C174.894 51.4872 171.879 45.959 171.879 41.1009V16.4751L169.366 17.9828C169.366 17.9828 169.198 17.9828 169.031 17.9828C168.863 17.9828 168.863 17.8153 168.863 17.8153L165.178 10.2768C165.178 10.1092 165.178 9.94171 165.345 9.77419L174.224 4.41348C175.564 3.74339 177.072 3.9109 178.58 4.74852L207.561 21.5007C211.079 23.511 214.094 29.0392 214.094 33.8974V65.2241C214.094 67.7369 213.257 69.5796 211.916 70.5848C211.749 70.5848 203.875 75.4429 202.87 76.113C202.87 76.113 203.038 76.113 202.87 76.113ZM172.214 15.6375H172.381C172.549 15.6375 172.549 15.805 172.549 15.9725V41.2684C172.549 45.7915 175.229 51.1522 178.747 52.9949L204.21 67.7369C204.378 67.7369 204.378 67.9044 204.378 68.0719L203.54 71.2549L203.373 75.2754C206.556 73.4327 211.749 70.2497 211.749 70.0822C212.922 69.2446 213.592 67.5694 213.592 65.3916V34.0649C213.592 29.5418 210.911 24.1811 207.393 22.3384L178.412 5.58613C177.072 4.74852 175.732 4.581 174.727 5.25109L166.015 10.4443L169.366 17.3127L172.214 15.6375C172.046 15.6375 172.214 15.6375 172.214 15.6375Z" fill="#150035"/>
<path d="M178.577 5.08404L181.593 6.75926L168.024 15.3029L165.511 10.1097L174.389 4.74898C175.562 4.24642 177.07 4.24642 178.577 5.08404Z" fill="#150035"/>
<path d="M168.026 15.805C168.026 15.805 168.026 15.6375 168.026 15.805C167.858 15.805 167.691 15.6375 167.691 15.6375L165.178 10.4443C165.178 10.2768 165.178 10.1092 165.345 9.94172L174.224 4.41348C175.564 3.74339 177.072 3.9109 178.58 4.74852L181.595 6.42374C181.762 6.42374 181.762 6.59127 181.762 6.75879C181.762 6.92631 181.762 6.92631 181.595 7.09383L168.026 15.6375C168.193 15.6375 168.026 15.805 168.026 15.805ZM166.015 10.2768L168.193 14.7999L180.925 6.75879L178.412 5.25109C177.072 4.41348 175.732 4.24596 174.727 4.91605L166.015 10.2768Z" fill="#150035"/>
<path d="M204.209 39.4259L201.193 72.0928L202.701 75.6107C202.701 75.6107 211.58 70.25 211.747 70.0825C212.92 69.2449 213.758 67.5696 213.758 65.0568V34.0652L204.209 39.4259Z" fill="#150035"/>
<path d="M202.869 76.1131C202.702 76.1131 202.534 75.9456 202.534 75.9456L201.026 72.4276V72.2601L204.042 39.5933C204.042 39.4257 204.042 39.4257 204.209 39.2582L213.926 33.73C214.093 33.73 214.093 33.73 214.261 33.73C214.428 33.73 214.428 33.8975 214.428 34.065V65.3917C214.428 67.9045 213.591 69.7473 212.25 70.7524C212.083 70.7524 204.209 75.6106 203.204 76.2806C203.037 76.1131 202.869 76.1131 202.869 76.1131ZM201.696 72.0926L203.037 75.2755C206.22 73.4328 211.58 70.0823 211.748 70.0823C212.92 69.2447 213.591 67.5695 213.591 65.3917V34.5676L204.544 39.5933L201.696 72.0926Z" fill="#150035"/>
<path d="M178.577 5.08325L207.558 21.8355C209.233 22.8406 210.741 24.5158 211.746 26.5261L202.868 31.8868L167.855 11.6166L178.577 5.08325Z" fill="white"/>
<path d="M202.87 32.0544H202.702L167.69 11.7842C167.522 11.7842 167.522 11.6167 167.522 11.4492C167.522 11.2817 167.522 11.2817 167.69 11.1141L178.244 4.74829C178.411 4.74829 178.411 4.74829 178.579 4.74829L207.56 21.5005C209.236 22.5057 210.743 24.1809 211.916 26.1912C212.083 26.3587 211.916 26.5262 211.748 26.6937L202.87 32.0544C203.037 32.0544 202.87 32.0544 202.87 32.0544ZM168.528 11.6167L202.87 31.3843L211.413 26.3587C210.241 24.5159 208.9 23.0082 207.56 22.1706L178.579 5.5859L168.528 11.6167Z" fill="#150035"/>
<path d="M169.699 58.6911L198.68 75.4434C202.198 77.4536 205.046 75.2758 205.046 70.5852V39.2586C205.046 34.5679 202.198 29.2072 198.68 27.1969L169.699 10.6122C166.181 8.60196 163.333 10.7798 163.333 15.4704V46.7971C163.333 51.1526 166.181 56.6809 169.699 58.6911Z" fill="#54BAF9"/>
<path d="M201.195 76.4482C200.357 76.4482 199.52 76.1132 198.515 75.6106L169.533 58.8584C165.848 56.8481 163 51.3199 163 46.6292V15.3026C163 12.7897 163.838 10.7795 165.345 9.94187C166.685 9.27178 168.193 9.27177 169.868 10.2769L198.85 27.0291C202.368 29.0394 205.383 34.5676 205.383 39.4258V70.7525C205.383 73.2653 204.546 75.2756 203.038 76.1132C202.535 76.2807 201.865 76.4482 201.195 76.4482ZM169.868 58.3558L198.85 75.108C200.19 75.9456 201.53 76.1132 202.703 75.4431C204.043 74.773 204.713 72.9302 204.713 70.5849V39.2583C204.713 34.7352 202.033 29.3745 198.515 27.5317L169.533 10.7795C168.193 9.94187 166.853 9.77434 165.68 10.4444C164.34 11.1145 163.67 12.9573 163.67 15.3026V46.6292C163.67 51.1523 166.518 56.3455 169.868 58.3558Z" fill="#150035"/>
<path d="M203.036 71.4226C202.869 71.4226 202.869 71.4226 202.701 71.255C202.534 71.0875 202.701 70.92 202.869 70.7525L214.428 64.0516C214.595 63.884 214.763 64.0516 214.93 64.2191C215.098 64.3866 214.93 64.5541 214.763 64.7217L203.204 71.4226C203.204 71.4226 203.204 71.4226 203.036 71.4226Z" fill="#54BAF9"/>
<path d="M192.987 40.2635C192.987 39.9285 192.82 39.7609 192.652 39.4259L184.779 31.3848C184.779 31.3848 184.779 31.3848 184.611 31.2173C184.611 31.2173 184.611 31.2173 184.444 31.2173C184.444 31.2173 184.444 31.2173 184.276 31.2173L176.403 30.2122C176.235 30.2122 176.067 30.3797 176.067 30.5472C176.067 30.7147 174.057 43.4464 184.276 56.1781L184.444 56.3456H184.611C184.611 56.3456 184.611 56.3456 184.779 56.3456C195.165 55.508 192.987 40.431 192.987 40.2635ZM184.779 54.6704C183.271 47.1319 183.103 42.6088 183.103 42.6088C183.103 42.2738 182.768 41.7712 182.433 41.4361C182.098 41.2686 181.763 41.4362 181.763 41.7712C181.763 41.9387 181.763 46.1268 183.271 53.3302C176.067 43.1114 176.738 33.7301 176.905 31.7199L182.936 32.3899C182.433 33.3951 181.931 34.9028 181.763 37.2481C181.763 37.5831 181.931 38.0857 182.266 38.4208C182.601 38.5883 182.936 38.4207 182.936 38.0857C183.271 35.0703 183.941 33.3951 184.444 32.725L191.48 40.096C191.982 42.6088 192.652 53.4978 184.779 54.6704Z" fill="white"/>
<path d="M42.9268 4.64985L47.9395 1.67932C48.3108 1.49367 48.6822 1.49367 49.0535 1.86498L56.8511 6.32077C57.7794 6.87774 58.522 8.36301 58.522 9.66261V18.0172C58.522 18.7598 58.3364 19.1312 57.9651 19.3168L52.9523 22.2873V20.9877L53.1379 20.0595L46.2686 16.1606C45.3403 15.6037 44.5977 14.1184 44.5977 12.8188V5.94945L43.855 6.50643L42.9268 4.64985Z" fill="#54BAF9"/>
<path d="M52.9545 22.6586H52.7688C52.5831 22.6586 52.5831 22.473 52.5831 22.2873V20.9877L52.7688 20.4307L46.0851 16.5319C44.9712 15.975 44.2285 14.304 44.2285 13.0044V6.87772L44.0429 7.06338C44.0429 7.06338 43.8572 7.06338 43.6716 7.06338C43.4859 7.06338 43.4859 6.87772 43.4859 6.87772L42.5576 4.83548C42.5576 4.64983 42.5576 4.46417 42.7433 4.27851L47.756 1.30799C48.1274 1.12233 48.6843 1.12233 49.2413 1.49364L57.0389 5.94943C58.1529 6.50641 58.8955 8.17733 58.8955 9.47693V17.8315C58.8955 18.5742 58.7099 19.1311 58.1529 19.5025C58.1529 19.5025 56.482 20.4307 53.1401 22.473C53.1401 22.6586 52.9545 22.6586 52.9545 22.6586ZM44.7855 5.76377H44.9712C45.1568 5.76377 45.1568 5.94943 45.1568 6.13509V13.0044C45.1568 14.1184 45.8995 15.418 46.6421 15.975L53.5114 19.8738C53.6971 19.8738 53.6971 20.0594 53.6971 20.2451L53.3258 21.1734V21.7303C54.6254 20.9877 57.7816 19.1311 57.7816 19.1311C57.9672 18.9455 58.1529 18.5742 58.1529 18.0172V9.66259C58.1529 8.54864 57.4102 7.24904 56.6676 6.69206L48.87 2.23627C48.6843 2.05062 48.313 2.05062 48.1274 2.05062L43.4859 4.64983L44.2285 5.94943L44.7855 5.76377C44.5998 5.76377 44.5998 5.76377 44.7855 5.76377Z" fill="#0F0225"/>
<path d="M49.0565 1.67907L49.7991 2.23604L43.4868 5.9492L42.7441 4.46393L47.7569 1.49341C48.3139 1.49341 48.6852 1.49341 49.0565 1.67907Z" fill="#0F0225"/>
<path d="M43.6716 6.32037C43.4859 6.32037 43.4859 6.32037 43.6716 6.32037C43.4859 6.32037 43.3003 6.13471 43.3003 6.13471L42.5576 4.64945C42.5576 4.46379 42.5576 4.27813 42.7433 4.09248L47.756 1.12195C48.1274 0.936292 48.6843 0.936293 49.2413 1.30761L49.9839 1.86458C50.1696 1.86458 50.1696 2.05024 50.1696 2.2359C50.1696 2.42156 50.1696 2.42156 49.9839 2.60721L43.6716 6.32037ZM43.4859 4.64945L43.8572 5.39208L49.2413 2.2359L49.0556 2.05024C48.87 1.86458 48.4987 1.86458 48.313 1.86458L43.4859 4.64945Z" fill="#0F0225"/>
<path d="M53.3237 13.5613L52.5811 21.359L52.9524 22.2873L57.9651 19.3167C58.3365 19.1311 58.5221 18.5741 58.5221 18.0171V10.5908L53.3237 13.5613Z" fill="#0F0225"/>
<path d="M52.9545 22.6586C52.7689 22.6586 52.5832 22.4729 52.5832 22.4729L52.2119 21.5446V21.359L52.9545 13.5613C52.9545 13.3757 52.9545 13.3757 53.1402 13.19L58.3386 10.2195C58.5243 10.2195 58.5243 10.2195 58.7099 10.2195C58.8956 10.2195 58.8956 10.4051 58.8956 10.5908V18.0171C58.8956 18.7597 58.7099 19.3167 58.153 19.688C58.153 19.688 56.482 20.6163 53.1402 22.6586H52.9545ZM52.9545 21.1733L53.1402 21.7303C54.2542 20.9876 57.7817 18.9454 57.7817 18.9454C57.9673 18.7597 58.153 18.3884 58.153 17.8315V10.9621L53.6972 13.747L52.9545 21.1733Z" fill="#0F0225"/>
<path d="M49.057 1.6792L56.8547 6.13499C57.226 6.32065 57.783 6.87762 57.9686 7.43459L52.9559 10.4051L43.4873 5.02104L49.057 1.6792Z" fill="#E6DEF8"/>
<path d="M52.9561 10.7761H52.7704L43.3019 5.39198C43.1162 5.39198 43.1162 5.20632 43.1162 5.02066C43.1162 4.83501 43.1162 4.83501 43.3019 4.64935L48.8716 1.49316C49.0573 1.49316 49.0573 1.49316 49.2429 1.49316L57.0406 5.94895C57.5975 6.13461 57.9688 6.69159 58.3402 7.24856C58.5258 7.43422 58.3402 7.61988 58.1545 7.80553L53.1417 10.7761H52.9561ZM44.2302 5.02066L52.9561 10.0334L57.4119 7.43422C57.2262 7.0629 56.8549 6.87724 56.6692 6.69159L49.0573 2.2358L44.2302 5.02066Z" fill="#0F0225"/>
<path d="M44.0401 17.6447L51.8377 22.1005C52.766 22.6575 53.5086 22.1005 53.5086 20.8009V12.4463C53.5086 11.1467 52.766 9.66142 51.8377 9.10444L44.0401 4.64866C43.1118 4.09168 42.3691 4.64866 42.3691 5.94826V14.3029C42.3691 15.6025 43.1118 17.0877 44.0401 17.6447Z" fill="#54BAF9"/>
<path d="M52.5825 22.844C52.3968 22.844 52.0255 22.844 51.6542 22.6583L43.8566 18.2025C42.7426 17.6455 42 15.9746 42 14.675V6.32042C42 5.57779 42.3713 4.83516 42.7426 4.6495C43.114 4.46384 43.6709 4.46384 44.2279 4.6495L52.0255 9.10529C53.1395 9.66226 53.8821 11.3332 53.8821 12.6328V20.9874C53.8821 21.73 53.5108 22.4726 53.1395 22.6583C52.9538 22.6583 52.7682 22.844 52.5825 22.844ZM43.2996 4.83515H43.114C42.9283 5.02081 42.7426 5.39213 42.7426 5.9491V14.3037C42.7426 15.4177 43.4853 16.7173 44.2279 17.2742L52.0255 21.73C52.2112 21.9157 52.5825 21.9157 52.7682 21.73C52.9538 21.5444 53.1395 21.173 53.1395 20.6161V12.2615C53.1395 11.1475 52.3968 9.84792 51.6542 9.29094L43.8566 4.83515C43.6709 5.02081 43.4853 4.83515 43.2996 4.83515Z" fill="#0F0225"/>
</svg>
