<svg width="221" height="236" viewBox="0 0 221 236" fill="none" xmlns="http://www.w3.org/2000/svg">
<path opacity="0.53" d="M49.8489 218.432C61.9713 225.43 77.4162 230.197 94.2304 232.128C111.045 234.059 128.473 233.068 144.312 229.28C160.15 225.492 173.688 219.078 183.213 210.848C192.737 202.618 197.821 192.943 197.821 183.045C197.821 173.147 192.737 163.471 183.213 155.241C173.688 147.012 160.15 140.597 144.312 136.809C128.473 133.022 111.045 132.031 94.2304 133.962C77.4162 135.893 61.9713 140.659 49.8489 147.658C33.5932 157.043 24.4609 169.772 24.4609 183.045C24.4609 196.317 33.5933 209.046 49.8489 218.432Z" fill="#3C089F"/>
<path d="M32.1328 47.5633L37.4176 104.941M37.4176 104.941L107.253 25.2915L150.287 21.1392L189.14 99.5M37.4176 104.941L65.7292 155.902M189.14 99.5L138.5 185.5M189.14 99.5L181.64 155.902" stroke="#E6DEF8"/>
<path d="M50.9355 7.35881V7.13113L61.1814 0.983597C61.6368 0.528224 62.3199 0.755916 63.2306 1.21129L67.1013 4.39889C67.329 4.62658 85.7716 19.6539 106.036 16.0109C106.491 16.0109 106.946 16.0109 107.402 16.0109C109.451 16.2386 111.728 17.6047 113.777 19.6539C114.232 20.1093 114.688 20.7923 115.143 21.2477C134.724 47.6593 153.167 54.2622 154.078 54.4899L157.948 55.6283C159.314 56.0837 160.453 57.9052 160.453 59.2713V63.5974C159.542 120.519 143.604 142.832 130.398 151.484L118.103 158.998L117.192 156.493C114.688 156.949 113.094 156.721 112.866 156.721C111.728 156.721 110.134 155.81 108.996 154.444C107.402 152.623 70.972 113.005 63.0029 32.632L57.5385 20.5646L50.9355 7.35881Z" fill="#0F0225"/>
<path d="M117.647 159.68C117.42 159.68 117.192 159.452 117.192 159.452L116.509 157.403C114.232 157.631 112.638 157.631 112.411 157.631C111.044 157.403 109.451 156.72 108.312 155.354C106.718 153.76 70.0609 113.915 62.0919 33.3142L56.6274 21.2468L50.7076 7.81336C50.4799 7.58567 50.7076 7.1303 50.9353 6.90261L61.1812 0.755076C61.8642 0.299703 62.775 0.299705 63.6857 1.21045L67.5564 4.39806C68.2394 5.08111 86.2267 19.653 106.035 16.0101C106.491 16.0101 106.946 16.0101 107.402 16.0101C109.451 16.2378 111.955 17.6039 114.004 19.8807C114.46 20.3361 114.915 21.0192 115.371 21.4745C134.724 47.8862 153.166 54.2614 154.077 54.4891L157.948 55.6275C159.542 56.0829 160.68 58.132 160.68 59.7258V64.0519C159.769 121.201 143.831 143.514 130.626 152.167L118.33 159.68C117.875 159.68 117.875 159.68 117.647 159.68ZM116.964 156.265C117.192 156.265 117.42 156.493 117.42 156.493L118.103 158.314L129.942 151.028C142.921 142.604 158.859 120.518 159.769 63.5965V59.2705C159.769 57.9044 158.631 56.3106 157.72 56.0829L153.85 54.9444C153.166 54.7168 134.268 48.1139 114.687 21.4745C114.232 20.7915 113.777 20.3361 113.321 19.8807C111.5 17.8316 109.223 16.4654 107.402 16.4654C106.946 16.4654 106.718 16.4654 106.263 16.4654C85.999 20.1084 67.7841 5.30881 67.101 4.62575L63.2304 1.43813C62.5473 0.982761 62.0919 0.755073 61.8642 0.982759L51.846 7.13029L57.7659 20.3361L63.2304 32.4035C63.2304 32.4035 63.2304 32.4035 63.2304 32.6312C71.1994 112.777 107.629 152.394 109.223 153.988C110.361 155.354 111.728 156.037 112.866 156.037C112.866 156.493 114.46 156.493 116.964 156.265C116.737 156.265 116.737 156.265 116.964 156.265Z" fill="#0F0225"/>
<path d="M61.4085 0.981858C61.8639 0.526485 62.5469 0.754177 63.4577 1.20955L67.3284 4.39715C67.556 4.62484 85.9987 19.6522 106.263 16.0092C106.718 16.0092 107.174 16.0092 107.629 16.0092C109.678 16.2369 111.955 17.603 114.004 19.6521C114.459 20.1075 114.915 20.7906 115.37 21.2459C134.951 47.6576 153.394 54.2605 154.305 54.4882L158.175 55.6266C158.858 55.8543 159.541 56.5373 159.997 57.2204L129.487 74.5246L65.0515 47.4299C64.3684 42.6485 63.6854 37.8671 63.23 32.858L57.7655 20.7906L51.8457 7.35708V7.12939L61.4085 0.981858Z" fill="#E6DEF8"/>
<path d="M128.804 74.9803C128.804 74.9803 128.576 74.9803 128.804 74.9803L64.1411 47.8856C63.9134 47.8856 63.9134 47.6579 63.9134 47.4302C63.2303 42.6488 62.5473 37.8674 62.0919 32.8583L56.6274 20.7909L50.7076 7.35739C50.4799 7.1297 50.7076 6.67433 50.9353 6.44664L61.1812 0.299113C61.8642 -0.15626 62.775 -0.156258 63.6857 0.754488L67.5564 3.94209C68.2394 4.62515 86.2267 19.1971 106.035 15.5541C106.491 15.5541 106.946 15.5541 107.402 15.5541C109.451 15.7818 111.955 17.1479 114.004 19.4248C114.46 19.8801 114.915 20.5632 115.371 21.0186C134.724 47.4302 153.166 53.8054 154.077 54.0331L157.948 55.1715C158.631 55.3992 159.542 56.0823 159.997 56.993C159.997 56.993 159.997 57.2207 159.997 57.4484C159.997 57.6761 159.997 57.6761 159.769 57.6761L128.804 74.9803C129.032 74.9803 128.804 74.9803 128.804 74.9803ZM64.5964 47.2025L128.576 74.2972L158.631 57.2207C158.176 56.7653 157.72 56.31 157.265 56.31L153.394 55.1715C152.711 54.9438 133.813 48.3409 114.232 21.7016C113.777 21.0186 113.321 20.5632 112.866 20.1078C111.044 18.0586 108.768 16.6925 106.946 16.6925C106.491 16.6925 106.263 16.6925 105.808 16.6925C85.5436 20.3355 67.3287 5.5359 66.6456 4.85284L62.7749 1.66523C62.0919 1.20985 61.6365 0.982176 61.4089 1.20986L51.3906 7.35739L57.3105 20.5632L62.7749 32.6306C62.7749 32.6306 62.7749 32.6306 62.7749 32.8583C63.458 37.6397 63.9134 42.4211 64.5964 47.2025Z" fill="#0F0225"/>
<path d="M67.784 5.08088L63.2303 1.21022C62.3195 0.527158 61.6364 0.527153 61.1811 0.982526L50.9352 7.13006C50.9352 7.13006 50.7075 7.35774 50.9352 7.35774L54.5782 13.0499L67.784 5.08088Z" fill="#0F0225"/>
<path d="M54.5774 13.5053C54.3498 13.5053 54.3498 13.5053 54.1221 13.2776L50.4791 7.58542C50.2514 7.13004 50.4791 6.90237 50.7068 6.67469L60.9527 0.52714C61.6357 0.0717674 62.5464 0.0717692 63.4572 0.982515L68.0109 4.85319C68.2386 4.85319 68.2386 5.08087 68.2386 5.30856C68.2386 5.53625 68.2386 5.53625 68.0109 5.76394L54.8051 13.9606C54.8051 13.5053 54.5774 13.5053 54.5774 13.5053ZM51.6175 7.35773L54.8051 12.5945L67.1002 5.08087L63.0018 1.66557C62.3188 1.2102 61.8634 0.98252 61.6357 1.21021L51.6175 7.35773Z" fill="#0F0225"/>
<path d="M98.0669 161.046C96.2454 158.997 52.0743 110.955 50.4805 13.0495V8.49581C50.4805 6.902 51.6189 6.44662 52.985 7.58506L56.8557 10.7727C57.0834 11.0004 75.526 26.0277 95.7901 22.3847C96.2454 22.3847 96.7008 22.3847 97.1562 22.3847C99.2054 22.6124 101.482 23.9785 103.531 26.0277C103.987 26.483 104.442 27.1661 104.898 27.6215C124.479 54.0331 142.921 60.636 143.832 60.8637L147.703 62.0021C149.069 62.4575 150.207 64.279 150.207 65.6451V69.9711C148.613 166.055 104.442 163.323 102.621 163.095C100.799 163.095 99.2054 162.412 98.0669 161.046ZM137.229 69.7435C129.032 65.1897 115.599 55.6269 101.482 37.8674C100.571 36.5012 99.2054 35.8182 98.2946 36.0459C84.1781 37.6397 70.7445 31.7198 62.7755 26.9384C61.6371 26.2553 60.9541 26.9384 60.9541 28.0768C63.914 94.1059 87.138 132.813 97.1562 146.701C98.75 148.978 101.938 151.938 103.531 151.711C113.777 149.434 136.091 135.545 139.05 73.1588C139.278 71.7926 138.367 70.1988 137.229 69.7435Z" fill="#5600D6"/>
<path d="M103.075 163.778C102.392 163.778 101.937 163.778 101.937 163.778C100.571 163.55 98.9769 162.867 97.8384 161.501L98.0661 161.045L97.8384 161.273C96.0169 159.224 51.6181 110.954 50.252 13.0493V8.49555C50.252 7.58481 50.4797 6.90176 51.1627 6.67407C51.8458 6.44638 52.7565 6.67406 53.4396 7.12944L57.3102 10.3171C57.9933 11.0001 75.9805 25.572 95.7892 21.9291C96.2446 21.9291 96.7 21.9291 97.1554 21.9291C99.2045 22.1567 101.709 23.5229 103.758 25.7997C104.214 26.2551 104.669 26.9382 105.124 27.3935C124.478 53.8052 142.92 60.1804 143.831 60.4081L147.702 61.5465C149.068 62.0019 150.434 64.051 150.434 65.6448V69.9709C149.523 121.656 136.317 144.424 125.161 154.443C115.37 162.867 106.491 163.778 103.075 163.778ZM51.6181 7.5848H51.3904C51.1627 7.81249 50.935 8.04018 50.935 8.49555V13.0493C52.5288 110.727 96.4723 158.769 98.2938 160.818C99.4322 161.956 100.798 162.867 101.937 162.867C102.392 162.867 113.093 163.778 124.022 153.987C134.951 144.197 148.157 121.656 148.84 70.1986V65.8725C148.84 64.5064 147.702 62.9126 146.791 62.6849L142.92 61.5465C142.237 61.3188 123.339 54.7159 103.758 28.0766C103.303 27.3935 102.848 26.9382 102.392 26.4828C100.571 24.4336 98.2938 23.0675 96.4723 23.0675C96.0169 23.0675 95.7892 23.0675 95.3339 23.0675C75.0698 26.7105 56.8549 11.9109 56.1718 11.2278L52.3012 8.04019C52.3012 7.58481 51.8458 7.5848 51.6181 7.5848ZM103.303 151.938C101.026 151.938 97.8384 148.295 96.7 146.701C86.6818 133.04 63.2301 94.3333 60.2702 27.6212C60.2702 26.9382 60.4979 26.2551 60.9532 25.7997C61.4086 25.572 62.0916 25.572 62.7747 26.0274C71.1991 31.0365 84.1772 36.7287 98.0661 35.1349C99.2045 34.9072 100.571 35.8179 101.709 37.184C115.37 54.7159 128.576 64.2787 137.228 69.0601C138.367 69.7432 139.505 71.337 139.277 72.7031C136.09 139.188 111.044 149.889 103.531 151.483C103.531 151.938 103.531 151.938 103.303 151.938ZM61.864 26.9381H61.6363C61.4086 27.1658 61.4086 27.3935 61.4086 27.8489C64.3685 94.1056 87.8202 132.812 97.6107 146.246C99.4322 148.75 102.392 151.255 103.531 151.027C111.044 149.433 135.634 138.732 138.594 72.9308C138.594 71.7924 137.911 70.4263 137 69.9709C128.348 65.1895 114.915 55.6266 101.254 37.8671C100.343 36.7287 99.2046 36.0456 98.5215 36.2733C84.4049 37.8671 71.1991 32.1749 62.547 26.9381C62.3194 26.9381 62.0917 26.9381 61.864 26.9381Z" fill="#0F0225"/>
<path d="M62.7746 26.7099C70.9713 31.4913 84.1771 37.4111 98.2937 35.8173C99.2044 35.8173 100.571 36.5004 101.481 37.6388C115.37 55.6261 128.804 64.9612 137.228 69.5149C138.366 70.198 139.277 71.5641 139.05 72.9302C136.09 135.316 113.776 148.977 103.53 151.482C101.937 151.937 98.749 148.977 97.1552 146.473C86.9093 132.584 63.913 93.8774 60.9531 27.8483C60.7254 26.4822 61.6361 26.0268 62.7746 26.7099Z" fill="#5600D6"/>
<path d="M103.302 151.938C101.025 151.938 97.8378 148.295 96.6994 146.701C86.6812 133.04 63.2295 94.3336 60.2695 27.6214C60.2695 26.9384 60.4972 26.2553 60.9526 25.7999C61.408 25.5723 62.091 25.5723 62.7741 26.0276C71.1985 31.0367 84.1766 36.7289 98.0655 35.1351C99.2039 34.9074 100.57 35.8181 101.708 37.1843C115.37 54.7161 128.575 64.279 137.228 69.0604C138.366 69.7434 139.504 71.3372 139.277 72.7034C136.089 139.188 111.044 149.889 103.53 151.483C103.53 151.938 103.53 151.938 103.302 151.938ZM61.8633 26.9384H61.6356C61.4079 27.1661 61.408 27.3938 61.408 27.8491C64.3679 94.1059 87.8196 132.813 97.6101 146.246C99.4316 148.751 102.392 151.255 103.53 151.027C111.044 149.434 135.634 138.732 138.594 72.931C138.594 71.7926 137.911 70.4265 137 69.9711C128.348 65.1897 114.914 55.6269 101.253 37.8673C100.342 36.7289 99.2039 36.0458 98.5209 36.2735C84.4043 37.8673 71.1985 32.1752 62.5464 26.9384C62.3187 26.9384 62.091 26.9384 61.8633 26.9384Z" fill="#0F0225"/>
<path d="M62.7741 26.7099C64.3679 27.6206 65.9617 28.5314 67.7832 29.4421C71.1985 93.8774 93.9672 131.673 103.985 145.335C105.124 146.928 106.945 148.977 108.539 149.661C106.718 150.571 105.124 151.027 103.758 151.482C102.164 151.937 98.9763 148.977 97.3825 146.473C87.1366 132.584 64.1402 93.8774 61.1803 27.8483C60.7249 26.4822 61.6357 26.0268 62.7741 26.7099Z" fill="#0F0225"/>
<path d="M103.302 151.938C101.025 151.938 97.8378 148.295 96.6994 146.701C86.6812 133.04 63.2295 94.3336 60.2695 27.6214C60.2695 26.9384 60.4972 26.2553 60.9526 25.7999C61.408 25.5723 62.091 25.5723 62.7741 26.0276C64.3679 26.9384 65.9617 27.8491 67.7832 28.7599C68.0109 28.7599 68.0109 28.9876 68.0109 29.2152C71.4262 93.8782 94.4225 131.674 103.985 144.88C105.124 146.474 106.945 148.295 108.539 149.206C108.767 149.206 108.767 149.434 108.767 149.661C108.767 149.889 108.767 149.889 108.539 150.117C106.945 151.028 105.124 151.483 103.53 151.938C103.53 151.938 103.53 151.938 103.302 151.938ZM61.8633 26.9384H61.6356C61.4079 27.1661 61.408 27.3938 61.408 27.8491C64.3679 94.1059 87.8196 132.813 97.6101 146.246C99.4316 148.751 102.392 151.255 103.53 151.027C104.896 150.8 106.262 150.344 107.628 149.661C106.035 148.523 104.668 146.929 103.53 145.563C93.7394 132.357 70.9708 94.3336 67.3278 29.6706C65.734 28.7599 64.1402 28.0768 62.5464 26.9384C62.3187 26.9384 62.091 26.9384 61.8633 26.9384Z" fill="#0F0225"/>
<path d="M148.612 63.8239C148.385 63.8239 148.384 63.8239 148.157 63.5962C147.929 63.3685 148.157 63.1409 148.385 62.9132L159.086 56.7656C159.313 56.538 159.541 56.7656 159.769 56.9933C159.997 57.221 159.769 57.4487 159.541 57.6764L148.612 63.8239C148.84 63.8239 148.84 63.8239 148.612 63.8239Z" fill="#0F0225"/>
<path d="M142.011 60.6355C141.783 60.6355 141.783 60.6355 141.555 60.4078C141.328 60.1801 141.555 59.9524 141.783 59.7247L152.484 53.5772C152.712 53.3495 152.94 53.5772 153.167 53.8049C153.395 54.0326 153.167 54.2603 152.94 54.488L142.011 60.6355Z" fill="#0F0225"/>
<path d="M99.204 23.295C98.9763 23.295 98.9763 23.295 98.7486 23.0674C98.5209 22.8397 98.7486 22.612 98.9763 22.3843L109.678 16.2368C109.905 16.0091 110.133 16.2368 110.361 16.4645C110.588 16.6921 110.361 16.9198 110.133 17.1475L99.204 23.295C99.4317 23.295 99.4317 23.295 99.204 23.295Z" fill="#0F0225"/>
<path d="M59.5868 43.7871C59.3591 43.7871 59.3591 43.7871 59.1314 43.5594C58.9037 43.3317 59.1314 43.1041 59.3591 42.8764L72.3372 35.5904C72.5649 35.3627 72.7926 35.5904 73.0203 35.8181C73.248 36.0458 73.0203 36.2735 72.7926 36.5012L59.5868 43.7871Z" fill="#5600D6"/>
<path d="M94.1962 147.612C93.9685 147.612 93.9685 147.612 93.7408 147.384C93.5131 147.157 93.7408 146.929 93.9685 146.701L106.947 139.415C107.174 139.188 107.402 139.415 107.63 139.643C107.857 139.871 107.63 140.098 107.402 140.326L94.1962 147.612C94.4238 147.612 94.4238 147.612 94.1962 147.612Z" fill="#5600D6"/>
<path d="M147.547 74C147.32 74 147.32 74 147.094 73.7803C146.867 73.5606 147.094 73.3409 147.32 73.1212L160.227 66.091C160.453 65.8713 160.68 66.091 160.906 66.3107C161.133 66.5304 160.906 66.7501 160.68 66.9698L147.547 74C147.773 74 147.773 74 147.547 74Z" fill="#5600D6"/>
<path d="M112.411 114.825C112.183 114.825 112.183 114.825 111.956 114.597L108.313 109.816L98.2944 104.124C95.3345 102.302 92.8299 98.2038 92.8299 94.5608V78.3951L92.1469 78.6228C91.9192 78.6228 91.6915 78.6228 91.6915 78.3951L90.0977 75.4351C90.0977 75.4351 90.0977 75.2075 90.0977 74.9798C90.0977 74.7521 90.3254 74.7521 90.3254 74.7521L93.9684 72.9306C93.9684 72.9306 94.196 72.9306 94.196 72.7029H94.4237H94.6514C95.1068 72.7029 95.5621 72.7029 96.0175 72.9306V72.2475L96.7006 69.743C96.4729 69.743 96.4729 69.5153 96.2452 69.5153L95.1068 66.7831C95.1068 66.5554 95.1068 66.3277 95.3345 66.1L98.9774 64.2785C98.9774 64.2785 98.9774 64.2785 99.2051 64.2785H99.4328C100.799 63.5954 102.393 63.8231 103.987 64.9616L107.402 67.0108C111.045 69.0599 114.005 74.069 114.005 78.1674V83.4042L115.143 84.0872C116.965 85.2257 118.558 87.7302 118.558 90.0071V109.36C118.558 111.182 117.875 112.548 116.737 113.231L112.411 114.825C112.639 114.825 112.411 114.825 112.411 114.825ZM93.513 77.2566H93.7407C93.7407 77.2566 93.9684 77.4843 93.9684 77.712V94.5608C93.9684 97.7484 96.2452 101.619 98.9774 103.213L108.996 108.905C108.996 108.905 108.996 108.905 109.223 109.133L112.639 113.686L116.509 111.865C117.42 111.41 117.875 110.271 117.875 108.905V89.5517C117.875 87.7302 116.509 85.2257 114.915 84.3149L113.549 83.6319C113.322 83.6319 113.322 83.4042 113.322 83.1765V77.712C113.322 73.8413 110.589 69.0599 107.174 67.2384L103.759 65.1893C102.393 64.2785 101.027 64.2785 100.116 64.7339L99.8882 64.2785L100.116 64.7339L96.7006 66.3277L97.3836 68.1492H97.6113C97.839 68.1492 97.839 68.1492 98.0667 68.1492C98.2944 68.3769 98.2944 68.3769 98.2944 68.6046L97.3836 71.7922V73.1583C97.3836 73.386 97.3836 73.386 97.1559 73.6136C96.9283 73.6136 96.9283 73.6136 96.7006 73.6136C96.0175 73.386 95.5622 73.1583 95.1068 73.386H94.8791L91.4638 74.9798L92.6022 77.2566H93.513ZM108.768 80.8996H108.54L101.254 76.8013C101.027 76.8013 101.027 76.5736 101.027 76.3459V70.8814C101.027 69.9707 101.254 69.2876 101.937 68.8322C102.62 68.3769 103.303 68.6045 104.214 69.0599C104.214 69.0599 104.442 69.0599 104.442 69.2876L105.808 71.7922C107.174 72.7029 108.313 74.2967 108.313 75.8905L109.451 80.4442C109.451 80.6719 109.451 80.8996 109.223 80.8996C108.996 80.8996 108.768 80.8996 108.768 80.8996ZM101.937 75.8905L108.085 79.3058L107.174 75.6628C107.174 74.2967 106.263 72.9306 105.125 72.2475C105.125 72.2475 104.897 72.2475 104.897 72.0198L103.531 69.5153C103.076 69.2876 102.62 69.2876 102.393 69.5153C102.165 69.743 101.937 70.1984 101.937 70.6537V75.8905Z" fill="#0F0225"/>
<path d="M111.046 85.9098L109.68 85.2268V79.7623C109.68 75.6639 106.948 70.8825 103.305 68.8333L99.8896 66.7841C96.4743 64.735 93.5143 66.3288 93.5143 70.4271V75.8916L92.6036 75.4362C90.7821 74.2978 89.416 75.2086 89.416 77.2577V96.6111C89.416 100.026 91.6929 104.125 94.6528 105.719L108.769 113.915C111.729 115.509 114.006 114.143 114.006 110.955V91.602C114.234 89.5528 112.868 87.0482 111.046 85.9098ZM97.6127 72.9317C97.6127 71.3379 98.7512 70.6548 100.117 71.5656L103.533 73.6147C104.899 74.2978 106.037 76.347 106.037 77.7131V83.1776L97.8404 78.3962V72.9317H97.6127Z" fill="#E6DEF8"/>
<path d="M111.273 115.053C110.362 115.053 109.679 114.825 108.769 114.37L94.652 106.173C91.692 104.352 89.1875 100.253 89.1875 96.6103V77.257C89.1875 76.1186 89.6429 75.2078 90.3259 74.7524C91.009 74.297 92.1474 74.2971 93.0582 74.9801L93.2859 75.2078V70.6541C93.2859 68.6049 93.9689 67.0111 95.335 66.1003C96.7011 65.4173 98.295 65.4173 100.116 66.5557L103.532 68.6049C107.175 70.6541 110.135 75.6632 110.135 79.7615V84.9983L111.273 85.6814C113.095 86.8198 114.688 89.3244 114.688 91.6012V110.955C114.688 112.776 114.005 114.142 112.867 114.825C112.411 114.825 111.956 115.053 111.273 115.053ZM91.4644 75.4355C91.2367 75.4355 91.009 75.4355 90.7813 75.6632C90.3259 75.8909 90.0982 76.5739 90.0982 77.257V96.6103C90.0982 99.7979 92.3751 103.669 95.1074 105.262L109.224 113.459C110.59 114.142 111.728 114.37 112.412 113.915C113.322 113.459 113.778 112.321 113.778 110.955V91.6012C113.778 89.7797 112.412 87.2752 110.818 86.3644L109.452 85.6814C109.224 85.6814 109.224 85.4537 109.224 85.226V79.7615C109.224 75.8909 106.492 71.1095 103.076 69.288L99.6611 67.2388C98.0673 66.328 96.7011 66.1003 95.7904 66.7834C94.652 67.4665 94.1966 68.6049 94.1966 70.4264V75.8909C94.1966 76.1185 94.1966 76.1186 93.9689 76.3462C93.7412 76.3462 93.7412 76.3462 93.5135 76.3462L92.6028 75.8909C92.1474 75.6632 91.6921 75.4355 91.4644 75.4355ZM105.809 83.4045H105.581L97.3842 78.6231C97.1565 78.6231 97.1565 78.3954 97.1565 78.1677V72.7033C97.1565 71.7925 97.3842 71.1095 98.0673 70.6541C98.7503 70.1987 99.4334 70.4264 100.344 70.8818L103.759 72.9309C105.353 73.8417 106.492 75.8909 106.492 77.4847V82.9491C106.492 83.1768 106.492 83.1768 106.264 83.4045C106.036 83.4045 105.809 83.4045 105.809 83.4045ZM98.0673 77.94L105.353 82.0384V77.4847C105.353 76.1186 104.443 74.2971 103.076 73.614L99.6611 71.5648C99.2057 71.3371 98.7503 71.1094 98.5227 71.3371C98.295 71.5648 98.0673 72.0202 98.0673 72.4756V77.94Z" fill="#0F0225"/>
<path d="M103.988 101.163L102.849 100.48V96.6096C103.988 96.8372 104.899 96.1542 104.899 94.5604C104.899 92.5112 103.533 90.2343 101.711 89.0959C99.8895 88.1852 98.5234 88.8682 98.5234 90.9174C98.5234 92.5112 99.4342 94.3327 100.573 95.4711V100.48C100.573 101.163 101.028 101.846 101.483 102.074L103.533 103.212C103.988 103.44 104.443 103.212 104.443 102.757C104.899 102.302 104.443 101.391 103.988 101.163Z" fill="#5600D6"/>
<path d="M104.443 103.896C104.216 103.896 103.988 103.896 103.76 103.668L101.711 102.53C101.028 102.074 100.573 101.163 100.573 100.48V95.6989C99.2065 94.3328 98.5234 92.5113 98.5234 90.9175C98.5234 89.7791 98.9788 88.8683 99.6619 88.4129C100.345 87.9576 101.256 87.9576 102.394 88.6406C104.216 89.7791 105.809 92.2836 105.809 94.3328C105.809 95.2435 105.582 96.1543 104.899 96.6097C104.443 96.8374 104.216 97.065 103.533 97.065V100.025L104.443 100.48C105.126 100.936 105.582 101.846 105.582 102.53C105.582 102.985 105.354 103.44 105.126 103.44C104.671 103.896 104.671 103.896 104.443 103.896ZM100.573 89.3237C100.345 89.3237 100.117 89.3237 99.8895 89.5514C99.4342 89.7791 99.2065 90.4621 99.2065 91.1452C99.2065 92.5113 100.117 94.3328 101.256 95.4712L101.483 95.6989V100.708C101.483 101.163 101.939 101.846 102.166 102.074L104.216 103.213C104.443 103.213 104.443 103.213 104.443 103.213C104.443 103.213 104.443 103.213 104.443 102.985C104.443 102.53 103.988 101.846 103.76 101.619L102.622 100.936C102.394 100.936 102.394 100.708 102.394 100.48V96.6097C102.394 96.382 102.394 96.382 102.622 96.1543C102.622 96.1543 102.849 95.9266 103.077 96.1543C103.305 96.1543 103.76 96.1543 104.216 95.9266C104.671 95.6989 104.671 95.0159 104.671 94.3328C104.671 92.5113 103.305 90.2344 101.711 89.3237C101.256 89.3237 100.8 89.3237 100.573 89.3237Z" fill="#0F0225"/>
<path d="M104.214 101.163L103.987 100.936L103.076 100.48V99.5696V99.342V94.3329C101.937 93.1944 101.027 91.3729 101.027 89.7791C101.027 89.3238 101.027 89.0961 101.254 88.6407C100.116 88.413 99.2051 89.3237 99.2051 90.6899C99.2051 92.2837 100.116 94.1052 101.254 95.2436V100.253C101.254 100.936 101.71 101.619 102.165 101.847L104.214 102.985C104.67 103.213 105.125 102.985 105.125 102.53C104.897 102.302 104.67 101.619 104.214 101.163Z" fill="#0F0225"/>
<path d="M93.7417 73.6132V75.89L91.4648 74.9793L93.7417 73.6132Z" fill="#0F0225"/>
<path d="M97.6113 78.1675L101.482 76.346V72.2477L99.4328 71.1093L98.0667 71.3369L97.6113 72.9308V78.1675Z" fill="#0F0225"/>
<path d="M109.68 85.2259L113.55 83.1768V77.7123L109.68 79.7615V85.2259Z" fill="#0F0225"/>
<path d="M114.232 91.6012L114.004 90.2351L118.103 88.1859V89.552V108.905L117.875 110.727L116.737 112.093L113.094 114.142L114.232 112.093V110.499V91.6012Z" fill="#0F0225"/>
<mask id="mask0_3517_20263" style="mask-type:alpha" maskUnits="userSpaceOnUse" x="113" y="88" width="6" height="27">
<path d="M114.232 91.6012L114.004 90.2351L118.103 88.1859V89.552V108.905L117.875 110.727L116.737 112.093L113.094 114.142L114.232 112.093V110.499V91.6012Z" fill="#1A0244"/>
</mask>
<g mask="url(#mask0_3517_20263)">
<path d="M114.554 111.66C114.326 111.66 114.326 111.66 114.098 111.433C113.871 111.205 114.098 110.977 114.326 110.749L121.156 107.107C121.384 106.879 121.612 107.107 121.84 107.334C122.067 107.562 121.84 107.79 121.612 108.017L114.554 111.66Z" fill="#5600D6"/>
<path d="M112.278 95.7224C112.051 95.7224 112.051 95.7224 111.823 95.4947C111.595 95.267 111.823 95.0393 112.05 94.8116L118.881 91.1687C119.109 90.941 119.336 91.1686 119.564 91.3963C119.792 91.624 119.564 91.8517 119.336 92.0794L112.278 95.7224C112.506 95.7224 112.506 95.7224 112.278 95.7224Z" fill="#5600D6"/>
</g>
<path d="M20.2812 44.6371L25.5943 41.4886C25.9879 41.2919 26.3815 41.2919 26.775 41.6854L35.0398 46.4081C36.0237 46.9985 36.8108 48.5727 36.8108 49.9502V58.8053C36.8108 59.5925 36.6141 59.986 36.2205 60.1828L30.9074 63.3313V61.9538L31.1042 60.9699L23.8233 56.8375C22.8394 56.2472 22.0523 54.6729 22.0523 53.2955V46.0146L21.2652 46.6049L20.2812 44.6371Z" fill="#54BAF9"/>
<path d="M30.9084 63.7247H30.7116C30.5148 63.7247 30.5148 63.528 30.5148 63.3312V61.9537L30.7116 61.3634L23.6275 57.231C22.4468 56.6406 21.6597 54.8696 21.6597 53.4921V46.9984L21.4629 47.1952C21.4629 47.1952 21.2661 47.1952 21.0694 47.1952C20.8726 47.1952 20.8726 46.9984 20.8726 46.9984L19.8887 44.8338C19.8887 44.637 19.8887 44.4402 20.0854 44.2434L25.3985 41.095C25.7921 40.8982 26.3824 40.8982 26.9728 41.2917L35.2376 46.0145C36.4183 46.6048 37.2054 48.3758 37.2054 49.7533V58.6084C37.2054 59.3956 37.0086 59.9859 36.4183 60.3795C36.4183 60.3795 34.6472 61.3634 31.1052 63.528C31.1052 63.7247 30.9084 63.7247 30.9084 63.7247ZM22.25 45.8177H22.4468C22.6436 45.8177 22.6436 46.0145 22.6436 46.2113V53.4921C22.6436 54.6728 23.4307 56.0503 24.2178 56.6406L31.4987 60.773C31.6955 60.773 31.6955 60.9698 31.6955 61.1666L31.302 62.1505V62.7408C32.6794 61.9537 36.0247 59.9859 36.0247 59.9859C36.2215 59.7891 36.4183 59.3956 36.4183 58.8052V49.9501C36.4183 48.7694 35.6311 47.3919 34.844 46.8016L26.5792 42.0789C26.3824 41.8821 25.9889 41.8821 25.7921 41.8821L20.8726 44.637L21.6597 46.0145L22.25 45.8177C22.0533 45.8177 22.0533 45.8177 22.25 45.8177Z" fill="#0F0225"/>
<path d="M26.7765 41.4882L27.5636 42.0785L20.8731 46.0141L20.0859 44.4399L25.399 41.2914C25.9894 41.2914 26.3829 41.2914 26.7765 41.4882Z" fill="#0F0225"/>
<path d="M21.0694 46.4077C20.8726 46.4077 20.8726 46.4077 21.0694 46.4077C20.8726 46.4077 20.6758 46.2109 20.6758 46.2109L19.8887 44.6366C19.8887 44.4399 19.8887 44.2431 20.0854 44.0463L25.3985 40.8978C25.7921 40.701 26.3824 40.701 26.9728 41.0946L27.7599 41.6849C27.9567 41.6849 27.9567 41.8817 27.9567 42.0785C27.9567 42.2753 27.9567 42.2753 27.7599 42.4721L21.0694 46.4077ZM20.8726 44.6366L21.2661 45.4238L26.9728 42.0785L26.776 41.8817C26.5792 41.6849 26.1857 41.6849 25.9889 41.6849L20.8726 44.6366Z" fill="#0F0225"/>
<path d="M31.3008 54.0827L30.5137 62.3475L30.9072 63.3314L36.2203 60.1829C36.6139 59.9861 36.8106 59.3958 36.8106 58.8054V50.9342L31.3008 54.0827Z" fill="#0F0225"/>
<path d="M30.9082 63.7248C30.7114 63.7248 30.5147 63.5281 30.5147 63.5281L30.1211 62.5441V62.3474L30.9082 54.0826C30.9082 53.8858 30.9082 53.8858 31.105 53.689L36.6149 50.5405C36.8116 50.5405 36.8116 50.5405 37.0084 50.5405C37.2052 50.5405 37.2052 50.7373 37.2052 50.9341V58.8053C37.2052 59.5924 37.0084 60.1828 36.4181 60.5763C36.4181 60.5763 34.647 61.5602 31.105 63.7248H30.9082ZM30.9082 62.1506L31.105 62.7409C32.2857 61.9538 36.0245 59.7892 36.0245 59.7892C36.2213 59.5924 36.4181 59.1989 36.4181 58.6085V51.3276L31.6953 54.2794L30.9082 62.1506Z" fill="#0F0225"/>
<path d="M26.7765 41.4885L35.0412 46.2113C35.4348 46.408 36.0252 46.9984 36.2219 47.5887L30.9089 50.7372L20.873 45.0306L26.7765 41.4885Z" fill="#E6DEF8"/>
<path d="M30.9098 51.1304H30.7131L20.6772 45.4238C20.4805 45.4238 20.4805 45.227 20.4805 45.0302C20.4805 44.8334 20.4805 44.8334 20.6772 44.6367L26.5807 41.2914C26.7774 41.2914 26.7774 41.2914 26.9742 41.2914L35.239 46.0141C35.8294 46.2109 36.2229 46.8012 36.6165 47.3916C36.8133 47.5884 36.6165 47.7851 36.4197 47.9819L31.1066 51.1304H30.9098ZM21.6611 45.0302L30.9098 50.3433L35.6326 47.5884C35.4358 47.1948 35.0422 46.998 34.8454 46.8012L26.7774 42.0785L21.6611 45.0302Z" fill="#0F0225"/>
<path d="M21.4624 58.4103L29.7272 63.1331C30.7111 63.7234 31.4982 63.1331 31.4982 61.7556V52.9005C31.4982 51.523 30.7111 49.9488 29.7272 49.3584L21.4624 44.6357C20.4785 44.0454 19.6914 44.6357 19.6914 46.0132V54.8683C19.6914 56.2457 20.4785 57.82 21.4624 58.4103Z" fill="#54BAF9"/>
<path d="M30.5153 63.921C30.3186 63.921 29.925 63.921 29.5314 63.7242L21.2666 59.0015C20.086 58.4111 19.2988 56.6401 19.2988 55.2626V46.4075C19.2988 45.6204 19.6924 44.8333 20.086 44.6365C20.4795 44.4397 21.0699 44.4397 21.6602 44.6365L29.925 49.3592C31.1057 49.9496 31.8928 51.7206 31.8928 53.098V61.9532C31.8928 62.7403 31.4992 63.5274 31.1057 63.7242C30.9089 63.7242 30.7121 63.921 30.5153 63.921ZM20.6763 44.8333H20.4795C20.2827 45.03 20.086 45.4236 20.086 46.0139V54.8691C20.086 56.0498 20.8731 57.4272 21.6602 58.0176L29.925 62.7403C30.1218 62.9371 30.5153 62.9371 30.7121 62.7403C30.9089 62.5435 31.1057 62.15 31.1057 61.5596V52.7045C31.1057 51.5238 30.3186 50.1463 29.5314 49.556L21.2666 44.8333C21.0699 45.03 20.8731 44.8333 20.6763 44.8333Z" fill="#0F0225"/>
<path d="M143.18 16.057L147.605 13.4346C147.933 13.2707 148.261 13.2707 148.589 13.5985L155.473 17.5322C156.292 18.0239 156.948 19.3351 156.948 20.4824V27.8581C156.948 28.5138 156.784 28.8416 156.456 29.0055L152.031 31.6279V30.4806L152.194 29.6611L146.13 26.2191C145.31 25.7274 144.655 24.4162 144.655 23.2688V17.2044L143.999 17.6961L143.18 16.057Z" fill="#54BAF9"/>
<path d="M152.03 31.9556H151.866C151.702 31.9556 151.702 31.7917 151.702 31.6278V30.4804L151.866 29.9887L145.966 26.5467C144.982 26.055 144.327 24.5799 144.327 23.4325V18.0237L144.163 18.1876C144.163 18.1876 143.999 18.1876 143.835 18.1876C143.671 18.1876 143.671 18.0237 143.671 18.0237L142.852 16.2207C142.852 16.0568 142.852 15.8929 143.015 15.729L147.441 13.1066C147.769 12.9427 148.26 12.9427 148.752 13.2705L155.636 17.2042C156.62 17.6959 157.275 19.171 157.275 20.3184V27.6941C157.275 28.3497 157.111 28.8414 156.62 29.1692C156.62 29.1692 155.144 29.9887 152.194 31.7917C152.194 31.9556 152.194 31.9556 152.03 31.9556ZM144.818 17.0403H144.982C145.146 17.0403 145.146 17.2042 145.146 17.3681V23.4325C145.146 24.416 145.802 25.5633 146.457 26.055L152.522 29.497C152.686 29.497 152.686 29.6609 152.686 29.8248L152.522 30.6443V31.136C153.669 30.4804 156.456 28.8414 156.456 28.8414C156.62 28.6775 156.783 28.3497 156.783 27.858V20.3184C156.783 19.3349 156.128 18.1876 155.472 17.6959L148.588 13.7622C148.424 13.5983 148.096 13.5983 147.933 13.5983L143.835 16.0568L144.491 17.2042L144.818 17.0403C144.655 17.0403 144.655 17.0403 144.818 17.0403Z" fill="#0F0225"/>
<path d="M148.588 13.4343L149.244 13.926L143.671 17.2041L143.016 15.8928L147.441 13.2704C147.933 13.2704 148.261 13.2704 148.588 13.4343Z" fill="#0F0225"/>
<path d="M143.835 17.5319C143.671 17.5319 143.671 17.5319 143.835 17.5319C143.671 17.5319 143.507 17.368 143.507 17.368L142.852 16.0568C142.852 15.8929 142.852 15.729 143.015 15.5651L147.441 12.9426C147.769 12.7787 148.26 12.7787 148.752 13.1065L149.408 13.5982C149.572 13.5982 149.572 13.7621 149.572 13.926C149.572 14.09 149.572 14.09 149.408 14.2539L143.835 17.5319ZM143.671 16.2207L143.999 16.8763L148.752 14.0899L148.588 13.926C148.424 13.7621 148.096 13.7621 147.933 13.7621L143.671 16.2207Z" fill="#0F0225"/>
<path d="M152.357 23.925L151.701 30.8089L152.029 31.6285L156.454 29.006C156.782 28.8421 156.946 28.3504 156.946 27.8587V21.3025L152.357 23.925Z" fill="#0F0225"/>
<path d="M152.029 31.9561C151.865 31.9561 151.701 31.7922 151.701 31.7922L151.373 30.9726V30.8087L152.029 23.9248C152.029 23.7609 152.029 23.7609 152.193 23.597L156.782 20.9745C156.946 20.9745 156.946 20.9745 157.11 20.9745C157.274 20.9745 157.274 21.1384 157.274 21.3023V27.8585C157.274 28.5141 157.11 29.0058 156.618 29.3336C156.618 29.3336 155.143 30.1531 152.193 31.9561C152.193 31.9561 152.193 31.9561 152.029 31.9561ZM152.029 30.6448L152.193 31.1366C153.176 30.4809 156.29 28.678 156.29 28.678C156.454 28.5141 156.618 28.1863 156.618 27.6946V21.6301L152.684 23.9248L152.029 30.6448Z" fill="#0F0225"/>
<path d="M148.589 13.4343L155.473 17.368C155.801 17.5319 156.293 18.0236 156.456 18.5154L152.031 21.1378L143.672 16.3846L148.589 13.4343Z" fill="#E6DEF8"/>
<path d="M152.031 21.4656H151.867L143.508 16.7124C143.344 16.7124 143.344 16.5485 143.344 16.3846C143.344 16.2207 143.344 16.2207 143.508 16.0568L148.425 13.2704C148.589 13.2704 148.589 13.2704 148.753 13.2704L155.637 17.2041C156.128 17.368 156.456 17.8597 156.784 18.3514C156.948 18.5153 156.784 18.6792 156.62 18.8431L152.195 21.4656C152.195 21.4656 152.195 21.4656 152.031 21.4656ZM144.327 16.3846L152.031 20.81L155.964 18.5153C155.8 18.1875 155.473 18.0236 155.309 17.8597L148.589 13.926L144.327 16.3846Z" fill="#0F0225"/>
<path d="M144.163 27.5299L151.047 31.4636C151.866 31.9553 152.522 31.4636 152.522 30.3163V22.9406C152.522 21.7933 151.866 20.482 151.047 19.9903L144.163 16.0566C143.343 15.5649 142.688 16.0566 142.688 17.204V24.5796C142.688 25.727 143.343 27.0382 144.163 27.5299Z" fill="#54BAF9"/>
<path d="M151.702 32.1197C151.538 32.1197 151.21 32.1197 150.882 31.9558L143.998 28.0221C143.015 27.5304 142.359 26.0553 142.359 24.9079V17.5322C142.359 16.8766 142.687 16.221 143.015 16.0571C143.343 15.8932 143.835 15.8932 144.326 16.0571L151.21 19.9908C152.194 20.4825 152.849 21.9577 152.849 23.105V30.4807C152.849 31.1363 152.521 31.7919 152.194 31.9558C152.03 31.9558 151.866 32.1197 151.702 32.1197ZM143.507 16.221H143.343C143.179 16.3849 143.015 16.7127 143.015 17.2044V24.5801C143.015 25.5635 143.671 26.7109 144.326 27.2026L151.21 31.1363C151.374 31.3002 151.702 31.3002 151.866 31.1363C152.03 30.9724 152.194 30.6446 152.194 30.1529V22.7772C152.194 21.7938 151.538 20.6464 150.882 20.1547L143.998 16.221C143.835 16.3849 143.671 16.221 143.507 16.221Z" fill="#0F0225"/>
<path d="M175.961 149.222L180.386 146.6C180.714 146.436 181.042 146.436 181.37 146.764L188.254 150.697C189.073 151.189 189.729 152.5 189.729 153.647V161.023C189.729 161.679 189.565 162.007 189.237 162.171L184.812 164.793V163.646L184.976 162.826L178.911 159.384C178.092 158.892 177.436 157.581 177.436 156.434V150.369L176.78 150.861L175.961 149.222Z" fill="#54BAF9"/>
<path d="M184.811 165.121H184.648C184.484 165.121 184.484 164.957 184.484 164.793V163.645L184.648 163.154L178.747 159.712C177.764 159.22 177.108 157.745 177.108 156.598V151.189L176.944 151.353C176.944 151.353 176.78 151.353 176.616 151.353C176.452 151.353 176.452 151.189 176.452 151.189L175.633 149.386C175.633 149.222 175.633 149.058 175.797 148.894L180.222 146.272C180.55 146.108 181.042 146.108 181.533 146.436L188.417 150.369C189.401 150.861 190.056 152.336 190.056 153.483V160.859C190.056 161.515 189.892 162.006 189.401 162.334C189.401 162.334 187.926 163.154 184.975 164.957C184.975 165.121 184.975 165.121 184.811 165.121ZM177.6 150.205H177.764C177.927 150.205 177.927 150.369 177.927 150.533V156.598C177.927 157.581 178.583 158.728 179.239 159.22L185.303 162.662C185.467 162.662 185.467 162.826 185.467 162.99L185.303 163.809V164.301C186.45 163.645 189.237 162.006 189.237 162.006C189.401 161.843 189.565 161.515 189.565 161.023V153.483C189.565 152.5 188.909 151.353 188.253 150.861L181.369 146.927C181.206 146.763 180.878 146.763 180.714 146.763L176.616 149.222L177.272 150.369L177.6 150.205C177.436 150.205 177.436 150.205 177.6 150.205Z" fill="#0F0225"/>
<path d="M181.37 146.599L182.025 147.091L176.453 150.369L175.797 149.058L180.222 146.435C180.714 146.435 181.042 146.435 181.37 146.599Z" fill="#0F0225"/>
<path d="M176.616 150.697C176.452 150.697 176.452 150.697 176.616 150.697C176.452 150.697 176.288 150.533 176.288 150.533L175.633 149.222C175.633 149.058 175.633 148.894 175.797 148.73L180.222 146.108C180.55 145.944 181.042 145.944 181.533 146.272L182.189 146.763C182.353 146.763 182.353 146.927 182.353 147.091C182.353 147.255 182.353 147.255 182.189 147.419L176.616 150.697ZM176.452 149.386L176.78 150.041L181.533 147.255L181.369 147.091C181.206 146.927 180.878 146.927 180.714 146.927L176.452 149.386Z" fill="#0F0225"/>
<path d="M185.138 157.09L184.482 163.974L184.81 164.794L189.236 162.171C189.563 162.007 189.727 161.515 189.727 161.024V154.468L185.138 157.09Z" fill="#0F0225"/>
<path d="M184.81 165.121C184.646 165.121 184.482 164.957 184.482 164.957L184.154 164.138V163.974L184.81 157.09C184.81 156.926 184.81 156.926 184.974 156.762L189.563 154.14C189.727 154.14 189.727 154.14 189.891 154.14C190.055 154.14 190.055 154.303 190.055 154.467V161.024C190.055 161.679 189.891 162.171 189.399 162.499C189.399 162.499 187.924 163.318 184.974 165.121C184.974 165.121 184.974 165.121 184.81 165.121ZM184.81 163.81L184.974 164.302C185.957 163.646 189.071 161.843 189.071 161.843C189.235 161.679 189.399 161.351 189.399 160.86V154.795L185.466 157.09L184.81 163.81Z" fill="#0F0225"/>
<path d="M181.37 146.599L188.254 150.533C188.582 150.697 189.074 151.189 189.238 151.68L184.812 154.303L176.453 149.55L181.37 146.599Z" fill="#E6DEF8"/>
<path d="M184.812 154.631H184.648L176.289 149.877C176.125 149.877 176.125 149.714 176.125 149.55C176.125 149.386 176.125 149.386 176.289 149.222L181.206 146.435C181.37 146.435 181.37 146.435 181.534 146.435L188.418 150.369C188.91 150.533 189.237 151.025 189.565 151.516C189.729 151.68 189.565 151.844 189.401 152.008L184.976 154.631C184.976 154.631 184.976 154.631 184.812 154.631ZM177.108 149.55L184.812 153.975L188.746 151.68C188.582 151.353 188.254 151.189 188.09 151.025L181.37 147.091L177.108 149.55Z" fill="#0F0225"/>
<path d="M176.944 160.695L183.828 164.629C184.647 165.12 185.303 164.629 185.303 163.481V156.106C185.303 154.958 184.647 153.647 183.828 153.155L176.944 149.222C176.124 148.73 175.469 149.222 175.469 150.369V157.745C175.469 158.892 176.124 160.203 176.944 160.695Z" fill="#54BAF9"/>
<path d="M184.483 165.285C184.319 165.285 183.991 165.285 183.664 165.121L176.78 161.187C175.796 160.695 175.141 159.22 175.141 158.073V150.697C175.141 150.042 175.468 149.386 175.796 149.222C176.124 149.058 176.616 149.058 177.107 149.222L183.991 153.156C184.975 153.648 185.63 155.123 185.63 156.27V163.646C185.63 164.301 185.303 164.957 184.975 165.121C184.811 165.121 184.647 165.285 184.483 165.285ZM176.288 149.386H176.124C175.96 149.55 175.796 149.878 175.796 150.369V157.745C175.796 158.729 176.452 159.876 177.107 160.368L183.991 164.301C184.155 164.465 184.483 164.465 184.647 164.301C184.811 164.137 184.975 163.81 184.975 163.318V155.942C184.975 154.959 184.319 153.811 183.664 153.32L176.78 149.386C176.616 149.55 176.452 149.386 176.288 149.386Z" fill="#0F0225"/>
<path d="M60.1328 151.197L64.5582 148.575C64.886 148.411 65.2139 148.411 65.5417 148.739L72.4256 152.672C73.2452 153.164 73.9008 154.475 73.9008 155.623V162.998C73.9008 163.654 73.7369 163.982 73.4091 164.146L68.9836 166.768V165.621L69.1476 164.801L63.0831 161.359C62.2636 160.868 61.6079 159.556 61.6079 158.409V152.344L60.9523 152.836L60.1328 151.197Z" fill="#54BAF9"/>
<path d="M68.9833 167.096H68.8194C68.6555 167.096 68.6555 166.932 68.6555 166.768V165.621L68.8194 165.129L62.9189 161.687C61.9354 161.195 61.2798 159.72 61.2798 158.573V153.164L61.1159 153.328C61.1159 153.328 60.952 153.328 60.7881 153.328C60.6242 153.328 60.6242 153.164 60.6242 153.164L59.8047 151.361C59.8047 151.197 59.8047 151.033 59.9686 150.869L64.394 148.247C64.7218 148.083 65.2135 148.083 65.7052 148.411L72.5892 152.344C73.5727 152.836 74.2283 154.311 74.2283 155.458V162.834C74.2283 163.49 74.0644 163.982 73.5726 164.309C73.5726 164.309 72.0975 165.129 69.1472 166.932C69.1472 167.096 69.1472 167.096 68.9833 167.096ZM61.7715 152.18H61.9354C62.0994 152.18 62.0993 152.344 62.0993 152.508V158.573C62.0993 159.556 62.755 160.703 63.4106 161.195L69.475 164.637C69.6389 164.637 69.6389 164.801 69.6389 164.965L69.475 165.784V166.276C70.6224 165.621 73.4088 163.982 73.4088 163.982C73.5727 163.818 73.7366 163.49 73.7366 162.998V155.458C73.7366 154.475 73.0809 153.328 72.4253 152.836L65.5413 148.902C65.3774 148.738 65.0496 148.738 64.8857 148.738L60.7881 151.197L61.4437 152.344L61.7715 152.18C61.6076 152.18 61.6076 152.18 61.7715 152.18Z" fill="#0F0225"/>
<path d="M65.5415 148.574L66.1971 149.066L60.6244 152.344L59.9688 151.033L64.3942 148.411C64.8859 148.411 65.2137 148.411 65.5415 148.574Z" fill="#0F0225"/>
<path d="M60.7881 152.672C60.6242 152.672 60.6242 152.672 60.7881 152.672C60.6242 152.672 60.4603 152.508 60.4603 152.508L59.8047 151.197C59.8047 151.033 59.8047 150.869 59.9686 150.705L64.394 148.083C64.7218 147.919 65.2135 147.919 65.7052 148.247L66.3609 148.738C66.5248 148.738 66.5247 148.902 66.5247 149.066C66.5247 149.23 66.5248 149.23 66.3609 149.394L60.7881 152.672ZM60.6242 151.361L60.952 152.016L65.7052 149.23L65.5413 149.066C65.3774 148.902 65.0496 148.902 64.8857 148.902L60.6242 151.361Z" fill="#0F0225"/>
<path d="M69.3099 159.065L68.6543 165.949L68.9821 166.769L73.4075 164.146C73.7353 163.982 73.8992 163.491 73.8992 162.999V156.443L69.3099 159.065Z" fill="#0F0225"/>
<path d="M68.9818 167.096C68.8179 167.096 68.654 166.932 68.654 166.932L68.3262 166.113V165.949L68.9818 159.065C68.9818 158.901 68.9818 158.901 69.1457 158.737L73.735 156.115C73.8989 156.115 73.8989 156.115 74.0628 156.115C74.2267 156.115 74.2267 156.279 74.2267 156.442V162.999C74.2267 163.654 74.0628 164.146 73.5711 164.474C73.5711 164.474 72.096 165.293 69.1457 167.096C69.1457 167.096 69.1457 167.096 68.9818 167.096ZM68.9818 165.785L69.1457 166.277C70.1291 165.621 73.2433 163.818 73.2433 163.818C73.4072 163.654 73.5711 163.326 73.5711 162.835V156.77L69.6374 159.065L68.9818 165.785Z" fill="#0F0225"/>
<path d="M65.5421 148.574L72.4261 152.508C72.7539 152.672 73.2456 153.164 73.4095 153.655L68.9841 156.278L60.625 151.525L65.5421 148.574Z" fill="#E6DEF8"/>
<path d="M68.9838 156.606H68.8199L60.4608 151.853C60.2969 151.853 60.2969 151.689 60.2969 151.525C60.2969 151.361 60.2969 151.361 60.4608 151.197L65.3779 148.411C65.5418 148.411 65.5418 148.411 65.7057 148.411L72.5897 152.344C73.0814 152.508 73.4092 153 73.737 153.492C73.9009 153.655 73.737 153.819 73.5731 153.983L69.1477 156.606C69.1477 156.606 69.1477 156.606 68.9838 156.606ZM61.2803 151.525L68.9838 155.95L72.9175 153.655C72.7536 153.328 72.4258 153.164 72.2619 153L65.5418 149.066L61.2803 151.525Z" fill="#0F0225"/>
<path d="M61.1158 162.67L67.9998 166.604C68.8193 167.095 69.4749 166.604 69.4749 165.456V158.081C69.4749 156.933 68.8193 155.622 67.9998 155.13L61.1158 151.197C60.2963 150.705 59.6406 151.197 59.6406 152.344V159.72C59.6406 160.867 60.2963 162.178 61.1158 162.67Z" fill="#54BAF9"/>
<path d="M68.655 167.26C68.4911 167.26 68.1633 167.26 67.8355 167.096L60.9515 163.162C59.9681 162.671 59.3125 161.195 59.3125 160.048V152.672C59.3125 152.017 59.6403 151.361 59.9681 151.197C60.2959 151.033 60.7876 151.033 61.2793 151.197L68.1633 155.131C69.1468 155.623 69.8024 157.098 69.8024 158.245V165.621C69.8024 166.276 69.4746 166.932 69.1468 167.096C68.9829 167.096 68.8189 167.26 68.655 167.26ZM60.4598 151.361H60.2959C60.132 151.525 59.9681 151.853 59.9681 152.345V159.72C59.9681 160.704 60.6237 161.851 61.2793 162.343L68.1633 166.276C68.3272 166.44 68.6551 166.44 68.819 166.276C68.9829 166.113 69.1468 165.785 69.1468 165.293V157.917C69.1468 156.934 68.4911 155.787 67.8355 155.295L60.9515 151.361C60.7876 151.525 60.6237 151.361 60.4598 151.361Z" fill="#0F0225"/>
<path d="M124.641 166.747L129.941 163.547C130.641 163.147 131.441 163.247 132.341 163.747L149.641 173.747C151.741 174.947 153.441 178.147 153.441 180.947V199.647C153.441 201.147 152.941 202.147 152.241 202.647C152.141 202.647 146.841 205.947 146.841 205.947L146.941 203.147L147.441 201.247L132.241 192.447C130.141 191.247 128.441 188.047 128.441 185.247V170.247L126.641 171.247L124.641 166.747Z" fill="#54BAF9"/>
<path d="M146.941 206.047H146.841C146.741 206.047 146.741 205.947 146.741 205.847L146.841 203.047L147.341 201.247L132.341 192.547C130.241 191.347 128.441 188.047 128.441 185.147V170.447L126.941 171.347C126.941 171.347 126.841 171.347 126.741 171.347C126.641 171.347 126.641 171.247 126.641 171.247L124.441 166.747C124.441 166.647 124.441 166.547 124.541 166.447L129.841 163.247C130.641 162.847 131.541 162.947 132.441 163.447L149.741 173.447C151.841 174.647 153.641 177.947 153.641 180.847V199.547C153.641 201.047 153.141 202.147 152.341 202.747C152.241 202.747 147.541 205.647 146.941 206.047ZM128.641 169.947H128.741C128.841 169.947 128.841 170.047 128.841 170.147V185.147C128.841 187.847 130.441 191.047 132.541 192.147L147.741 200.947C147.841 200.947 147.841 201.047 147.841 201.147L147.341 203.047L147.241 205.447C149.141 204.347 152.241 202.447 152.241 202.347C152.941 201.847 153.341 200.847 153.341 199.547V180.947C153.341 178.247 151.741 175.047 149.641 173.947L132.341 163.947C131.441 163.347 130.641 163.347 130.041 163.647L124.841 166.747L126.841 170.847L128.641 169.947C128.541 169.947 128.541 169.947 128.641 169.947Z" fill="#150035"/>
<path d="M132.341 163.647L134.141 164.647L126.041 169.747L124.541 166.647L129.841 163.447C130.641 163.147 131.441 163.147 132.341 163.647Z" fill="#150035"/>
<path d="M126.141 170.047C126.041 170.047 126.041 170.047 126.141 170.047C126.041 170.047 125.941 169.947 125.941 169.947L124.441 166.847C124.441 166.747 124.441 166.647 124.541 166.547L129.841 163.347C130.641 162.947 131.541 163.047 132.441 163.547L134.241 164.547C134.341 164.547 134.341 164.647 134.341 164.747C134.341 164.847 134.341 164.847 134.241 164.947L126.141 170.047C126.141 170.047 126.141 169.947 126.141 170.047ZM124.841 166.747L126.141 169.447L133.741 164.647L132.241 163.747C131.441 163.347 130.641 163.347 130.041 163.647L124.841 166.747Z" fill="#150035"/>
<path d="M147.739 184.147L145.939 203.647L146.839 205.747C146.839 205.747 152.139 202.547 152.239 202.447C152.939 201.947 153.439 200.947 153.439 199.447V180.947L147.739 184.147Z" fill="#150035"/>
<path d="M146.94 206.047C146.84 206.047 146.84 206.047 146.94 206.047C146.84 206.047 146.74 205.947 146.74 205.947L145.84 203.847V203.747L147.64 184.247C147.64 184.147 147.64 184.147 147.74 184.047L153.54 180.747C153.64 180.747 153.64 180.747 153.74 180.747C153.84 180.747 153.84 180.847 153.84 180.947V199.647C153.84 201.147 153.34 202.247 152.54 202.847C152.44 202.847 147.74 205.747 147.14 206.147C146.94 206.047 146.94 206.047 146.94 206.047ZM146.14 203.647L146.94 205.547C148.84 204.447 152.04 202.447 152.14 202.447C152.84 201.947 153.24 200.947 153.24 199.647V181.247L147.84 184.247L146.14 203.647Z" fill="#150035"/>
<path d="M132.339 163.647L149.639 173.647C150.639 174.247 151.539 175.247 152.139 176.447L146.839 179.647L126.039 167.547L132.339 163.647Z" fill="white"/>
<path d="M146.94 179.847H146.84L125.94 167.747C125.84 167.747 125.84 167.647 125.84 167.547C125.84 167.447 125.84 167.447 125.94 167.347L132.24 163.547C132.34 163.547 132.34 163.547 132.44 163.547L149.74 173.547C150.74 174.147 151.64 175.147 152.34 176.347C152.44 176.447 152.34 176.547 152.24 176.647L147.04 179.747C146.94 179.747 146.94 179.847 146.94 179.847ZM126.44 167.547L146.94 179.347L152.04 176.347C151.34 175.247 150.54 174.347 149.74 173.847L132.34 163.947L126.44 167.547Z" fill="#150035"/>
<path d="M127.04 195.647L144.34 205.647C146.44 206.847 148.14 205.547 148.14 202.747V184.147C148.14 181.347 146.44 178.147 144.34 176.947L127.04 166.947C124.94 165.747 123.24 167.047 123.24 169.847V188.547C123.34 191.147 124.94 194.447 127.04 195.647Z" fill="#54BAF9"/>
<path d="M145.941 206.247C145.441 206.247 144.941 206.047 144.341 205.747L127.041 195.747C124.941 194.547 123.141 191.247 123.141 188.347V169.747C123.141 168.247 123.641 167.047 124.541 166.547C125.341 166.147 126.241 166.147 127.241 166.747L144.541 176.747C146.641 177.947 148.441 181.247 148.441 184.147V202.847C148.441 204.347 147.941 205.547 147.041 206.047C146.641 206.147 146.241 206.247 145.941 206.247ZM125.541 166.647C125.241 166.647 124.941 166.747 124.641 166.847C123.841 167.247 123.441 168.347 123.441 169.747V188.447C123.441 191.147 125.041 194.347 127.141 195.447L144.441 205.447C145.241 205.947 146.041 206.047 146.741 205.647C147.541 205.247 147.941 204.147 147.941 202.747V184.147C147.941 181.447 146.341 178.247 144.241 177.147L126.941 167.147C126.441 166.747 126.041 166.647 125.541 166.647Z" fill="#150035"/>
<path d="M147.04 203.247C146.94 203.247 146.94 203.247 146.84 203.147C146.74 203.047 146.84 202.947 146.94 202.847L153.84 198.847C153.94 198.747 154.04 198.847 154.14 198.947C154.24 199.047 154.14 199.147 154.04 199.247L147.14 203.247H147.04Z" fill="#54BAF9"/>
<path d="M139.841 185.347L138.541 184.647V182.647C138.541 181.647 137.841 180.347 136.941 179.847L134.741 178.547C133.841 178.047 133.141 178.447 133.141 179.447V181.447L131.841 180.747C131.241 180.347 130.641 180.647 130.641 181.447V187.947C130.641 189.647 131.841 191.847 133.341 192.647L138.141 195.447C139.641 196.347 140.841 195.647 140.841 193.847V187.347C141.041 186.547 140.541 185.647 139.841 185.347ZM133.941 179.947C133.941 179.347 134.341 179.147 134.841 179.447L137.041 180.647C137.541 180.947 137.941 181.547 137.941 182.147V184.147L134.041 181.847V179.947H133.941ZM140.241 193.447C140.241 194.747 139.341 195.247 138.241 194.547L133.441 191.747C132.341 191.147 131.441 189.547 131.441 188.347V181.847C131.441 181.547 131.641 181.447 131.841 181.647L133.441 182.547L138.141 185.247L139.741 186.147C139.941 186.247 140.141 186.547 140.141 186.847V193.447H140.241Z" fill="white"/>
<path d="M135.94 186.247C135.34 185.847 134.74 186.147 134.74 186.947C134.74 187.547 135.04 188.247 135.54 188.647V190.147C135.54 190.347 135.74 190.647 135.94 190.847C136.14 190.947 136.34 190.847 136.34 190.647V189.147C136.84 189.247 137.14 188.947 137.14 188.347C137.14 187.547 136.64 186.647 135.94 186.247Z" fill="white"/>
<path d="M20.6406 87.6468L25.9406 84.4468C26.6406 84.0468 27.4406 84.1468 28.3406 84.6468L45.6406 94.6468C47.7406 95.8468 49.4406 99.0468 49.4406 101.847V120.547C49.4406 122.047 48.9406 123.047 48.2406 123.547C48.1406 123.547 42.8406 126.847 42.8406 126.847L42.9406 124.047L43.4406 122.147L28.2406 113.347C26.1406 112.147 24.4406 108.947 24.4406 106.147V91.1468L22.6406 92.1468L20.6406 87.6468Z" fill="#54BAF9"/>
<path d="M42.9414 127.047H42.8414C42.7414 127.047 42.7414 126.947 42.7414 126.847L42.8414 124.047L43.3414 122.247L28.3414 113.547C26.2414 112.347 24.4414 109.047 24.4414 106.147V91.4468L22.9414 92.3468C22.9414 92.3468 22.8414 92.3468 22.7414 92.3468C22.6414 92.3468 22.6414 92.2468 22.6414 92.2468L20.4414 87.7468C20.4414 87.6468 20.4414 87.5468 20.5414 87.4468L25.8414 84.2468C26.6414 83.8468 27.5414 83.9468 28.4414 84.4468L45.7414 94.4468C47.8414 95.6468 49.6414 98.9468 49.6414 101.847V120.547C49.6414 122.047 49.1414 123.147 48.3414 123.747C48.2414 123.747 43.5414 126.647 42.9414 127.047C42.9414 127.047 43.0414 127.047 42.9414 127.047ZM24.6414 90.9468H24.7414C24.8414 90.9468 24.8414 91.0468 24.8414 91.1468V106.247C24.8414 108.947 26.4414 112.147 28.5414 113.247L43.7414 122.047C43.8414 122.047 43.8414 122.147 43.8414 122.247L43.3414 124.147L43.2414 126.547C45.1414 125.447 48.2414 123.547 48.2414 123.447C48.9414 122.947 49.3414 121.947 49.3414 120.647V101.947C49.3414 99.2468 47.7414 96.0468 45.6414 94.9468L28.3414 84.9468C27.5414 84.4468 26.7414 84.3468 26.1414 84.7468L20.9414 87.8468L22.9414 91.9468L24.6414 90.9468C24.5414 90.9468 24.6414 90.9468 24.6414 90.9468Z" fill="#150035"/>
<path d="M28.4406 84.6468L30.2406 85.6468L22.1406 90.7468L20.6406 87.6468L25.9406 84.4468C26.6406 84.1468 27.5406 84.1468 28.4406 84.6468Z" fill="#150035"/>
<path d="M22.1414 91.0468C22.1414 91.0468 22.1414 90.9468 22.1414 91.0468C22.0414 91.0468 21.9414 90.9468 21.9414 90.9468L20.4414 87.8468C20.4414 87.7468 20.4414 87.6468 20.5414 87.5468L25.8414 84.2468C26.6414 83.8468 27.5414 83.9468 28.4414 84.4468L30.2414 85.4468C30.3414 85.4468 30.3414 85.5468 30.3414 85.6468C30.3414 85.7468 30.3414 85.7468 30.2414 85.8468L22.1414 90.9468C22.2414 90.9468 22.1414 91.0468 22.1414 91.0468ZM20.9414 87.7468L22.2414 90.4468L29.8414 85.6468L28.3414 84.7468C27.5414 84.2468 26.7414 84.1468 26.1414 84.5468L20.9414 87.7468Z" fill="#150035"/>
<path d="M43.7395 105.147L41.9395 124.647L42.8395 126.747C42.8395 126.747 48.1395 123.547 48.2395 123.447C48.9395 122.947 49.4395 121.947 49.4395 120.447V101.947L43.7395 105.147Z" fill="#150035"/>
<path d="M42.9398 127.047C42.8398 127.047 42.7398 126.947 42.7398 126.947L41.8398 124.847V124.747L43.6398 105.247C43.6398 105.147 43.6398 105.147 43.7398 105.047L49.5398 101.747C49.6398 101.747 49.6398 101.747 49.7398 101.747C49.8398 101.747 49.8398 101.847 49.8398 101.947V120.647C49.8398 122.147 49.3398 123.247 48.5398 123.847C48.4398 123.847 43.7398 126.747 43.1398 127.147C43.0398 127.047 42.9398 127.047 42.9398 127.047ZM42.2398 124.647L43.0398 126.547C44.9398 125.447 48.1398 123.447 48.2398 123.447C48.9398 122.947 49.3398 121.947 49.3398 120.647V102.247L43.9398 105.247L42.2398 124.647Z" fill="#150035"/>
<path d="M28.4391 84.6467L45.7391 94.6467C46.7391 95.2467 47.6391 96.2467 48.2391 97.4467L42.9391 100.647L22.0391 88.5467L28.4391 84.6467Z" fill="white"/>
<path d="M42.9398 100.747H42.8398L21.9398 88.6468C21.8398 88.6468 21.8398 88.5468 21.8398 88.4468C21.8398 88.3468 21.8398 88.3468 21.9398 88.2468L28.2398 84.4468C28.3398 84.4468 28.3398 84.4468 28.4398 84.4468L45.7398 94.4468C46.7398 95.0468 47.6398 96.0468 48.3398 97.2468C48.4398 97.3468 48.3398 97.4468 48.2398 97.5468L42.9398 100.747C43.0398 100.747 42.9398 100.747 42.9398 100.747ZM22.4398 88.5468L42.9398 100.347L48.0398 97.3468C47.3398 96.2468 46.5398 95.3468 45.7398 94.8468L28.4398 84.9468L22.4398 88.5468Z" fill="#150035"/>
<path d="M23.1398 116.647L40.4398 126.647C42.5398 127.847 44.2398 126.547 44.2398 123.747V105.047C44.2398 102.247 42.5398 99.0468 40.4398 97.8468L23.1398 87.9468C21.0398 86.7468 19.3398 88.0468 19.3398 90.8468V109.547C19.3398 112.147 21.0398 115.447 23.1398 116.647Z" fill="#54BAF9"/>
<path d="M41.9406 127.247C41.4406 127.247 40.9406 127.047 40.3406 126.747L23.0406 116.747C20.8406 115.547 19.1406 112.247 19.1406 109.447V90.7468C19.1406 89.2468 19.6406 88.0468 20.5406 87.5468C21.3406 87.1468 22.2406 87.1468 23.2406 87.7468L40.5406 97.7468C42.6406 98.9468 44.4406 102.247 44.4406 105.147V123.847C44.4406 125.347 43.9406 126.547 43.0406 127.047C42.7406 127.147 42.3406 127.247 41.9406 127.247ZM23.2406 116.447L40.5406 126.447C41.3406 126.947 42.1406 127.047 42.8406 126.647C43.6406 126.247 44.0406 125.147 44.0406 123.747V105.047C44.0406 102.347 42.4406 99.1468 40.3406 98.0468L23.0406 88.0468C22.2406 87.5468 21.4406 87.4468 20.7406 87.8468C19.9406 88.2468 19.5406 89.3468 19.5406 90.7468V109.447C19.5406 112.147 21.2406 115.247 23.2406 116.447Z" fill="#150035"/>
<path d="M43.0402 124.247C42.9402 124.247 42.9402 124.247 42.8402 124.147C42.7402 124.047 42.8402 123.947 42.9402 123.847L49.8403 119.847C49.9402 119.747 50.0402 119.847 50.1402 119.947C50.2402 120.047 50.1402 120.147 50.0402 120.247L43.1402 124.247C43.1402 124.247 43.1402 124.247 43.0402 124.247Z" fill="#54BAF9"/>
<path d="M37.0414 105.647C37.0414 105.447 36.9414 105.347 36.8414 105.147L32.1414 100.347C32.1414 100.347 32.1414 100.347 32.0414 100.247C32.0414 100.247 32.0414 100.247 31.9414 100.247C31.9414 100.247 31.9414 100.247 31.8414 100.247L27.1414 99.6469C27.0414 99.6469 26.9414 99.7468 26.9414 99.8468C26.9414 99.9468 25.7414 107.547 31.8414 115.147L31.9414 115.247H32.0414C32.0414 115.247 32.0414 115.247 32.1414 115.247C38.3414 114.747 37.0414 105.747 37.0414 105.647ZM32.1414 114.247C31.2414 109.747 31.1414 107.047 31.1414 107.047C31.1414 106.847 30.9414 106.547 30.7414 106.347C30.5414 106.247 30.3414 106.347 30.3414 106.547C30.3414 106.647 30.3414 109.147 31.2414 113.447C26.9414 107.347 27.3414 101.747 27.4414 100.547L31.0414 100.947C30.7414 101.547 30.4414 102.447 30.3414 103.847C30.3414 104.047 30.4414 104.347 30.6414 104.547C30.8414 104.647 31.0414 104.547 31.0414 104.347C31.2414 102.547 31.6414 101.547 31.9414 101.147L36.1414 105.547C36.4414 107.047 36.8414 113.547 32.1414 114.247Z" fill="white"/>
<path d="M174.641 80.6468L179.941 77.4468C180.641 77.0468 181.441 77.1468 182.341 77.6468L199.641 87.6468C201.741 88.8468 203.441 92.0468 203.441 94.8468V113.547C203.441 115.047 202.941 116.047 202.241 116.547C202.141 116.547 196.841 119.847 196.841 119.847L196.941 117.047L197.441 115.147L182.241 106.347C180.141 105.147 178.441 101.947 178.441 99.1468V84.0468L176.641 85.0468L174.641 80.6468Z" fill="#54BAF9"/>
<path d="M196.941 120.047H196.841C196.741 120.047 196.741 119.947 196.741 119.847L196.841 117.047L197.341 115.247L182.341 106.547C180.241 105.347 178.441 102.047 178.441 99.1468V84.4468L176.941 85.3468C176.941 85.3468 176.841 85.3468 176.741 85.3468C176.641 85.3468 176.641 85.2468 176.641 85.2468L174.441 80.7468C174.441 80.6468 174.441 80.5468 174.541 80.4468L179.841 77.2468C180.641 76.8468 181.541 76.9468 182.441 77.4468L199.741 87.4468C201.841 88.6468 203.641 91.9468 203.641 94.8468V113.547C203.641 115.047 203.141 116.147 202.341 116.747C202.241 116.747 197.841 119.447 196.941 120.047C197.041 120.047 197.041 120.047 196.941 120.047ZM178.641 83.9468H178.741C178.841 83.9468 178.841 84.0468 178.841 84.1468V99.2468C178.841 101.947 180.441 105.147 182.541 106.247L197.741 115.047C197.841 115.047 197.841 115.147 197.841 115.247L197.341 117.147L197.241 119.547C199.141 118.447 202.241 116.547 202.241 116.447C202.941 115.947 203.341 114.947 203.341 113.647V94.9468C203.341 92.2468 201.741 89.0468 199.641 87.9468L182.341 77.9468C181.541 77.4468 180.741 77.3468 180.141 77.7468L174.941 80.8468L176.941 84.9468L178.641 83.9468Z" fill="#150035"/>
<path d="M182.441 77.6468L184.241 78.6468L176.141 83.7468L174.641 80.6468L179.941 77.4468C180.641 77.1468 181.541 77.1468 182.441 77.6468Z" fill="#150035"/>
<path d="M176.141 83.9468C176.041 83.9468 175.941 83.8468 175.941 83.8468L174.441 80.7468C174.441 80.6468 174.441 80.5468 174.541 80.4468L179.841 77.2468C180.641 76.8468 181.541 76.9468 182.441 77.4468L184.241 78.4468C184.341 78.4468 184.341 78.5468 184.341 78.6468C184.341 78.7468 184.341 78.7468 184.241 78.8468L176.141 83.9468C176.241 83.9468 176.241 83.9468 176.141 83.9468ZM174.941 80.7468L176.241 83.4468L183.841 78.6468L182.341 77.7468C181.541 77.2468 180.741 77.1468 180.141 77.5468L174.941 80.7468Z" fill="#150035"/>
<path d="M197.839 98.1468L196.039 117.647L196.939 119.747C196.939 119.747 202.239 116.547 202.339 116.447C203.039 115.947 203.539 114.947 203.539 113.447V94.7468L197.839 98.1468Z" fill="#150035"/>
<path d="M196.94 120.047C196.84 120.047 196.74 119.947 196.74 119.947L195.84 117.847V117.747L197.64 98.2468C197.64 98.1468 197.64 98.1468 197.74 98.0468L203.54 94.7468C203.64 94.7468 203.64 94.7468 203.74 94.7468C203.84 94.7468 203.84 94.8468 203.84 94.9468V113.647C203.84 115.147 203.34 116.247 202.54 116.847C202.44 116.847 198.04 119.547 197.14 120.147C197.04 120.047 197.04 120.047 196.94 120.047ZM196.24 117.647L197.04 119.547C198.94 118.447 202.14 116.447 202.24 116.447C202.94 115.947 203.34 114.947 203.34 113.647V95.3468L197.94 98.3468L196.24 117.647Z" fill="#150035"/>
<path d="M182.439 77.6467L199.739 87.6467C200.739 88.2467 201.639 89.2467 202.239 90.4467L196.939 93.6467L176.039 81.5467L182.439 77.6467Z" fill="white"/>
<path d="M196.94 93.7468H196.84L175.94 81.6468C175.84 81.6468 175.84 81.5468 175.84 81.4468C175.84 81.3468 175.84 81.3468 175.94 81.2468L182.24 77.4468C182.34 77.4468 182.34 77.4468 182.44 77.4468L199.74 87.4468C200.74 88.0468 201.64 89.0468 202.34 90.2468C202.44 90.3468 202.34 90.4468 202.24 90.5468L196.94 93.7468C197.04 93.7468 197.04 93.7468 196.94 93.7468ZM176.54 81.5468L197.04 93.3468L202.14 90.3468C201.44 89.2468 200.64 88.3468 199.84 87.8468L182.64 77.9468L176.54 81.5468Z" fill="#150035"/>
<path d="M177.14 109.647L194.44 119.647C196.54 120.847 198.24 119.547 198.24 116.747V98.0468C198.24 95.2468 196.54 92.0468 194.44 90.8468L177.14 80.8468C175.04 79.6468 173.34 80.9468 173.34 83.7468V102.447C173.34 105.147 175.04 108.447 177.14 109.647Z" fill="#54BAF9"/>
<path d="M195.941 120.247C195.441 120.247 194.941 120.047 194.341 119.747L177.041 109.747C174.941 108.547 173.141 105.247 173.141 102.347V83.6468C173.141 82.1468 173.641 80.9468 174.541 80.4468C175.241 80.0468 176.241 80.0468 177.241 80.6468L194.541 90.6468C196.641 91.8468 198.441 95.1468 198.441 98.0468V116.747C198.441 118.247 197.941 119.447 197.041 119.947C196.741 120.147 196.341 120.247 195.941 120.247ZM175.641 80.6468C175.341 80.6468 175.041 80.7468 174.741 80.8468C173.941 81.2468 173.541 82.3468 173.541 83.7468V102.447C173.541 105.147 175.141 108.347 177.241 109.447L194.541 119.447C195.341 119.947 196.141 120.047 196.841 119.647C197.641 119.247 198.041 118.147 198.041 116.747V98.0468C198.041 95.3468 196.441 92.1468 194.341 91.0468L177.041 81.0468C176.541 80.7468 176.041 80.6468 175.641 80.6468Z" fill="#150035"/>
<path d="M197.14 117.247C197.04 117.247 197.04 117.247 196.94 117.147C196.84 117.047 196.94 116.947 197.04 116.847L203.94 112.847C204.04 112.747 204.14 112.847 204.24 112.947C204.34 113.047 204.24 113.147 204.14 113.247L197.24 117.247C197.14 117.247 197.14 117.247 197.14 117.247Z" fill="#54BAF9"/>
<path d="M190.74 100.347C190.74 98.8468 190.24 97.1468 189.24 95.5468C188.34 93.9468 187.04 92.7468 185.74 92.0468C183.24 90.7468 181.24 91.9467 181.24 94.7467C181.24 97.1467 182.54 100.147 184.54 102.047V106.747C184.54 107.647 185.14 108.647 185.94 109.147L187.74 110.147C188.54 110.547 189.14 110.247 189.14 109.347C189.14 108.447 188.54 107.347 187.74 106.947L187.34 106.747V105.547L188.64 106.247C188.84 106.347 189.04 106.247 189.04 106.047C189.04 105.847 188.84 105.547 188.64 105.347L187.34 104.647V103.647C189.34 104.047 190.74 102.747 190.74 100.347ZM187.74 107.747C188.14 107.947 188.34 108.447 188.34 108.847C188.34 109.247 188.04 109.447 187.74 109.247L185.94 108.247C185.64 108.047 185.34 107.547 185.34 107.147V102.147C185.34 101.947 185.24 101.747 185.04 101.547C183.24 100.047 181.94 97.3467 181.94 95.2467C181.94 92.8467 183.74 91.8468 185.74 92.9468C185.84 92.9468 185.84 93.0468 185.94 93.0468C186.94 93.6468 187.94 94.6468 188.74 95.9468C189.54 97.2468 189.94 98.7468 189.94 99.9468C189.94 102.047 188.64 103.147 186.84 102.647C186.64 102.547 186.54 102.747 186.54 102.947V104.747V106.747C186.54 106.947 186.74 107.247 186.94 107.447L187.74 107.747Z" fill="white"/>
<path d="M188.04 98.8467C188.04 97.5467 187.14 95.9467 185.94 95.2467C184.84 94.5467 183.84 95.1467 183.84 96.4467C183.84 97.7467 184.74 99.3467 185.94 100.047C187.14 100.747 188.04 100.247 188.04 98.8467ZM185.94 99.2467C185.24 98.8467 184.64 97.8467 184.64 96.9467C184.64 96.0467 185.24 95.7467 185.94 96.1467C186.64 96.5467 187.24 97.5467 187.24 98.4467C187.24 99.3467 186.74 99.6467 185.94 99.2467Z" fill="white"/>
</svg>
