<svg width="40" height="40" viewBox="0 0 40 40" fill="none" xmlns="http://www.w3.org/2000/svg">
<path d="M19.9999 13.3845C17.4552 13.3845 15.3845 15.4552 15.3845 17.9999V31.8461C15.3845 32.3563 15.7978 32.7691 16.3076 32.7691C16.8174 32.7691 17.2307 32.3563 17.2307 31.8461V17.9999C17.2307 16.4728 18.4728 15.2307 19.9999 15.2307C21.527 15.2307 22.7691 16.4728 22.7691 17.9999C22.7691 18.5097 23.1824 18.923 23.6922 18.923C24.202 18.923 24.6153 18.5097 24.6153 17.9999C24.6153 15.4552 22.5447 13.3845 19.9999 13.3845Z" fill="white"/>
<path d="M20 17.0769C19.4902 17.0769 19.0769 17.4902 19.0769 18V26.3077C19.0769 26.8174 19.4902 27.2307 20 27.2307C20.5098 27.2307 20.9231 26.8174 20.9231 26.3077V18C20.9231 17.4902 20.5098 17.0769 20 17.0769Z" fill="white"/>
<path d="M20 29.0769C19.4902 29.0769 19.0769 29.4902 19.0769 30V32.4615C19.0769 32.9718 19.4902 33.3846 20 33.3846C20.5098 33.3846 20.9231 32.9718 20.9231 32.4615V30C20.9231 29.4902 20.5098 29.0769 20 29.0769Z" fill="white"/>
<path d="M23.6924 20.7693C23.1826 20.7693 22.7693 21.1826 22.7693 21.6924V31.8462C22.7693 32.3564 23.1826 32.7693 23.6924 32.7693C24.2021 32.7693 24.6154 32.3564 24.6154 31.8462V21.6924C24.6154 21.1826 24.2021 20.7693 23.6924 20.7693Z" fill="white"/>
<path d="M12.6155 22.6155C12.1057 22.6155 11.6924 23.0288 11.6924 23.5386V30.0001C11.6924 30.5103 12.1057 30.9232 12.6155 30.9232C13.1252 30.9232 13.5385 30.5103 13.5385 30.0001V23.5386C13.5385 23.0288 13.1252 22.6155 12.6155 22.6155Z" fill="white"/>
<path d="M31.0769 20.7693C30.5671 20.7693 30.1538 21.1826 30.1538 21.6924V25.077C30.1538 25.5867 30.5671 26.0001 31.0769 26.0001C31.5867 26.0001 32 25.5867 32 25.077V21.6924C32 21.1826 31.5867 20.7693 31.0769 20.7693Z" fill="white"/>
<path d="M26.5026 14.3769C26.0298 14.5684 25.8018 15.1062 25.9929 15.579C26.3039 16.3474 26.4616 17.1619 26.4616 17.9998V29.9998C26.4616 30.51 26.8749 30.9229 27.3847 30.9229C27.8944 30.9229 28.3078 30.51 28.3078 29.9998V17.9998C28.3078 16.9235 28.1049 15.876 27.7047 14.8867C27.5136 14.4143 26.9781 14.1862 26.5026 14.3769V14.3769Z" fill="white"/>
<path d="M20.0001 9.69238C15.4194 9.69238 11.6924 13.4194 11.6924 18.0001V19.8462C11.6924 20.356 12.1057 20.7693 12.6155 20.7693C13.1252 20.7693 13.5385 20.356 13.5385 19.8462V18.0001C13.5385 14.4371 16.4371 11.5385 20.0001 11.5385C21.4879 11.5385 22.8852 12.0294 24.0417 12.9587C24.4406 13.2774 25.0202 13.2148 25.3398 12.8172C25.6589 12.4197 25.5954 11.8387 25.1983 11.5192C23.7316 10.341 21.8855 9.69238 20.0001 9.69238Z" fill="white"/>
<path d="M15.9355 8.69215C17.2196 8.13058 18.5871 7.84615 20.0001 7.84615C25.5989 7.84615 30.1539 12.4011 30.1539 18C30.1539 18.5098 30.5672 18.9231 31.077 18.9231C31.5867 18.9231 32.0001 18.5098 32.0001 18C32.0001 11.383 26.6171 6 20.0001 6C18.331 6 16.7148 6.33669 15.1962 7.00015C14.7288 7.20433 14.5157 7.74883 14.7198 8.21573C14.9249 8.68315 15.4694 8.89408 15.9355 8.69215V8.69215Z" fill="white"/>
<path d="M12.3594 9.92761C11.979 9.58688 11.3962 9.62023 11.0559 9.99973C9.08537 12.2015 8 15.0424 8 18V25.0771C8 25.5868 8.41331 26.0001 8.92308 26.0001C9.43285 26.0001 9.84615 25.5868 9.84615 25.0771V18C9.84615 15.4976 10.7643 13.0935 12.4315 11.2311C12.7713 10.8512 12.7393 10.2675 12.3594 9.92761Z" fill="white"/>
</svg>
