<svg width="24" height="24" viewBox="0 0 24 24" fill="none" xmlns="http://www.w3.org/2000/svg">
<g clip-path="url(#clip0_1663_5130)">
<path d="M12 0.889648L3.41003 4.25965V13.5396C3.41003 18.2896 12 22.8896 12 22.8896C12 22.8896 20.59 18.2896 20.59 13.5396V4.25965L12 0.889648Z" stroke="white" stroke-width="2" stroke-linejoin="round"/>
<path d="M13 15C13 15.2652 12.8946 15.5196 12.7071 15.7071C12.5196 15.8946 12.2652 16 12 16C11.7348 16 11.4804 15.8946 11.2929 15.7071C11.1054 15.5196 11 15.2652 11 15V9C11 8.73478 11.1054 8.48043 11.2929 8.29289C11.4804 8.10536 11.7348 8 12 8C12.2652 8 12.5196 8.10536 12.7071 8.29289C12.8946 8.48043 13 8.73478 13 9V15Z" fill="white"/>
</g>
<defs>
<clipPath id="clip0_1663_5130">
<rect width="24" height="24" fill="white" transform="translate(0 0.00012207)"/>
</clipPath>
</defs>
</svg>
