<svg width="24" height="24" viewBox="0 0 24 24" fill="none" xmlns="http://www.w3.org/2000/svg">
<g clip-path="url(#clip0_1663_5135)">
<path d="M20.82 14.2996L20.66 14.2096C20.3201 14.0198 20.0397 13.7394 19.85 13.3996C19.6599 13.0605 19.56 12.6783 19.56 12.2896V11.7396C19.5613 11.3542 19.6611 10.9755 19.85 10.6396C20.0397 10.2997 20.3201 10.0193 20.66 9.82956L20.82 9.72955C21.3132 9.43264 21.6717 8.95577 21.82 8.39955C21.895 8.11992 21.9133 7.82811 21.8738 7.54131C21.8343 7.2545 21.7378 6.9785 21.59 6.72956L21.35 6.30956C21.0574 5.80657 20.5774 5.43999 20.0152 5.29005C19.4529 5.14012 18.8542 5.21905 18.35 5.50956L18.19 5.59956C17.8509 5.78967 17.4687 5.88953 17.08 5.88956C16.6976 5.88925 16.3219 5.7893 15.99 5.59956L15.51 5.31956C15.1779 5.12756 14.902 4.85169 14.71 4.51955C14.5137 4.18618 14.4102 3.80641 14.41 3.41956V3.21956C14.4113 2.93028 14.3553 2.64361 14.2452 2.37609C14.1351 2.10858 13.9731 1.86553 13.7686 1.66097C13.564 1.45642 13.321 1.29442 13.0535 1.18433C12.7859 1.07423 12.4993 1.01823 12.21 1.01955H11.73C11.4407 1.01823 11.154 1.07423 10.8865 1.18433C10.619 1.29442 10.376 1.45642 10.1714 1.66097C9.96685 1.86553 9.80485 2.10858 9.69475 2.37609C9.58466 2.64361 9.52867 2.93028 9.52999 3.21956V3.41956C9.52983 3.80641 9.42626 4.18618 9.23 4.51955C9.03801 4.85169 8.76212 5.12756 8.42998 5.31956L7.95998 5.59956C7.62092 5.78967 7.23872 5.88953 6.85 5.88956C6.46764 5.88925 6.09196 5.7893 5.76 5.59956L5.58999 5.50956C5.08579 5.21905 4.48705 5.14012 3.9248 5.29005C3.36254 5.43999 2.88258 5.80657 2.58999 6.30956L2.33999 6.72956C2.19522 6.97948 2.10134 7.25557 2.06371 7.54193C2.02608 7.82829 2.04546 8.11926 2.12075 8.3981C2.19603 8.67694 2.32573 8.93813 2.50237 9.16664C2.67901 9.39515 2.8991 9.58646 3.14998 9.72955L3.30999 9.83955C3.64153 10.0321 3.91727 10.3076 4.11013 10.639C4.30299 10.9703 4.40634 11.3462 4.40999 11.7296V12.2896C4.40996 12.6783 4.3101 13.0605 4.11999 13.3996C3.93027 13.7394 3.64983 14.0198 3.30999 14.2096L3.14998 14.3096C2.8991 14.4527 2.67901 14.644 2.50237 14.8725C2.32573 15.101 2.19603 15.3622 2.12075 15.641C2.04546 15.9198 2.02608 16.2108 2.06371 16.4972C2.10134 16.7835 2.19522 17.0596 2.33999 17.3096L2.58999 17.7296C2.88258 18.2325 3.36254 18.5991 3.9248 18.7491C4.48705 18.899 5.08579 18.8201 5.58999 18.5296L5.76 18.4396C6.09196 18.2498 6.46764 18.1499 6.85 18.1496C7.23872 18.1496 7.62092 18.2494 7.95998 18.4396L8.42998 18.7196C8.76212 18.9116 9.03801 19.1874 9.23 19.5196C9.42626 19.8529 9.52983 20.2327 9.52999 20.6196V20.8196C9.52867 21.1088 9.58466 21.3955 9.69475 21.663C9.80485 21.9305 9.96685 22.1736 10.1714 22.3781C10.376 22.5827 10.619 22.7447 10.8865 22.8548C11.154 22.9649 11.4407 23.0209 11.73 23.0196H12.21C12.4993 23.0209 12.7859 22.9649 13.0535 22.8548C13.321 22.7447 13.564 22.5827 13.7686 22.3781C13.9731 22.1736 14.1351 21.9305 14.2452 21.663C14.3553 21.3955 14.4113 21.1088 14.41 20.8196V20.6196C14.4102 20.2327 14.5137 19.8529 14.71 19.5196C14.902 19.1874 15.1779 18.9116 15.51 18.7196L15.99 18.4396C16.3219 18.2498 16.6976 18.1499 17.08 18.1496C17.4687 18.1496 17.8509 18.2494 18.19 18.4396L18.35 18.5296C18.8542 18.8201 19.4529 18.899 20.0152 18.7491C20.5774 18.5991 21.0574 18.2325 21.35 17.7296L21.59 17.2996C21.7378 17.0506 21.8343 16.7746 21.8738 16.4878C21.9133 16.201 21.895 15.9092 21.82 15.6296C21.6717 15.0733 21.3132 14.5965 20.82 14.2996V14.2996ZM12 14.9996C11.4066 14.9996 10.8266 14.8236 10.3333 14.494C9.83993 14.1643 9.45542 13.6958 9.22835 13.1476C9.00129 12.5994 8.94188 11.9962 9.05764 11.4143C9.17339 10.8323 9.45913 10.2978 9.87868 9.87823C10.2982 9.45868 10.8328 9.17296 11.4147 9.05721C11.9967 8.94145 12.5999 9.00086 13.148 9.22792C13.6962 9.45498 14.1648 9.83949 14.4944 10.3328C14.824 10.8262 15 11.4062 15 11.9996C15 12.7952 14.6839 13.5583 14.1213 14.1209C13.5587 14.6835 12.7956 14.9996 12 14.9996Z" stroke="white" stroke-width="2" stroke-linejoin="round"/>
</g>
<defs>
<clipPath id="clip0_1663_5135">
<rect width="24" height="24" fill="white"/>
</clipPath>
</defs>
</svg>
