<svg width="24" height="24" viewBox="0 0 24 24" fill="none" xmlns="http://www.w3.org/2000/svg">
<g clip-path="url(#clip0_1663_5137)">
<path d="M18.39 6.87998C18.3893 6.05568 18.2235 5.23986 17.9023 4.48071C17.5811 3.72155 17.1111 3.03445 16.5199 2.45998C15.3096 1.29877 13.6972 0.650391 12.0199 0.650391C10.3426 0.650391 8.73028 1.29877 7.51994 2.45998C6.9288 3.03445 6.45877 3.72155 6.13759 4.48071C5.81641 5.23986 5.65059 6.05568 5.64995 6.87998C5.64995 14.16 2.44995 16.24 2.44995 16.24H21.63C21.63 16.24 18.39 14.16 18.39 6.87998Z" stroke="white" stroke-width="2" stroke-linejoin="round"/>
<path d="M8.79993 19.4502C8.79993 20.2989 9.13707 21.1128 9.73718 21.7129C10.3373 22.3131 11.1512 22.6502 11.9999 22.6502C12.8486 22.6502 13.6626 22.3131 14.2627 21.7129C14.8628 21.1128 15.2 20.2989 15.2 19.4502" stroke="white" stroke-width="2" stroke-linejoin="round"/>
</g>
<defs>
<clipPath id="clip0_1663_5137">
<rect width="24" height="24" fill="white"/>
</clipPath>
</defs>
</svg>
