<svg width="65" height="64" viewBox="0 0 65 64" fill="none" xmlns="http://www.w3.org/2000/svg">
<path fill-rule="evenodd" clip-rule="evenodd" d="M61.0527 40.7807C62.0941 41.8221 62.0941 43.5106 61.0527 44.552L50.3861 55.2186C49.3447 56.26 47.6562 56.26 46.6148 55.2186L41.2815 49.8853C40.2401 48.8439 40.2401 47.1555 41.2815 46.1141C42.3229 45.0727 44.0113 45.0727 45.0527 46.1141L48.5005 49.5618L57.2815 40.7807C58.3229 39.7393 60.0113 39.7393 61.0527 40.7807Z" fill="white"/>
<path fill-rule="evenodd" clip-rule="evenodd" d="M18.5965 38.6663C22.5406 38.6672 26.4847 38.6678 30.4288 38.6663C30.7465 38.6662 31.1258 38.6661 31.46 38.6934C31.8473 38.725 32.4019 38.8062 32.9831 39.1023C33.7357 39.4858 34.3477 40.0977 34.7312 40.8504C35.0273 41.4316 35.1085 41.9862 35.1401 42.3735C35.1674 42.7077 35.1673 43.087 35.1671 43.4047C35.1659 46.9125 35.1659 50.4202 35.1671 53.928C35.1673 54.2457 35.1674 54.625 35.1401 54.9592C35.1085 55.3465 35.0273 55.9011 34.7312 56.4823C34.3477 57.235 33.7357 57.8469 32.9831 58.2304C32.4019 58.5265 31.8473 58.6077 31.46 58.6393C31.1258 58.6666 30.7465 58.6665 30.4288 58.6664C22.7558 58.6636 15.0814 58.6255 7.4085 58.6666C7.2182 58.6676 6.83566 58.6696 6.47253 58.6056C4.81649 58.3136 3.5199 57.017 3.2279 55.3609C3.16387 54.9978 3.16591 54.6153 3.16692 54.425C3.17531 52.8493 3.09483 51.2432 3.36969 49.6844C4.34305 44.1642 8.665 39.8423 14.1851 38.8689C15.3382 38.6656 16.6587 38.6659 18.5965 38.6663Z" fill="white"/>
<path fill-rule="evenodd" clip-rule="evenodd" d="M12.5005 19.9997C12.5005 11.8995 19.067 5.33301 27.1671 5.33301C35.2673 5.33301 41.8338 11.8995 41.8338 19.9997C41.8338 28.0998 35.2673 34.6663 27.1671 34.6663C19.067 34.6663 12.5005 28.0998 12.5005 19.9997Z" fill="white"/>
</svg>
