<svg width="40" height="40" viewBox="0 0 40 40" fill="none" xmlns="http://www.w3.org/2000/svg">
<g clip-path="url(#clip0_5979_17368)">
<path d="M16.6547 16.1522L12.6629 21.1063C12.2514 20.9283 11.8008 20.8273 11.3257 20.8273C9.49388 20.8273 8 22.2943 8 24.0931C8 25.892 9.49388 27.359 11.3257 27.359C13.1576 27.359 14.6514 25.892 14.6514 24.0931C14.6514 23.3572 14.4016 22.6742 13.9804 22.1259L17.9722 17.1718C18.3396 17.3594 18.7412 17.4989 19.1576 17.5759V24.5741C17.7273 24.9397 16.6694 26.2191 16.6694 27.7341C16.6694 29.5378 18.1633 31 19.9951 31C21.8269 31 23.3208 29.533 23.3208 27.7341C23.3208 26.2191 22.2629 24.9397 20.8327 24.5741V17.5807C21.2392 17.5037 21.6212 17.3739 21.9788 17.1959L25.9755 22.174C25.5739 22.7127 25.3339 23.3765 25.3339 24.0979C25.3339 25.8968 26.8278 27.3638 28.6596 27.3638C30.4914 27.3638 32 25.8968 32 24.0931C32 22.2943 30.5061 20.8273 28.6743 20.8273C28.1796 20.8273 27.7094 20.9331 27.2882 21.1255L23.3159 16.181C23.9967 15.4163 24.4131 14.4206 24.4131 13.3288C24.4131 10.9432 22.4343 9 20.0049 9C17.5755 9 15.5967 10.9432 15.5967 13.3288C15.5918 14.4062 15.9935 15.3922 16.6547 16.1522ZM11.3257 25.714C10.4196 25.714 9.68 24.9878 9.68 24.0979C9.68 23.2081 10.4196 22.4819 11.3257 22.4819C12.2318 22.4819 12.9714 23.2081 12.9714 24.0979C12.9714 24.9878 12.2367 25.714 11.3257 25.714ZM21.6457 27.7438C21.6457 28.6336 20.9061 29.3599 20 29.3599C19.0939 29.3599 18.3543 28.6336 18.3543 27.7438C18.3543 26.8636 19.0743 26.1469 19.9706 26.1277C19.9804 26.1277 19.9902 26.1277 20.0049 26.1277C20.0147 26.1277 20.0245 26.1277 20.0392 26.1277C20.9257 26.1421 21.6457 26.8636 21.6457 27.7438ZM30.32 24.0931C30.32 24.9829 29.5804 25.7092 28.6743 25.7092C27.7682 25.7092 27.0286 24.9829 27.0286 24.0931C27.0286 23.2033 27.7682 22.477 28.6743 22.477C29.5804 22.477 30.32 23.2033 30.32 24.0931ZM20 10.6498C21.5037 10.6498 22.7282 11.8522 22.7282 13.3288C22.7282 14.8054 21.5037 16.0079 20 16.0079C18.4963 16.0079 17.2718 14.8054 17.2718 13.3288C17.2718 11.8522 18.4963 10.6498 20 10.6498Z" fill="white"/>
</g>
<defs>
<clipPath id="clip0_5979_17368">
<rect width="40" height="40" fill="white"/>
</clipPath>
</defs>
</svg>
