<svg width="33" height="32" viewBox="0 0 33 32" fill="none" xmlns="http://www.w3.org/2000/svg">
<path d="M29.5 13.4094V25.9996C29.5 27.1041 28.6046 27.9996 27.5 27.9996H21.875C21.3227 27.9996 20.875 27.5519 20.875 26.9996V22C20.875 20.8954 19.9796 20 18.875 20H14.875C13.7704 20 12.875 20.8954 12.875 22V26.9996C12.875 27.5519 12.4273 27.9996 11.875 27.9996H5.5C4.39543 27.9996 3.5 27.1041 3.5 25.9996V13.4094C3.5 12.3496 4.05923 11.3684 4.97113 10.8282L14.9711 4.90514C15.9139 4.34673 17.0861 4.34673 18.0289 4.90513L28.0289 10.8282C28.9408 11.3684 29.5 12.3496 29.5 13.4094Z" fill="white"/>
</svg>
