<svg width="33" height="32" viewBox="0 0 33 32" fill="none" xmlns="http://www.w3.org/2000/svg">
<path fill-rule="evenodd" clip-rule="evenodd" d="M12.7366 27.8571C12.7366 27.226 13.2422 26.7143 13.866 26.7143H18.384C19.0078 26.7143 19.5134 27.226 19.5134 27.8571C19.5134 28.4883 19.0078 29 18.384 29H13.866C13.2422 29 12.7366 28.4883 12.7366 27.8571Z" fill="white"/>
<path fill-rule="evenodd" clip-rule="evenodd" d="M10.5344 7.34315C12.0171 5.84285 14.0281 5 16.125 5C18.2219 5 20.2329 5.84285 21.7156 7.34315C23.1984 8.84344 24.0314 10.8783 24.0314 13C24.0314 16.3288 24.8581 18.5358 25.7249 19.9453L25.7383 19.9671C26.1418 20.6233 26.4609 21.142 26.6759 21.5196C26.7837 21.7088 26.8819 21.8911 26.9546 22.0531C26.9909 22.134 27.0315 22.2331 27.0632 22.3409C27.0895 22.4303 27.1397 22.6214 27.1209 22.854C27.1082 23.0104 27.0767 23.2775 26.9252 23.5535C26.7737 23.8295 26.5662 23.9977 26.4417 24.0911C26.159 24.3033 25.8343 24.3518 25.726 24.368L25.721 24.3688C25.5545 24.3937 25.3655 24.4061 25.1749 24.4136C24.7963 24.4286 24.272 24.4286 23.6201 24.4286H8.62994C7.97798 24.4286 7.45374 24.4286 7.07507 24.4136C6.88447 24.4061 6.69553 24.3937 6.52903 24.3688L6.52403 24.368C6.41568 24.3518 6.09104 24.3033 5.80834 24.0911C5.68382 23.9977 5.47631 23.8295 5.32479 23.5535C5.17326 23.2775 5.14176 23.0104 5.12912 22.854C5.11032 22.6214 5.16047 22.4303 5.18679 22.3409C5.21852 22.2331 5.25912 22.134 5.2954 22.0531C5.3681 21.8911 5.46629 21.7088 5.57407 21.5196C5.78915 21.142 6.10821 20.6232 6.51179 19.9669L6.52512 19.9453C7.39185 18.5358 8.21864 16.3288 8.21864 13C8.21864 10.8783 9.05163 8.84344 10.5344 7.34315Z" fill="white"/>
</svg>
