<svg width="33" height="32" viewBox="0 0 33 32" fill="none" xmlns="http://www.w3.org/2000/svg">
<path d="M28.3046 29C28.6792 29 28.8666 29 29.0097 28.9264C29.1356 28.8616 29.2379 28.7582 29.3021 28.6311C29.375 28.4866 29.375 28.2974 29.375 27.919V13.8654C29.375 13.487 29.375 13.2978 29.3021 13.1532C29.2379 13.0261 29.1356 12.9227 29.0097 12.858C28.8666 12.7843 28.6792 12.7843 28.3046 12.7843L25.0932 12.7843C24.7185 12.7843 24.5312 12.7843 24.3881 12.858C24.2622 12.9227 24.1598 13.0261 24.0957 13.1532C24.0228 13.2978 24.0228 13.487 24.0228 13.8654V17.1085C24.0228 17.4869 24.0228 17.6761 23.9498 17.8206C23.8857 17.9478 23.7834 18.0511 23.6575 18.1159C23.5144 18.1895 23.327 18.1895 22.9523 18.1895H19.741C19.3663 18.1895 19.1789 18.1895 19.0358 18.2632C18.9099 18.328 18.8076 18.4313 18.7435 18.5585C18.6705 18.703 18.6705 18.8922 18.6705 19.2706V22.5137C18.6705 22.8921 18.6705 23.0813 18.5976 23.2259C18.5335 23.353 18.4311 23.4563 18.3052 23.5211C18.1621 23.5948 17.9748 23.5948 17.6001 23.5948H14.3888C14.0141 23.5948 13.8267 23.5948 13.6836 23.6684C13.5577 23.7332 13.4554 23.8365 13.3912 23.9637C13.3183 24.1082 13.3183 24.2974 13.3183 24.6758V27.919C13.3183 28.2974 13.3183 28.4865 13.3912 28.6311C13.4554 28.7582 13.5577 28.8616 13.6836 28.9264C13.8267 29 14.0141 29 14.3888 29L28.3046 29Z" fill="white"/>
<path d="M14.254 8.40721C14.254 8.02881 14.254 7.8396 14.3269 7.69507C14.3911 7.56794 14.4934 7.46458 14.6193 7.3998C14.7624 7.32616 14.9498 7.32616 15.3245 7.32616H18.5358C18.9105 7.32616 19.0978 7.32616 19.2409 7.3998C19.3668 7.46458 19.4692 7.56794 19.5333 7.69507C19.6062 7.8396 19.6062 8.02881 19.6062 8.40721V11.6503C19.6062 12.0288 19.6062 12.218 19.5333 12.3625C19.4692 12.4896 19.3668 12.593 19.2409 12.6578C19.0978 12.7314 18.9105 12.7314 18.5358 12.7314H15.3245C14.9498 12.7314 14.7624 12.7314 14.6193 12.6578C14.4934 12.593 14.3911 12.4896 14.3269 12.3625C14.254 12.218 14.254 12.0288 14.254 11.6503V8.40721Z" fill="white"/>
<path d="M5.58564 16.6096C5.58564 16.2312 5.58564 16.042 5.65856 15.8974C5.7227 15.7703 5.82505 15.6669 5.95094 15.6021C6.09405 15.5285 6.2814 15.5285 6.65609 15.5285H9.86743C10.2421 15.5285 10.4295 15.5285 10.5726 15.6021C10.6985 15.6669 10.8008 15.7703 10.865 15.8974C10.9379 16.042 10.9379 16.2312 10.9379 16.6096V19.8527C10.9379 20.2311 10.9379 20.4203 10.865 20.5648C10.8008 20.6919 10.6985 20.7953 10.5726 20.8601C10.4295 20.9337 10.2421 20.9337 9.86743 20.9337H6.65609C6.2814 20.9337 6.09405 20.9337 5.95094 20.8601C5.82505 20.7953 5.7227 20.6919 5.65856 20.5648C5.58564 20.4203 5.58564 20.2311 5.58564 19.8527V16.6096Z" fill="white"/>
<path d="M2.375 5.08105C2.375 4.70264 2.375 4.51344 2.44792 4.36891C2.51206 4.24178 2.61441 4.13842 2.7403 4.07364C2.88341 4 3.07076 4 3.44545 4H6.65679C7.03148 4 7.21882 4 7.36194 4.07364C7.48782 4.13842 7.59017 4.24178 7.65431 4.36891C7.72723 4.51344 7.72723 4.70264 7.72723 5.08105V8.32419C7.72723 8.70259 7.72723 8.89179 7.65431 9.03632C7.59017 9.16345 7.48782 9.26681 7.36194 9.33159C7.21882 9.40523 7.03148 9.40523 6.65679 9.40523H3.44545C3.07076 9.40523 2.88341 9.40523 2.7403 9.33159C2.61441 9.26681 2.51206 9.16345 2.44792 9.03632C2.375 8.89179 2.375 8.70259 2.375 8.32419V5.08105Z" fill="white"/>
</svg>
