<svg width="33" height="32" viewBox="0 0 33 32" fill="none" xmlns="http://www.w3.org/2000/svg">
<g opacity="0.9">
<path fill-rule="evenodd" clip-rule="evenodd" d="M5.625 5C4.52043 5 3.625 5.89543 3.625 7V24C3.625 25.1046 4.52043 26 5.625 26H7.625V28C7.625 28.5523 8.07272 29 8.625 29C9.17728 29 9.625 28.5523 9.625 28V26H23.625V28C23.625 28.5523 24.0727 29 24.625 29C25.1773 29 25.625 28.5523 25.625 28V26H27.625C28.7296 26 29.625 25.1046 29.625 24V7C29.625 5.89543 28.7296 5 27.625 5H5.625ZM16.125 16C16.125 14.6193 17.2443 13.5 18.625 13.5C20.0057 13.5 21.125 14.6193 21.125 16C21.125 17.3807 20.0057 18.5 18.625 18.5C17.2443 18.5 16.125 17.3807 16.125 16ZM18.625 11.5C16.1397 11.5 14.125 13.5147 14.125 16C14.125 18.4853 16.1397 20.5 18.625 20.5C20.7666 20.5 22.5588 19.004 23.0135 17H26.7188C27.271 17 27.7188 16.5523 27.7188 16C27.7188 15.4477 27.271 15 26.7188 15H23.0135C22.5588 12.996 20.7666 11.5 18.625 11.5Z" fill="white"/>
</g>
</svg>
