<svg width="20" height="20" viewBox="0 0 20 20" fill="none" xmlns="http://www.w3.org/2000/svg">
<defs>
<linearGradient id="paint0_linear_165_9203" x1="12.4114" y1="18.1751" x2="7.58892" y2="1.82504" gradientUnits="userSpaceOnUse">
<stop stop-color="#00BEFF"/>
<stop offset="0.12" stop-color="#07C0FF"/>
<stop offset="0.31" stop-color="#1AC5FF"/>
<stop offset="0.52" stop-color="#3ACDFF"/>
<stop offset="0.76" stop-color="#66D8FF"/>
<stop offset="1" stop-color="#99E5FF"/>
</linearGradient>
<linearGradient id="paint1_linear_165_9203" x1="8.9819" y1="19.7151" x2="5.02035" y2="6.28188" gradientUnits="userSpaceOnUse">
<stop stop-color="#6000ED"/>
<stop offset="0.02" stop-color="#6204ED" stop-opacity="0.96"/>
<stop offset="0.23" stop-color="#7421EF" stop-opacity="0.68"/>
<stop offset="0.43" stop-color="#843AF1" stop-opacity="0.43"/>
<stop offset="0.61" stop-color="#8F4DF2" stop-opacity="0.25"/>
<stop offset="0.76" stop-color="#985BF3" stop-opacity="0.11"/>
<stop offset="0.9" stop-color="#9D63F4" stop-opacity="0.03"/>
<stop offset="0.99" stop-color="#9F66F4" stop-opacity="0"/>
</linearGradient>
<linearGradient id="paint2_linear_165_9203" x1="14.98" y1="13.717" x2="11.0176" y2="0.284667" gradientUnits="userSpaceOnUse">
<stop offset="0.01" stop-color="#9F66F4" stop-opacity="0"/>
<stop offset="0.1" stop-color="#9D63F4" stop-opacity="0.03"/>
<stop offset="0.24" stop-color="#985BF3" stop-opacity="0.11"/>
<stop offset="0.39" stop-color="#8F4DF2" stop-opacity="0.25"/>
<stop offset="0.57" stop-color="#843AF1" stop-opacity="0.43"/>
<stop offset="0.77" stop-color="#7421EF" stop-opacity="0.68"/>
<stop offset="0.98" stop-color="#6204ED" stop-opacity="0.96"/>
<stop offset="1" stop-color="#6000ED"/>
</linearGradient>
</defs>
<path d="M9.99998 18.521C14.7061 18.521 18.5212 14.7059 18.5212 9.99973C18.5212 5.2936 14.7061 1.47852 9.99998 1.47852C5.29384 1.47852 1.47876 5.2936 1.47876 9.99973C1.47876 14.7059 5.29384 18.521 9.99998 18.521Z" fill="url(#paint0_linear_165_9203)"/>
<path d="M7.00122 20C10.8679 20 14.0024 16.8655 14.0024 12.9988C14.0024 9.13211 10.8679 5.99756 7.00122 5.99756C3.13455 5.99756 0 9.13211 0 12.9988C0 16.8655 3.13455 20 7.00122 20Z" fill="url(#paint1_linear_165_9203)"/>
<path d="M12.9988 14.0024C16.8655 14.0024 20 10.8679 20 7.00122C20 3.13455 16.8655 0 12.9988 0C9.13211 0 5.99756 3.13455 5.99756 7.00122C5.99756 10.8679 9.13211 14.0024 12.9988 14.0024Z" fill="url(#paint2_linear_165_9203)"/>
</svg>
