<svg width="65" height="64" viewBox="0 0 65 64" fill="none" xmlns="http://www.w3.org/2000/svg">
<path d="M31.7209 6.11601C30.6795 5.07461 28.9911 5.07461 27.9497 6.11601C26.9083 7.15741 26.9083 8.84585 27.9497 9.88725L34.0641 16.0016H11.1686C9.69586 16.0016 8.50195 17.1955 8.50195 18.6683C8.50195 20.1411 9.69586 21.335 11.1686 21.335H34.0641L27.9497 27.4493C26.9083 28.4907 26.9083 30.1792 27.9497 31.2206C28.9911 32.262 30.6795 32.262 31.7209 31.2206L42.3876 20.5539C43.429 19.5125 43.429 17.8241 42.3876 16.7827L31.7209 6.11601Z" fill="white"/>
<path d="M8.50195 45.335C8.50195 43.8622 9.69586 42.6683 11.1686 42.6683H47.3974L41.283 36.5539C40.2416 35.5125 40.2416 33.8241 41.283 32.7827C42.3244 31.7413 44.0128 31.7413 45.0542 32.7827L55.7209 43.4493C56.7623 44.4907 56.7623 46.1792 55.7209 47.2206L45.0542 57.8872C44.0128 58.9286 42.3244 58.9286 41.283 57.8872C40.2416 56.8458 40.2416 55.1574 41.283 54.116L47.3974 48.0016H11.1686C9.69586 48.0016 8.50195 46.8077 8.50195 45.335Z" fill="white"/>
</svg>