<svg width="35" height="33" viewBox="0 0 35 33" fill="none" xmlns="http://www.w3.org/2000/svg">
<path d="M11.3448 11.1314C14.4187 11.1314 16.9105 8.63959 16.9105 5.56572C16.9105 2.49186 14.4187 0 11.3448 0C8.27094 0 5.77908 2.49186 5.77908 5.56572C5.77908 8.63959 8.27094 11.1314 11.3448 11.1314Z" fill="#54BAF9"/>
<path d="M22.6989 23.998C22.6771 22.5288 22.3661 21.0783 21.7837 19.7293C21.2013 18.3804 20.3589 17.1594 19.3045 16.136C18.2502 15.1127 17.0046 14.307 15.6388 13.7652C14.2731 13.2233 12.8139 12.9557 11.3448 12.9778C9.87686 12.9557 8.41894 13.223 7.05432 13.7644C5.6897 14.3059 4.44511 15.1108 3.39161 16.1333C2.33812 17.1558 1.49637 18.3758 0.914429 19.7236C0.332489 21.0715 0.0217639 22.5207 0 23.9887V25.6398H22.6989V23.998Z" fill="#54BAF9"/>
<path d="M11.23 20.8203H16.7L24.98 29.4303H30.23" stroke="white" stroke-width="2" stroke-linecap="round" stroke-linejoin="round"/>
<path d="M11.23 29.4303H16.7L24.98 20.8203H30.23" stroke="white" stroke-width="2" stroke-linecap="round" stroke-linejoin="round"/>
<path d="M29.26 23.1904L32.37 20.8204L29.26 18.4404" stroke="white" stroke-width="2" stroke-miterlimit="10" stroke-linecap="round"/>
<path d="M29.26 31.8098L32.37 29.4298L29.26 27.0498" stroke="white" stroke-width="2" stroke-miterlimit="10" stroke-linecap="round"/>
</svg>
