<svg width="20" height="20" viewBox="0 0 20 20" fill="none" xmlns="http://www.w3.org/2000/svg">
<path fill-rule="evenodd" clip-rule="evenodd" d="M14.334 0.750732H5.665C2.644 0.750732 0.75 2.88973 0.75 5.91673V14.0847C0.75 17.1117 2.635 19.2507 5.665 19.2507H14.333C17.364 19.2507 19.25 17.1117 19.25 14.0847V5.91673C19.25 2.88973 17.364 0.750732 14.334 0.750732Z" stroke="white" stroke-width="1.5" stroke-linecap="round" stroke-linejoin="round"/>
<path fill-rule="evenodd" clip-rule="evenodd" d="M8.68911 10.0007C8.68911 11.0237 7.86011 11.8527 6.83711 11.8527C5.81411 11.8527 4.98511 11.0237 4.98511 10.0007C4.98511 8.97768 5.81411 8.14868 6.83711 8.14868H6.84011C7.86111 8.14968 8.68911 8.97868 8.68911 10.0007Z" stroke="white" stroke-width="1.5" stroke-linecap="round" stroke-linejoin="round"/>
<path d="M8.69189 10.0007H15.0099V11.8527" stroke="white" stroke-width="1.5" stroke-linecap="round" stroke-linejoin="round"/>
<path d="M12.1816 11.8527V10.0007" stroke="white" stroke-width="1.5" stroke-linecap="round" stroke-linejoin="round"/>
</svg>
