<svg width="18" height="20" viewBox="0 0 18 20" fill="none" xmlns="http://www.w3.org/2000/svg">
<path fill-rule="evenodd" clip-rule="evenodd" d="M15.7071 6.79706C15.7071 8.05299 16.039 8.79326 16.7695 9.64632C17.3231 10.2748 17.5 11.0815 17.5 11.9568C17.5 12.831 17.2128 13.6609 16.6373 14.3347C15.884 15.1424 14.8215 15.6581 13.7372 15.7477C12.1659 15.8817 10.5937 15.9945 9.0005 15.9945C7.40634 15.9945 5.83505 15.927 4.26375 15.7477C3.17846 15.6581 2.11602 15.1424 1.36367 14.3347C0.78822 13.6609 0.5 12.831 0.5 11.9568C0.5 11.0815 0.677901 10.2748 1.23049 9.64632C1.98384 8.79326 2.29392 8.05299 2.29392 6.79706V6.37103C2.29392 4.68907 2.71333 3.58925 3.577 2.51259C4.86106 0.942429 6.91935 0.000732422 8.95577 0.000732422H9.04522C11.1254 0.000732422 13.2502 0.987751 14.5125 2.6254C15.3314 3.6799 15.7071 4.73339 15.7071 6.37103V6.79706ZM6.07367 18.0616C6.07367 17.558 6.53582 17.3273 6.96318 17.2286C7.46309 17.1229 10.5093 17.1229 11.0092 17.2286C11.4366 17.3273 11.8987 17.558 11.8987 18.0616C11.8738 18.541 11.5926 18.966 11.204 19.2359C10.7001 19.6287 10.1088 19.8775 9.49057 19.9671C9.14868 20.0114 8.81276 20.0124 8.48279 19.9671C7.86362 19.8775 7.27227 19.6287 6.76938 19.2349C6.37978 18.966 6.09852 18.541 6.07367 18.0616Z" fill="white"/>
</svg>
