<svg width="20" height="20" viewBox="0 0 20 20" fill="none" xmlns="http://www.w3.org/2000/svg">
<path d="M7.13478 18.7741V15.7163C7.13478 14.9358 7.77217 14.303 8.55844 14.303H11.4326C11.8102 14.303 12.1723 14.4519 12.4393 14.717C12.7063 14.982 12.8563 15.3415 12.8563 15.7163V18.7741C12.8539 19.0986 12.9821 19.4106 13.2124 19.6409C13.4427 19.8712 13.756 20.0007 14.0829 20.0007H16.0438C16.9596 20.0031 17.8388 19.6436 18.4872 19.0015C19.1356 18.3595 19.5 17.4877 19.5 16.5786V7.86759C19.5 7.13319 19.1721 6.43657 18.6046 5.9654L11.934 0.676601C10.7737 -0.250706 9.11111 -0.220765 7.98539 0.747711L1.46701 5.9654C0.872741 6.42268 0.517552 7.12137 0.5 7.86759V16.5697C0.5 18.4646 2.04738 20.0007 3.95617 20.0007H5.87229C6.55123 20.0007 7.103 19.4569 7.10792 18.783L7.13478 18.7741Z" fill="white"/>
</svg>
