<svg width="22" height="22" viewBox="0 0 22 22" fill="none" xmlns="http://www.w3.org/2000/svg">
<path d="M8.15722 19.7721V16.7054C8.1572 15.9254 8.79312 15.2916 9.58101 15.2863H12.4671C13.2587 15.2863 13.9005 15.9217 13.9005 16.7054V16.7054V19.7817C13.9003 20.4439 14.4343 20.9852 15.103 21.0007H17.0271C18.9451 21.0007 20.5 19.4614 20.5 17.5626V17.5626V8.83857C20.4898 8.09156 20.1355 7.39008 19.538 6.93376L12.9577 1.68603C11.8049 0.772299 10.1662 0.772299 9.01342 1.68603L2.46203 6.94329C1.86226 7.39775 1.50739 8.1004 1.5 8.84809V17.5626C1.5 19.4614 3.05488 21.0007 4.97291 21.0007H6.89696C7.58235 21.0007 8.13797 20.4507 8.13797 19.7721V19.7721" stroke="white" stroke-width="1.5" stroke-linecap="round" stroke-linejoin="round"/>
</svg>
