<svg width="20" height="20" viewBox="0 0 20 20" fill="none" xmlns="http://www.w3.org/2000/svg">
<path fill-rule="evenodd" clip-rule="evenodd" d="M15.0108 12.602C15.4248 12.602 15.7608 12.266 15.7608 11.852V10C15.7608 9.586 15.4248 9.25 15.0108 9.25H9.31876C8.99476 8.183 8.01276 7.399 6.84076 7.399C5.40676 7.399 4.23976 8.566 4.23976 10C4.23976 11.435 5.40676 12.602 6.84076 12.602C8.01276 12.602 8.99476 11.818 9.31876 10.75H11.4308V11.852C11.4308 12.266 11.7668 12.602 12.1808 12.602C12.5948 12.602 12.9308 12.266 12.9308 11.852V10.75H14.2608V11.852C14.2608 12.266 14.5968 12.602 15.0108 12.602ZM5.66576 0H14.3348C17.7228 0 19.9998 2.378 19.9998 5.917V14.084C19.9998 17.623 17.7228 20 14.3338 20H5.66576C2.27676 20 -0.000244141 17.623 -0.000244141 14.084V5.917C-0.000244141 2.378 2.27676 0 5.66576 0ZM5.73886 10.0009C5.73886 9.3929 6.23386 8.8989 6.84086 8.8989C7.44786 8.8989 7.94286 9.3929 7.94286 10.0009C7.94286 10.6079 7.44786 11.1019 6.84086 11.1019C6.23386 11.1019 5.73886 10.6079 5.73886 10.0009Z" fill="white"/>
</svg>
