<svg width="18" height="20" viewBox="0 0 18 20" fill="none" xmlns="http://www.w3.org/2000/svg">
<path fill-rule="evenodd" clip-rule="evenodd" d="M8.7281 19.9144C8.83884 19.9722 8.96266 20.0017 9.08649 20.0007C9.21032 19.9997 9.33314 19.9693 9.44489 19.9105L13.0128 18.0032C14.0245 17.4639 14.8168 16.8608 15.435 16.1587C16.779 14.6289 17.5129 12.6766 17.4998 10.6634L17.4575 4.02272C17.4535 3.25784 16.9511 2.57534 16.2082 2.32725L9.57073 0.100297C9.17106 -0.0350268 8.73313 -0.032085 8.3405 0.107161L1.72824 2.41354C0.989299 2.67144 0.495998 3.35885 0.500024 4.1247L0.542307 10.7604C0.555395 12.7766 1.31448 14.7201 2.68062 16.2342C3.3048 16.9265 4.10415 17.5207 5.12699 18.0512L8.7281 19.9144ZM7.78357 12.1097C7.93257 12.2528 8.12586 12.3234 8.31916 12.3215C8.51245 12.3205 8.70474 12.2479 8.85172 12.1028L12.7508 8.25883C13.0438 7.96955 13.0408 7.50474 12.7448 7.21939C12.4478 6.93403 11.9696 6.93599 11.6766 7.22527L8.30808 10.5456L6.92885 9.21982C6.63186 8.93447 6.15467 8.93741 5.8607 9.22669C5.56774 9.51596 5.57076 9.98077 5.86775 10.2661L7.78357 12.1097Z" fill="white"/>
</svg>
