<svg width="37" height="30" viewBox="0 0 37 30" fill="none" xmlns="http://www.w3.org/2000/svg">
<path d="M10.59 0H3.91998C2.88033 0 1.88327 0.412997 1.14813 1.14814C0.41299 1.88328 0 2.88035 0 3.92V30H36.95V10.93C36.95 9.8999 36.5436 8.91139 35.8189 8.17926C35.0943 7.44713 34.11 7.03054 33.08 7.02H20.26C19.6928 7.02054 19.132 6.90044 18.6148 6.66769C18.0976 6.43494 17.6357 6.09485 17.26 5.67L13.5 1.35C13.1388 0.931006 12.6924 0.593865 12.1906 0.361069C11.6888 0.128273 11.1431 0.00517847 10.59 0Z" fill="#54BAF9"/>
<path d="M24.8 22.3501H12.15C11.5204 22.3501 11.01 22.8605 11.01 23.4901V24.0101C11.01 24.6397 11.5204 25.1501 12.15 25.1501H24.8C25.4296 25.1501 25.94 24.6397 25.94 24.0101V23.4901C25.94 22.8605 25.4296 22.3501 24.8 22.3501Z" fill="white"/>
</svg>
