<svg width="40" height="40" viewBox="0 0 40 40" fill="none" xmlns="http://www.w3.org/2000/svg">
<path fill-rule="evenodd" clip-rule="evenodd" d="M24.1474 15.2221V13.0358C24.1459 11.9659 23.7065 10.9403 22.9257 10.1837C22.1448 9.42717 21.0861 9.00149 19.9818 9H19.5862C18.4819 9.00149 17.4232 9.42717 16.6424 10.1837C15.8615 10.9403 15.4221 11.9659 15.4206 13.0358V15.175C14.2331 15.5008 13.0845 15.9623 12 16.5532V23.5426C12 27.663 19.7029 30.9999 19.7029 30.9999C19.7029 30.9999 27.4 27.663 27.4 23.5426V16.5532C26.3667 15.9902 25.2753 15.5447 24.1474 15.2221ZM22.9839 14.9356V13.0358C22.9823 12.2649 22.6655 11.526 22.1029 10.9808C21.5402 10.4357 20.7775 10.1288 19.9818 10.1273H19.5862C18.7905 10.1288 18.0278 10.4357 17.4651 10.9808C16.9025 11.526 16.5857 12.2649 16.5842 13.0358V14.9018C17.6058 14.7014 18.6495 14.5994 19.7 14.5994C20.8082 14.5994 21.9087 14.713 22.9839 14.9356Z" fill="#54BAF9"/>
<path d="M19.703 22.4829C21.0589 22.4829 22.1581 21.4179 22.1581 20.1042C22.1581 18.7905 21.0589 17.7256 19.703 17.7256C18.347 17.7256 17.2478 18.7905 17.2478 20.1042C17.2478 21.4179 18.347 22.4829 19.703 22.4829Z" fill="white"/>
<path d="M20.9247 19.3377H18.4695V26.3948H20.9247V19.3377Z" fill="white"/>
</svg>
