<svg width="27" height="40" viewBox="0 0 27 40" fill="none" xmlns="http://www.w3.org/2000/svg">
<path d="M13.7199 20.23H13.0399C11.1417 20.2273 9.32211 19.4721 7.97992 18.1299C6.63773 16.7878 5.88253 14.9681 5.87988 13.07V7.15997C5.88253 5.26184 6.63773 3.44222 7.97992 2.10004C9.32211 0.757849 11.1417 0.00264549 13.0399 0H13.7199C15.618 0.00264549 17.4377 0.757849 18.7798 2.10004C20.122 3.44222 20.8772 5.26184 20.8799 7.15997V13.07C20.8772 14.9681 20.122 16.7878 18.7798 18.1299C17.4377 19.4721 15.618 20.2273 13.7199 20.23ZM13.0399 2C11.6722 2.00264 10.3612 2.54711 9.39413 3.51422C8.42702 4.48134 7.88253 5.79227 7.87988 7.15997V13.07C7.87988 14.4385 8.42352 15.751 9.3912 16.7187C10.3589 17.6863 11.6714 18.23 13.0399 18.23H13.7199C14.3975 18.23 15.0685 18.0965 15.6945 17.8372C16.3206 17.5779 16.8894 17.1978 17.3685 16.7187C17.8477 16.2395 18.2278 15.6707 18.4871 15.0446C18.7464 14.4186 18.8799 13.7476 18.8799 13.07V7.15997C18.8772 5.79227 18.3327 4.48134 17.3656 3.51422C16.3985 2.54711 15.0876 2.00264 13.7199 2H13.0399Z" fill="#54BAF9"/>
<path d="M0 13.3999V25.7999C0 33.1099 13.24 39.0299 13.24 39.0299C13.24 39.0299 26.47 33.1099 26.47 25.7999V13.3999C22.4291 11.1274 17.8711 9.93359 13.235 9.93359C8.59889 9.93359 4.04091 11.1274 0 13.3999Z" fill="#54BAF9"/>
<path d="M13.24 23.92C15.5707 23.92 17.46 22.0306 17.46 19.7C17.46 17.3693 15.5707 15.48 13.24 15.48C10.9094 15.48 9.02002 17.3693 9.02002 19.7C9.02002 22.0306 10.9094 23.92 13.24 23.92Z" fill="white"/>
<path d="M15.3401 18.3401H11.1201V30.8601H15.3401V18.3401Z" fill="white"/>
</svg>
