<svg width="30" height="31" viewBox="0 0 30 31" fill="none" xmlns="http://www.w3.org/2000/svg">
<path d="M25 10C25 7.34784 23.9464 4.80429 22.0711 2.92892C20.1957 1.05356 17.6522 0 15 0C12.3478 0 9.80432 1.05356 7.92896 2.92892C6.05359 4.80429 5 7.34784 5 10C5 21.67 0 25 0 25H30C30 25 25 21.67 25 10Z" fill="#54BAF9"/>
<path d="M14.9399 31C17.1491 31 18.9399 29.2091 18.9399 27C18.9399 24.7909 17.1491 23 14.9399 23C12.7308 23 10.9399 24.7909 10.9399 27C10.9399 29.2091 12.7308 31 14.9399 31Z" fill="white"/>
</svg>
