<svg width="33" height="33" viewBox="0 0 33 33" fill="none" xmlns="http://www.w3.org/2000/svg">
<path d="M12.2305 12C15.5442 12 18.2305 9.31371 18.2305 6C18.2305 2.68629 15.5442 0 12.2305 0C8.91676 0 6.23047 2.68629 6.23047 6C6.23047 9.31371 8.91676 12 12.2305 12Z" fill="#54BAF9"/>
<path d="M24.47 25.8706C24.4465 24.2868 24.1113 22.7232 23.4835 21.2689C22.8556 19.8147 21.9474 18.4984 20.8108 17.3952C19.6742 16.292 18.3314 15.4235 16.8591 14.8394C15.3867 14.2552 13.8138 13.9668 12.23 13.9906C10.6475 13.9668 9.07585 14.2549 7.60475 14.8386C6.13365 15.4223 4.79195 16.29 3.65625 17.3923C2.52055 18.4946 1.61313 19.8098 0.985779 21.2628C0.358432 22.7158 0.0234621 24.2781 0 25.8606V27.6406H24.47V25.8706Z" fill="#54BAF9"/>
<path d="M25.3405 18.8701L27.6205 23.4801L32.7005 24.2201L29.0205 27.8101L29.8905 32.8701L25.3405 30.4801L20.7905 32.8701L21.6605 27.8101L17.9805 24.2201L23.0705 23.4801L25.3405 18.8701Z" fill="white"/>
</svg>
