<svg width="40" height="40" viewBox="0 0 40 40" fill="none" xmlns="http://www.w3.org/2000/svg">
<path d="M20.2814 17.0927C22.451 17.0927 24.2099 15.3339 24.2099 13.1642C24.2099 10.9945 22.451 9.2356 20.2814 9.2356C18.1117 9.2356 16.3528 10.9945 16.3528 13.1642C16.3528 15.3339 18.1117 17.0927 20.2814 17.0927Z" fill="#54BAF9"/>
<path d="M28.2952 26.1745C28.2799 25.1375 28.0604 24.1136 27.6493 23.1615C27.2382 22.2093 26.6435 21.3474 25.8993 20.6251C25.1551 19.9028 24.2759 19.3341 23.3119 18.9516C22.3478 18.5692 21.3179 18.3803 20.2809 18.3959C19.2448 18.3803 18.2157 18.569 17.2525 18.9511C16.2893 19.3333 15.4108 19.9015 14.6672 20.6232C13.9236 21.3449 13.3294 22.2061 12.9186 23.1574C12.5079 24.1088 12.2886 25.1318 12.2732 26.1679V27.3334H28.2952V26.1745Z" fill="#54BAF9"/>
<path d="M28.8654 21.5908L30.3583 24.6093L33.6845 25.0938L31.275 27.4444L31.8446 30.7575L28.8654 29.1926L25.8863 30.7575L26.4559 27.4444L24.0464 25.0938L27.3791 24.6093L28.8654 21.5908Z" fill="white"/>
</svg>
