<svg width="40" height="40" viewBox="0 0 40 40" fill="none" xmlns="http://www.w3.org/2000/svg">
<path fill-rule="evenodd" clip-rule="evenodd" d="M11 18C11 17.4477 11.4477 17 12 17H28C28.5523 17 29 17.4477 29 18V27.2308C29 28.1634 28.71 29.0925 28.1464 29.8078C27.5782 30.529 26.7495 31 25.8182 31H14.1818C13.2506 31 12.4218 30.529 11.8536 29.8078C11.29 29.0925 11 28.1634 11 27.2308V18ZM13 19V27.2308C13 27.767 13.1698 28.2467 13.4245 28.5701C13.6747 28.8875 13.9558 29 14.1818 29H25.8182C26.0442 29 26.3253 28.8875 26.5755 28.5701C26.8302 28.2467 27 27.767 27 27.2308V19H13Z" fill="white"/>
<path fill-rule="evenodd" clip-rule="evenodd" d="M20.029 11C18.9505 11.0002 17.9224 11.4157 17.1691 12.1456C16.4167 12.8747 16 13.8566 16 14.8735V17C16 17.5523 15.5523 18 15 18C14.4477 18 14 17.5523 14 17V14.8735C14 13.3054 14.6432 11.8081 15.7774 10.7092C16.9105 9.61141 18.4407 9 20.0299 9H20.0317C21.4629 9.00258 22.8505 9.50041 23.9436 10.4103C25.0374 11.3208 25.7654 12.5855 25.9875 13.9798C26.0744 14.5252 25.7027 15.0378 25.1573 15.1247C24.6119 15.2115 24.0993 14.8398 24.0125 14.2944C23.868 13.3877 23.3929 12.5541 22.6641 11.9474C21.9347 11.3403 21.0004 11.002 20.029 11Z" fill="white"/>
</svg>
