<svg width="22" height="32" viewBox="0 0 22 32" fill="none" xmlns="http://www.w3.org/2000/svg">
<path d="M16.791 31.2995H5.39102C4.47926 31.2997 3.60099 30.9559 2.93173 30.3367C2.26248 29.7175 1.85153 28.8685 1.78101 27.9595L0.231018 9.76953H21.951L20.401 27.9195C20.3425 28.8365 19.9365 29.6967 19.2657 30.3248C18.5949 30.9528 17.7099 31.3014 16.791 31.2995Z" fill="#54BAF9"/>
<path fill-rule="evenodd" clip-rule="evenodd" d="M13.182 2.32165C12.9893 1.00827 11.8579 0 10.491 0C8.98879 0 7.77101 1.21779 7.77101 2.72C7.77101 2.83254 7.77784 2.94349 7.79112 3.05244L1.73133 3.87391C1.20571 3.94517 0.729916 4.22232 0.408627 4.64438C0.0873384 5.06644 -0.05313 5.59883 0.0181242 6.12445L0.235744 7.72978L21.7589 4.81209L21.5413 3.20676C21.47 2.68113 21.1928 2.20536 20.7708 1.88407C20.3487 1.56278 19.8164 1.42229 19.2907 1.49355L13.182 2.32165Z" fill="#54BAF9"/>
<path fill-rule="evenodd" clip-rule="evenodd" d="M8.29811 16.3329C7.90759 15.9424 7.27442 15.9424 6.8839 16.3329C6.49337 16.7235 6.49337 17.3566 6.8839 17.7471L9.67679 20.54L6.8839 23.3329C6.49337 23.7235 6.49337 24.3566 6.8839 24.7471C7.27442 25.1377 7.90759 25.1377 8.29811 24.7471L11.091 21.9543L13.8839 24.7471C14.2744 25.1377 14.9076 25.1377 15.2981 24.7471C15.6886 24.3566 15.6886 23.7235 15.2981 23.3329L12.5052 20.54L15.2981 17.7471C15.6886 17.3566 15.6886 16.7235 15.2981 16.3329C14.9076 15.9424 14.2744 15.9424 13.8839 16.3329L11.091 19.1258L8.29811 16.3329Z" fill="white"/>
</svg>
