<svg width="40" height="40" viewBox="0 0 40 40" fill="none" xmlns="http://www.w3.org/2000/svg">
<path d="M22.9648 27.8197H17.2648C16.8089 27.8198 16.3698 27.6479 16.0352 27.3383C15.7005 27.0287 15.4951 26.6042 15.4598 26.1497L14.6848 17.0547H25.5448L24.7698 26.1297C24.7405 26.5882 24.5375 27.0183 24.2021 27.3323C23.8668 27.6463 23.4243 27.8206 22.9648 27.8197Z" fill="#54BAF9"/>
<path fill-rule="evenodd" clip-rule="evenodd" d="M21.1604 13.3307C21.064 12.6741 20.4983 12.1699 19.8148 12.1699C19.0637 12.1699 18.4548 12.7788 18.4548 13.5299C18.4548 13.5862 18.4583 13.6417 18.4649 13.6961L15.435 14.1069C15.1722 14.1425 14.9343 14.2811 14.7737 14.4921C14.613 14.7031 14.5428 14.9693 14.5784 15.2321L14.6872 16.0348L25.4488 14.576L25.34 13.7733C25.3043 13.5105 25.1658 13.2726 24.9547 13.112C24.7437 12.9513 24.4775 12.8811 24.2147 12.9167L21.1604 13.3307Z" fill="#54BAF9"/>
<path fill-rule="evenodd" clip-rule="evenodd" d="M18.7183 20.3364C18.523 20.1411 18.2065 20.1411 18.0112 20.3364C17.8159 20.5317 17.8159 20.8482 18.0112 21.0435L19.4076 22.4399L18.0112 23.8364C17.8159 24.0317 17.8159 24.3482 18.0112 24.5435C18.2065 24.7388 18.523 24.7388 18.7183 24.5435L20.1147 23.147L21.5112 24.5435C21.7065 24.7388 22.023 24.7388 22.2183 24.5435C22.4136 24.3482 22.4136 24.0317 22.2183 23.8364L20.8219 22.4399L22.2183 21.0435C22.4136 20.8482 22.4136 20.5317 22.2183 20.3364C22.023 20.1411 21.7065 20.1411 21.5112 20.3364L20.1147 21.7328L18.7183 20.3364Z" fill="white"/>
</svg>
