<svg width="26" height="25" viewBox="0 0 26 25" fill="none" xmlns="http://www.w3.org/2000/svg">
<path d="M8.80159 13.1829C10.4141 13.1829 11.7212 11.8937 11.7212 10.3035C11.7212 8.71323 10.4141 7.42407 8.80159 7.42407C7.18912 7.42407 5.88196 8.71323 5.88196 10.3035C5.88196 11.8937 7.18912 13.1829 8.80159 13.1829Z" fill="#54BAF9"/>
<path d="M16.4424 13.0455C17.664 13.0455 18.6543 12.0552 18.6543 10.8337C18.6543 9.6121 17.664 8.62183 16.4424 8.62183C15.2209 8.62183 14.2306 9.6121 14.2306 10.8337C14.2306 12.0552 15.2209 13.0455 16.4424 13.0455Z" fill="#54BAF9"/>
<path d="M14.6006 21.1933C14.6006 19.646 13.9865 18.162 12.8931 17.0671C11.7998 15.9723 10.3166 15.3561 8.76935 15.354C7.48259 15.3576 6.23307 15.7861 5.21494 16.573C4.19681 17.3599 3.4671 18.461 3.13921 19.7053C3.01052 20.1798 5.21432 21.7321 5.21432 21.7321L14.6006 24.0646V21.1933Z" fill="#54BAF9"/>
<path d="M16.2896 15.354C15.5001 15.3532 14.7211 15.5349 14.0134 15.8848C14.7137 16.5794 15.2686 17.4066 15.6456 18.3181C16.0226 19.2295 16.2142 20.2069 16.2092 21.1933V22.8582L21.3648 20.397C21.3542 19.0572 20.8151 17.7758 19.8646 16.8314C18.9142 15.887 17.6294 15.3561 16.2896 15.354V15.354Z" fill="#54BAF9"/>
<path d="M25.2174 4.87405C25.1139 4.85033 25.0066 4.84735 24.902 4.86528C24.7973 4.88322 24.6972 4.92171 24.6074 4.97855C24.5177 5.03538 24.4401 5.10942 24.3791 5.1964C24.3182 5.28338 24.275 5.38158 24.2522 5.48532L23.8018 7.48804C22.9278 5.44112 21.516 3.66895 19.7162 2.35954C17.9164 1.05012 15.7957 0.252294 13.5792 0.0506904C11.3626 -0.150913 9.13279 0.251226 7.12629 1.21445C5.11979 2.17767 3.41144 3.66605 2.18245 5.52169C0.953467 7.37734 0.249687 9.53104 0.145772 11.7543C0.0418577 13.9776 0.541683 16.1876 1.59223 18.1498C2.64277 20.112 4.20485 21.7532 6.11275 22.8994C8.02066 24.0456 10.2032 24.6539 12.4289 24.6599C15.0818 24.6576 17.6621 23.7936 19.7814 22.198C21.9007 20.6023 23.4443 18.3614 24.1798 15.8126C24.2269 15.7061 24.2504 15.5906 24.2484 15.4741C24.2465 15.3576 24.2193 15.243 24.1687 15.1381C24.1182 15.0331 24.0454 14.9404 23.9555 14.8664C23.8655 14.7924 23.7606 14.7387 23.6479 14.7092C23.5352 14.6797 23.4175 14.6751 23.3028 14.6956C23.1882 14.716 23.0793 14.7612 22.9838 14.8279C22.8883 14.8945 22.8084 14.9812 22.7497 15.0818C22.6909 15.1823 22.6548 15.2945 22.6436 15.4104C21.9953 17.6168 20.6496 19.5537 18.8082 20.9312C16.9667 22.3087 14.7286 23.0525 12.4289 23.0513C10.458 23.0827 8.51568 22.577 6.81032 21.5884C5.10496 20.5998 3.70089 19.1656 2.7487 17.4396C1.79651 15.7137 1.33213 13.761 1.40536 11.7912C1.47859 9.82137 2.08668 7.90863 3.16439 6.25813C4.24211 4.60763 5.7488 3.28164 7.52286 2.42238C9.29692 1.56312 11.2714 1.20301 13.2346 1.38067C15.1978 1.55833 17.0756 2.26706 18.6665 3.43084C20.2575 4.59462 21.5017 6.16955 22.2656 7.98671L20.7052 7.13414C20.5175 7.02749 20.2951 6.99977 20.087 7.05709C19.8788 7.1144 19.702 7.25206 19.5953 7.43978C19.4886 7.6275 19.4609 7.84989 19.5182 8.05805C19.5756 8.2662 19.7132 8.44306 19.9009 8.54972L24.5981 11.0994L25.8608 5.83921C25.8842 5.73343 25.886 5.62402 25.866 5.51754C25.846 5.41107 25.8048 5.30972 25.7447 5.21958C25.6846 5.12945 25.6069 5.05238 25.5163 4.993C25.4257 4.93362 25.324 4.89316 25.2174 4.87405Z" fill="white"/>
</svg>
