<svg width="30" height="31" viewBox="0 0 30 31" fill="none" xmlns="http://www.w3.org/2000/svg">
<path d="M28.8399 1.21973H0.839844V29.2197H28.8399V1.21973Z" fill="#54BAF9"/>
<path fill-rule="evenodd" clip-rule="evenodd" d="M2.27015 0V2.95639e-05H5.85016C6.40244 2.95639e-05 6.85016 0.447745 6.85016 1.00003C6.85016 1.55231 6.40244 2.00003 5.85016 2.00003H2.27539C2.23925 2.00062 2.20358 2.0082 2.17035 2.02235C2.13633 2.03682 2.10553 2.05789 2.07971 2.08432C2.05387 2.11076 2.03354 2.14205 2.01987 2.17637C2.0062 2.21069 1.99946 2.24739 2.00003 2.28436L2.00016 2.30002V6.08002C2.00016 6.6323 1.55244 7.08002 1.00016 7.08002C0.447872 7.08002 0.000156888 6.6323 0.000156888 6.08002V2.30672C-0.00333737 2.00886 0.0515677 1.71315 0.161825 1.43633C0.273187 1.15673 0.438798 0.901964 0.649087 0.686707C0.859391 0.471436 1.11023 0.299936 1.38713 0.182086C1.66405 0.0642256 1.96155 0.00237322 2.26246 5.91278e-05L2.27015 0Z" fill="white"/>
<path fill-rule="evenodd" clip-rule="evenodd" d="M22.9805 1C22.9805 0.447715 23.4282 0 23.9805 0H27.7382C28.0391 0.00231409 28.3366 0.0641984 28.6135 0.182057C28.8904 0.299906 29.1412 0.471406 29.3515 0.686678C29.5618 0.901916 29.7274 1.15668 29.8388 1.4363C29.9491 1.71315 30.004 2.00886 30.0005 2.30669V5.89999C30.0005 6.45228 29.5528 6.89999 29.0005 6.89999C28.4482 6.89999 28.0005 6.45228 28.0005 5.89999V2.29999L28.0006 2.28433C28.0012 2.24733 27.9944 2.21064 27.9808 2.17634C27.9671 2.14205 27.9468 2.11075 27.9209 2.08429C27.8951 2.05786 27.8643 2.03679 27.8303 2.02232C27.797 2.00817 27.7614 2.00059 27.7252 2H23.9805C23.4282 2 22.9805 1.55228 22.9805 1Z" fill="white"/>
<path fill-rule="evenodd" clip-rule="evenodd" d="M29.0004 23.4805C29.5527 23.4805 30.0004 23.9282 30.0004 24.4805V28.2438C30.0039 28.5416 29.949 28.8373 29.8387 29.1142C29.7273 29.3938 29.5617 29.6485 29.3515 29.8638C29.1411 30.0791 28.8903 30.2506 28.6134 30.3684C28.3365 30.4863 28.039 30.5481 27.7381 30.5504L27.7304 30.5505V30.5505H24.1504C23.5981 30.5505 23.1504 30.1027 23.1504 29.5505C23.1504 28.9982 23.5981 28.5505 24.1504 28.5505H27.7252C27.7613 28.5499 27.797 28.5423 27.8302 28.5281C27.8642 28.5137 27.895 28.4926 27.9208 28.4662C27.9467 28.4397 27.967 28.4084 27.9807 28.3741C27.9943 28.3398 28.0011 28.3031 28.0005 28.2661L28.0004 28.2505V24.4805C28.0004 23.9282 28.4481 23.4805 29.0004 23.4805Z" fill="white"/>
<path fill-rule="evenodd" clip-rule="evenodd" d="M1.00016 23.6396C1.55244 23.6396 2.00016 24.0874 2.00016 24.6396V28.2396L2.00003 28.2553C1.99946 28.2923 2.0062 28.329 2.01987 28.3633C2.03354 28.3976 2.05387 28.4289 2.07971 28.4553C2.10557 28.4818 2.13638 28.5029 2.17035 28.5173C2.20358 28.5315 2.23925 28.539 2.27539 28.5396H6.02015C6.57244 28.5396 7.02015 28.9874 7.02015 29.5396C7.02015 30.0919 6.57244 30.5396 6.02015 30.5396H2.26246C1.96155 30.5373 1.66405 30.4754 1.38713 30.3576C1.11018 30.2397 0.859356 30.0682 0.649087 29.8529C0.438798 29.6377 0.273187 29.3829 0.161825 29.1033C0.0515677 28.8265 -0.00333737 28.5308 0.000156888 28.2329V24.6396C0.000156888 24.0874 0.447872 23.6396 1.00016 23.6396Z" fill="white"/>
<path fill-rule="evenodd" clip-rule="evenodd" d="M8.83984 15.2197C8.83984 14.6674 9.28756 14.2197 9.83984 14.2197H19.8398C20.3921 14.2197 20.8398 14.6674 20.8398 15.2197C20.8398 15.772 20.3921 16.2197 19.8398 16.2197H9.83984C9.28756 16.2197 8.83984 15.772 8.83984 15.2197Z" fill="white"/>
</svg>
