<svg width="40" height="40" viewBox="0 0 40 40" fill="none" xmlns="http://www.w3.org/2000/svg">
<path d="M26.9199 12.9697H12.9199V26.9697H26.9199V12.9697Z" fill="#54BAF9"/>
<path fill-rule="evenodd" clip-rule="evenodd" d="M13.6351 12.3599V12.3599H15.4251C15.7012 12.3599 15.9251 12.5837 15.9251 12.8599C15.9251 13.136 15.7012 13.3599 15.4251 13.3599H13.6377C13.6196 13.3602 13.6018 13.364 13.5852 13.371C13.5682 13.3783 13.5528 13.3888 13.5399 13.402C13.5269 13.4152 13.5168 13.4309 13.5099 13.4481C13.5031 13.4652 13.4997 13.4836 13.5 13.502L13.5001 13.5099V15.3999C13.5001 15.676 13.2762 15.8999 13.0001 15.8999C12.7239 15.8999 12.5001 15.676 12.5001 15.3999V13.5132C12.4983 13.3643 12.5258 13.2164 12.5809 13.078C12.6366 12.9382 12.7194 12.8108 12.8245 12.7032C12.9297 12.5956 13.0551 12.5098 13.1936 12.4509C13.332 12.392 13.4808 12.361 13.6312 12.3599L13.6351 12.3599Z" fill="white"/>
<path fill-rule="evenodd" clip-rule="evenodd" d="M23.99 12.8599C23.99 12.5837 24.2138 12.3599 24.49 12.3599H26.3688C26.5193 12.361 26.668 12.392 26.8065 12.4509C26.945 12.5098 27.0704 12.5956 27.1755 12.7032C27.2807 12.8108 27.3635 12.9382 27.4192 13.078C27.4743 13.2164 27.5017 13.3643 27.5 13.5132V15.3099C27.5 15.586 27.2761 15.8099 27 15.8099C26.7238 15.8099 26.5 15.586 26.5 15.3099V13.5099L26.5001 13.502C26.5003 13.4835 26.497 13.4652 26.4901 13.448C26.4833 13.4309 26.4731 13.4152 26.4602 13.402C26.4473 13.3888 26.4319 13.3783 26.4149 13.371C26.3983 13.3639 26.3804 13.3602 26.3624 13.3599H24.49C24.2138 13.3599 23.99 13.136 23.99 12.8599Z" fill="white"/>
<path fill-rule="evenodd" clip-rule="evenodd" d="M26.9999 24.1001C27.2761 24.1001 27.4999 24.324 27.4999 24.6001V26.4817C27.5017 26.6307 27.4743 26.7785 27.4191 26.9169C27.3634 27.0568 27.2806 27.1841 27.1755 27.2918C27.0703 27.3994 26.9449 27.4851 26.8065 27.5441C26.668 27.603 26.5193 27.6339 26.3688 27.6351L26.365 27.6351V27.6351H24.575C24.2988 27.6351 24.075 27.4112 24.075 27.1351C24.075 26.859 24.2988 26.6351 24.575 26.6351H26.3623C26.3804 26.6348 26.3982 26.631 26.4149 26.6239C26.4319 26.6167 26.4473 26.6062 26.4602 26.593C26.4731 26.5797 26.4833 26.5641 26.4901 26.5469C26.4969 26.5298 26.5003 26.5114 26.5 26.4929L26.4999 26.4851V24.6001C26.4999 24.324 26.7238 24.1001 26.9999 24.1001Z" fill="white"/>
<path fill-rule="evenodd" clip-rule="evenodd" d="M13.0001 24.1797C13.2762 24.1797 13.5001 24.4035 13.5001 24.6797V26.4797L13.5 26.4875C13.4997 26.506 13.5031 26.5243 13.5099 26.5415C13.5168 26.5587 13.5269 26.5743 13.5399 26.5875C13.5528 26.6008 13.5682 26.6113 13.5852 26.6185C13.6018 26.6256 13.6196 26.6294 13.6377 26.6297H15.5101C15.7862 26.6297 16.0101 26.8535 16.0101 27.1297C16.0101 27.4058 15.7862 27.6297 15.5101 27.6297H13.6312C13.4808 27.6285 13.332 27.5976 13.1936 27.5387C13.0551 27.4797 12.9297 27.394 12.8245 27.2863C12.7194 27.1787 12.6366 27.0513 12.5809 26.9115C12.5258 26.7731 12.4983 26.6253 12.5001 26.4763V24.6797C12.5001 24.4035 12.7239 24.1797 13.0001 24.1797Z" fill="white"/>
<path fill-rule="evenodd" clip-rule="evenodd" d="M16.9199 19.9697C16.9199 19.6936 17.1438 19.4697 17.4199 19.4697H22.4199C22.6961 19.4697 22.9199 19.6936 22.9199 19.9697C22.9199 20.2459 22.6961 20.4697 22.4199 20.4697H17.4199C17.1438 20.4697 16.9199 20.2459 16.9199 19.9697Z" fill="white"/>
</svg>
