<svg width="40" height="40" viewBox="0 0 40 40" fill="none" xmlns="http://www.w3.org/2000/svg">
<path fill-rule="evenodd" clip-rule="evenodd" d="M16.566 12.7256C17.1473 12.3372 17.8308 12.1299 18.53 12.1299C19.4671 12.1312 20.3655 12.5041 21.0281 13.1667C21.6908 13.8294 22.0636 14.7277 22.065 15.6649C22.065 16.364 21.8576 17.0475 21.4692 17.6288C21.0808 18.2102 20.5287 18.6632 19.8827 18.9308C19.2368 19.1984 18.526 19.2684 17.8403 19.132C17.5082 19.0659 17.1892 18.9529 16.8924 18.7977L14.3366 21.3535L14.3391 21.356L14.3449 21.3501L15.2799 22.2851L14.755 22.8101L14.0449 22.1101L13.8325 22.3226L14.525 23.025L14.5174 23.0324L14.5249 23.0401L14.2099 23.3501L13.5 22.6551L13.1472 23.0079L13.82 23.745L13.8199 23.745L13.82 23.7451L13.4599 24.1001L12.5249 23.1651L12.525 23.165L11.93 22.57C11.8072 22.4525 11.7091 22.3118 11.6413 22.156C11.5735 22.0003 11.5374 21.8326 11.535 21.6627C11.5327 21.4928 11.5642 21.3242 11.6277 21.1666C11.6912 21.0091 11.7855 20.8657 11.905 20.745L12.815 19.835L12.836 19.8559L15.3945 17.2974C15.2407 17.002 15.1286 16.6847 15.0629 16.3545C14.9265 15.6688 14.9965 14.958 15.264 14.3121C15.5316 13.6662 15.9847 13.1141 16.566 12.7256ZM18.6966 15.9369C18.9581 16.1116 19.2655 16.2049 19.58 16.2049C20.0016 16.2049 20.4061 16.0374 20.7043 15.7392C21.0024 15.441 21.17 15.0366 21.17 14.6149C21.17 14.3004 21.0767 13.993 20.902 13.7315C20.7273 13.4701 20.479 13.2663 20.1884 13.1459C19.8979 13.0256 19.5782 12.9941 19.2698 13.0554C18.9613 13.1168 18.678 13.2682 18.4557 13.4906C18.2333 13.7129 18.0819 13.9963 18.0205 14.3047C17.9592 14.6131 17.9906 14.9328 18.111 15.2233C18.2313 15.5139 18.4351 15.7622 18.6966 15.9369Z" fill="white"/>
<path d="M22.0801 15.5601L17.0801 17.5151V22.8851C17.0801 25.6351 22.0801 28.3001 22.0801 28.3001C22.0801 28.3001 27.0551 25.6351 27.0551 22.8851V17.5001L22.0801 15.5601Z" fill="#54BAF9"/>
<path d="M20.5801 21.3452C20.3039 21.3452 20.0801 21.5691 20.0801 21.8452C20.0801 22.1214 20.3039 22.3452 20.5801 22.3452H23.5801C23.8562 22.3452 24.0801 22.1214 24.0801 21.8452C24.0801 21.5691 23.8562 21.3452 23.5801 21.3452H20.5801Z" fill="white"/>
</svg>
