<svg width="31" height="33" viewBox="0 0 31 33" fill="none" xmlns="http://www.w3.org/2000/svg">
<path fill-rule="evenodd" clip-rule="evenodd" d="M11.5144 1.17474C12.6648 0.407379 14.0169 -0.00144643 15.3998 3.84519e-06C17.2507 0.00194506 19.0253 0.738091 20.3341 2.04691C21.6429 3.35573 22.3791 5.13031 22.381 6.98125C22.3825 8.36409 21.9737 9.71627 21.2063 10.8667C20.4389 12.0171 19.3475 12.9139 18.0702 13.4438C16.793 13.9736 15.3872 14.1127 14.0308 13.8432C13.9557 13.8283 13.8809 13.8122 13.8065 13.7948L12.7973 14.804L11.6301 13.6368L9.22525 16.0378H7.30394V17.9298H5.38263V19.9537H3.34399V21.9997H0.0366927L0.0367557 21.9997H0V19.103L8.54815 10.5549L7.53414 9.54087L8.5703 8.50471C8.5589 8.45337 8.54806 8.40186 8.53779 8.35019C8.26837 6.99386 8.40739 5.58808 8.93724 4.31078C9.4671 3.03349 10.364 1.94209 11.5144 1.17474ZM15.7314 7.53762C16.2475 7.8825 16.8543 8.06658 17.4751 8.06658H17.4824C18.3136 8.06463 19.11 7.7331 19.697 7.1447C20.284 6.55631 20.6137 5.75909 20.6137 4.92795C20.6137 4.30718 20.4296 3.70036 20.0848 3.18422C19.7399 2.66807 19.2497 2.26579 18.6762 2.02823C18.1027 1.79067 17.4716 1.72852 16.8628 1.84962C16.2539 1.97073 15.6947 2.26965 15.2557 2.7086C14.8168 3.14754 14.5179 3.70679 14.3968 4.31563C14.2757 4.92446 14.3378 5.55554 14.5754 6.12905C14.8129 6.70256 15.2152 7.19274 15.7314 7.53762Z" fill="white"/>
<path d="M21 7L11 10.91V21.65C11 27.15 21 32.48 21 32.48C21 32.48 30.95 27.15 30.95 21.65V10.88L21 7Z" fill="#54BAF9"/>
<rect x="20" y="15" width="2" height="8" rx="1" fill="white"/>
</svg>
