<svg width="40" height="40" viewBox="0 0 40 40" fill="none" xmlns="http://www.w3.org/2000/svg">
<path fill-rule="evenodd" clip-rule="evenodd" d="M20.0571 14.0687C20.7439 13.6098 21.5514 13.3648 22.3774 13.3648C22.9262 13.3639 23.4697 13.4713 23.9768 13.6809C24.4839 13.8904 24.9447 14.198 25.3327 14.586C25.7207 14.974 26.0283 15.4348 26.2379 15.9419C26.4474 16.4491 26.5548 16.9926 26.5539 17.5413C26.5539 18.3673 26.3089 19.1748 25.85 19.8616C25.3911 20.5484 24.7388 21.0837 23.9757 21.3998C23.2125 21.7159 22.3728 21.7987 21.5626 21.6375C21.1755 21.5605 20.8035 21.4295 20.4568 21.2499L17.4401 24.2665L18.469 25.2928L18.5477 25.371L17.9257 25.9931L17.0847 25.1663L16.8305 25.4276L16.866 25.4637L17.6571 26.2616L17.2826 26.6291L16.4417 25.8164L16.0249 26.2332L16.8234 27.0953L16.3993 27.5195L14.5902 25.7104C14.4496 25.5705 14.338 25.4043 14.2619 25.2211C14.1858 25.038 14.1466 24.8417 14.1466 24.6433C14.1466 24.445 14.1858 24.2486 14.2619 24.0655C14.338 23.8824 14.4496 23.7161 14.5902 23.5762L15.6643 22.495L15.6691 22.4998L18.6819 19.4869C18.4956 19.1331 18.3601 18.7525 18.2812 18.3561C18.1201 17.5459 18.2028 16.7062 18.5189 15.943C18.835 15.1799 19.3703 14.5276 20.0571 14.0687ZM22.5761 17.8529C22.8854 18.0598 23.2491 18.1702 23.6212 18.1702V18.1914C23.8692 18.1914 24.1148 18.1424 24.3438 18.047C24.5728 17.9517 24.7807 17.8119 24.9554 17.6359C25.1301 17.4598 25.2683 17.2509 25.3619 17.0212C25.4556 16.7915 25.5028 16.5456 25.5009 16.2975C25.5023 15.9255 25.3933 15.5613 25.1876 15.2513C24.9819 14.9412 24.6888 14.6992 24.3454 14.5558C24.0021 14.4125 23.6239 14.3742 23.2588 14.446C22.8937 14.5177 22.5581 14.6962 22.2945 14.9588C22.0309 15.2214 21.8512 15.5563 21.7781 15.9211C21.705 16.286 21.7418 16.6643 21.8839 17.0082C22.0259 17.3521 22.2668 17.6461 22.5761 17.8529Z" fill="white"/>
<path fill-rule="evenodd" clip-rule="evenodd" d="M23.6663 8.03932C21.1496 7.282 18.4602 7.32278 15.9676 8.15609C13.4751 8.98939 11.3019 10.5743 9.7467 12.6929C8.19153 14.8116 7.33078 17.3599 7.28277 19.9876L7.28265 19.994V21.5071L6.24374 20.291C5.99023 19.9943 5.54416 19.9593 5.24742 20.2128C4.95068 20.4663 4.91564 20.9123 5.16915 21.2091L8.21927 24.7793L10.8584 20.8471C11.0759 20.523 10.9895 20.084 10.6654 19.8665C10.3413 19.649 9.9023 19.7354 9.6848 20.0595L8.696 21.5328V20.007C8.73995 17.6736 9.50492 15.4108 10.886 13.5293C12.2684 11.646 14.2002 10.2372 16.4158 9.49652C18.6314 8.7558 21.022 8.71954 23.259 9.39273C25.4961 10.0659 27.4697 11.4155 28.9085 13.2559C29.1489 13.5634 29.593 13.6178 29.9005 13.3774C30.208 13.137 30.2623 12.6929 30.022 12.3854C28.4033 10.3149 26.183 8.79665 23.6663 8.03932Z" fill="#54BAF9"/>
<path fill-rule="evenodd" clip-rule="evenodd" d="M35.5297 19.9585L32.4873 16.3958L29.8479 20.3198C29.63 20.6436 29.716 21.0827 30.0398 21.3005C30.3636 21.5184 30.8028 21.4324 31.0206 21.1086L31.9746 19.6904V20.8918C31.9318 23.2562 31.1488 25.5477 29.7356 27.4439C28.3213 29.3418 26.347 30.7479 24.091 31.4642C21.8351 32.1804 19.4113 32.1706 17.1612 31.4362C14.9111 30.7017 12.9482 29.2797 11.5492 27.3705C11.3185 27.0557 10.8763 26.9875 10.5615 27.2182C10.2467 27.4488 10.1785 27.8911 10.4092 28.2059C11.9831 30.3537 14.1913 31.9535 16.7226 32.7798C19.254 33.606 21.9808 33.617 24.5187 32.8112C27.0567 32.0055 29.2777 30.4236 30.8689 28.2885C32.4601 26.1534 33.3411 23.5728 33.3878 20.9105L33.3879 20.9043V19.6268L34.4549 20.8763C34.7083 21.1731 35.1544 21.2082 35.4512 20.9548C35.748 20.7013 35.7831 20.2553 35.5297 19.9585Z" fill="#54BAF9"/>
</svg>
