<svg width="35" height="33" viewBox="0 0 35 33" fill="none" xmlns="http://www.w3.org/2000/svg">
<path fill-rule="evenodd" clip-rule="evenodd" d="M18.7412 13.1471C19.2787 13.2741 19.6115 13.8127 19.4845 14.3502C19.3497 14.9211 19.0505 15.4398 18.6239 15.8424C18.1974 16.2449 17.6622 16.5136 17.0845 16.6152C16.5406 16.7109 16.0221 16.3475 15.9264 15.8035C15.8308 15.2596 16.1941 14.7411 16.7381 14.6454C16.9306 14.6116 17.109 14.522 17.2512 14.3878C17.3934 14.2536 17.4931 14.0807 17.5381 13.8905C17.665 13.353 18.2037 13.0202 18.7412 13.1471Z" fill="white"/>
<path d="M22.0313 0L22.8513 1.67001L24.6913 1.93002L23.3613 3.23001L23.6713 5.06L22.0313 4.20001L20.3813 5.06L20.7013 3.23001L19.3613 1.93002L21.2013 1.67001L22.0313 0Z" fill="white"/>
<path d="M23.1317 13.96L23.9517 15.6299L25.7917 15.89L24.4617 17.1899L24.7817 19.0299L23.1317 18.1599L21.4817 19.0299L21.8017 17.1899L20.4717 15.89L22.3117 15.6299L23.1317 13.96Z" fill="white"/>
<path fill-rule="evenodd" clip-rule="evenodd" d="M12.2957 3.87106C12.5051 3.36002 13.0891 3.11552 13.6002 3.32495C14.1202 3.53805 14.5812 3.87324 14.9442 4.30209C15.3073 4.73098 15.5618 5.24097 15.6862 5.78896L15.6886 5.79952L15.6885 5.79953C15.8069 6.34892 15.7929 6.91861 15.6475 7.46148C15.5021 8.00433 15.2295 8.50477 14.8523 8.92141C14.4816 9.33083 13.8493 9.36225 13.4398 8.99158C13.0304 8.62092 12.999 7.98853 13.3697 7.57911C13.5337 7.39789 13.6523 7.1802 13.7156 6.94401C13.7783 6.7096 13.7848 6.46368 13.7345 6.22632C13.6808 5.99345 13.5722 5.77679 13.4178 5.59437C13.2622 5.41054 13.0646 5.26689 12.8418 5.17558C12.3307 4.96615 12.0862 4.3821 12.2957 3.87106Z" fill="white"/>
<path fill-rule="evenodd" clip-rule="evenodd" d="M27.9836 8.04508C28.2878 7.74821 28.6602 7.524 29.0733 7.39512L29.0979 7.38745L29.1228 7.38106C29.7173 7.22868 30.3399 7.22336 30.9369 7.36549C31.5339 7.50763 32.0873 7.79297 32.5493 8.19689L32.556 8.20279L32.5627 8.20881C33.3171 8.89264 33.9427 9.7063 34.4097 10.6111C34.663 11.1019 34.4705 11.7051 33.9797 11.9584C33.489 12.2117 32.8858 12.0192 32.6325 11.5284C32.2767 10.8391 31.8006 10.2189 31.2267 9.69717C31.0104 9.50985 30.7521 9.3774 30.4736 9.31111C30.378 9.28834 30.281 9.2736 30.1836 9.2669C30.3133 9.45741 30.4156 9.66754 30.4856 9.89147L30.4955 9.92324L30.5033 9.9556C30.6009 10.3607 30.548 10.7874 30.3547 11.1564C30.1614 11.5256 29.8406 11.8118 29.4522 11.9623L29.3253 12.0114L29.1899 12.0248C28.7778 12.0657 28.3641 11.9649 28.017 11.7389C27.6699 11.5129 27.4103 11.1753 27.2811 10.7819L27.2755 10.7649L27.2705 10.7477C27.2037 10.5167 27.1683 10.28 27.1638 10.0436C27.0035 10.0751 26.8479 10.1298 26.7022 10.2065C26.454 10.3483 26.2469 10.5523 26.1012 10.7984C25.9536 11.0476 25.8742 11.3313 25.871 11.6208C25.8649 12.1731 25.4123 12.6158 24.86 12.6097C24.3078 12.6036 23.865 12.1509 23.8712 11.5987C23.8782 10.9581 24.0538 10.3306 24.3802 9.77943C24.7066 9.22821 25.1723 8.77256 25.7306 8.45832L25.74 8.45302L25.7495 8.44792C26.3138 8.14617 26.9469 7.99631 27.5867 8.01315C27.7198 8.01665 27.8523 8.02735 27.9836 8.04508Z" fill="white"/>
<path fill-rule="evenodd" clip-rule="evenodd" d="M27.9098 21.247C27.7587 21.3615 27.5965 21.5414 27.402 21.7845C27.057 22.2158 26.4277 22.2857 25.9964 21.9407C25.5652 21.5957 25.4953 20.9664 25.8403 20.5351C26.0458 20.2782 26.3385 19.9282 26.7024 19.6526C27.0746 19.3708 27.6068 19.1025 28.2645 19.1642L28.3045 19.1679L28.3441 19.1749C28.8432 19.2625 29.297 19.5191 29.6296 19.9014C29.9621 20.2838 30.1531 20.7689 30.1706 21.2753L30.171 21.2882L30.1711 21.3012C30.1748 21.7234 30.0871 22.1414 29.9142 22.5266C29.7412 22.9118 29.4871 23.255 29.1691 23.5328C28.7533 23.8962 28.1215 23.8537 27.7581 23.4378C27.3947 23.0219 27.4373 22.3902 27.8532 22.0268C27.9541 21.9386 28.0347 21.8297 28.0896 21.7074C28.1423 21.5901 28.1701 21.4631 28.1712 21.3346C28.1676 21.2901 28.1498 21.2477 28.1203 21.2138C28.1013 21.1919 28.078 21.1743 28.0521 21.162C28.0256 21.1718 27.9783 21.1952 27.9098 21.247Z" fill="white"/>
<path d="M15.9008 16.8805C12.5208 13.5105 10.1908 10.1005 9.90084 8.27051L0.0708518 30.7505C-0.0147476 31.0285 -0.0229478 31.3246 0.0471396 31.6069C0.117227 31.8892 0.262937 32.147 0.468618 32.3527C0.674299 32.5584 0.932161 32.7041 1.21447 32.7742C1.49677 32.8443 1.79286 32.8361 2.07085 32.7505L24.4809 22.9505C22.6409 22.5605 19.2608 20.2405 15.9008 16.8805Z" fill="#54BAF9"/>
</svg>
