<svg width="65" height="64" viewBox="0 0 65 64" fill="none" xmlns="http://www.w3.org/2000/svg">
<path d="M57.0395 58.665C57.7862 58.665 58.1595 58.665 58.4448 58.5196C58.6956 58.3918 58.8996 58.1878 59.0274 57.937C59.1728 57.6517 59.1728 57.2784 59.1728 56.5316V28.7985C59.1728 28.0518 59.1728 27.6784 59.0274 27.3932C58.8996 27.1423 58.6956 26.9384 58.4448 26.8105C58.1595 26.6652 57.7862 26.6652 57.0395 26.6652L50.6395 26.6652C49.8928 26.6652 49.5194 26.6652 49.2342 26.8105C48.9833 26.9384 48.7793 27.1423 48.6515 27.3932C48.5062 27.6784 48.5062 28.0518 48.5062 28.7985V35.1985C48.5062 35.9452 48.5062 36.3186 48.3609 36.6038C48.233 36.8547 48.0291 37.0586 47.7782 37.1865C47.493 37.3318 47.1196 37.3318 46.3729 37.3318H39.9729C39.2262 37.3318 38.8528 37.3318 38.5676 37.4771C38.3167 37.6049 38.1128 37.8089 37.9849 38.0598C37.8396 38.345 37.8396 38.7184 37.8396 39.4651V45.8651C37.8396 46.6118 37.8396 46.9851 37.6943 47.2704C37.5664 47.5212 37.3625 47.7252 37.1116 47.853C36.8264 47.9984 36.453 47.9984 35.7063 47.9984H29.3063C28.5596 47.9984 28.1862 47.9984 27.901 48.1437C27.6501 48.2715 27.4462 48.4755 27.3183 48.7264C27.173 49.0116 27.173 49.385 27.173 50.1317V56.5316C27.173 57.2784 27.173 57.6517 27.3183 57.9369C27.4462 58.1878 27.6501 58.3918 27.901 58.5196C28.1862 58.665 28.5596 58.665 29.3063 58.665L57.0395 58.665Z" fill="white"/>
<path d="M27.173 18.1319C27.173 17.3852 27.173 17.0118 27.3183 16.7266C27.4462 16.4757 27.6501 16.2718 27.901 16.1439C28.1862 15.9986 28.5596 15.9986 29.3063 15.9986H35.7063C36.453 15.9986 36.8264 15.9986 37.1116 16.1439C37.3625 16.2718 37.5664 16.4757 37.6943 16.7266C37.8396 17.0118 37.8396 17.3852 37.8396 18.1319V24.5319C37.8396 25.2786 37.8396 25.652 37.6943 25.9372C37.5664 26.1881 37.3625 26.392 37.1116 26.5199C36.8264 26.6652 36.453 26.6652 35.7063 26.6652H29.3063C28.5596 26.6652 28.1862 26.6652 27.901 26.5199C27.6501 26.392 27.4462 26.1881 27.3183 25.9372C27.173 25.652 27.173 25.2786 27.173 24.5319V18.1319Z" fill="white"/>
<path d="M8.50649 34.1318C8.50649 33.3851 8.50649 33.0117 8.65181 32.7265C8.77964 32.4756 8.98362 32.2716 9.2345 32.1438C9.51971 31.9985 9.89308 31.9985 10.6398 31.9985H17.0398C17.7865 31.9985 18.1599 31.9985 18.4451 32.1438C18.6959 32.2716 18.8999 32.4756 19.0278 32.7265C19.1731 33.0117 19.1731 33.3851 19.1731 34.1318V40.5318C19.1731 41.2785 19.1731 41.6519 19.0278 41.9371C18.8999 42.188 18.6959 42.3919 18.4451 42.5198C18.1599 42.6651 17.7865 42.6651 17.0398 42.6651H10.6398C9.89308 42.6651 9.51971 42.6651 9.2345 42.5198C8.98362 42.3919 8.77964 42.188 8.65181 41.9371C8.50649 41.6519 8.50649 41.2785 8.50649 40.5318V34.1318Z" fill="white"/>
<path d="M5.83984 7.46535C5.83984 6.71862 5.83984 6.34525 5.98517 6.06004C6.113 5.80916 6.31697 5.60518 6.56785 5.47735C6.85306 5.33203 7.22643 5.33203 7.97316 5.33203H14.3731C15.1198 5.33203 15.4932 5.33203 15.7784 5.47735C16.0293 5.60518 16.2333 5.80916 16.3611 6.06004C16.5064 6.34525 16.5064 6.71862 16.5064 7.46535V13.8653C16.5064 14.612 16.5064 14.9854 16.3611 15.2706C16.2333 15.5215 16.0293 15.7255 15.7784 15.8533C15.4932 15.9986 15.1198 15.9986 14.3731 15.9986H7.97316C7.22643 15.9986 6.85306 15.9986 6.56785 15.8533C6.31697 15.7255 6.113 15.5215 5.98517 15.2706C5.83984 14.9854 5.83984 14.612 5.83984 13.8653V7.46535Z" fill="white"/>
</svg>
