<svg width="19" height="20" viewBox="0 0 19 20" fill="none" xmlns="http://www.w3.org/2000/svg">
<path d="M9.61917 8.52728C11.7927 8.52728 13.5546 6.84227 13.5546 4.76367C13.5546 2.68507 11.7927 1 9.61917 1C7.44568 1 5.68372 2.68507 5.68372 4.76367C5.68372 6.84227 7.44568 8.52728 9.61917 8.52728Z" stroke="white" stroke-width="2" stroke-linecap="round" stroke-linejoin="round"/>
<path d="M1.74817 18.9997C1.78047 16.944 2.62767 14.9852 4.10356 13.5538C5.57946 12.1224 7.5633 11.3355 9.61908 11.3661V11.3661C10.6366 11.3509 11.6472 11.5364 12.593 11.9119C13.5389 12.2873 14.4015 12.8454 15.1317 13.5543C15.8618 14.2631 16.4452 15.1089 16.8484 16.0432C17.2516 16.9776 17.4669 17.9822 17.4818 18.9997" stroke="white" stroke-width="2" stroke-linecap="round" stroke-linejoin="round"/>
</svg>
