<svg width="37" height="31" viewBox="0 0 37 31" fill="none" xmlns="http://www.w3.org/2000/svg">
<path fill-rule="evenodd" clip-rule="evenodd" d="M12.611 16.2508C12.943 15.9189 12.943 15.3807 12.611 15.0488C12.2791 14.7168 11.7409 14.7168 11.409 15.0488L7.03411 19.4236L5.63 18.0195L5.02002 22.5395L9.52002 21.9095L8.23619 20.6257L12.611 16.2508ZM24.129 15.0488C24.4609 14.7168 24.9991 14.7168 25.331 15.0488L29.7059 19.4236L31.11 18.0195L31.72 22.5395L27.22 21.9095L28.5038 20.6257L24.129 16.2508C23.797 15.9189 23.797 15.3807 24.129 15.0488ZM18.29 14.7998C18.7594 14.7998 19.14 15.1804 19.14 15.6498V18.7598H21.04L18.28 22.3898L15.54 18.7598H17.44V15.6498C17.44 15.1804 17.8206 14.7998 18.29 14.7998Z" fill="white"/>
<path d="M3 30.2393C4.65685 30.2393 6 28.8961 6 27.2393C6 25.5824 4.65685 24.2393 3 24.2393C1.34315 24.2393 0 25.5824 0 27.2393C0 28.8961 1.34315 30.2393 3 30.2393Z" fill="#54BAF9"/>
<path d="M18.3701 30.2393C20.027 30.2393 21.3701 28.8961 21.3701 27.2393C21.3701 25.5824 20.027 24.2393 18.3701 24.2393C16.7133 24.2393 15.3701 25.5824 15.3701 27.2393C15.3701 28.8961 16.7133 30.2393 18.3701 30.2393Z" fill="#54BAF9"/>
<path d="M33.75 30.2393C35.4069 30.2393 36.75 28.8961 36.75 27.2393C36.75 25.5824 35.4069 24.2393 33.75 24.2393C32.0931 24.2393 30.75 25.5824 30.75 27.2393C30.75 28.8961 32.0931 30.2393 33.75 30.2393Z" fill="#54BAF9"/>
<path d="M18.29 12C21.6037 12 24.29 9.31371 24.29 6C24.29 2.68629 21.6037 0 18.29 0C14.9763 0 12.29 2.68629 12.29 6C12.29 9.31371 14.9763 12 18.29 12Z" fill="#54BAF9"/>
</svg>
