<svg width="40" height="40" viewBox="0 0 40 40" fill="none" xmlns="http://www.w3.org/2000/svg">
<path fill-rule="evenodd" clip-rule="evenodd" d="M16.2369 18.48C16.4806 18.2363 16.4806 17.8412 16.2369 17.5975C15.9932 17.3538 15.5981 17.3538 15.3544 17.5975L12.1423 20.8096L11.1113 19.7786L10.6635 23.097L13.9673 22.6345L13.0249 21.6921L16.2369 18.48ZM24.6931 17.5975C24.9368 17.3538 25.3319 17.3538 25.5756 17.5975L28.7875 20.8094L29.8183 19.7786L30.2661 23.097L26.9623 22.6345L27.9049 21.6919L24.6931 18.48C24.4494 18.2363 24.4494 17.8412 24.6931 17.5975ZM20.406 18.75C20.7507 18.75 21.0301 19.0294 21.0301 19.374V23.75H22.4247L20.3984 26.4151L18.3867 23.75H19.782V19.374C19.782 19.0294 20.0614 18.75 20.406 18.75Z" fill="white"/>
<path d="M9.18007 28.75C10.3965 28.75 11.3826 27.7639 11.3826 26.5475C11.3826 25.3311 10.3965 24.3449 9.18007 24.3449C7.96364 24.3449 6.97754 25.3311 6.97754 26.5475C6.97754 27.7639 7.96364 28.75 9.18007 28.75Z" fill="#54BAF9"/>
<path d="M20.4642 33.1551C21.6807 33.1551 22.6668 32.1689 22.6668 30.9525C22.6668 29.7361 21.6807 28.75 20.4642 28.75C19.2478 28.75 18.2617 29.7361 18.2617 30.9525C18.2617 32.1689 19.2478 33.1551 20.4642 33.1551Z" fill="#54BAF9"/>
<path d="M31.756 28.75C32.9724 28.75 33.9585 27.7639 33.9585 26.5475C33.9585 25.3311 32.9724 24.3449 31.756 24.3449C30.5395 24.3449 29.5534 25.3311 29.5534 26.5475C29.5534 27.7639 30.5395 28.75 31.756 28.75Z" fill="#54BAF9"/>
<path d="M20.4056 15.3592C22.8385 15.3592 24.8107 13.387 24.8107 10.9541C24.8107 8.52128 22.8385 6.54907 20.4056 6.54907C17.9728 6.54907 16.0006 8.52128 16.0006 10.9541C16.0006 13.387 17.9728 15.3592 20.4056 15.3592Z" fill="#54BAF9"/>
</svg>
