<svg width="20" height="20" viewBox="0 0 20 20" fill="none" xmlns="http://www.w3.org/2000/svg">
<path d="M2.5 5H4.16667H17.5" stroke="#EC5F59" stroke-width="2" stroke-linecap="round" stroke-linejoin="round"/>
<path d="M6.66669 5.00033V3.33366C6.66669 2.89163 6.84228 2.46771 7.15484 2.15515C7.4674 1.84259 7.89133 1.66699 8.33335 1.66699H11.6667C12.1087 1.66699 12.5326 1.84259 12.8452 2.15515C13.1578 2.46771 13.3334 2.89163 13.3334 3.33366V5.00033M15.8334 5.00033V16.667C15.8334 17.109 15.6578 17.5329 15.3452 17.8455C15.0326 18.1581 14.6087 18.3337 14.1667 18.3337H5.83335C5.39133 18.3337 4.9674 18.1581 4.65484 17.8455C4.34228 17.5329 4.16669 17.109 4.16669 16.667V5.00033H15.8334Z" stroke="#EC5F59" stroke-width="2" stroke-linecap="round" stroke-linejoin="round"/>
<path d="M8.33331 9.16699V14.167" stroke="#EC5F59" stroke-width="2" stroke-linecap="round" stroke-linejoin="round"/>
<path d="M11.6667 9.16699V14.167" stroke="#EC5F59" stroke-width="2" stroke-linecap="round" stroke-linejoin="round"/>
</svg>
