<svg width="65" height="64" viewBox="0 0 65 64" fill="none" xmlns="http://www.w3.org/2000/svg">
<path d="M46.3869 40.7807C45.3455 39.7393 43.6571 39.7393 42.6157 40.7807C41.5743 41.8221 41.5743 43.5106 42.6157 44.552L47.3967 49.333L42.6157 54.1141C41.5743 55.1555 41.5743 56.8439 42.6157 57.8853C43.6571 58.9267 45.3455 58.9267 46.3869 57.8853L51.168 53.1042L55.949 57.8853C56.9904 58.9267 58.6788 58.9267 59.7203 57.8853C60.7617 56.8439 60.7617 55.1555 59.7203 54.1141L54.9392 49.333L59.7203 44.552C60.7617 43.5106 60.7617 41.8221 59.7203 40.7807C58.6788 39.7393 56.9904 39.7393 55.949 40.7807L51.168 45.5618L46.3869 40.7807Z" fill="white"/>
<path fill-rule="evenodd" clip-rule="evenodd" d="M32.9839 37.769C33.7366 38.1525 34.3485 38.7644 34.732 39.517C35.1402 40.3182 35.1683 41.1933 35.168 42.0713C35.168 42.0922 35.168 42.1127 35.168 42.133C35.168 46.0647 35.1666 49.9963 35.168 53.928C35.1681 54.2457 35.1683 54.625 35.141 54.9592C35.1093 55.3465 35.0281 55.9011 34.732 56.4823C34.3485 57.2349 33.7366 57.8469 32.9839 58.2304C32.4028 58.5265 31.8481 58.6077 31.4609 58.6393C31.1267 58.6666 30.7473 58.6665 30.4297 58.6664C22.9218 58.6636 15.414 58.6636 7.90614 58.6664C7.58811 58.6665 7.20793 58.6666 6.87293 58.6391C6.48434 58.6073 5.92858 58.5255 5.3465 58.2279C4.5929 57.8426 3.97937 57.2263 3.59753 56.4709C3.3034 55.889 3.22363 55.3347 3.19331 54.9453C3.16727 54.6106 3.16915 54.2315 3.17071 53.9156C3.18446 51.1442 3.10184 48.1739 4.18293 45.5639C5.53618 42.2969 8.13183 39.7012 11.3989 38.3479C12.7581 37.7849 14.1935 37.5514 15.8168 37.4407C17.3955 37.333 19.3353 37.333 21.7399 37.333C24.6365 37.333 27.5331 37.3341 30.4297 37.333C31.3077 37.3327 32.1828 37.3608 32.9839 37.769Z" fill="white"/>
<path fill-rule="evenodd" clip-rule="evenodd" d="M39.3628 7.77446C39.9154 6.4093 41.4701 5.7506 42.8352 6.3032C47.7167 8.27917 51.168 13.0665 51.168 18.6663C51.168 24.2662 47.7167 29.0535 42.8352 31.0295C41.4701 31.5821 39.9154 30.9234 39.3628 29.5582C38.8102 28.1931 39.4689 26.6384 40.8341 26.0858C43.7708 24.8971 45.8347 22.0195 45.8347 18.6663C45.8347 15.3132 43.7708 12.4356 40.8341 11.2469C39.4689 10.6943 38.8102 9.13961 39.3628 7.77446Z" fill="white"/>
<path fill-rule="evenodd" clip-rule="evenodd" d="M12.5013 18.6663C12.5013 11.3025 18.4709 5.33301 25.8347 5.33301C33.1984 5.33301 39.168 11.3025 39.168 18.6663C39.168 26.0301 33.1984 31.9997 25.8347 31.9997C18.4709 31.9997 12.5013 26.0301 12.5013 18.6663Z" fill="white"/>
</svg>