<svg width="40" height="40" viewBox="0 0 40 40" fill="none" xmlns="http://www.w3.org/2000/svg">
<path fill-rule="evenodd" clip-rule="evenodd" d="M20 11C18.3432 11 17 12.3432 17 14C17 15.6569 18.3431 17 20 17C21.6569 17 23 15.6569 23 14C23 12.3432 21.6568 11 20 11ZM15 14C15 11.2386 17.2386 9 20 9C22.7614 9 25 11.2386 25 14C25 16.7615 22.7614 19 20 19C17.2386 19 15 16.7615 15 14Z" fill="white"/>
<path fill-rule="evenodd" clip-rule="evenodd" d="M19.991 23.0008C17.8773 22.972 15.8524 23.7141 14.3588 25.0409C12.8681 26.3652 12.0318 28.1576 11.9999 30.0172C11.9904 30.5694 11.5351 31.0093 10.9828 30.9999C10.4306 30.9904 9.99068 30.535 10.0002 29.9828C10.0422 27.5341 11.1443 25.2213 13.0306 23.5457C14.9106 21.8756 17.4195 20.9689 20.0047 21.0008C21.2839 20.985 22.5557 21.1993 23.7487 21.633C24.946 22.0683 26.0432 22.7172 26.9758 23.5466C27.9087 24.3761 28.6592 25.3705 29.18 26.4757C29.7009 27.5812 29.9805 28.7736 29.9999 29.984C30.0087 30.5362 29.5682 30.991 29.016 30.9999C28.4638 31.0087 28.009 30.5682 28.0001 30.016C27.9854 29.0939 27.7725 28.1808 27.3707 27.3282C26.9689 26.4753 26.3846 25.6972 25.6468 25.0411C24.9088 24.3848 24.0323 23.8642 23.0653 23.5126C22.0983 23.161 21.0627 22.9866 20.0183 23.0008L20.0047 22.0009L19.991 23.0008Z" fill="white"/>
</svg>
