<svg width="40" height="40" viewBox="0 0 40 40" fill="none" xmlns="http://www.w3.org/2000/svg">
<rect width="40" height="40" rx="20" fill="none"/>
<path d="M17.4993 25.418H22.4993M15.4993 11.668H24.4993C24.9661 11.668 25.1994 11.668 25.3777 11.7588C25.5345 11.8387 25.662 11.9662 25.7419 12.123C25.8327 12.3012 25.8327 12.5346 25.8327 13.0013V14.7301C25.8327 15.1377 25.8327 15.3415 25.7866 15.5334C25.7458 15.7034 25.6785 15.866 25.5871 16.0151C25.484 16.1833 25.3399 16.3274 25.0516 16.6157L22.6088 19.0585C22.2788 19.3885 22.1138 19.5535 22.052 19.7438C21.9976 19.9112 21.9976 20.0914 22.052 20.2588C22.1138 20.4491 22.2788 20.6141 22.6088 20.9441L25.0516 23.3869C25.3399 23.6752 25.484 23.8193 25.5871 23.9875C25.6785 24.1366 25.7458 24.2992 25.7866 24.4692C25.8327 24.6611 25.8327 24.8649 25.8327 25.2725V27.0013C25.8327 27.468 25.8327 27.7014 25.7419 27.8796C25.662 28.0364 25.5345 28.1639 25.3777 28.2438C25.1994 28.3346 24.9661 28.3346 24.4993 28.3346H15.4993C15.0326 28.3346 14.7993 28.3346 14.621 28.2438C14.4642 28.1639 14.3367 28.0364 14.2568 27.8796C14.166 27.7014 14.166 27.468 14.166 27.0013V25.2725C14.166 24.8649 14.166 24.6611 14.2121 24.4692C14.2529 24.2992 14.3202 24.1366 14.4116 23.9875C14.5147 23.8193 14.6588 23.6752 14.9471 23.3869L17.3899 20.9441C17.7199 20.6141 17.8849 20.4491 17.9467 20.2588C18.0011 20.0914 18.0011 19.9112 17.9467 19.7438C17.8849 19.5535 17.7199 19.3885 17.3899 19.0585L14.9471 16.6157C14.6588 16.3274 14.5147 16.1833 14.4116 16.0151C14.3202 15.866 14.2529 15.7034 14.2121 15.5334C14.166 15.3415 14.166 15.1377 14.166 14.7301V13.0013C14.166 12.5346 14.166 12.3012 14.2568 12.123C14.3367 11.9662 14.4642 11.8387 14.621 11.7588C14.7993 11.668 15.0326 11.668 15.4993 11.668Z" stroke="#F19C38" stroke-width="1.4" stroke-linecap="round" stroke-linejoin="round"/>
</svg>
