<svg width="24" height="16" viewBox="0 0 24 16" fill="none" xmlns="http://www.w3.org/2000/svg">
<path d="M12.0321 5.472C13.5652 5.472 14.8081 4.24705 14.8081 2.736C14.8081 1.22495 13.5652 0 12.0321 0C10.499 0 9.2561 1.22495 9.2561 2.736C9.2561 4.24705 10.499 5.472 12.0321 5.472Z" fill="#54BAF9"/>
<path d="M17.5999 13.0799C17.5972 12.6321 17.5408 12.1863 17.4319 11.7519C17.4334 11.7253 17.4334 11.6985 17.4319 11.6719C17.4365 11.6454 17.4365 11.6184 17.4319 11.5919C17.362 11.3404 17.2738 11.0944 17.1679 10.8559C17.1679 10.8079 17.1279 10.7679 17.1119 10.7279C17.0077 10.5009 16.8874 10.2817 16.7519 10.0719L16.7039 9.9999C16.5598 9.78514 16.3994 9.58187 16.2239 9.3919L16.1119 9.2639C15.9361 9.07631 15.7462 8.90247 15.5439 8.7439L15.4319 8.6559C15.2285 8.5025 15.0147 8.3635 14.7919 8.2399H14.7519C14.5141 8.11437 14.2682 8.00479 14.0159 7.9119L13.8639 7.8639C13.6033 7.77496 13.3357 7.70806 13.0639 7.6639H12.9119C12.6126 7.59281 12.3072 7.54996 11.9999 7.5359C11.713 7.53534 11.4266 7.55942 11.1439 7.6079H10.9919C10.7201 7.65206 10.4525 7.71896 10.1919 7.8079L10.0399 7.8559C9.79015 7.94881 9.54694 8.05839 9.31189 8.1839C9.08544 8.30556 8.86878 8.44465 8.66389 8.5999L8.55189 8.6879C8.35132 8.84855 8.16158 9.02226 7.98389 9.2079L7.87189 9.3279C7.70067 9.52424 7.54042 9.72988 7.39189 9.9439C7.38925 9.96783 7.38925 9.99197 7.39189 10.0159C7.25636 10.2257 7.13605 10.4449 7.03189 10.6719C7.00584 10.712 6.98437 10.755 6.96789 10.7999C6.86201 11.0384 6.77377 11.2844 6.70389 11.5359V11.6159C6.70235 11.6425 6.70235 11.6693 6.70389 11.6959C6.59499 12.1303 6.53859 12.5761 6.53589 13.0239V15.7519H17.5999V13.0799Z" fill="#54BAF9"/>
<path d="M19.296 5.33618C20.458 5.33618 21.4 4.39418 21.4 3.23218C21.4 2.07017 20.458 1.12817 19.296 1.12817C18.134 1.12817 17.192 2.07017 17.192 3.23218C17.192 4.39418 18.134 5.33618 19.296 5.33618Z" fill="#54BAF9"/>
<path d="M19.144 7.53622C18.3948 7.53591 17.6557 7.70838 16.984 8.04022C17.6553 8.69674 18.1886 9.48076 18.5527 10.3463C18.9167 11.2118 19.1042 12.1413 19.104 13.0802V13.8802H24V12.2802C23.9927 11.6499 23.8613 11.0271 23.6133 10.4476C23.3653 9.86798 23.0056 9.34294 22.5546 8.90241C22.1037 8.46188 21.5704 8.11449 20.9852 7.88008C20.4 7.64567 19.7744 7.52882 19.144 7.53622Z" fill="#54BAF9"/>
<path d="M4.70398 5.33618C5.86599 5.33618 6.80798 4.39418 6.80798 3.23218C6.80798 2.07017 5.86599 1.12817 4.70398 1.12817C3.54197 1.12817 2.59998 2.07017 2.59998 3.23218C2.59998 4.39418 3.54197 5.33618 4.70398 5.33618Z" fill="#54BAF9"/>
<path d="M4.856 7.53622C5.60518 7.53591 6.34433 7.70838 7.01601 8.04022C6.34473 8.69674 5.81141 9.48076 5.44735 10.3463C5.08329 11.2118 4.89584 12.1413 4.896 13.0802V13.8802H0V12.2802C0.00731127 11.6499 0.13872 11.0271 0.386722 10.4476C0.634724 9.86798 0.994461 9.34294 1.44539 8.90241C1.89632 8.46188 2.42961 8.11449 3.01481 7.88008C3.60001 7.64567 4.22565 7.52882 4.856 7.53622Z" fill="#54BAF9"/>
</svg>
