<svg width="40" height="40" viewBox="0 0 40 40" fill="none" xmlns="http://www.w3.org/2000/svg">
<path d="M20.0321 17.472C21.5652 17.472 22.8081 16.2471 22.8081 14.736C22.8081 13.2249 21.5652 12 20.0321 12C18.499 12 17.2561 13.2249 17.2561 14.736C17.2561 16.2471 18.499 17.472 20.0321 17.472Z" fill="#54BAF9"/>
<path d="M25.5999 25.0799C25.5972 24.6321 25.5408 24.1863 25.4319 23.7519C25.4334 23.7253 25.4334 23.6985 25.4319 23.6719C25.4365 23.6454 25.4365 23.6184 25.4319 23.5919C25.362 23.3404 25.2738 23.0944 25.1679 22.8559C25.1679 22.8079 25.1279 22.7679 25.1119 22.7279C25.0077 22.5009 24.8874 22.2817 24.7519 22.0719L24.7039 21.9999C24.5598 21.7851 24.3994 21.5819 24.2239 21.3919L24.1119 21.2639C23.9361 21.0763 23.7462 20.9025 23.5439 20.7439L23.4319 20.6559C23.2285 20.5025 23.0147 20.3635 22.7919 20.2399H22.7519C22.5141 20.1144 22.2682 20.0048 22.0159 19.9119L21.8639 19.8639C21.6033 19.775 21.3357 19.7081 21.0639 19.6639H20.9119C20.6126 19.5928 20.3072 19.55 19.9999 19.5359C19.713 19.5353 19.4266 19.5594 19.1439 19.6079H18.9919C18.7201 19.6521 18.4525 19.719 18.1919 19.8079L18.0399 19.8559C17.7902 19.9488 17.5469 20.0584 17.3119 20.1839C17.0854 20.3056 16.8688 20.4446 16.6639 20.5999L16.5519 20.6879C16.3513 20.8485 16.1616 21.0223 15.9839 21.2079L15.8719 21.3279C15.7007 21.5242 15.5404 21.7299 15.3919 21.9439C15.3892 21.9678 15.3892 21.992 15.3919 22.0159C15.2564 22.2257 15.1361 22.4449 15.0319 22.6719C15.0058 22.712 14.9844 22.755 14.9679 22.7999C14.862 23.0384 14.7738 23.2844 14.7039 23.5359V23.6159C14.7024 23.6425 14.7024 23.6693 14.7039 23.6959C14.595 24.1303 14.5386 24.5761 14.5359 25.0239V27.7519H25.5999V25.0799Z" fill="#54BAF9"/>
<path d="M27.2959 17.3362C28.4579 17.3362 29.3999 16.3942 29.3999 15.2322C29.3999 14.0702 28.4579 13.1282 27.2959 13.1282C26.1339 13.1282 25.1919 14.0702 25.1919 15.2322C25.1919 16.3942 26.1339 17.3362 27.2959 17.3362Z" fill="#54BAF9"/>
<path d="M27.1439 19.5362C26.3947 19.5359 25.6556 19.7084 24.9839 20.0402C25.6552 20.6967 26.1885 21.4808 26.5525 22.3463C26.9166 23.2118 27.1041 24.1413 27.1039 25.0802V25.8802H31.9999V24.2802C31.9926 23.6499 31.8612 23.0271 31.6132 22.4476C31.3652 21.868 31.0054 21.3429 30.5545 20.9024C30.1036 20.4619 29.5703 20.1145 28.9851 19.8801C28.3999 19.6457 27.7742 19.5288 27.1439 19.5362Z" fill="#54BAF9"/>
<path d="M12.7041 17.3362C13.8661 17.3362 14.8081 16.3942 14.8081 15.2322C14.8081 14.0702 13.8661 13.1282 12.7041 13.1282C11.5421 13.1282 10.6001 14.0702 10.6001 15.2322C10.6001 16.3942 11.5421 17.3362 12.7041 17.3362Z" fill="#54BAF9"/>
<path d="M12.856 19.5362C13.6052 19.5359 14.3443 19.7084 15.016 20.0402C14.3447 20.6967 13.8114 21.4808 13.4473 22.3463C13.0833 23.2118 12.8958 24.1413 12.896 25.0802V25.8802H8V24.2802C8.00731 23.6499 8.13872 23.0271 8.38672 22.4476C8.63472 21.868 8.99446 21.3429 9.44539 20.9024C9.89632 20.4619 10.4296 20.1145 11.0148 19.8801C11.6 19.6457 12.2256 19.5288 12.856 19.5362Z" fill="#54BAF9"/>
</svg>
